<svg width="164" height="32" viewBox="0 0 164 32" fill="none" xmlns="http://www.w3.org/2000/svg">
<path d="M26.9818 15.6317C26.9818 14.089 26.1337 12.7291 24.8835 12.0053V7.80856C26.1337 7.08473 26.9818 5.72481 26.9818 4.18211C26.9818 1.88634 25.1028 0 22.7997 0C20.4966 0 18.603 1.87903 18.603 4.18211C18.603 4.58424 18.6542 4.97174 18.7638 5.33731L14.7426 9.51942C14.4209 9.439 14.0846 9.39513 13.7336 9.39513C13.3827 9.39513 13.0463 9.439 12.7246 9.51942L8.718 5.35193C8.82767 4.97905 8.87885 4.58424 8.87885 4.18211C8.87885 1.88634 6.99982 0 4.68211 0C2.3644 0 0.5 1.87903 0.5 4.18211C0.5 5.72481 1.34812 7.08473 2.59837 7.80856V12.0053C1.34812 12.7291 0.5 14.089 0.5 15.6317C0.5 17.1744 1.34812 18.5344 2.59837 19.2509V23.4476C1.34812 24.1714 0.5 25.5314 0.5 27.0741C0.5 29.3845 2.37903 31.2708 4.69673 31.2708C7.01444 31.2708 8.89347 29.3918 8.89347 27.0741C8.89347 25.5314 8.04535 24.1714 6.7951 23.4476V19.2509C8.04535 18.5417 8.89347 17.1818 8.89347 15.6317C8.89347 14.0817 8.04535 12.7291 6.7951 12.0053V9.38051L9.72697 12.4294C9.6173 12.7949 9.56612 13.1824 9.56612 13.5846C9.56612 15.8949 11.4451 17.7667 13.7482 17.7667C16.0513 17.7667 17.945 15.8949 17.945 13.5846C17.945 13.1824 17.8938 12.7949 17.7841 12.4294L20.716 9.38051V12.0126C19.4657 12.7218 18.6176 14.0817 18.6176 15.6317C18.6176 17.1818 19.4657 18.5344 20.716 19.2363V23.4549C19.4657 24.1641 18.6176 25.524 18.6176 27.0741C18.6176 29.3845 20.4966 31.2708 22.8143 31.2708C25.1321 31.2708 26.9965 29.3918 26.9965 27.0741C26.9965 25.5314 26.1483 24.1714 24.8981 23.4476V19.2509C26.1483 18.5417 26.9965 17.1818 26.9965 15.6317H26.9818ZM7.08756 25.6337C7.16798 25.7653 7.24841 25.9189 7.29959 26.0797C7.35077 26.2259 7.40926 26.3649 7.43119 26.5111C7.43119 26.5549 7.44582 26.6061 7.46044 26.6573C7.47506 26.7889 7.48968 26.9278 7.48968 27.0741C7.48968 28.6168 6.23944 29.867 4.69673 29.867C3.15403 29.867 1.90379 28.6168 1.90379 27.0741C1.90379 26.9278 1.91841 26.7889 1.93303 26.6573C1.94765 26.6061 1.96228 26.5476 1.96228 26.5111C1.99152 26.3649 2.0427 26.2259 2.09388 26.0797C2.14506 25.9189 2.22549 25.7726 2.30591 25.6337C2.38634 25.4875 2.49601 25.3486 2.59837 25.2316C2.92007 24.8587 3.33682 24.5882 3.79743 24.4273C3.89248 24.3981 4.00215 24.3762 4.08989 24.3469C4.27999 24.303 4.49202 24.2811 4.69673 24.2811C4.90145 24.2811 5.11348 24.3104 5.30358 24.3469C5.39863 24.3762 5.5083 24.3981 5.59603 24.4273C6.05665 24.5882 6.4734 24.8587 6.7951 25.2316C6.90477 25.3559 7.00713 25.4875 7.08756 25.6337ZM7.08756 14.1841C7.16798 14.3303 7.24841 14.4765 7.29959 14.6301C7.35077 14.7617 7.39463 14.9152 7.43119 15.0615V15.0761C7.44581 15.1273 7.44582 15.1857 7.46044 15.2369C7.47506 15.3612 7.48968 15.5074 7.48968 15.6391C7.48968 15.7853 7.47506 15.9242 7.46044 16.0558C7.44582 16.107 7.43119 16.1655 7.43119 16.202C7.38732 16.3483 7.35077 16.4945 7.29959 16.6334C7.24841 16.7943 7.16798 16.9259 7.08756 17.0794C7.00713 17.211 6.89746 17.3499 6.7951 17.4669C6.2833 18.0591 5.53023 18.4247 4.69673 18.4247C3.86324 18.4247 3.11016 18.0591 2.59837 17.4669C2.4887 17.3426 2.38634 17.211 2.30591 17.0794C2.22549 16.9332 2.14506 16.7943 2.09388 16.6334C2.0427 16.5018 1.98421 16.3483 1.96228 16.202C1.96228 16.1582 1.94765 16.107 1.93303 16.0558C1.91841 15.9242 1.90379 15.7853 1.90379 15.6391C1.90379 15.5074 1.91841 15.3685 1.93303 15.2369C1.94765 15.1857 1.94765 15.1273 1.96228 15.0761V15.0615C2.00615 14.9152 2.0427 14.769 2.09388 14.6301C2.14506 14.4839 2.22549 14.3376 2.30591 14.1841C2.38634 14.0525 2.49601 13.9136 2.59837 13.7966C2.92007 13.431 3.33682 13.1532 3.79743 12.9923C3.89248 12.9631 4.00215 12.9412 4.08989 12.9119C4.27999 12.868 4.49202 12.8461 4.69673 12.8461C4.90145 12.8461 5.11348 12.8753 5.30358 12.9119C5.39863 12.9412 5.5083 12.9631 5.59603 12.9923C6.05665 13.1532 6.4734 13.4383 6.7951 13.7966C6.90477 13.9209 7.00713 14.0525 7.08756 14.1841ZM7.48968 4.18211C7.48968 5.72481 6.23944 6.97506 4.69673 6.97506C3.86324 6.97506 3.11016 6.60949 2.59837 6.01727C2.15237 5.53472 1.89647 4.89132 1.89647 4.1748C1.89647 2.63941 3.14672 1.38916 4.68942 1.38916C6.23213 1.38916 7.41657 2.57361 7.48237 4.05051V4.1748L7.48968 4.18211ZM16.5339 13.7381L16.5192 13.7527V13.7966C16.5192 13.8405 16.5192 13.8916 16.5046 13.9282C16.5046 13.994 16.49 14.0744 16.4754 14.1402C16.4754 14.1841 16.4608 14.2206 16.4461 14.2645C16.4169 14.3449 16.3949 14.44 16.3657 14.5204C16.3365 14.6008 16.3145 14.6813 16.2707 14.7617C16.2268 14.8421 16.1902 14.9225 16.1464 14.9883C16.0952 15.0688 16.0513 15.1492 16.0001 15.215C15.9051 15.3393 15.81 15.4563 15.7077 15.5659C15.6273 15.6464 15.5468 15.7122 15.4664 15.778C15.3348 15.8876 15.1813 15.9827 15.035 16.0631C14.8742 16.1435 14.7133 16.2093 14.5379 16.2678C14.4282 16.3117 14.3112 16.3336 14.2015 16.3483C14.0553 16.3775 13.8945 16.3921 13.7336 16.3921C13.5728 16.3921 13.4119 16.3775 13.2657 16.3483C13.156 16.3336 13.039 16.3044 12.9294 16.2678C12.7977 16.224 12.6442 16.1728 12.5272 16.107C12.4176 16.0558 12.3152 15.9973 12.2201 15.9315C12.169 15.9023 12.1105 15.8657 12.0593 15.8072C11.9643 15.7414 11.8692 15.661 11.7742 15.5659C11.6645 15.4563 11.5694 15.3393 11.4817 15.215C11.4305 15.1492 11.372 15.0688 11.3355 14.9883C11.2916 14.9225 11.255 14.8421 11.2112 14.7617C11.1819 14.6813 11.1454 14.6008 11.1161 14.5204C11.0723 14.44 11.0503 14.3449 11.0357 14.2645C11.0211 14.2206 11.0065 14.1841 11.0065 14.1402C10.9918 14.0744 10.9772 13.994 10.9772 13.9282C10.9626 13.8843 10.9626 13.8331 10.9626 13.7966V13.7527C10.9626 13.7527 10.948 13.7381 10.948 13.7235V13.5919C10.948 12.0492 12.1982 10.7989 13.7336 10.7989C15.269 10.7989 16.5266 12.0492 16.5266 13.5919V13.7381H16.5339ZM20.0068 4.18211V4.05051L20.0214 4.03588C20.0872 2.57361 21.3082 1.40379 22.807 1.40379C24.3059 1.40379 25.5927 2.65403 25.5927 4.18942C25.5927 4.89863 25.3368 5.54934 24.8908 6.03189C24.379 6.62411 23.6405 6.98968 22.807 6.98968C21.2643 6.98968 20.0141 5.73944 20.0141 4.19673L20.0068 4.18211ZM25.5854 27.0741C25.5854 28.6168 24.3351 29.867 22.7997 29.867C21.2643 29.867 20.0068 28.6168 20.0068 27.0741C20.0068 26.3722 20.2627 25.7288 20.7087 25.2316C21.2205 24.6394 21.9735 24.2738 22.807 24.2738C23.6405 24.2738 24.379 24.6394 24.8908 25.2316C25.3368 25.7288 25.5927 26.3722 25.5927 27.0741H25.5854ZM22.7997 18.4174C21.9662 18.4174 21.2132 18.0518 20.7014 17.4596C20.2554 16.977 19.9995 16.3336 19.9995 15.6317C19.9995 14.9298 20.2554 14.2718 20.7014 13.7893C21.2132 13.1971 21.9662 12.8315 22.7997 12.8315C23.6332 12.8315 24.3717 13.1971 24.8835 13.7893C25.3295 14.2718 25.5854 14.9152 25.5854 15.6317C25.5854 16.3483 25.3295 16.977 24.8835 17.4596C24.3717 18.0518 23.6332 18.4174 22.7997 18.4174Z" fill="#DE7330"/>
<path d="M16.5337 13.5919V13.7381L16.519 13.7527V13.7966C16.519 13.8405 16.519 13.8917 16.5044 13.9282C16.5044 13.994 16.4898 14.0745 16.4752 14.1403C16.4752 14.1841 16.4605 14.2207 16.4459 14.2645C16.4167 14.345 16.3947 14.44 16.3655 14.5204C16.3362 14.6009 16.3143 14.6813 16.2704 14.7617C16.2266 14.8421 16.19 14.9226 16.1461 14.9884C16.095 15.0688 16.0511 15.1492 15.9999 15.215C15.9049 15.3393 15.8098 15.4563 15.7075 15.566C15.627 15.6464 15.5466 15.7122 15.4662 15.778C15.3346 15.8877 15.181 15.9827 15.0348 16.0631C14.874 16.1436 14.7131 16.2094 14.5376 16.2679C14.428 16.3117 14.311 16.3337 14.2013 16.3483C14.0551 16.3775 13.8942 16.3922 13.7334 16.3922C13.5725 16.3922 13.4117 16.3775 13.2655 16.3483C13.1558 16.3337 13.0388 16.3044 12.9291 16.2679C12.7975 16.224 12.644 16.1728 12.527 16.107C12.4173 16.0558 12.315 15.9973 12.2199 15.9315C12.1688 15.9023 12.1103 15.8657 12.0591 15.8072C11.964 15.7414 11.869 15.661 11.7739 15.566C11.6643 15.4563 11.5692 15.3393 11.4815 15.215C11.4303 15.1492 11.3718 15.0688 11.3353 14.9884C11.2914 14.9226 11.2548 14.8421 11.211 14.7617C11.1817 14.6813 11.1452 14.6009 11.1159 14.5204C11.072 14.44 11.0501 14.345 11.0355 14.2645C11.0209 14.2207 11.0062 14.1841 11.0062 14.1403C10.9916 14.0745 10.977 13.994 10.977 13.9282C10.9624 13.8844 10.9624 13.8332 10.9624 13.7966V13.7527C10.9624 13.7527 10.9478 13.7381 10.9478 13.7235V13.5919C10.9478 12.0492 12.198 10.799 13.7334 10.799C15.2688 10.799 16.5263 12.0492 16.5263 13.5919H16.5337Z" fill="#F5C246"/>
<path d="M7.48969 4.05788V4.18217C7.48969 5.72487 6.23945 6.97512 4.69674 6.97512C3.86325 6.97512 3.11017 6.60955 2.59838 6.01733C2.15238 5.53478 1.89648 4.89137 1.89648 4.17486C1.89648 2.63947 3.14673 1.38922 4.68943 1.38922C6.23214 1.38922 7.41658 2.57367 7.48238 4.05057L7.48969 4.05788Z" fill="#F5C246"/>
<path fill-rule="evenodd" clip-rule="evenodd" d="M25.5854 4.18215C25.5854 4.89135 25.3295 5.54207 24.8835 6.02462C24.3717 6.61684 23.6333 6.98241 22.7998 6.98241C21.2571 6.98241 20.0068 5.73216 20.0068 4.18946V4.05785L20.0215 4.04323C20.0873 2.58095 21.3083 1.41113 22.8071 1.41113C24.3059 1.41113 25.5927 2.66138 25.5927 4.19677L25.5854 4.18215Z" fill="#F5C246"/>
<path fill-rule="evenodd" clip-rule="evenodd" d="M25.5854 27.0741C25.5854 28.6168 24.3352 29.8671 22.7998 29.8671C21.2644 29.8671 20.0068 28.6168 20.0068 27.0741C20.0068 26.3722 20.2627 25.7288 20.7087 25.2317C21.2205 24.6394 21.9736 24.2739 22.8071 24.2739C23.6406 24.2739 24.379 24.6394 24.8908 25.2317C25.3368 25.7288 25.5927 26.3722 25.5927 27.0741H25.5854Z" fill="#F5C246"/>
<path fill-rule="evenodd" clip-rule="evenodd" d="M25.5854 15.6317C25.5854 16.3336 25.3295 16.977 24.8835 17.4596C24.3717 18.0518 23.6333 18.4174 22.7998 18.4174C21.9663 18.4174 21.2132 18.0518 20.7014 17.4596C20.2554 16.977 19.9995 16.3336 19.9995 15.6317C19.9995 14.9298 20.2554 14.2718 20.7014 13.7893C21.2132 13.1971 21.9663 12.8315 22.7998 12.8315C23.6333 12.8315 24.3717 13.1971 24.8835 13.7893C25.3295 14.2718 25.5854 14.9152 25.5854 15.6317Z" fill="#F5C246"/>
<path fill-rule="evenodd" clip-rule="evenodd" d="M7.48971 27.074C7.48971 28.6167 6.23946 29.867 4.69676 29.867C3.15406 29.867 1.90381 28.6167 1.90381 27.074C1.90381 26.9278 1.91843 26.7889 1.93305 26.6573C1.94768 26.6061 1.9623 26.5476 1.9623 26.511C2.00617 26.3648 2.04272 26.2186 2.0939 26.0797C2.14508 25.9188 2.22551 25.7726 2.30593 25.6337C2.38636 25.4874 2.49603 25.3485 2.59839 25.2315C2.92009 24.8587 3.33684 24.5881 3.79746 24.4273C3.89251 24.398 4.00218 24.3761 4.08991 24.3469C4.28001 24.303 4.49204 24.2811 4.69676 24.2811C4.90148 24.2811 5.11351 24.3103 5.3036 24.3469C5.39865 24.3761 5.50832 24.398 5.59606 24.4273C6.05667 24.5881 6.47342 24.8587 6.79512 25.2315C6.9048 25.3558 7.00716 25.4874 7.08758 25.6337C7.16801 25.7653 7.24843 25.9188 7.29961 26.0797C7.35079 26.2113 7.39466 26.3648 7.43121 26.511C7.43121 26.5549 7.44584 26.6061 7.46046 26.6573C7.47508 26.7889 7.48971 26.9278 7.48971 27.074Z" fill="#F5C246"/>
<path fill-rule="evenodd" clip-rule="evenodd" d="M7.48971 15.6318C7.48971 15.778 7.47508 15.9169 7.46046 16.0485C7.44584 16.0997 7.43121 16.1582 7.43121 16.1947C7.38735 16.341 7.35079 16.4872 7.29961 16.6261C7.24843 16.787 7.16801 16.9186 7.08758 17.0721C7.00716 17.2037 6.89748 17.3426 6.79512 17.4596C6.28333 18.0518 5.53026 18.4174 4.69676 18.4174C3.86326 18.4174 3.11019 18.0518 2.59839 17.4596C2.48872 17.3353 2.38636 17.2037 2.30593 17.0721C2.22551 16.9259 2.14508 16.787 2.0939 16.6261C2.04272 16.4945 1.99886 16.341 1.9623 16.1947C1.9623 16.1509 1.94768 16.0997 1.93305 16.0485C1.91843 15.9169 1.90381 15.778 1.90381 15.6318C1.90381 15.5001 1.91843 15.3612 1.93305 15.2296C1.94768 15.1784 1.94768 15.12 1.9623 15.0688V15.0542C2.00617 14.9079 2.04272 14.7617 2.0939 14.6228C2.14508 14.4766 2.22551 14.3303 2.30593 14.1768C2.38636 14.0452 2.49603 13.9063 2.59839 13.7893C2.92009 13.4237 3.33684 13.1459 3.79746 12.985C3.89251 12.9558 4.00218 12.9339 4.08991 12.9046C4.28001 12.8607 4.49204 12.8388 4.69676 12.8388C4.90148 12.8388 5.11351 12.8681 5.3036 12.9046C5.39865 12.9339 5.50832 12.9558 5.59606 12.985C6.05667 13.1459 6.47342 13.431 6.79512 13.7893C6.9048 13.9136 7.00716 14.0452 7.08758 14.1768C7.16801 14.323 7.24843 14.4692 7.29961 14.6228C7.35079 14.7544 7.39466 14.9079 7.43121 15.0542V15.0688C7.44584 15.12 7.44584 15.1784 7.46046 15.2296C7.47508 15.3539 7.48971 15.5001 7.48971 15.6318Z" fill="#F5C246"/>
<path d="M49.2596 24.7198H47.6803C47.6803 22.5922 46.0499 21.4077 44.5364 21.203L44.7484 19.6384C47.4025 19.9967 49.2596 22.0877 49.2596 24.7198ZM41.3121 20.0478C39.4184 18.9073 37.9708 17.1818 37.0276 14.9226L38.4826 14.3157C39.3088 16.2898 40.5005 17.7228 42.1237 18.6952L41.3121 20.0478ZM36.0771 11.7567C35.7116 9.9435 35.5288 7.90362 35.5142 5.33002H37.0934C37.108 7.79395 37.2762 9.73878 37.6198 11.4423L36.0771 11.7567Z" fill="#DE7330"/>
<path d="M49.5081 30.8321H30.7544C30.2938 30.8321 29.9209 30.4593 29.9209 29.9987V1.68897C29.9209 1.22835 30.2938 0.855469 30.7544 0.855469H33.2768C33.7374 0.855469 34.1103 1.22835 34.1103 1.68897V26.6427H49.5081C49.9687 26.6427 50.3416 27.0156 50.3416 27.4762V29.9987C50.3416 30.4593 49.9687 30.8321 49.5081 30.8321Z" fill="#DE7330"/>
<path d="M40.1352 9.27814C40.7692 9.27814 41.2831 8.76421 41.2831 8.13025C41.2831 7.49629 40.7692 6.98236 40.1352 6.98236C39.5012 6.98236 38.9873 7.49629 38.9873 8.13025C38.9873 8.76421 39.5012 9.27814 40.1352 9.27814Z" fill="#F5C246"/>
<path d="M47.0517 18.6733C47.6857 18.6733 48.1996 18.1594 48.1996 17.5254C48.1996 16.8914 47.6857 16.3775 47.0517 16.3775C46.4177 16.3775 45.9038 16.8914 45.9038 17.5254C45.9038 18.1594 46.4177 18.6733 47.0517 18.6733Z" fill="#F5C246"/>
<path d="M42.3867 15.003C43.0206 15.003 43.5345 14.4891 43.5345 13.8551C43.5345 13.2211 43.0206 12.7072 42.3867 12.7072C41.7527 12.7072 41.2388 13.2211 41.2388 13.8551C41.2388 14.4891 41.7527 15.003 42.3867 15.003Z" fill="#F5C246"/>
<path fill-rule="evenodd" clip-rule="evenodd" d="M37.4445 19.112C37.5688 19.112 37.6785 19.1924 37.715 19.3094L37.8686 19.7627C37.9271 19.9309 38.0587 20.0698 38.2341 20.1283L38.6874 20.2818C38.841 20.333 38.9214 20.4939 38.8702 20.6474C38.841 20.7351 38.7752 20.8009 38.6874 20.8302L38.2341 20.9837C38.066 21.0422 37.9271 21.1738 37.8686 21.3493L37.715 21.8026C37.6639 21.9561 37.503 22.0366 37.3495 21.9854C37.2617 21.9561 37.1959 21.8903 37.1667 21.8026L37.0131 21.3493C36.9546 21.1811 36.823 21.0422 36.6476 20.9837L36.1943 20.8302C36.0407 20.779 35.9603 20.6181 36.0115 20.4646C36.0407 20.3769 36.1065 20.3111 36.1943 20.2818L36.6476 20.1283C36.8157 20.0698 36.9546 19.9382 37.0131 19.7627L37.1667 19.3094C37.2032 19.1924 37.3129 19.112 37.4372 19.112H37.4445Z" fill="#F5C246"/>
<path fill-rule="evenodd" clip-rule="evenodd" d="M44.8288 22.6068C44.9531 22.6068 45.0628 22.6872 45.0993 22.8042L45.2529 23.2575C45.3113 23.4257 45.4429 23.5646 45.6184 23.6231L46.0717 23.7766C46.2253 23.8278 46.3057 23.9887 46.2545 24.1422C46.2253 24.2299 46.1595 24.2957 46.0717 24.325L45.6184 24.4785C45.4503 24.537 45.3113 24.6686 45.2529 24.8441L45.0993 25.2974C45.0481 25.4509 44.8873 25.5314 44.7337 25.4802C44.646 25.4509 44.5802 25.3851 44.551 25.2974L44.3974 24.8441C44.3389 24.6759 44.2073 24.537 44.0319 24.4785L43.5785 24.325C43.425 24.2738 43.3446 24.113 43.3958 23.9594C43.425 23.8717 43.4908 23.8059 43.5785 23.7766L44.0319 23.6231C44.2 23.5646 44.3389 23.433 44.3974 23.2575L44.551 22.8042C44.5875 22.6872 44.6972 22.6068 44.8215 22.6068H44.8288Z" fill="#F5C246"/>
<path fill-rule="evenodd" clip-rule="evenodd" d="M40.9538 21.415C41.0781 21.415 41.1878 21.4955 41.2243 21.6124L41.3779 22.0658C41.4363 22.2339 41.5679 22.3728 41.7434 22.4313L42.1967 22.5849C42.3503 22.636 42.4307 22.7969 42.3795 22.9504C42.3503 23.0382 42.2845 23.104 42.1967 23.1332L41.7434 23.2868C41.5753 23.3452 41.4363 23.4768 41.3779 23.6523L41.2243 24.1056C41.1731 24.2592 41.0123 24.3396 40.8587 24.2884C40.771 24.2592 40.7052 24.1934 40.676 24.1056L40.5224 23.6523C40.4639 23.4842 40.3323 23.3452 40.1569 23.2868L39.7035 23.1332C39.55 23.082 39.4696 22.9212 39.5208 22.7676C39.55 22.6799 39.6158 22.6141 39.7035 22.5849L40.1569 22.4313C40.325 22.3728 40.4639 22.2412 40.5224 22.0658L40.676 21.6124C40.7125 21.4955 40.8222 21.415 40.9465 21.415H40.9538Z" fill="#F5C246"/>
<path d="M75.2662 4.14555C77.0063 5.02292 78.337 6.26585 79.2729 7.85974C80.2014 9.45362 80.6693 11.2961 80.6693 13.3871C80.6693 15.0688 80.3769 16.648 79.792 18.1469C79.207 19.6384 78.3662 20.8448 77.2622 21.766C76.1582 22.6872 74.8495 23.1478 73.336 23.1478C72.2685 23.1478 71.4131 22.9285 70.7551 22.4898C70.0971 22.0511 69.6803 21.4224 69.4975 20.6035C68.8907 21.415 68.1011 22.0584 67.136 22.5191C66.1709 22.9797 65.0815 23.2063 64.0067 23.1771C62.5517 23.1332 61.4038 22.6726 60.563 21.7806C59.6857 20.8521 59.2397 19.5726 59.2397 17.9568C59.2397 16.3409 59.554 14.9883 60.1901 13.6577C60.8262 12.327 61.7036 11.2595 62.8295 10.448C63.9555 9.6364 65.2204 9.23428 66.6388 9.23428C68.4008 9.23428 69.6072 9.84843 70.2579 11.0767L70.4041 10.2213C70.4773 9.78994 70.8501 9.48286 71.2888 9.48286H73.0655C73.6212 9.48286 74.0452 9.98004 73.9429 10.5284L72.6853 17.7667C72.6268 18.1542 72.5902 18.5124 72.5902 18.8414C72.5902 19.3313 72.6926 19.7042 72.8973 19.9455C73.102 20.194 73.453 20.311 73.9429 20.311C74.6813 20.311 75.2955 19.9601 75.7999 19.2655C76.3044 18.5709 76.6773 17.7009 76.9332 16.6553C77.1891 15.6098 77.3134 14.5716 77.3134 13.5261C77.3134 11.0475 76.553 9.13192 75.0396 7.772C73.5261 6.41208 71.3839 5.73212 68.6275 5.73212C66.2732 5.73212 64.1456 6.30241 62.2446 7.43567C60.3437 8.56894 58.8522 10.119 57.7774 12.0711C56.7026 14.0232 56.1689 16.202 56.1689 18.5928C56.1689 21.1299 56.922 23.082 58.4281 24.4566C59.9342 25.8238 62.0619 26.5111 64.8256 26.5111C66.4048 26.5111 67.8378 26.2844 69.1247 25.8311C69.6364 25.6483 70.1848 25.9481 70.3018 26.4745L70.5284 27.5127C70.6235 27.9441 70.3895 28.3901 69.9801 28.5363C68.2254 29.1724 66.3025 29.4868 64.2114 29.4868C61.9229 29.4868 59.9123 29.0554 58.1941 28.1854C56.476 27.3153 55.1453 26.0797 54.2021 24.4858C53.2589 22.8919 52.791 21.0348 52.791 18.9292C52.791 15.9242 53.4929 13.1897 54.8967 10.7331C56.3005 8.27648 58.2453 6.34628 60.7312 4.93518C63.2171 3.52408 66.0027 2.81488 69.0954 2.81488C71.4716 2.81488 73.5261 3.25356 75.2662 4.13824V4.14555ZM67.5893 19.3386C68.2034 18.9072 68.686 18.3369 69.0442 17.6204C69.4025 16.9039 69.578 16.1362 69.578 15.3173C69.578 14.4546 69.344 13.76 68.8688 13.2336C68.4008 12.6999 67.7428 12.4367 66.902 12.4367C66.1416 12.4367 65.4763 12.6633 64.906 13.1239C64.3357 13.5845 63.8897 14.1841 63.568 14.9225C63.2463 15.661 63.0928 16.436 63.0928 17.2549C63.0928 18.0737 63.2975 18.761 63.7069 19.2509C64.1164 19.7407 64.7305 19.9893 65.5494 19.9893C66.2878 19.9893 66.9605 19.7773 67.5746 19.3459L67.5893 19.3386Z" fill="#DE7330"/>
<path d="M87.9077 28.4925C86.4381 27.8637 85.2756 26.9644 84.4275 25.78C83.7987 24.9172 83.3966 23.9375 83.2211 22.8408C83.1115 22.1828 83.6452 21.5978 84.3105 21.5978H87.8273C88.3464 21.5978 88.7705 21.9634 88.9021 22.4679C89.0849 23.1479 89.4139 23.7108 89.911 24.1568C90.5983 24.7856 91.5488 25.1 92.7552 25.1C93.9616 25.1 94.9486 24.8075 95.6505 24.2153C96.3524 23.6231 96.7033 22.8554 96.7033 21.8976C96.7033 21.1226 96.4621 20.4792 95.9868 19.9747C95.5116 19.4702 94.912 19.0754 94.1955 18.7903C93.479 18.5051 92.492 18.1834 91.2417 17.8325C89.5382 17.328 88.149 16.8381 87.0815 16.3483C86.0141 15.8584 85.1002 15.12 84.3325 14.1256C83.5648 13.1313 83.1846 11.8079 83.1846 10.1555C83.1846 8.59821 83.5721 7.2456 84.3544 6.0904C85.1294 4.9352 86.2261 4.05053 87.6299 3.43637C89.0337 2.82221 90.6422 2.51514 92.4481 2.51514C95.1606 2.51514 97.3614 3.17316 99.0576 4.48921C100.425 5.55667 101.302 6.96046 101.675 8.70788C101.821 9.38053 101.28 10.002 100.593 10.002H96.9885C96.5205 10.002 96.0672 9.71685 95.9356 9.26354C95.7675 8.67863 95.4238 8.18146 94.912 7.7574C94.1955 7.16518 93.2523 6.87272 92.0679 6.87272C91.037 6.87272 90.2181 7.13593 89.604 7.66235C88.9898 8.18877 88.6827 8.95647 88.6827 9.95813C88.6827 10.66 88.9167 11.2449 89.3773 11.7055C89.8379 12.1735 90.4155 12.5464 91.1101 12.8315C91.7974 13.124 92.7698 13.453 94.0274 13.8258C95.7309 14.3303 97.1274 14.8275 98.2095 15.332C99.2916 15.8365 100.22 16.5895 100.995 17.5912C101.77 18.5929 102.165 19.9162 102.165 21.5467C102.165 22.9505 101.799 24.2592 101.076 25.4656C100.344 26.6719 99.2769 27.6297 97.8731 28.3463C96.4694 29.0628 94.7951 29.421 92.8648 29.421C91.0297 29.421 89.3846 29.1066 87.915 28.4779L87.9077 28.4925Z" fill="#F5C246"/>
<path d="M118.747 2.89532C119.354 2.89532 119.844 3.38519 119.844 3.99203V21.3419C119.844 23.9009 119.105 25.8896 117.621 27.308C116.137 28.7264 114.156 29.4357 111.67 29.4357C109.184 29.4357 107.129 28.7045 105.587 27.2495C104.293 26.0285 103.539 24.3981 103.327 22.3582C103.262 21.7148 103.781 21.1519 104.424 21.1519H107.502C108.043 21.1519 108.533 21.5247 108.621 22.0585C108.738 22.7604 108.979 23.338 109.352 23.784C109.864 24.4127 110.617 24.7271 111.589 24.7271C112.562 24.7271 113.271 24.4274 113.775 23.8205C114.28 23.221 114.528 22.3875 114.528 21.3346V3.99203C114.528 3.38519 115.018 2.89532 115.625 2.89532H118.74H118.747Z" fill="#F5C246"/>
<path d="M126.446 28.4925C124.976 27.8637 123.814 26.9644 122.966 25.78C122.337 24.9172 121.935 23.9375 121.759 22.8408C121.65 22.1828 122.183 21.5978 122.849 21.5978H126.365C126.884 21.5978 127.309 21.9634 127.44 22.4679C127.623 23.1479 127.952 23.7108 128.449 24.1568C129.136 24.7856 130.087 25.1 131.293 25.1C132.5 25.1 133.487 24.8075 134.189 24.2153C134.89 23.6231 135.241 22.8554 135.241 21.8976C135.241 21.1226 135 20.4792 134.525 19.9747C134.05 19.4702 133.45 19.0754 132.734 18.7903C132.017 18.5051 131.03 18.1834 129.78 17.8325C128.076 17.328 126.687 16.8381 125.62 16.3483C124.552 15.8584 123.638 15.12 122.871 14.1256C122.103 13.1313 121.723 11.8079 121.723 10.1555C121.723 8.59821 122.11 7.2456 122.892 6.0904C123.667 4.9352 124.764 4.05053 126.168 3.43637C127.572 2.82221 129.18 2.51514 130.986 2.51514C133.699 2.51514 135.899 3.17316 137.596 4.48921C138.963 5.55667 139.84 6.96046 140.213 8.70788C140.359 9.38053 139.818 10.002 139.131 10.002H135.527C135.059 10.002 134.605 9.71685 134.474 9.26354C134.306 8.67863 133.962 8.18146 133.45 7.7574C132.734 7.16518 131.79 6.87272 130.606 6.87272C129.575 6.87272 128.756 7.13593 128.142 7.66235C127.528 8.18877 127.221 8.95647 127.221 9.95813C127.221 10.66 127.455 11.2449 127.915 11.7055C128.376 12.1735 128.954 12.5464 129.648 12.8315C130.335 13.124 131.308 13.453 132.565 13.8258C134.269 14.3303 135.665 14.8275 136.748 15.332C137.83 15.8365 138.758 16.5895 139.533 17.5912C140.308 18.5929 140.703 19.9162 140.703 21.5467C140.703 22.9505 140.337 24.2592 139.614 25.4656C138.882 26.6719 137.815 27.6297 136.411 28.3463C135.007 29.0628 133.333 29.421 131.403 29.421C129.568 29.421 127.923 29.1066 126.453 28.4779L126.446 28.4925Z" fill="#F5C246"/>
<path d="M146.428 2.89532C147.035 2.89532 147.525 3.38519 147.525 3.99203V19.1632C147.525 20.9471 147.986 22.3071 148.921 23.2502C149.85 24.1934 151.151 24.6613 152.84 24.6613C154.529 24.6613 155.867 24.1934 156.796 23.2502C157.724 22.3071 158.192 20.9471 158.192 19.1632V3.99203C158.192 3.38519 158.682 2.89532 159.289 2.89532H162.404C163.01 2.89532 163.5 3.38519 163.5 3.99203V19.1193C163.5 21.3566 163.018 23.2429 162.053 24.7856C161.088 26.3283 159.793 27.4908 158.178 28.2658C156.562 29.0408 154.756 29.4357 152.775 29.4357C150.793 29.4357 149.038 29.0482 147.445 28.2658C145.851 27.4908 144.586 26.3283 143.657 24.7856C142.729 23.2429 142.261 21.3566 142.261 19.1193V3.99203C142.261 3.38519 142.751 2.89532 143.357 2.89532H146.436H146.428Z" fill="#F5C246"/>
</svg>
