<svg width="25" height="26" viewBox="0 0 25 26" fill="none" xmlns="http://www.w3.org/2000/svg">
<path d="M1.25 10.8125C1.25 9.94956 1.94956 9.25 2.8125 9.25C3.67544 9.25 4.375 9.94956 4.375 10.8125V20.1875C4.375 21.0504 3.67544 21.75 2.8125 21.75C1.94956 21.75 1.25 21.0504 1.25 20.1875V10.8125Z" fill="#DE7330"/>
<path d="M13.75 4.25V2.6252C13.75 2.29054 13.9247 1.96758 14.2437 1.86645C14.4823 1.79081 14.7364 1.75 15 1.75C16.3807 1.75 17.5 2.86929 17.5 4.25C17.5 5.4938 17.2729 6.68455 16.858 7.78308C16.6028 8.45853 17.0655 9.25 17.7875 9.25H20.9375C22.4908 9.25 23.7639 10.512 23.6203 12.0586C23.3789 14.6583 22.8058 17.1617 21.9438 19.5262C21.4418 20.9031 20.0904 21.75 18.6248 21.75H14.6353C14.0531 21.75 13.4789 21.6145 12.9582 21.3541L9.5418 19.6459C9.02109 19.3855 8.44691 19.25 7.86475 19.25H6.25V10.5H7.454C8.30954 10.5 9.02631 9.89685 9.46926 9.16491C10.0798 8.156 11.037 7.38029 12.1758 7.00286C12.7167 6.82355 13.2428 6.51994 13.4406 5.98545C13.6407 5.44484 13.75 4.86018 13.75 4.25Z" fill="#DE7330"/>
</svg>
