<svg width="24" height="24" viewBox="0 0 24 24" fill="none" xmlns="http://www.w3.org/2000/svg">
<path d="M7.49281 18.5069C7.06823 18.5069 6.67296 18.2704 6.51759 17.8753C6.18349 17.0256 6 16.1002 6 15.1319C6 13.3828 6.59874 11.7736 7.60244 10.498C7.75335 10.3062 7.97456 10.189 8.20214 10.1009C8.67496 9.91784 9.09254 9.58661 9.4141 9.17659C10.1873 8.19077 11.1617 7.37032 12.2755 6.77714C12.9977 6.39256 13.6243 5.82121 13.9281 5.06156C14.1408 4.53002 14.25 3.96279 14.25 3.39031V2.75693C14.25 2.34271 14.5858 2.00693 15 2.00693C16.2426 2.00693 17.25 3.01429 17.25 4.25693C17.25 5.40856 16.9904 6.49956 16.5266 7.47463C16.261 8.03297 16.6336 8.75693 17.2519 8.75693H20.3777C21.4044 8.75693 22.3233 9.45092 22.432 10.4718C22.4769 10.894 22.5 11.3228 22.5 11.7569C22.5 14.6045 21.5081 17.2205 19.851 19.2781C19.4634 19.7594 18.8642 20.0069 18.2462 20.0069H14.2302C13.7466 20.0069 13.2661 19.929 12.8072 19.776L9.69278 18.7379C9.23393 18.5849 8.75342 18.5069 8.26975 18.5069H7.49281Z" fill="#0F172A"/>
<path d="M2.33149 10.734C1.79481 12.0959 1.5 13.5795 1.5 15.1319C1.5 16.352 1.68208 17.5296 2.02056 18.6389C2.27991 19.4889 3.10418 20.0069 3.99289 20.0069H4.90067C5.3462 20.0069 5.62137 19.5087 5.42423 19.1091C4.83248 17.9098 4.5 16.5597 4.5 15.1319C4.5 13.4237 4.97588 11.8267 5.8023 10.4662C6.0473 10.0628 5.77404 9.50693 5.30212 9.50693H4.24936C3.41733 9.50693 2.63655 9.95996 2.33149 10.734Z" fill="#0F172A"/>
</svg>
