<svg width="20" height="20" viewBox="0 0 20 20" fill="none" xmlns="http://www.w3.org/2000/svg">
<path d="M10.0011 7.02276C9.15773 7.00737 8.34259 7.32107 7.73495 7.89489C7.12731 8.46871 6.77689 9.25568 6.76074 10.0828C6.77693 10.9099 7.12735 11.6968 7.73499 12.2706C8.34263 12.8444 9.15775 13.1581 10.0011 13.1427C10.8444 13.1578 11.6593 12.8441 12.2668 12.2703C12.8742 11.6965 13.2246 10.9097 13.2408 10.0828C13.2246 9.25582 12.8743 8.46898 12.2668 7.89519C11.6594 7.3214 10.8444 7.0076 10.0011 7.02276Z" fill="#C13584"/>
<path d="M15.0168 1.58228H4.98328C3.92686 1.58231 2.91372 1.99387 2.16671 2.72643C1.41971 3.459 1.00003 4.45255 1 5.48855L1 14.676C1 15.712 1.41967 16.7056 2.16668 17.4382C2.91369 18.1707 3.92685 18.5823 4.98328 18.5823H15.0168C15.5399 18.5823 16.0579 18.4812 16.5412 18.2849C17.0244 18.0886 17.4635 17.8009 17.8334 17.4381C18.2033 17.0754 18.4967 16.6448 18.6968 16.1709C18.897 15.6969 19 15.189 19 14.676V5.48855C19 4.45256 18.5804 3.45901 17.8334 2.72644C17.0864 1.99388 16.0733 1.58231 15.0168 1.58228ZM10.003 14.5034C8.78488 14.5254 7.60767 14.0723 6.73009 13.2435C5.85251 12.4148 5.34637 11.2782 5.32292 10.0837C5.34637 8.88913 5.85251 7.75258 6.73009 6.92383C7.60767 6.09507 8.78488 5.64193 10.003 5.66399C11.2211 5.64193 12.3983 6.09507 13.2759 6.92383C14.1535 7.75258 14.6596 8.88913 14.6831 10.0837C14.6596 11.2782 14.1535 12.4148 13.2759 13.2435C12.3983 14.0723 11.2211 14.5254 10.003 14.5034ZM15.22 6.3434C14.8921 6.34931 14.5752 6.22729 14.3389 6.00414C14.1027 5.78099 13.9665 5.47499 13.9602 5.15339C13.9728 4.83394 14.1111 4.53168 14.346 4.31003C14.5809 4.08838 14.8942 3.96457 15.2202 3.96457C15.5462 3.96457 15.8595 4.08838 16.0944 4.31003C16.3294 4.53168 16.4676 4.83394 16.4802 5.15339C16.4739 5.47503 16.3376 5.78105 16.1013 6.0042C15.865 6.22734 15.548 6.34935 15.22 6.3434Z" fill="#C13584"/>
</svg>
