<svg width="18" height="18" viewBox="0 0 18 18" fill="none" xmlns="http://www.w3.org/2000/svg">
<g clip-path="url(#clip0_146_506)">
<path d="M4.18998 5.79077H0.576455C0.416081 5.79077 0.286133 5.92078 0.286133 6.08109V17.6898C0.286133 17.8502 0.416081 17.9801 0.576455 17.9801H4.18998C4.35036 17.9801 4.48031 17.8502 4.48031 17.6898V6.08109C4.48031 5.92078 4.35036 5.79077 4.18998 5.79077Z" fill="#0E76A8"/>
<path d="M2.38448 0.0197754C1.06966 0.0197754 0 1.08828 0 2.40164C0 3.71558 1.06966 4.78449 2.38448 4.78449C3.69825 4.78449 4.76704 3.71552 4.76704 2.40164C4.7671 1.08828 3.69825 0.0197754 2.38448 0.0197754Z" fill="#0E76A8"/>
<path d="M13.3812 5.5022C11.9299 5.5022 10.857 6.1261 10.2063 6.83501V6.08104C10.2063 5.92073 10.0763 5.79072 9.91595 5.79072H6.45536C6.29499 5.79072 6.16504 5.92073 6.16504 6.08104V17.6898C6.16504 17.8501 6.29499 17.9801 6.45536 17.9801H10.061C10.2214 17.9801 10.3513 17.8501 10.3513 17.6898V11.9461C10.3513 10.0107 10.877 9.25665 12.2262 9.25665C13.6956 9.25665 13.8124 10.4654 13.8124 12.0457V17.6898C13.8124 17.8502 13.9423 17.9801 14.1027 17.9801H17.7097C17.87 17.9801 18 17.8502 18 17.6898V11.3222C18 8.44427 17.4512 5.5022 13.3812 5.5022Z" fill="#0E76A8"/>
</g>
<defs>
<clipPath id="clip0_146_506">
<rect width="18" height="18" fill="white"/>
</clipPath>
</defs>
</svg>
