<svg width="18" height="18" viewBox="0 0 18 18" fill="none" xmlns="http://www.w3.org/2000/svg">
<g clip-path="url(#clip0_226_1555)">
<path d="M16.5604 0H1.53804C0.717187 0 0 0.590625 0 1.40183V16.4575C0 17.2732 0.717187 18 1.53804 18H16.556C17.3812 18 18 17.2683 18 16.4575V1.40183C18.0048 0.590625 17.3812 0 16.5604 0ZM5.57958 15.0039H3.00094V6.98625H5.57958V15.0039ZM4.37946 5.76723H4.36098C3.53571 5.76723 3.00134 5.15289 3.00134 4.3839C3.00134 3.6008 3.54979 3.00094 4.39354 3.00094C5.23729 3.00094 5.75357 3.5964 5.77205 4.3839C5.77167 5.15289 5.23729 5.76723 4.37946 5.76723ZM15.0039 15.0039H12.4252V10.62C12.4252 9.56973 12.05 8.85214 11.117 8.85214C10.4043 8.85214 9.98235 9.33429 9.79473 9.80399C9.7244 9.97274 9.70553 10.2025 9.70553 10.4372V15.0039H7.12687V6.98625H9.70553V8.10199C10.0808 7.56762 10.667 6.79863 12.0311 6.79863C13.7238 6.79863 15.0043 7.91438 15.0043 10.3199L15.0039 15.0039Z" fill="#90999E"/>
</g>
<defs>
<clipPath id="clip0_226_1555">
<rect width="18" height="18" fill="white"/>
</clipPath>
</defs>
</svg>
