<svg width="311" height="170" viewBox="0 0 311 170" fill="none" xmlns="http://www.w3.org/2000/svg">
<path d="M275.03 36.7087L286.302 33.8891C288.082 33.4406 288.714 32.272 288.714 31.3276V27.0811L299.762 24.3158C299.762 24.3158 299.81 24.3022 299.837 24.2954L308.588 22.1076C310.368 21.6591 311 20.4905 311 19.5461C311 19.5325 311 19.5257 311 19.5121C311 19.4985 311 19.4917 311 19.4781C311 19.4646 311 19.4578 311 19.4442C311 19.4306 311 19.4238 311 19.4102C311 19.3966 311 19.3898 311 19.3762C311 19.3626 311 19.3558 311 19.3423C311 19.3287 311 19.3219 311 19.3083C311 19.2947 311 19.2879 311 19.2743C311 19.2607 311 19.2539 311 19.2403C311 19.2267 311 19.22 311 19.2064C311 19.1928 311 19.186 311 19.1724C311 19.1588 311 19.152 311 19.1384C311 19.1248 311 19.118 311 19.1045C311 19.0909 311 19.0841 311 19.0705C311 19.0569 311 19.0501 311 19.0365C311 19.0229 311 19.0161 311 19.0025C311 18.9889 311 18.9822 311 18.9686C311 18.955 311 18.9482 311 18.9346C311 18.921 311 18.9142 311 18.9006C311 18.887 311 18.8802 311 18.8666C311 18.8531 311 18.8463 311 18.8327C311 18.8191 311 18.8123 311 18.7987C311 18.7851 311 18.7783 311 18.7647C311 18.7511 311 18.7443 311 18.7308C311 18.7172 311 18.7104 311 18.6968C311 18.6832 311 18.6764 311 18.6628C311 18.6492 311 18.6424 311 18.6288C311 18.6153 311 18.6085 311 18.5949C311 18.5813 311 18.5745 311 18.5609C311 18.5473 311 18.5405 311 18.5269C311 18.5133 311 18.5065 311 18.493C311 18.4794 311 18.4726 311 18.459C311 18.4454 311 18.4386 311 18.425C311 18.4114 311 18.4046 311 18.391C311 18.3774 311 18.3707 311 18.3571C311 18.3435 311 18.3367 311 18.3231C311 18.3095 311 18.3027 311 18.2891C311 18.2755 311 18.2687 311 18.2551C311 18.2416 311 18.2348 311 18.2212C311 18.2076 311 18.2008 311 18.1872C311 18.1736 311 18.1668 311 18.1532C311 18.1396 311 18.1329 311 18.1193C311 18.1057 311 18.0989 311 18.0853C311 18.0717 311 18.0649 311 18.0513C311 18.0377 311 18.0309 311 18.0173C311 18.0038 311 17.997 311 17.9834C311 17.9698 311 17.963 311 17.9494C311 17.9358 311 17.929 311 17.9154C311 17.9018 311 17.895 311 17.8815C311 17.8679 311 17.8611 311 17.8475C311 17.8339 311 17.8271 311 17.8135C311 17.7999 311 17.7931 311 17.7795C311 17.766 311 17.7592 311 17.7456C311 17.732 311 17.7252 311 17.7116C311 17.698 311 17.6912 311 17.6776C311 17.664 311 17.6572 311 17.6437C311 17.6301 311 17.6233 311 17.6097C311 17.5961 311 17.5893 311 17.5757C311 17.5621 311 17.5553 311 17.5417C311 17.5282 311 17.5214 311 17.5078C311 17.4942 311 17.4874 311 17.4738C311 17.4602 311 17.4534 311 17.4398C311 17.4262 311 17.4194 311 17.4059C311 17.3923 311 17.3855 311 17.3719C311 17.3583 311 17.3515 311 17.3379C311 17.3243 311 17.3175 311 17.3039C311 17.2903 311 17.2836 311 17.27C311 17.2564 311 17.2496 311 17.236C311 17.2224 311 17.2156 311 17.202C311 17.1884 311 17.1816 311 17.168C311 17.1545 311 17.1477 311 17.1341C311 17.1205 311 17.1137 311 17.1001C311 17.0865 311 17.0797 311 17.0661C311 17.0525 311 17.0457 311 17.0322C311 17.0186 311 17.0118 311 16.9982C311 16.9846 311 16.9778 311 16.9642C311 16.9506 311 16.9438 311 16.9302C311 16.9167 311 16.9099 311 16.8963C311 16.8827 311 16.8759 311 16.8623C311 16.8487 311 16.8419 311 16.8283C311 16.8147 311 16.8079 311 16.7944C311 16.7808 311 16.774 311 16.7604C311 16.7468 311 16.74 311 16.7264C311 16.7128 311 16.706 311 16.6924C311 16.6789 311 16.6721 311 16.6585C311 16.6449 311 16.6381 311 16.6245C311 16.6109 311 16.6041 311 16.5905C311 16.5769 311 16.5701 311 16.5566C311 16.543 311 16.5362 311 16.5226C311 16.509 311 16.5022 311 16.4886C311 16.475 311 16.4682 311 16.4546C311 16.441 311 16.4343 311 16.4207C311 16.4071 311 16.4003 311 16.3867C311 16.3731 311 16.3663 311 16.3527C311 16.3391 311 16.3323 311 16.3187C311 16.3052 311 16.2984 311 16.2848C311 16.2712 311 16.2644 311 16.2508C311 16.2372 311 16.2304 311 16.2168C311 16.2032 311 16.1964 311 16.1829C311 16.1693 311 16.1625 311 16.1489C311 16.1353 311 16.1285 311 16.1149C311 16.1013 311 16.0945 311 16.0809C311 16.0674 311 16.0606 311 16.047C311 16.0334 311 16.0266 311 16.013C311 15.9994 311 15.9926 311 15.979C311 15.9654 311 15.9586 311 15.9451C311 15.9315 311 15.9247 311 15.9111C311 15.8975 311 15.8907 311 15.8771C311 15.8635 311 15.8567 311 15.8431C311 15.8296 311 15.8228 311 15.8092C311 15.7956 311 15.7888 311 15.7752C311 15.7616 311 15.7548 311 15.7412C311 15.7276 311 15.7208 311 15.7073C311 15.6937 311 15.6869 311 15.6733C311 15.6597 311 15.6529 311 15.6393C311 15.6257 311 15.6189 311 15.6053C311 15.5917 311 15.585 311 15.5714C311 15.5578 311 15.551 311 15.5374C311 15.5238 311 15.517 311 15.5034C311 15.4898 311 15.483 311 15.4694C311 15.4559 311 15.4491 311 15.4355C311 15.4219 311 15.4151 311 15.4015C311 15.3879 311 15.3811 311 15.3675C311 15.3539 311 15.3471 311 15.3336C311 15.32 311 15.3132 311 15.2996C311 15.286 311 15.2792 311 15.2656C311 15.252 311 15.2452 311 15.2316C311 15.2181 311 15.2113 311 15.1977C311 15.1841 311 15.1773 311 15.1637C311 15.1501 311 15.1433 311 15.1297C311 15.1161 311 15.1093 311 15.0958C311 15.0822 311 15.0754 311 15.0618C311 15.0482 311 15.0414 311 15.0278C311 15.0142 311 15.0074 311 14.9938C311 14.9803 311 14.9735 311 14.9599C311 14.9463 311 14.9395 311 14.9259C311 14.9123 311 14.9055 311 14.8919C311 14.8783 311 14.8715 311 14.858C311 14.8444 311 14.8376 311 14.824C311 14.8104 311 14.8036 311 14.79C311 14.7764 311 14.7696 311 14.756C311 14.7424 311 14.7357 311 14.7221C311 14.7085 311 14.7017 311 14.6881C311 14.6745 311 14.6677 311 14.6541C311 14.6405 311 14.6337 311 14.6201C311 14.6066 311 14.5998 311 14.5862C311 14.5726 311 14.5658 311 14.5522C311 14.5386 311 14.5318 311 14.5182C311 14.5046 311 14.4978 311 14.4843C311 14.4707 311 14.4639 311 14.4503C311 14.4367 311 14.4299 311 14.4163C311 14.4027 311 14.3959 311 14.3823C311 14.3688 311 14.362 311 14.3484C311 14.3348 311 14.328 311 14.3144C311 14.3008 311 14.294 311 14.2804C311 14.2668 311 14.26 311 14.2465C311 14.2329 311 14.2261 311 14.2125C311 14.1989 311 14.1921 311 14.1785C311 14.1649 311 14.1581 311 14.1445C311 14.131 311 14.1242 311 14.1106C311 14.097 311 14.0902 311 14.0766C311 14.063 311 14.0562 311 14.0426C311 14.029 311 14.0222 311 14.0087C311 13.9951 311 13.9883 311 13.9747C311 13.9611 311 13.9543 311 13.9407C311 13.9271 311 13.9203 311 13.9067C311 13.8931 311 13.8864 311 13.8728C311 13.8592 311 13.8524 311 13.8388C311 13.8252 311 13.8184 311 13.8048C311 13.7912 311 13.7844 311 13.7708C311 13.7573 311 13.7505 311 13.7369C311 13.7233 311 13.7165 311 13.7029C311 13.6893 311 13.6825 311 13.6689C311 13.6553 311 13.6485 311 13.635C311 13.6214 311 13.6146 311 13.601C311 13.5874 311 13.5806 311 13.567C311 13.5534 311 13.5466 311 13.533C311 13.5195 311 13.5127 311 13.4991C311 13.4855 311 13.4787 311 13.4651C311 13.4515 311 13.4447 311 13.4311C311 13.4175 311 13.4107 311 13.3972C311 13.3836 311 13.3768 311 13.3632C311 13.3496 311 13.3428 311 13.3292C311 13.3156 311 13.3088 311 13.2952C311 13.2817 311 13.2749 311 13.2613C311 13.2477 311 13.2409 311 13.2273C311 13.2137 311 13.2069 311 13.1933C311 13.1797 311 13.1729 311 13.1594C311 13.1458 311 13.139 311 13.1254C311 13.1118 311 13.105 311 13.0914C311 13.0778 311 13.071 311 13.0574C311 13.0438 311 13.0371 311 13.0235C311 13.0099 311 13.0031 311 12.9895C311 12.9759 311 12.9691 311 12.9555C311 12.9419 311 12.9351 311 12.9215C311 12.908 311 12.9012 311 12.8876C311 12.874 311 12.8672 311 12.8536C311 12.84 311 12.8332 311 12.8196C311 12.806 311 12.7992 311 12.7857C311 12.7721 311 12.7653 311 12.7517C311 11.8073 310.368 10.6386 308.588 10.1902L299.911 8.02279C299.911 8.02279 299.857 8.0092 299.83 8.00241L287.498 4.91775C287.213 4.83622 286.9 4.82263 286.601 4.89737L275.112 7.7714C274.806 7.84613 274.412 7.84613 274.113 7.7714L263.527 5.12837C262.685 4.91775 261.72 4.91775 260.884 5.12837L250.306 7.7714C250 7.84613 249.606 7.84613 249.307 7.7714L238.721 5.12837C237.879 4.91775 236.914 4.91775 236.071 5.12837L225.486 7.7714C225.18 7.84613 224.786 7.84613 224.487 7.7714L213.901 5.12837C213.059 4.91775 212.094 4.91775 211.251 5.12837L199.83 7.98882C199.83 7.98882 199.782 7.99561 199.755 8.00241L188.266 10.8764C187.96 10.9512 187.573 10.9512 187.267 10.8764L175.778 8.00241C175.465 7.92087 175.126 7.94126 174.833 8.03638L162.617 11.0871C161.836 11.2433 161.251 11.9296 161.251 12.7517V16.6041C161.014 16.6381 160.708 16.6449 160.409 16.5701L150.958 14.2057C150.958 14.2057 150.91 14.1921 150.883 14.1921L139.462 11.3317C138.619 11.121 137.654 11.121 136.812 11.3317L126.444 13.9203C124.664 14.3688 124.032 15.5374 124.032 16.4818V19.7024C123.794 19.7363 123.488 19.7431 123.189 19.6684L114.649 17.5349C113.806 17.3243 112.841 17.3243 111.999 17.5349L101.413 20.178C101.107 20.2527 100.713 20.2527 100.414 20.178L88.9998 17.3243C88.7144 17.2428 88.3951 17.2292 88.0962 17.3039L76.6068 20.178C76.3011 20.2527 75.907 20.2527 75.6081 20.178L65.0292 17.5349C64.1867 17.3243 63.2219 17.3243 62.3794 17.5349L2.41201 32.537C0.631879 32.9854 0 34.154 0 35.0985V46.8392C0 47.7836 0.631879 48.9522 2.41201 49.4007L12.7803 51.9961C13.6228 52.2067 14.5876 52.2067 15.4301 51.9961L25.7983 49.4007C27.5785 48.9522 28.2103 47.7836 28.2103 46.8392V42.5927L38.9115 39.9157L50.9036 42.912C50.9036 42.912 50.9512 42.9256 50.9716 42.9256L62.0193 45.6909V48.6533L52.0247 51.1536C50.2446 51.5953 49.6127 52.7707 49.6127 53.7151V65.4558C49.6127 66.4002 50.2446 67.5689 52.0247 68.0173L62.0193 70.5109V74.7574C62.0193 75.7018 62.6511 76.8704 64.4313 77.3188L74.4258 79.8192V84.0657C74.4258 85.0101 75.0577 86.1787 76.8378 86.6272L100.442 92.5247C100.482 92.5383 100.523 92.5451 100.564 92.5587L112.923 95.6501C112.923 95.6501 112.97 95.6637 112.991 95.6637L129.956 99.9102L126.451 100.787C124.67 101.228 124.039 102.404 124.039 103.348V115.089C124.039 116.033 124.67 117.202 126.451 117.65L136.445 120.144V124.39C136.445 125.335 137.077 126.503 138.857 126.952L150.129 129.772C150.129 129.772 150.177 129.785 150.204 129.785L161.251 132.551V155.407C161.251 156.351 161.883 157.52 163.663 157.968L173.658 160.469V164.715C173.658 165.66 174.29 166.828 176.07 167.277L184.4 169.363C184.835 169.471 185.283 169.526 185.732 169.526C186.785 169.526 187.804 169.233 188.49 168.69C189.115 168.201 189.462 167.528 189.462 166.801V157.37L200.503 154.612C201.284 154.456 201.868 153.769 201.868 152.947V148.069L211.856 145.575C213.636 145.134 214.268 143.958 214.268 143.014V138.767L237.716 132.904C238.497 132.748 239.081 132.061 239.081 131.239V106.467C239.081 105.522 238.449 104.354 236.669 103.905L214.268 98.3067V94.0602C214.268 93.1158 213.636 91.9472 211.856 91.4988L200.645 88.6995C200.36 88.6111 200.047 88.6043 199.748 88.6791L190.297 91.0435C190.005 91.1183 189.693 91.1115 189.455 91.0775V87.2319C189.455 86.5864 189.088 85.9953 188.511 85.7099C188.402 85.6556 188.286 85.6148 188.164 85.5808L175.825 82.4962C175.54 82.4078 175.227 82.4011 174.929 82.4758L163.439 85.3498C163.133 85.4246 162.746 85.4246 162.44 85.3498L151.855 82.7068C151.012 82.4962 150.047 82.4962 149.212 82.7068L138.633 85.3498C138.327 85.4246 137.94 85.4246 137.634 85.3498L127.429 82.8019V78.5554C127.429 77.611 126.797 76.4424 125.017 75.9939L114.649 73.4053C113.806 73.1946 112.841 73.1946 111.999 73.4053L102.616 75.7493V73.6363L112.821 71.0816C113.127 71.0069 113.521 71.0069 113.82 71.0816L136.805 76.8296C137.648 77.0403 138.613 77.0403 139.455 76.8296L149.816 74.241C151.597 73.7993 152.228 72.6239 152.228 71.6795V67.433L162.223 64.9395C164.003 64.4978 164.635 63.3224 164.635 62.378V58.1315L174.847 55.5768C175.153 55.502 175.54 55.502 175.846 55.5768L186.431 58.2198C187.274 58.4304 188.239 58.4304 189.081 58.2198L200.496 55.3661C201.277 55.2099 201.862 54.5236 201.862 53.7015V49.8559C202.099 49.8219 202.405 49.8151 202.704 49.8899L211.245 52.0233C212.087 52.2339 213.052 52.2339 213.894 52.0233L224.263 49.4278C226.043 48.9862 226.675 47.8108 226.675 46.8664V35.1256C226.675 34.1812 226.043 33.0126 224.263 32.5641L214.268 30.0706V20.9118L222.442 18.8666C222.734 18.7919 223.046 18.7987 223.277 18.8327V22.0532C223.277 22.9976 223.909 24.1663 225.689 24.6147L235.684 27.115V37.5648C235.684 38.5092 236.316 39.6779 238.096 40.1263L248.464 42.715C249.307 42.9256 250.272 42.9256 251.107 42.715L262.597 39.841C262.597 39.841 262.644 39.8274 262.665 39.8206L274.935 36.7563C274.935 36.7563 274.983 36.7495 275.01 36.7427L275.03 36.7087ZM174.867 30.7365C175.173 30.6617 175.56 30.6617 175.866 30.7365L179.576 31.6673L163.46 35.6964C163.154 35.7711 162.767 35.7711 162.461 35.6964L158.744 34.7655L174.867 30.7365Z" fill="#C2CBD0"/>
<path d="M75.2208 21.8339C75.7915 21.9765 76.471 21.9765 77.0417 21.8339L88.531 18.9598L100.02 21.8339C100.591 21.9765 101.271 21.9765 101.841 21.8339L112.427 19.1908C112.998 19.0482 113.677 19.0482 114.248 19.1908L122.795 21.3243C124.147 21.664 125.744 21.168 125.744 20.4138V16.4867C125.744 16.0994 126.179 15.7461 126.872 15.5762L137.24 12.9876C137.811 12.8449 138.49 12.8449 139.061 12.9876L150.55 15.8616H150.557L160.008 18.226C161.36 18.5658 162.957 18.0698 162.957 17.3156V12.7633H162.964L175.363 9.6651L186.853 12.5391C187.423 12.6818 188.103 12.6818 188.674 12.5391L200.163 9.6651H200.17L211.659 6.79107C212.23 6.64839 212.909 6.64839 213.48 6.79107L224.066 9.43409C224.636 9.57677 225.316 9.57677 225.887 9.43409L236.472 6.79107C237.043 6.64839 237.722 6.64839 238.293 6.79107L248.879 9.43409C249.45 9.57677 250.129 9.57677 250.7 9.43409L261.279 6.79107C261.849 6.64839 262.529 6.64839 263.099 6.79107L273.685 9.43409C274.256 9.57677 274.935 9.57677 275.506 9.43409L286.995 6.56006H287.002L299.402 9.6651H299.409L308.16 11.8529C309.661 12.2266 309.661 13.3001 308.16 13.6738L299.409 15.8616H299.402L288.13 18.6813C287.437 18.8511 287.002 19.2044 287.002 19.5917V24.538C287.002 24.9253 286.567 25.2786 285.874 25.4485L274.602 28.2682H274.596L262.196 31.3664H262.189L250.7 34.2404C250.129 34.3831 249.45 34.3831 248.879 34.2404L238.511 31.6518C237.818 31.4819 237.383 31.1286 237.383 30.7413V19.5917C237.383 19.2044 236.948 18.8511 236.255 18.6813L226.104 16.1402C225.411 15.9703 224.976 15.617 224.976 15.2297V11.3025C224.976 10.5416 223.379 10.0524 222.027 10.3921L212.57 12.7565L203.812 14.9443C202.31 15.318 202.31 16.3916 203.812 16.7652L211.442 18.6745C212.135 18.8443 212.57 19.1976 212.57 19.5849V24.5312C212.57 24.9185 212.135 25.2718 211.442 25.4417L200.17 28.2614H200.163L187.763 25.1631L176.274 22.2891C175.703 22.1464 175.024 22.1464 174.453 22.2891L151.678 27.9828C150.985 28.1527 150.55 28.506 150.55 28.8932V33.8396C150.55 34.2268 150.985 34.5802 151.678 34.75L162.046 37.3387C162.617 37.4814 163.297 37.4814 163.867 37.3387L175.363 34.4646L187.763 31.3596L200.163 34.4646H200.17L211.659 31.5906C212.23 31.4479 212.909 31.4479 213.48 31.5906L223.848 34.1793C224.541 34.3491 224.976 34.7024 224.976 35.0897V40.0361C224.976 40.4233 224.541 40.7766 223.848 40.9465L213.48 43.542C212.909 43.6846 212.23 43.6846 211.659 43.542L203.119 41.4085C201.766 41.0688 200.17 41.5648 200.17 42.319V46.8712H200.163L188.674 49.7452C188.103 49.8879 187.423 49.8879 186.853 49.7452L176.267 47.1022C175.696 46.9595 175.017 46.9595 174.446 47.1022L164.078 49.6977C163.385 49.8675 162.95 50.2209 162.95 50.6081V55.5545C162.95 55.9417 162.515 56.295 161.822 56.4649L150.55 59.2846H150.543V64.8628C150.543 65.2501 150.109 65.6034 149.416 65.7732L139.054 68.3619C138.483 68.5046 137.804 68.5046 137.233 68.3619L114.241 62.6138C113.67 62.4712 112.991 62.4712 112.42 62.6138L102.052 65.2093C101.359 65.3792 100.924 65.7325 100.924 66.1197V77.8944H100.931L112.42 75.0204C112.991 74.8777 113.67 74.8777 114.241 75.0204L124.609 77.6091C125.302 77.7789 125.737 78.1322 125.737 78.5195V83.4658C125.737 83.8531 126.172 84.2064 126.865 84.3763L137.233 86.965C137.804 87.1076 138.483 87.1076 139.054 86.965L149.633 84.3219C150.204 84.1793 150.883 84.1793 151.454 84.3219L162.04 86.965C162.61 87.1076 163.29 87.1076 163.861 86.965L175.35 84.0909H175.357L187.756 87.196V91.7482C187.756 92.5092 189.353 92.9984 190.705 92.6587L200.156 90.2942H200.163L211.435 93.1139C212.128 93.2837 212.563 93.6371 212.563 94.0243V98.9707C212.563 99.3579 212.998 99.7113 213.691 99.8811L224.969 102.701L236.248 105.52C236.941 105.69 237.376 106.044 237.376 106.431V124.409H237.369L224.969 127.514L213.691 130.334C212.998 130.503 212.563 130.857 212.563 131.244V136.19C212.563 136.578 212.128 136.931 211.435 137.101L201.291 139.635C200.598 139.805 200.163 140.158 200.163 140.546V146.117H200.156L188.884 148.937C188.191 149.107 187.756 149.46 187.756 149.847V159.978C187.756 160.739 186.16 161.228 184.808 160.888L176.478 158.802C175.785 158.632 175.35 158.279 175.35 157.892V152.945C175.35 152.558 174.915 152.205 174.222 152.035L164.071 149.494C163.378 149.324 162.943 148.971 162.943 148.583V125.034C162.943 124.647 162.508 124.293 161.815 124.124L150.543 121.304H150.537L139.265 118.484C138.572 118.314 138.137 117.961 138.137 117.574V112.627C138.137 112.24 137.702 111.887 137.009 111.717L126.858 109.183C126.165 109.013 125.73 108.659 125.73 108.272V103.326C125.73 102.939 126.165 102.585 126.858 102.415L138.13 99.5957H138.137V93.3924H138.13L113.331 87.1892H113.324L100.924 84.0909H100.917L88.5174 80.9859L77.2387 78.1662C76.5457 77.9964 76.1108 77.643 76.1108 77.2558V72.3094C76.1108 71.9222 75.676 71.5689 74.983 71.399L64.8321 68.8579C64.1391 68.688 63.7043 68.3347 63.7043 67.9474V63.0011C63.7043 62.6138 63.2694 62.2605 62.5764 62.0907L52.4256 59.5564C51.7326 59.3865 51.2977 59.0332 51.2977 58.6459V53.6996C51.2977 53.3123 51.7326 52.959 52.4256 52.7891L62.5764 50.248C63.2694 50.0782 63.7043 49.7249 63.7043 49.3376V38.188C63.7043 37.8007 63.2694 37.4474 62.5764 37.2775L51.3045 34.4579H51.2977L38.8979 31.3596L27.6192 34.1793C26.9262 34.3491 26.4914 34.7024 26.4914 35.0897V40.0361C26.4914 40.4233 26.0565 40.7766 25.3635 40.9465L14.9952 43.542C14.4245 43.6846 13.7451 43.6846 13.1743 43.542L2.80609 40.9465C2.11306 40.7766 1.67822 40.4233 1.67822 40.0361V35.0897C1.67822 34.7024 2.11306 34.3491 2.80609 34.1793L14.0848 31.3596L38.8979 25.1563L51.2977 22.0513L62.7938 19.1773C63.3646 19.0346 64.044 19.0346 64.6147 19.1773L75.2004 21.8203L75.2208 21.8339Z" fill="#F4FDFF"/>
<path d="M62.5772 54.7842C82.9584 38.7918 95.6345 34.1608 120.581 33.7286" stroke="#DE7330" stroke-width="2" stroke-dasharray="16 4"/>
<path d="M63.2326 54.7746C113.744 55.6002 138.509 63.5207 175.924 92.0718" stroke="#DE7330" stroke-width="2" stroke-dasharray="16 4"/>
<path d="M121.305 33.0693C150.341 44.9516 161.954 58.5942 176.343 92.3413" stroke="#DE7330" stroke-width="2" stroke-dasharray="16 4"/>
<path d="M273.58 17.6184C216.572 36.4369 194.649 52.4854 174.217 91.1181" stroke="#DE7330" stroke-width="2" stroke-dasharray="16 4"/>
<path d="M273.088 17.8098C209.678 0.518516 176.236 3.55967 120.748 33.4479" stroke="#DE7330" stroke-width="2" stroke-dasharray="16 4"/>
<path d="M62.733 57.8066C64.1814 57.8066 65.3556 56.6324 65.3556 55.1839C65.3556 53.7355 64.1814 52.5613 62.733 52.5613C61.2845 52.5613 60.1104 53.7355 60.1104 55.1839C60.1104 56.6324 61.2845 57.8066 62.733 57.8066Z" fill="#F5C246"/>
<path d="M62.5019 58.6767C60.579 58.5476 59.1183 56.8762 59.2406 54.9534C59.3628 53.0306 61.0411 51.5698 62.9639 51.6921C64.8867 51.8144 66.3475 53.4926 66.2252 55.4154C66.1029 57.3382 64.4247 58.799 62.5019 58.6767ZM62.8552 53.4382C61.8904 53.3771 61.0547 54.1041 60.9935 55.0689C60.9324 56.0337 61.6594 56.8694 62.6242 56.9306C63.589 56.9917 64.4247 56.2647 64.4858 55.2999C64.547 54.3351 63.82 53.4994 62.8552 53.4382Z" fill="#DE7330"/>
<path d="M120.764 36.6463C122.212 36.6463 123.386 35.4721 123.386 34.0236C123.386 32.5752 122.212 31.401 120.764 31.401C119.315 31.401 118.141 32.5752 118.141 34.0236C118.141 35.4721 119.315 36.6463 120.764 36.6463Z" fill="#F5C246"/>
<path d="M120.533 37.5164C118.61 37.3874 117.149 35.7159 117.271 33.7931C117.4 31.8703 119.072 30.4095 120.995 30.5318C122.917 30.6541 124.378 32.3323 124.256 34.2551C124.127 36.178 122.455 37.6387 120.533 37.5164ZM120.879 32.278C119.914 32.2168 119.079 32.9438 119.017 33.9086C118.956 34.8734 119.683 35.7091 120.648 35.7703C121.613 35.8314 122.449 35.1044 122.51 34.1396C122.571 33.1748 121.844 32.3391 120.879 32.278Z" fill="#DE7330"/>
<path d="M174.066 94.1342C175.514 94.1342 176.689 92.96 176.689 91.5116C176.689 90.0631 175.514 88.8889 174.066 88.8889C172.618 88.8889 171.443 90.0631 171.443 91.5116C171.443 92.96 172.618 94.1342 174.066 94.1342Z" fill="#F5C246"/>
<path d="M173.835 95.0041C171.912 94.875 170.451 93.2036 170.574 91.2808C170.703 89.358 172.374 87.8972 174.297 88.0195C176.22 88.1418 177.68 89.82 177.558 91.7428C177.429 93.6656 175.758 95.1264 173.835 95.0041ZM174.181 89.7656C173.217 89.7045 172.381 90.4315 172.32 91.3963C172.259 92.3611 172.986 93.1968 173.95 93.258C174.915 93.3191 175.751 92.5921 175.812 91.6273C175.873 90.6625 175.146 89.8268 174.181 89.7656Z" fill="#DE7330"/>
<path d="M272.831 21.0963C274.279 21.0963 275.453 19.9222 275.453 18.4737C275.453 17.0253 274.279 15.8511 272.831 15.8511C271.382 15.8511 270.208 17.0253 270.208 18.4737C270.208 19.9222 271.382 21.0963 272.831 21.0963Z" fill="#F5C246"/>
<path d="M272.6 21.9665C270.677 21.8374 269.216 20.166 269.338 18.2432C269.467 16.3204 271.139 14.8596 273.062 14.9819C274.984 15.1042 276.445 16.7824 276.323 18.7052C276.194 20.628 274.522 22.0888 272.6 21.9665ZM272.946 16.728C271.981 16.6669 271.146 17.3939 271.084 18.3587C271.023 19.3235 271.75 20.1592 272.715 20.2204C273.68 20.2815 274.516 19.5545 274.577 18.5897C274.638 17.6249 273.911 16.7892 272.946 16.728Z" fill="#DE7330"/>
</svg>
