<?xml version="1.0" encoding="UTF-8"?>
<svg id="Layer_2" data-name="Layer 2" xmlns="http://www.w3.org/2000/svg" viewBox="0 0 344.98 318.67">
  <defs>
    <style>
      .cls-1, .cls-2 {
        fill: #f4fdff;
      }

      .cls-1, .cls-3, .cls-4, .cls-5, .cls-6, .cls-7 {
        stroke-width: 0px;
      }

      .cls-8 {
        fill: #c2cad0;
      }

      .cls-8, .cls-2 {
        stroke: #c2cbd0;
        stroke-linecap: round;
        stroke-linejoin: round;
        stroke-width: 4px;
      }

      .cls-9 {
        opacity: .5;
      }

      .cls-3 {
        fill: #dbe4e9;
      }

      .cls-4 {
        fill: #de7330;
      }

      .cls-5 {
        fill: #fff;
      }

      .cls-6 {
        fill: #c2cbd0;
      }

      .cls-7 {
        fill: #f5c246;
      }
    </style>
  </defs>
  <g id="Layer_2-2" data-name="Layer 2">
    <g>
      <g>
        <path class="cls-8" d="M260.61,293.08l-108.74-27.18c-5.51,3.9-3.39,22.2,0,23.59l27.18,6.8,27.18,6.8,27.18,6.8,27.18,6.8"/>
        <path class="cls-2" d="M342.17,296.28l-27.18,6.8-27.18,6.8-27.18,6.8c-5.78-1.79-3.57-20.7,0-23.59l81.55-20.39"/>
        <polygon class="cls-8" points="342.17 272.69 260.61 293.08 151.88 265.89 233.43 245.51 342.17 272.69"/>
        <path class="cls-1" d="M310.11,264.68l-81.55,20.39c-3.57,2.89-5.78,21.81,0,23.59l-7.82-1.96c-5.78-1.79-3.57-20.7,0-23.59l81.55-20.39,7.82,1.96Z"/>
        <path class="cls-1" d="M261.84,252.61l-81.55,20.39c-3.57,2.89-5.78,21.81,0,23.59l-7.82-1.96c-5.78-1.79-3.57-20.7,0-23.59l81.55-20.39,7.82,1.96Z"/>
      </g>
      <g>
        <path class="cls-8" d="M230.86,294.83l27.18-6.8,27.18-6.8,27.18-6.8,27.18-6.8c3.39-1.39,5.51-19.69,0-23.59l-108.74,27.18"/>
        <path class="cls-2" d="M149.31,250.85l81.55,20.39c3.57,2.89,5.78,21.81,0,23.59l-27.18-6.8-27.18-6.8-27.18-6.8"/>
        <polygon class="cls-8" points="149.31 250.85 230.86 271.24 339.6 244.05 258.04 223.66 149.31 250.85"/>
        <path class="cls-1" d="M266.14,286.01l-3.22.81c5.78-1.79,3.57-20.7,0-23.59l-81.55-20.39,7.82-1.96h.03s-4.72,1.19-4.72,1.19l81.55,20.39c3.55,2.87,5.76,21.6.09,23.55Z"/>
        <path class="cls-1" d="M314.38,273.95l-3.19.8c5.78-1.79,3.57-20.7,0-23.59l-81.55-20.39,7.82-1.95h.02s-4.71,1.18-4.71,1.18l81.55,20.39c3.56,2.88,5.76,21.67.06,23.56Z"/>
        <path class="cls-1" d="M273.87,284.09l-7.82,1.96s.06-.02.09-.04l4.6-1.15c5.78-1.78,3.57-20.7,0-23.59l-81.52-20.38,3.1-.78,81.55,20.39c3.57,2.89,5.78,21.81,0,23.59Z"/>
        <path class="cls-1" d="M322.14,272.03l-7.82,1.95s.04-.01.06-.03l4.63-1.15c5.78-1.79,3.57-20.71,0-23.6l-81.53-20.37,3.11-.78,81.55,20.39c3.57,2.89,5.78,21.8,0,23.59Z"/>
      </g>
      <g>
        <g>
          <path class="cls-1" d="M310.11,98.95c0,.26,0,.52-.01.78,0,.69-.02,1.38-.06,2.06h0c-.13,3.2-.52,6.34-1.13,9.39-.11.59-.24,1.18-.37,1.77h0c-.33,1.48-.72,2.93-1.16,4.36-.73,2.4-1.6,4.73-2.59,6.99-.01,0-.02.02-.02.03-1.02,2.3-2.18,4.54-3.45,6.68h-.01c-.81,1.38-1.67,2.7-2.58,3.99-.01.01-.02.02-.02.03-1.02,1.45-2.09,2.85-3.23,4.2h-.01c-2.2,2.64-4.6,5.08-7.2,7.32-2.31,1.98-4.76,3.8-7.35,5.44-2.64,1.67-5.42,3.16-8.31,4.43-2.98,1.31-6.09,2.4-9.3,3.24-.74.2-1.48.38-2.23.54-1.61.36-3.24.65-4.89.88-.03,0-.06.01-.09.02-1.27.19-2.55.32-3.85.42-.09.01-.18.01-.27.02h-.01c-1.53.11-3.06.17-4.61.17-1.28,0-2.55-.04-3.81-.12h-.01c-1.7-.1-3.37-.27-5.03-.5h-.01c-2.25-.32-4.46-.76-6.62-1.32-.01.01-.02.01-.03,0-1.68-.42-3.33-.91-4.95-1.48-1.94-.66-3.83-1.42-5.68-2.27-3.13-1.44-6.02-3.12-8.85-5.04-.01,0-.02,0-.03,0t-.02,0s-.01,0-.02,0t-.02,0s0,0-.02,0c-3.03-2.04-5.86-4.34-8.48-6.87-2.44-2.35-4.69-4.9-6.72-7.62-.26-.35-.52-.7-.77-1.05-.44-.62-.87-1.25-1.3-1.88-1.26-1.91-2.42-3.89-3.47-5.94-1.55-3-2.86-6.15-3.9-9.41-.59-1.81-1.09-3.66-1.51-5.55-.36-1.58-.65-3.18-.88-4.81-.42-2.91-.63-5.88-.63-8.9,0-.29,0-.57.01-.86,0-.49.01-.97.04-1.45.13-3.84.61-7.59,1.42-11.22.46-2.11,1.03-4.18,1.7-6.21.65-1.97,1.4-3.89,2.24-5.77h0c.44-1,.9-1.97,1.39-2.93.59-1.16,1.22-2.29,1.88-3.41.61-1.04,1.25-2.05,1.91-3.05,0,0,0-.01.01-.01.35-.51.7-1.02,1.06-1.52,1.1-1.54,2.26-3.03,3.49-4.46,2.3-2.67,4.82-5.15,7.53-7.4,2.5-2.08,5.17-3.97,7.99-5.65,2.6-1.55,5.33-2.92,8.16-4.09.25-.1.5-.2.75-.3,3.2-1.28,6.54-2.29,9.98-3.03.67-.15,1.35-.28,2.03-.4.02-.01.04-.02.06-.01,3.12-.56,6.32-.88,9.58-.96.51-.01,1.02-.02,1.53-.02.47,0,.94,0,1.41.02.47,0,.95.02,1.42.04h.02c2.98.14,5.91.48,8.77,1.02h.01c.62.11,1.22.23,1.83.37,4.38.95,8.59,2.37,12.57,4.18.92.43,1.84.87,2.74,1.34t.02.01c2.18,1.13,4.3,2.38,6.33,3.76,3.2,2.16,6.18,4.61,8.92,7.32,1.69,1.67,3.29,3.42,4.78,5.27.04.04.07.07.09.11.68.84,1.33,1.69,1.96,2.56.64.89,1.26,1.79,1.85,2.71.13.2.25.4.38.6,1.18,1.85,2.26,3.77,3.23,5.76.12.24.23.49.34.73.11.22.22.45.33.68,1.12,2.41,2.08,4.9,2.88,7.47,1.15,3.63,1.96,7.4,2.43,11.29h0c.29,2.47.44,4.97.44,7.51Z"/>
          <g class="cls-9">
            <path class="cls-3" d="M247.36,161.96c-1.28,0-2.57-.04-3.83-.12-1.68-.1-3.33-.26-5.06-.5h-.06c-2.23-.33-4.42-.77-6.53-1.31h-.11s-.04-.03-.04-.03c-1.69-.43-3.35-.92-4.91-1.47-1.9-.65-3.82-1.41-5.7-2.28l-1.04-.48h.03c-2.58-1.25-5.11-2.71-7.7-4.47l-.03.03h-.02s-.01,0-.01,0l-.02-.02-.02.02h-.01s0,0,0,0l-.2-.16c-2.97-2-5.84-4.32-8.49-6.88-2.42-2.33-4.66-4.86-6.66-7.54h-.03l-.07-.1c-.26-.35-.51-.71-.76-1.07-.44-.62-.87-1.25-1.3-1.88-1.28-1.93-2.45-3.94-3.49-5.97-1.48-2.87-2.75-5.88-3.76-8.96v-.04c-.06-.15-.11-.3-.16-.45l-.03-.1c-1.02-3.17-1.78-6.42-2.28-9.68-.03-.21-.06-.42-.09-.62-.42-2.91-.63-5.92-.63-8.93,0-.29,0-.58.01-.87h0c0-.56.01-1.02.04-1.46.13-3.81.61-7.6,1.42-11.26.45-2.08,1.03-4.18,1.71-6.23,0-.02.02-.05.02-.07l.51-1.54v.07c.5-1.41,1.07-2.82,1.7-4.21l.03-.07c.97-2.18,2.07-4.31,3.28-6.34.54-.92,1.15-1.9,1.88-3v-.17h.12c1.39-2.05,2.9-4.04,4.5-5.9,2.31-2.68,4.85-5.18,7.56-7.43,2.51-2.09,5.21-4,8.02-5.67.03-.02.06-.04.09-.05l.11-.07c2.78-1.65,5.72-3.09,8.74-4.29,3.18-1.27,6.55-2.3,10.02-3.04.61-.14,1.26-.26,2-.39l.08-.04.07.02c3.11-.55,6.33-.88,9.57-.96,1.47-.03,2.94-.02,4.38.04,3.01.14,5.97.49,8.83,1.02.65.11,1.25.24,1.85.37.18.04.35.08.53.12,4.12.93,8.18,2.3,12.09,4.08l1.01.46h-.04c.54.26,1.14.55,1.72.86h.04l.06.05c2.24,1.16,4.37,2.43,6.33,3.76.12.08.24.16.36.25l.31.21h0c2.94,2.04,5.72,4.36,8.29,6.89,2.52,2.48,4.83,5.17,6.86,7.97.7.97,1.31,1.86,1.86,2.72l.38.6c1.19,1.87,2.28,3.82,3.24,5.78.09.18.17.36.26.55l.09.19c.09.19.19.4.29.61l.03.07c1.12,2.41,2.09,4.94,2.89,7.5,1.04,3.29,1.82,6.74,2.3,10.26,0,0,0,0,0,0,.05.35.09.71.14,1.06.26,2.25.41,4.52.44,6.78,0,.01,0,.03,0,.04,0,.03,0,.05,0,.08,0,.05,0,.09,0,.14,0,.15,0,.3,0,.45v.06c0,.26,0,.53-.01.79v.02c0,.68-.02,1.38-.06,2.05-.16,3.74-.66,7.5-1.51,11.2-.32,1.44-.71,2.91-1.17,4.38-.71,2.35-1.59,4.71-2.6,7.01l-.03.06c-1.01,2.28-2.17,4.52-3.45,6.68l-.03.04c-.78,1.32-1.62,2.61-2.55,3.93v.02l-.06.06c-1.04,1.48-2.13,2.9-3.23,4.2-1.23,1.47-2.54,2.89-3.89,4.25-1.05,1.05-2.15,2.07-3.27,3.04-.03.02-.05.04-.08.07-2.33,2-4.82,3.84-7.38,5.46l-.23.14h0c-2.62,1.64-5.34,3.09-8.12,4.3-3.02,1.33-6.16,2.42-9.34,3.25-2.28.61-4.69,1.09-7.15,1.43l-.09.02c-1.3.19-2.65.34-4.14.44-1.6.12-3.11.17-4.64.17ZM243.46,161.34s.07,0,.1,0c2.76.18,5.49.16,8.4-.05,1.48-.11,2.83-.25,4.11-.44,0,0,.06-.02.13-.02,2.41-.33,4.79-.81,7.06-1.41,3.15-.83,6.27-1.91,9.26-3.23,2.76-1.21,5.48-2.65,8.08-4.29-.28-.53-.58-1.05-.88-1.57-.38-.7-.77-1.39-1.15-2.08l-.14-.25c-.57-1.03-1.15-2.07-1.74-3.1-.84-1.51-1.69-3.02-2.54-4.52-1.18-2.09-2.37-4.17-3.57-6.25-2.29-3.99-4.38-7.6-6.38-11-5.33,3.46-10.93,6.57-16.66,9.26,2.8,3.25,5.71,6.38,8.66,9.32l.26.26-.33.15c-4.56,2.02-9.28,3.74-14.03,5.09-3.66,1.06-7.46,1.93-11.28,2.59,2.32,1.71,4.56,3.22,6.86,4.58l.58.35-.67.12c-2.83.49-5.62.85-8.33,1.08,1.94,1.2,3.95,2.32,5.98,3.34,1.06.53,2.15,1.05,3.35,1.58,1.45.2,2.84.35,4.24.45.14,0,.28.02.42.03.02,0,.03,0,.04,0h.09s.02.01.04,0c.02,0,.03,0,.05,0ZM231.8,159.49l.15.04c1.56.4,3.16.75,4.79,1.03-.59-.28-1.17-.56-1.73-.84-2.27-1.14-4.51-2.41-6.66-3.76l-.64-.4.75-.06c2.71-.21,5.53-.55,8.37-1.03-2.24-1.36-4.44-2.85-6.71-4.55-2.92.49-5.87.84-8.77,1.05-1.41.11-2.89.19-4.4.23,2.03,1.61,4.18,3.15,6.38,4.59l.69.45h-.82c-.28.02-.55.02-.82.02,1.04.45,2.08.87,3.12,1.26,0,0,0,0,.01,0,.14.05.29.11.43.16.01,0,.02,0,.04.01.07.03.15.05.22.08.02,0,.05.02.07.02.06.02.13.05.19.07.18.06.35.12.53.18,1.53.54,3.15,1.02,4.81,1.44h0ZM212.43,150.72l.08.05c2.96,2.01,5.82,3.64,8.76,5,.37,0,.73,0,1.1,0-2.17-1.44-4.28-2.99-6.27-4.6l-.53-.43.68-.02c1.74-.04,3.44-.12,5.06-.25,2.82-.21,5.69-.55,8.53-1.02l.29-.05c.28-.05.56-.09.84-.14,3.71-.65,7.4-1.5,10.96-2.53,4.62-1.32,9.2-2.97,13.63-4.92-2.95-2.94-5.85-6.08-8.64-9.34l-.21-.25.3-.14c5.82-2.71,11.51-5.87,16.92-9.38-1.94-3.31-3.86-6.56-5.74-9.7,0-.01-.01-.03-.02-.04-.03-.05-.06-.11-.09-.16l-.04-.06s-.03-.05-.04-.07c-.02-.04-.04-.08-.07-.11,0,0,0,0,0,0-.01-.02-.02-.04-.03-.05-.06-.1-.12-.21-.19-.31,0-.02-.02-.03-.03-.05-.01-.02-.02-.04-.04-.06,0,0,0,0,0,0l-.29-.49-.04-.07s0,0,0,0c-.01-.02-.03-.05-.04-.07-.02-.03-.04-.06-.06-.1-.03-.04-.05-.08-.08-.13-.02-.03-.03-.05-.05-.08-.12-.19-.23-.38-.34-.57l-.06-.09c-.15-.25-.29-.49-.44-.73-.12-.21-.25-.41-.37-.62-6.01,3.72-12.29,7.28-18.67,10.58-4.86,2.52-10.02,5-15.33,7.38-3.37,1.5-6.76,2.93-10.08,4.25-1.95.79-4.1,1.62-6.75,2.61-1.37.51-2.74,1.01-4.12,1.49-1.15.41-2.3.8-3.45,1.19,1.96,2.59,4.14,5.05,6.49,7.31,2.58,2.49,5.37,4.76,8.29,6.74l.04-.04h0s0,0,0,0h.01s.02,0,.02,0h0s0,0,0,0l.09.09ZM264.61,122.86c2,3.41,4.09,7.02,6.39,11.03,1.2,2.08,2.39,4.16,3.57,6.25.85,1.5,1.7,3.01,2.54,4.52.59,1.03,1.17,2.07,1.75,3.1l.14.25c.39.69.78,1.39,1.15,2.08.29.51.58,1.02.86,1.54,2.25-1.44,4.44-3.05,6.52-4.79.15-.13.3-.25.45-.38.04-.04.08-.07.12-.1,2.57-2.21,4.98-4.67,7.17-7.28.41-.49.82-.99,1.23-1.5-.27.25-.53.51-.8.77l-.45.43.03-.62c.06-1.26.1-2.41.11-3.49.03-1.47.01-2.95-.04-4.41h0s-.02-.51-.02-.51v-.06c-.08-2.07-.21-4.11-.41-6.1-2.96,3.17-6.13,6.16-9.45,8.9l-.31.25-.1-.39c-.58-2.35-1.21-4.66-1.93-7.06h0s-.11-.37-.11-.37c-.04-.15-.09-.31-.14-.46-1.18-3.97-2.51-7.89-3.96-11.7-.01-.03-.02-.06-.04-.1-.04-.11-.08-.22-.13-.33-4.57,3.84-9.34,7.38-14.17,10.52ZM295.84,129.76c.07,1.62.08,3.27.06,4.91,0,.91-.03,1.86-.08,2.88.92-.88,1.81-1.76,2.65-2.62h0s.1-.11.1-.11c.9-1.29,1.74-2.59,2.53-3.92l.04-.05c.88-1.49,1.72-3.05,2.49-4.63-.66.83-1.31,1.61-1.95,2.35l-.48.56.04-.74c.1-1.61.14-3.23.13-4.84-1.73,2.13-3.58,4.22-5.52,6.21ZM197.1,136.12l.06.08c1.2-.4,2.4-.81,3.6-1.24,1.37-.48,2.74-.98,4.11-1.49,2.64-.99,4.78-1.82,6.73-2.61,3.31-1.32,6.7-2.75,10.06-4.25,5.31-2.37,10.46-4.85,15.31-7.36,6.37-3.3,12.64-6.85,18.64-10.56-2.9-4.82-5.83-9.62-8.74-14.33,0,0-.01-.02-.02-.03-.08-.13-.16-.25-.24-.38,0,0,0-.02-.01-.02-.1-.16-.2-.32-.29-.47-.01-.02-.02-.04-.03-.06,0-.01-.02-.03-.03-.04-.03-.05-.06-.09-.09-.14s-.06-.09-.09-.14c-.04-.07-.09-.14-.13-.21-.06-.09-.11-.18-.17-.28-.06-.1-.13-.21-.19-.31-.03-.04-.05-.09-.08-.13-.46-.74-.91-1.47-1.37-2.2-6.2,3.71-12.32,7.62-18.19,11.61-4.74,3.21-9.46,6.56-14.01,9.96-2.92,2.18-5.74,4.35-8.38,6.46-1.68,1.32-3.44,2.74-5.53,4.48-1.32,1.08-2.61,2.17-3.59,3-.87.74-1.74,1.48-2.61,2.23.91,1.77,1.93,3.52,3.03,5.22,0,0,0,0,0,0,.03.04.06.09.08.13.04.06.07.11.11.17,0,.01.02.02.02.04.04.06.08.12.12.18.43.63.86,1.25,1.29,1.87.19.29.39.56.59.84h.02ZM283.57,124.94c.7,2.35,1.33,4.62,1.9,6.91,3.33-2.77,6.51-5.8,9.47-9l.38-.41.06.55c.21,1.98.35,4.02.44,6.08,1.97-2.04,3.85-4.19,5.6-6.37l.43-.54v.7c.04,1.6.01,3.22-.07,4.83.89-1.05,1.8-2.18,2.75-3.43v-.02l.06-.06c1-2.28,1.86-4.61,2.56-6.93.45-1.45.84-2.91,1.16-4.33.84-3.68,1.34-7.42,1.49-11.12.04-.68.06-1.37.06-2.06.01-.27.01-.52.01-.78,0-2.21-.12-4.43-.35-6.63-.14.28-.29.56-.43.85-.99,1.93-2.06,3.84-3.19,5.68-1.69,2.82-3.57,5.61-5.58,8.3-1.93,2.59-4.02,5.14-6.22,7.59-3.28,3.62-6.82,7.05-10.52,10.2ZM187.9,118.25c.99,3.08,2.23,6.1,3.7,8.98.84-.72,1.68-1.44,2.52-2.15.98-.83,2.28-1.93,3.59-3,2.09-1.74,3.85-3.16,5.53-4.48,2.64-2.11,5.47-4.28,8.39-6.46,4.56-3.41,9.28-6.77,14.03-9.98,5.87-3.99,11.99-7.9,18.2-11.62-2.14-3.43-4.38-7-6.81-10.82-.01-.02-.02-.03-.03-.05-.05-.08-.11-.17-.16-.25h0c-.36-.56-.72-1.13-1.09-1.71h0c-.07-.11-.14-.22-.21-.34,0-.01-.02-.03-.02-.04-.22-.35-.45-.7-.67-1.05-.16-.24-.31-.49-.47-.73-.64.38-1.28.77-1.91,1.16-.69.42-1.37.85-2.05,1.29-.05.03-.07.04-.09.05-.41.26-.8.52-1.19.78-.29.18-.57.37-.83.56-.54.35-1.08.71-1.61,1.08-2.83,1.93-5.66,4-8.41,6.18-.56.44-1.11.88-1.66,1.33-.47.38-.93.76-1.39,1.15-.59.48-1.17.97-1.75,1.47-.06.05-.12.1-.18.16-.59.51-1.17,1.01-1.74,1.52-.41.36-.81.72-1.21,1.09-1.5,1.35-3.02,2.79-4.66,4.42h0s-.11.11-.11.11h0c-.59.58-1.19,1.19-1.79,1.81,0,0-.01.02-.02.02-.01.01-.02.02-.03.04-.02.02-.04.04-.06.06l-.04.04s-.06.07-.09.1c-1.04,1.06-2.12,2.21-3.41,3.64-.56.61-1.11,1.23-1.66,1.86l-.13.15c-.1.11-.2.23-.3.34,0,0-.01.02-.02.03-.01.02-.03.04-.06.06,0,0,0,0,0,0l-.3.36c-.31.36-.62.72-.93,1.1l-.11.13c-.37.45-.75.9-1.12,1.37-.35.42-.7.85-1.04,1.28-.26.33-.52.65-.78.98,0,0,0,0,0,0,0,0,0,0-.01.01-.13.16-.25.32-.37.47,0,0,0,0,0,0,0,0-.01.01-.02.02,0,0,0,0,0,0,0,0,0,.01-.01.02,0,0,0,0-.01.01,0,0,0,0,0,.01,0,0,0,.01-.01.02,0,0,0,0,0,0,0,0-.01.01-.02.02,0,0,0,0,0,0l-.02.02s0,0,0,0c0,0-.01.02-.02.03h0s-.01.02-.02.03c0,0,0,0,0,0,0,0-.01.02-.02.03h0s-.04.06-.07.09c-.15.19-.3.39-.44.58-.43.56-.85,1.12-1.27,1.69-.55.74-1.09,1.47-1.62,2.22,0,.01-.02.02-.02.03,0,.01-.02.02-.03.04-.58.81-1.18,1.68-1.83,2.65ZM279,111.51l.13.33c1.57,4.08,3.02,8.31,4.29,12.58,3.62-3.09,7.09-6.46,10.3-10.01,2.19-2.43,4.28-4.97,6.2-7.55,2-2.67,3.87-5.45,5.55-8.26,1.12-1.83,2.19-3.73,3.17-5.66.24-.45.46-.89.68-1.34l.1-.19c-.46-3.81-1.26-7.53-2.38-11.08-.01-.04-.02-.07-.03-.11h0c-.07-.23-.14-.46-.22-.69-.71-2.19-1.55-4.34-2.49-6.41-.05-.11-.1-.23-.16-.34l-.03-.07c-.1-.21-.2-.41-.29-.61l-.09-.2c-.03-.07-.07-.15-.1-.22-.59.58-1.19,1.17-1.78,1.75-1.27,1.25-2.47,2.4-3.66,3.5-1.94,1.83-3.92,3.62-5.87,5.32-2.21,1.96-4.56,3.95-7,5.94-3.96,3.25-8.18,6.49-12.54,9.64-5.32,3.84-10.86,7.55-16.47,11.02,2.6,4.32,5.31,8.89,8.06,13.58,4.91-3.19,9.74-6.79,14.38-10.7l.27-.23ZM184.85,98.95c0,2.99.21,5.98.63,8.86.46,3.3,1.21,6.61,2.22,9.83.57-.84,1.1-1.61,1.62-2.34.55-.77,1.1-1.53,1.67-2.29.14-.21.3-.42.46-.62l.21-.29c.2-.26.39-.52.6-.78.11-.15.22-.3.34-.45h0s0,0,0,0h0s0-.01.01-.02c0,0,0,0,0,0,0,0,0,0,0-.01h0s0,0,0-.01h0s0,0,0-.01c0,0,0,0,0-.01,0,0,0,0,0,0h.01s0-.02,0-.02c0,0,0,0,0,0,0,0,0,0,0,0s0,0,0,0c0,0,0,0,0,0,.47-.61.95-1.21,1.43-1.81.36-.45.69-.87,1.04-1.28.33-.42.68-.84,1.03-1.26,0,0,0,0,0,0,0,0,0,0,.01-.01,0,0,.01-.01.02-.02.01-.01.02-.03.03-.04,0,0,.01-.01.02-.02,0,0,.01-.01.02-.02l.1-.13c.31-.37.62-.74.94-1.1l.29-.33c-1.3-3.83-2.35-7.8-3.13-11.8h0c-.62-3.11-1.08-6.25-1.37-9.35-1.67,2.23-3.24,4.55-4.7,6.9l-.38.62-.08-.73c-.27-2.57-.43-5.13-.47-7.63,0-.59-.01-1.18,0-1.8-.35,1.18-.67,2.36-.95,3.54,0,.02-.01.05-.02.07-.01.05-.02.1-.04.15,0,.01,0,.03-.01.04,0,.03-.01.06-.02.09-.05.22-.1.43-.14.65-.81,3.63-1.29,7.39-1.41,11.17-.03.44-.04.89-.04,1.44-.01.3-.01.57-.01.86ZM234.7,74.08c3.58,5.6,6.77,10.63,9.74,15.41,3.84,6.16,7.75,12.54,11.6,18.95,5.61-3.46,11.14-7.16,16.44-11,4.36-3.14,8.57-6.38,12.52-9.62,2.43-1.98,4.78-3.97,6.98-5.92,1.95-1.69,3.92-3.48,5.85-5.3,1.19-1.1,2.39-2.25,3.66-3.5.63-.61,1.25-1.22,1.88-1.84-.98-1.92-2.03-3.8-3.12-5.6l-.38-.6c-.55-.85-1.15-1.73-1.84-2.7-2.01-2.78-4.3-5.44-6.8-7.91-2.72-2.69-5.68-5.12-8.82-7.25-.49,0-.99,0-1.47.02-2.16.04-4.36.16-6.52.36-2.8.25-5.61.62-8.35,1.11-3.42.6-6.9,1.4-10.35,2.37-4.38,1.24-8.79,2.81-13.12,4.67l-.2.08c-.93.4-1.86.81-2.78,1.24-3.38,1.56-6.71,3.3-9.96,5.21-.01,0-.02.01-.03.02-.12.07-.25.15-.38.22,0,0,0,0,0,0-.09.05-.18.11-.27.16-.02,0-.03.02-.04.03-.26.16-.52.31-.78.47-.12.07-.25.15-.37.22,2.54,3.88,4.8,7.38,6.92,10.7h0ZM193.57,82.87h0c.28,3.29.76,6.64,1.42,9.95h0c.76,3.88,1.78,7.73,3.02,11.46,0,0,0,0,.01-.01l.13-.15c.55-.63,1.1-1.25,1.66-1.86,1.29-1.42,2.37-2.58,3.42-3.65.64-.67,1.29-1.33,1.93-1.96-1.38-3.97-2.54-8.13-3.45-12.37h0c-.69-3.2-1.22-6.45-1.58-9.67-.29-2.4-.48-4.65-.58-6.88-.09-1.76-.14-3.49-.14-5.14,0-.95,0-1.77.02-2.55-1.38,1.35-2.74,2.75-4.04,4.17l-.07.09c-.71,1.07-1.31,2.03-1.83,2.94-.82,1.39-1.6,2.82-2.32,4.29.58-.73,1.16-1.43,1.74-2.12l.48-.57-.04.74c-.1,1.71-.14,3.41-.14,5.06,0,.28,0,.56,0,.83,0,2.25.11,4.54.3,6.81l.05.59ZM199.91,62.57c0,1.65.05,3.37.14,5.12.11,2.22.29,4.46.58,6.84.36,3.21.89,6.45,1.58,9.63h0c.88,4.14,2.01,8.2,3.35,12.09,1.58-1.57,3.06-2.96,4.51-4.27.4-.37.8-.73,1.21-1.09.57-.51,1.15-1.02,1.73-1.51.04-.04.09-.08.14-.13,0,0,0,0,0,0h0s0,0,.01-.01h0s.01,0,.02-.01c0,0,0,0,0,0,0,0,0,0,.01,0,0,0,0,0,0,0,.58-.5,1.16-.99,1.75-1.47.46-.39.92-.77,1.39-1.15.55-.45,1.1-.89,1.66-1.33,2.76-2.18,5.6-4.27,8.43-6.2.53-.37,1.07-.73,1.62-1.08.27-.19.55-.38.84-.56.38-.26.78-.52,1.18-.77.04-.03.08-.05.12-.07.66-.43,1.34-.86,2.03-1.28.63-.39,1.26-.78,1.9-1.16-2.12-3.32-4.38-6.82-6.92-10.69h0s-.14-.21-.14-.21h0c-1.43-2.2-2.88-4.4-4.33-6.58-1.05-1.59-2.1-3.17-3.16-4.75-.67-1.01-1.35-2.03-2.03-3.04-.48-.72-.96-1.43-1.45-2.15-.3-.45-.6-.9-.91-1.35-2.36,1.42-4.63,3-6.78,4.71,0,0,0,0,0,0-.11.08-.21.17-.32.26-.06.05-.13.11-.19.16-.15.12-.3.25-.45.37-2.68,2.23-5.21,4.71-7.5,7.37-.83.97-1.65,1.98-2.43,3.01.66-.68,1.34-1.34,2.02-2l.44-.42-.02.61c-.03.95-.04,1.94-.04,3.14ZM188.02,79.26c-.03,1.22-.04,2.35-.02,3.45.04,2.26.17,4.56.39,6.87,1.45-2.31,3.02-4.58,4.67-6.76-.22-2.45-.33-4.92-.34-7.34,0-.28,0-.56,0-.84,0-1.42.04-2.88.11-4.34-.86,1.04-1.73,2.13-2.58,3.25-.85,1.89-1.59,3.81-2.22,5.71ZM215.63,45.09c.3.44.6.88.89,1.32.49.72.97,1.43,1.45,2.15.68,1.01,1.36,2.03,2.03,3.04,1.06,1.58,2.11,3.16,3.16,4.75,1.46,2.19,2.9,4.39,4.34,6.6,4.64-2.83,9.47-5.34,14.36-7.46-1.87-1.83-3.87-3.67-5.95-5.47l-.3-.26.37-.16c4.01-1.69,8.16-3.15,12.36-4.33,3.5-.98,7.02-1.77,10.45-2.35,2.81-.48,5.68-.83,8.5-1.05,1.68-.13,3.35-.22,4.98-.27-3.62-1.57-7.37-2.79-11.17-3.64l-.11-.02c-.08-.02-.15-.03-.22-.05h0c-.11-.03-.22-.05-.33-.07-.47-.1-.95-.2-1.46-.29h-.03c-2.84-.54-5.78-.88-8.75-1.02-1.45-.06-2.91-.07-4.36-.04-3.24.08-6.45.4-9.54.96h-.06s0,.01-.01.01h0c-.74.13-1.39.26-2,.4-3.44.74-6.79,1.76-9.94,3.02-2.99,1.18-5.89,2.61-8.65,4.24ZM236.54,49.91c2.04,1.77,3.99,3.57,5.82,5.37,4.37-1.87,8.81-3.45,13.23-4.71,3.47-.98,6.96-1.79,10.4-2.39,2.76-.49,5.58-.86,8.39-1.11,2.18-.2,4.38-.32,6.56-.36.25,0,.49,0,.74-.01-1.76-1.16-3.64-2.26-5.6-3.28l-.06-.03c-.95-.5-1.92-.96-2.68-1.31-1.96.03-3.98.13-6.01.29-2.82.22-5.67.57-8.47,1.05-3.41.57-6.91,1.36-10.39,2.33-4.05,1.14-8.06,2.53-11.93,4.15Z"/>
            <path class="cls-3" d="M256.27,161.32l-.15-.48c1.91-.58,3.88-1.25,5.83-1.99,3.02-1.13,6.03-2.44,8.95-3.89,3.03-1.49,6.03-3.16,8.9-4.96,2.74-1.72,5.43-3.59,7.99-5.57,2.65-2.03,5.2-4.2,7.57-6.45,1.11-1.05,2.17-2.1,3.17-3.12l.36.35c-1,1.03-2.08,2.09-3.19,3.14-2.38,2.26-4.94,4.45-7.61,6.49-2.57,1.98-5.27,3.87-8.03,5.59-2.89,1.81-5.9,3.48-8.94,4.98-2.93,1.46-5.95,2.77-8.99,3.91-1.97.74-3.94,1.42-5.86,2Z"/>
            <path class="cls-3" d="M243.6,161.84l-.09-.49c2.01-.36,3.83-.74,5.56-1.16,3.21-.76,6.48-1.73,9.73-2.88,3.33-1.18,6.66-2.57,9.89-4.12,3.36-1.62,6.68-3.44,9.87-5.44,2.97-1.85,5.9-3.9,8.72-6.11,2.92-2.29,5.68-4.7,8.2-7.16,2.09-2.04,4.04-4.15,5.83-6.24,1.06-1.23,2.14-2.56,3.28-4.06l.4.3c-1.15,1.51-2.23,2.84-3.3,4.08-1.79,2.11-3.76,4.22-5.86,6.28-2.54,2.48-5.31,4.9-8.24,7.2-2.83,2.21-5.78,4.28-8.76,6.14-3.2,2-6.54,3.84-9.91,5.46-3.24,1.56-6.58,2.95-9.94,4.14-3.27,1.16-6.55,2.13-9.78,2.9-1.74.42-3.57.8-5.59,1.16Z"/>
            <path class="cls-3" d="M231.9,160.02l-.04-.25v-.25c1.18-.07,2.23-.17,3.23-.28,2.96-.31,5.94-.77,8.86-1.38,3.52-.72,7.09-1.67,10.61-2.82h.05c3.66-1.22,7.38-2.69,11.04-4.39,3.84-1.8,7.58-3.85,11.12-6.08,3.35-2.1,6.62-4.43,9.7-6.92,3.09-2.47,6.07-5.19,8.88-8.08l.07-.08c2.12-2.17,4.14-4.45,6-6.79,2.06-2.56,3.99-5.24,5.73-7.97h0s.04-.07.04-.07c.31-.47.61-.96.91-1.45l.23-.38.42.26-.23.38c-.29.47-.58.94-.88,1.4l-.04.06c-1.76,2.76-3.71,5.48-5.81,8.07-1.85,2.33-3.86,4.6-5.97,6.76l-.07.08c-2.84,2.93-5.86,5.69-8.99,8.19-3.1,2.51-6.38,4.85-9.74,6.96-3.55,2.25-7.31,4.3-11.18,6.11-3.69,1.71-7.43,3.2-11.13,4.41h-.05c-3.53,1.17-7.11,2.12-10.63,2.84-2.93.61-5.93,1.07-8.9,1.38-1.01.11-2.07.21-3.24.28Z"/>
            <path class="cls-3" d="M221.22,156.27v-.5c.65,0,1.29,0,1.94-.02,1.74-.03,3.51-.12,5.29-.26,2.92-.22,5.96-.6,9.04-1.14,3.78-.66,7.62-1.58,11.43-2.72,4.21-1.27,8.42-2.85,12.51-4.7,4.37-1.96,8.67-4.28,12.79-6.88,3.73-2.36,7.38-5,10.85-7.87l.09-.08c3.44-2.84,6.73-5.96,9.78-9.26,2.14-2.31,4.2-4.78,6.13-7.32,2.08-2.74,3.99-5.56,5.7-8.39,1.04-1.69,2.03-3.47,3.05-5.45l.44.23c-1.02,1.99-2.03,3.78-3.07,5.48-1.71,2.84-3.63,5.68-5.72,8.43-1.94,2.56-4.02,5.03-6.17,7.36-3.04,3.29-6.31,6.39-9.73,9.23l-.09.08c-3.51,2.91-7.21,5.59-11,7.98-4.14,2.62-8.46,4.94-12.85,6.92-4.11,1.86-8.34,3.45-12.57,4.72-3.83,1.15-7.69,2.07-11.48,2.74-3.1.54-6.16.92-9.09,1.14-1.79.14-3.58.23-5.29.26-.68,0-1.32.02-1.97.02Z"/>
            <path class="cls-3" d="M214,151.25c-.57,0-1.12,0-1.64-.02v-.5c1.17.03,2.44.02,3.89,0,1.74-.04,3.44-.12,5.06-.25,2.92-.22,5.89-.58,8.83-1.07,4-.66,7.97-1.56,11.8-2.67,4.73-1.35,9.43-3.05,13.97-5.07,5.11-2.25,10.07-4.9,14.74-7.86,4.36-2.75,8.56-5.83,12.47-9.14,3.74-3.16,7.3-6.61,10.6-10.26,2.19-2.43,4.28-4.97,6.2-7.55,2-2.67,3.87-5.45,5.55-8.26,1.12-1.83,2.18-3.73,3.17-5.66.24-.45.46-.89.68-1.34l.13-.26.45.22-.13.26c-.23.45-.45.9-.68,1.35-.99,1.93-2.07,3.85-3.19,5.68-1.69,2.82-3.57,5.61-5.58,8.3-1.93,2.59-4.02,5.14-6.22,7.59-3.31,3.66-6.89,7.13-10.64,10.3-3.93,3.33-8.15,6.41-12.53,9.18-4.69,2.98-9.67,5.64-14.8,7.9-4.56,2.02-9.28,3.74-14.03,5.09-3.85,1.12-7.84,2.02-11.86,2.69-2.96.49-5.94.85-8.87,1.07-1.63.12-3.34.21-5.08.25-.81.02-1.56.03-2.26.03Z"/>
            <polygon class="cls-3" points="212.26 151.23 212.26 151.18 212.14 151.2 212.26 150.98 212.1 150.82 212.26 150.97 212.26 150.73 212.4 150.78 212.28 150.98 212.47 151.15 212.26 151.18 212.26 151.23"/>
            <path class="cls-3" d="M203.8,144.36l-.04-.5c1.31-.11,2.74-.26,4.36-.46,1.64-.2,3.15-.42,4.61-.67,2.64-.42,5.29-.93,7.89-1.53,3.84-.88,7.63-1.93,11.28-3.12,5.13-1.68,10.21-3.7,15.12-6,5.89-2.75,11.65-5.95,17.12-9.51,4.99-3.23,9.9-6.88,14.59-10.84,3.94-3.31,7.8-6.92,11.45-10.73h0s.07-.08.07-.08c2.19-2.25,4.35-4.64,6.42-7.1,1.95-2.32,3.81-4.66,5.52-6.95,1.07-1.41,2.15-2.91,3.31-4.57l.09-.13c.49-.72.98-1.43,1.45-2.15l.42.27c-.47.73-.96,1.45-1.46,2.17l-.09.13c-1.16,1.67-2.25,3.17-3.32,4.59-1.71,2.3-3.58,4.64-5.54,6.97-2.06,2.44-4.21,4.81-6.38,7.06l-.06.08c-3.69,3.85-7.58,7.5-11.56,10.84-4.71,3.97-9.64,7.63-14.64,10.88-5.48,3.58-11.27,6.79-17.18,9.55-4.92,2.31-10.03,4.34-15.18,6.02-3.66,1.19-7.47,2.25-11.32,3.14-2.61.6-5.27,1.12-7.92,1.53-1.46.25-2.98.47-4.63.67-1.63.2-3.06.35-4.38.46Z"/>
            <path class="cls-3" d="M197.14,136.73l-.16-.47c1.26-.42,2.52-.85,3.77-1.3,1.37-.48,2.74-.98,4.11-1.49,2.64-.99,4.78-1.82,6.73-2.61,3.31-1.32,6.7-2.75,10.06-4.25,5.31-2.37,10.46-4.85,15.31-7.36,6.45-3.33,12.79-6.93,18.85-10.69,5.68-3.5,11.28-7.24,16.66-11.13,4.36-3.14,8.57-6.38,12.52-9.62,2.44-1.99,4.79-3.98,6.98-5.92,1.95-1.69,3.92-3.48,5.85-5.3,1.19-1.1,2.39-2.25,3.66-3.5.67-.65,1.34-1.31,2.01-1.97l.07-.12.12.03v.5-.25l.2.14-.05.06c-.67.66-1.34,1.32-2.01,1.97-1.27,1.25-2.47,2.4-3.66,3.5-1.94,1.83-3.92,3.62-5.87,5.32-2.2,1.95-4.55,3.94-7,5.94-3.96,3.25-8.18,6.49-12.54,9.64-5.38,3.89-11,7.64-16.69,11.15-6.07,3.77-12.43,7.37-18.89,10.71-4.86,2.52-10.02,5-15.33,7.38-3.37,1.5-6.76,2.93-10.08,4.25-1.95.79-4.1,1.62-6.75,2.61-1.37.51-2.74,1.01-4.12,1.49-1.26.45-2.52.88-3.78,1.3Z"/>
            <path class="cls-3" d="M191.69,127.81l-.33-.38c.92-.79,1.84-1.58,2.76-2.36.98-.83,2.28-1.93,3.59-3,2.09-1.74,3.85-3.16,5.53-4.48,2.64-2.11,5.47-4.28,8.39-6.46,4.56-3.41,9.28-6.77,14.03-9.98,5.94-4.04,12.14-7.99,18.42-11.75,5.79-3.48,11.81-6.9,17.91-10.16,4.58-2.45,9.23-4.83,13.83-7.07,2.79-1.38,5.61-2.72,8.39-3.99,2.03-.95,4.21-1.95,6.66-3.04l.14-.07c1.52-.68,3.05-1.34,4.58-2,.84-.37,1.68-.73,2.53-1.09l.2.46c-.85.36-1.69.72-2.53,1.09-1.48.64-2.96,1.28-4.43,1.93l-.15.08c-2.5,1.11-4.72,2.13-6.79,3.1-2.77,1.27-5.59,2.61-8.38,3.99-4.59,2.25-9.24,4.62-13.81,7.07-6.09,3.26-12.11,6.67-17.89,10.14-6.28,3.75-12.47,7.7-18.4,11.73-4.74,3.21-9.46,6.56-14.01,9.96-2.92,2.18-5.74,4.35-8.38,6.46-1.68,1.32-3.44,2.74-5.53,4.48-1.32,1.08-2.61,2.17-3.59,3-.92.78-1.84,1.57-2.76,2.36Z"/>
            <path class="cls-3" d="M187.83,118.35l-.42-.28c.68-1.02,1.3-1.92,1.91-2.77.55-.77,1.1-1.53,1.67-2.29.14-.21.3-.42.46-.62l.21-.29c.2-.26.39-.52.6-.79.14-.19.29-.39.44-.58.46-.6.94-1.2,1.42-1.79l.24.1-.2-.16c.33-.42.67-.84,1.02-1.25.37-.48.77-.95,1.16-1.42l.07-.08c.42-.5.83-.98,1.25-1.47l.07-.08c.1-.11.2-.22.29-.33l.13-.15c.55-.63,1.1-1.25,1.66-1.86,1.29-1.42,2.37-2.58,3.42-3.65.68-.71,1.37-1.41,2.04-2.07,1.68-1.67,3.25-3.16,4.79-4.55.4-.37.8-.73,1.21-1.09.57-.51,1.15-1.02,1.73-1.51.05-.05.13-.12.19-.17.58-.5,1.16-.99,1.75-1.47.46-.39.92-.77,1.39-1.15.55-.45,1.1-.89,1.66-1.33,2.76-2.18,5.6-4.27,8.43-6.2.53-.37,1.07-.73,1.62-1.08.26-.19.55-.38.84-.56.38-.26.78-.52,1.18-.77.04-.03.08-.05.12-.07.66-.43,1.34-.86,2.03-1.28.7-.44,1.41-.87,2.12-1.29,5.51-3.3,11.25-6.26,17.06-8.79,4.62-2.03,9.41-3.85,14.23-5.4,3.13-1.01,6.4-1.94,9.73-2.77,2.75-.67,5.31-1.23,7.8-1.69,1.69-.33,3.52-.64,5.6-.95.86-.13,1.73-.25,2.59-.36l.06.5c-.86.11-1.73.23-2.58.36-2.07.31-3.9.62-5.58.95-2.49.47-5.03,1.02-7.78,1.69-3.31.83-6.58,1.76-9.69,2.77-4.81,1.55-9.58,3.36-14.19,5.38-5.79,2.53-11.51,5.48-17,8.77-.71.42-1.42.85-2.12,1.29-.69.42-1.37.85-2.05,1.29-.05.03-.07.04-.09.05-.41.26-.8.52-1.19.78-.29.18-.57.37-.83.56-.55.35-1.08.71-1.61,1.08-2.83,1.93-5.66,4-8.41,6.18-.56.44-1.11.88-1.66,1.33-.47.38-.93.76-1.39,1.15-.59.48-1.17.97-1.75,1.47-.06.05-.12.1-.18.16-.59.5-1.17,1.01-1.74,1.52-.41.36-.81.72-1.21,1.09-1.54,1.39-3.1,2.87-4.77,4.53-.67.66-1.35,1.35-2.04,2.06-1.04,1.06-2.12,2.21-3.41,3.64-.56.61-1.11,1.23-1.66,1.86l-.13.15c-.1.12-.2.24-.31.35,0,.01-.03.04-.06.07-.42.49-.83.96-1.24,1.46l-.07.08c-.39.46-.78.93-1.16,1.41-.36.42-.68.83-1.01,1.25h0l-.04.05c-.47.59-.95,1.18-1.41,1.79-.15.19-.3.39-.44.58-.21.26-.4.52-.6.78l-.22.29c-.15.2-.31.41-.45.61-.58.77-1.12,1.52-1.67,2.29-.6.84-1.22,1.74-1.9,2.75Z"/>
            <path class="cls-3" d="M185.45,107.97l-.44-.23.03-.06c.34-.64.68-1.28,1.03-1.91,1.16-2.09,2.33-4.08,3.5-5.89,1.56-2.46,3.23-4.87,4.97-7.16,2.26-3,4.69-5.92,7.24-8.67,3.57-3.88,7.46-7.56,11.55-10.96,4.4-3.66,9.09-7.03,13.96-10,4.81-2.95,9.82-5.56,14.91-7.74,4.41-1.9,8.92-3.5,13.38-4.77,3.47-.98,6.96-1.79,10.4-2.39,2.76-.49,5.58-.86,8.39-1.11,2.18-.2,4.38-.32,6.56-.36.51,0,1.03-.02,1.56-.02v.5c-.52,0-1.04,0-1.55.02-2.16.04-4.36.16-6.52.36-2.8.25-5.61.62-8.35,1.11-3.42.6-6.9,1.4-10.35,2.37-4.44,1.26-8.93,2.86-13.32,4.75-5.06,2.17-10.06,4.76-14.85,7.7-4.85,2.96-9.52,6.31-13.9,9.96-4.08,3.38-7.95,7.06-11.51,10.92-2.53,2.74-4.96,5.64-7.2,8.63-1.73,2.28-3.4,4.68-4.95,7.12-1.16,1.81-2.33,3.78-3.48,5.87-.35.63-.69,1.27-1.02,1.9l-.03.06Z"/>
            <path class="cls-3" d="M184.88,96.76l-.45-.23c1.09-2.12,2.28-4.23,3.54-6.26l.04-.07c1.58-2.55,3.3-5.06,5.11-7.46,2.17-2.87,4.55-5.68,7.08-8.35,3.24-3.44,6.77-6.7,10.49-9.68,3.86-3.11,7.95-5.94,12.14-8.43,4.16-2.5,8.58-4.75,13.15-6.68,4.01-1.69,8.16-3.15,12.36-4.33,3.5-.98,7.02-1.77,10.45-2.35,2.81-.48,5.68-.83,8.5-1.05,2.07-.16,4.12-.26,6.11-.29v.5c-1.97.03-4.01.13-6.06.29-2.82.22-5.67.57-8.47,1.05-3.41.57-6.91,1.36-10.39,2.33-4.18,1.17-8.31,2.62-12.3,4.31-4.54,1.92-8.95,4.16-13.09,6.64-4.17,2.47-8.24,5.3-12.08,8.39-3.7,2.97-7.21,6.21-10.43,9.64-2.51,2.65-4.88,5.45-7.04,8.31-1.79,2.37-3.49,4.84-5.05,7.36l-.04.07c-1.27,2.04-2.47,4.15-3.56,6.28Z"/>
            <path class="cls-3" d="M186.29,85.55l-.43-.26c.53-.89,1.08-1.78,1.64-2.65l.04-.07c1.6-2.46,3.37-4.91,5.23-7.26,2.11-2.68,4.42-5.3,6.85-7.79,2.97-3.04,6.16-5.93,9.48-8.58,3.38-2.7,6.93-5.19,10.56-7.42,3.75-2.29,7.56-4.32,11.34-6.03,3.56-1.62,7.22-3.03,10.89-4.19,3.24-1.04,6.54-1.89,9.81-2.55,2.69-.55,5.44-.97,8.19-1.26.3-.04.6-.07.91-.1l.05.5c-.31.03-.6.06-.9.1-2.74.29-5.48.71-8.15,1.26-3.25.65-6.54,1.5-9.75,2.53-3.65,1.16-7.29,2.56-10.83,4.17-3.76,1.7-7.56,3.72-11.28,6-3.6,2.22-7.14,4.7-10.5,7.38-3.3,2.64-6.48,5.51-9.44,8.54-2.42,2.48-4.71,5.08-6.81,7.75-1.84,2.32-3.58,4.73-5.17,7.16l-.04.07c-.58.88-1.14,1.79-1.67,2.69Z"/>
            <path class="cls-3" d="M190.21,73.59l-.4-.3c1.03-1.35,2.07-2.66,3.11-3.88,2.03-2.4,4.23-4.76,6.57-7.01,2.72-2.64,5.63-5.14,8.64-7.44,2.99-2.3,6.19-4.47,9.5-6.46,3.36-2.02,6.81-3.83,10.24-5.37,3.26-1.49,6.63-2.81,10.02-3.93,3.09-1.02,6.24-1.88,9.34-2.57.92-.21,1.9-.42,2.91-.6l.09.49c-1,.19-1.97.39-2.89.6-3.09.68-6.22,1.54-9.3,2.55-3.38,1.11-6.73,2.43-9.97,3.91-3.41,1.54-6.84,3.34-10.18,5.35-3.3,1.98-6.48,4.15-9.46,6.43-3,2.28-5.89,4.77-8.6,7.4-2.32,2.24-4.52,4.58-6.53,6.97-1.03,1.22-2.07,2.51-3.09,3.86Z"/>
            <path class="cls-3" d="M195.39,64.21l-.37-.34c1.45-1.59,2.96-3.14,4.51-4.63,2.55-2.45,5.24-4.77,8-6.91,2.79-2.17,5.71-4.18,8.65-6,2.89-1.79,5.98-3.49,9.19-5.03,2.96-1.42,6.02-2.69,9.08-3.77h.05c.53-.21,1.05-.4,1.61-.58l.15.47c-.56.18-1.1.37-1.63.58l-.06.02c-3.03,1.08-6.06,2.33-9,3.74-3.2,1.54-6.27,3.22-9.15,5.01-2.93,1.8-5.83,3.81-8.61,5.97-2.74,2.12-5.42,4.43-7.96,6.87-1.54,1.48-3.05,3.03-4.49,4.61Z"/>
            <path class="cls-3" d="M303.81,72.12c-.12-.24-.24-.48-.36-.71-1.01-1.99-2.09-3.93-3.2-5.77l.43-.26c1.12,1.85,2.21,3.8,3.22,5.8.12.23.24.47.36.71l-.45.22Z"/>
            <path class="cls-3" d="M309.86,99.77c-.32-2.25-.74-4.49-1.24-6.66-.81-3.56-1.87-7.12-3.15-10.58-1.16-3.12-2.51-6.2-4.03-9.15-1.74-3.43-3.74-6.78-5.94-9.94-2.1-3.03-4.41-5.94-6.87-8.64-2.41-2.67-5.05-5.24-7.86-7.64-1.58-1.34-3.18-2.61-4.76-3.77l.29-.4c1.6,1.17,3.21,2.44,4.79,3.79,2.82,2.41,5.48,4.99,7.9,7.68,2.47,2.72,4.8,5.65,6.91,8.69,2.22,3.18,4.23,6.55,5.98,10,1.53,2.97,2.89,6.07,4.05,9.21,1.29,3.48,2.35,7.06,3.17,10.64.5,2.18.92,4.43,1.24,6.7l-.49.07Z"/>
            <path class="cls-3" d="M307.63,117.32h-.5c.02-1.01.03-1.78,0-2.51,0-2.48-.15-5.01-.41-7.52-.27-2.79-.71-5.66-1.3-8.51-.81-3.94-1.92-7.86-3.28-11.67-1.22-3.46-2.7-6.9-4.38-10.23-1.96-3.9-4.27-7.75-6.86-11.43l-.05-.07c-2.38-3.38-5.02-6.61-7.83-9.63-2.75-2.94-5.71-5.71-8.81-8.23-2.27-1.85-4.63-3.58-7-5.14l-.07-.04c-2.4-1.59-4.87-3.06-7.37-4.36-.3-.16-.61-.32-.91-.47l.22-.45c.31.15.63.31.93.47,2.48,1.3,4.96,2.76,7.35,4.34l.07.04c2.41,1.58,4.79,3.33,7.1,5.22,3.11,2.53,6.09,5.32,8.85,8.27,2.85,3.05,5.52,6.33,7.92,9.75l.05.07c2.59,3.68,4.89,7.52,6.85,11.43,1.69,3.35,3.17,6.81,4.4,10.29,1.37,3.82,2.48,7.77,3.3,11.73.59,2.88,1.03,5.76,1.3,8.57.26,2.53.4,5.07.41,7.55.02.74.01,1.52,0,2.53Z"/>
            <path class="cls-3" d="M301.57,131.03l-.5-.04c.06-.72.13-1.66.16-2.6.11-1.84.15-3.71.12-5.54-.02-2.39-.13-4.8-.33-7.16-.27-2.96-.65-5.87-1.16-8.65-.77-4.37-1.86-8.74-3.24-12.99-1.32-4.06-2.9-8.06-4.71-11.88-2.24-4.75-4.87-9.34-7.8-13.64-2.7-3.95-5.68-7.69-8.87-11.11-2.9-3.13-6.05-6.09-9.38-8.81-2.28-1.85-4.69-3.62-7.18-5.25-2.29-1.5-4.67-2.9-7.06-4.15-1.41-.74-2.86-1.44-4.44-2.14-.42-.2-.88-.4-1.45-.64l.19-.46c.58.24,1.05.44,1.47.65,1.58.7,3.04,1.41,4.46,2.15,2.4,1.26,4.79,2.66,7.1,4.17,2.5,1.64,4.93,3.41,7.22,5.27,3.35,2.73,6.52,5.71,9.43,8.85,3.2,3.44,6.2,7.2,8.91,11.17,2.95,4.32,5.59,8.93,7.84,13.7,1.82,3.84,3.41,7.86,4.73,11.94,1.39,4.27,2.48,8.67,3.26,13.05.5,2.79.9,5.71,1.16,8.69.2,2.38.31,4.8.33,7.2.03,1.84-.01,3.72-.12,5.57-.03.94-.1,1.89-.16,2.61Z"/>
            <path class="cls-3" d="M295.73,139.25l-.5-.03v-.09c.02-.33.04-.65.05-.97.06-1.27.1-2.41.11-3.5.03-1.66,0-3.34-.06-4.98-.08-2.27-.24-4.5-.46-6.64-.29-2.78-.69-5.61-1.22-8.42-.85-4.54-2.02-9.06-3.46-13.44v-.05c-1.46-4.39-3.22-8.77-5.27-13.02-2.63-5.45-5.72-10.69-9.19-15.57-3.06-4.32-6.49-8.47-10.2-12.33-3.11-3.24-6.49-6.33-10.05-9.2-2.33-1.86-4.76-3.64-7.23-5.29-2.06-1.38-4.22-2.71-6.42-3.95-1.3-.74-2.64-1.45-3.98-2.12-1.1-.56-2.23-1.1-3.36-1.62l-.44-.2.21-.45.39.18c1.15.53,2.3,1.09,3.43,1.65,1.35.68,2.69,1.4,4,2.14,2.21,1.25,4.39,2.58,6.46,3.97,2.48,1.65,4.92,3.44,7.27,5.31,3.57,2.88,6.97,5.99,10.09,9.24,3.73,3.88,7.17,8.04,10.24,12.39,3.48,4.91,6.59,10.17,9.23,15.65,2.06,4.28,3.84,8.69,5.29,13.12v.05c1.46,4.39,2.62,8.92,3.48,13.46.52,2.82.94,5.67,1.22,8.46.22,2.15.38,4.39.46,6.67.07,1.66.09,3.34.06,5.01,0,1.09-.04,2.24-.11,3.51,0,.32-.03.65-.04.98v.09Z"/>
            <path class="cls-3" d="M288.03,146.6l-.33-1.92c-.16-.93-.34-1.86-.52-2.78-.25-1.32-.52-2.66-.81-3.99-.39-1.81-.82-3.67-1.29-5.53v-.07c-.61-2.4-1.28-4.83-2.04-7.37-1.29-4.38-2.77-8.73-4.38-12.91-1.87-4.85-3.97-9.65-6.26-14.27-3.14-6.33-6.66-12.43-10.48-18.14-3.3-4.93-6.87-9.65-10.59-14.02-2.92-3.44-6.02-6.74-9.19-9.83-1.95-1.92-4.04-3.84-6.22-5.73-1.62-1.4-3.29-2.77-4.96-4.09-1.17-.92-2.17-1.68-3.12-2.38-.82-.61-1.65-1.21-2.49-1.81l-.46-.32c-.28-.2-.56-.39-.84-.59l.28-.41c.29.2.57.39.85.59l.46.32c.84.6,1.67,1.2,2.5,1.81.96.71,1.96,1.47,3.14,2.39,1.68,1.32,3.36,2.71,4.98,4.11,2.19,1.89,4.29,3.83,6.24,5.75,3.19,3.1,6.29,6.42,9.22,9.87,3.74,4.38,7.31,9.11,10.63,14.06,3.83,5.72,7.37,11.85,10.52,18.2,2.3,4.63,4.41,9.45,6.28,14.31,1.62,4.2,3.1,8.55,4.4,12.95.76,2.54,1.43,4.98,2.04,7.45v.07c.47,1.81.9,3.67,1.29,5.49.29,1.33.56,2.68.81,4.01.18.93.36,1.86.52,2.79l.33,1.92-.49.09Z"/>
            <path class="cls-3" d="M280.7,152.11c-.32-.6-.65-1.19-.99-1.77-.41-.75-.83-1.5-1.25-2.25l-.04-.08c-.57-1.03-1.15-2.07-1.74-3.1-.84-1.51-1.69-3.02-2.54-4.52-1.18-2.09-2.37-4.17-3.57-6.25-2.34-4.08-4.47-7.75-6.51-11.23-2.84-4.84-5.64-9.55-8.32-14.01-3.9-6.48-7.84-12.92-11.73-19.16-2.97-4.77-6.15-9.81-9.74-15.41-2.16-3.38-4.47-6.95-7.06-10.91-1.48-2.27-2.97-4.54-4.47-6.8-1.05-1.59-2.1-3.17-3.16-4.75-.67-1.01-1.35-2.03-2.03-3.04-.48-.72-.96-1.43-1.45-2.15-.34-.51-.69-1.03-1.04-1.54l.41-.28c.35.51.7,1.03,1.04,1.54.49.72.97,1.43,1.45,2.15.68,1.01,1.36,2.03,2.03,3.04,1.06,1.58,2.11,3.16,3.16,4.75,1.5,2.26,2.99,4.53,4.47,6.8,2.59,3.96,4.9,7.53,7.06,10.91,3.58,5.6,6.77,10.64,9.74,15.41,3.89,6.23,7.83,12.68,11.73,19.16,2.68,4.46,5.48,9.17,8.32,14.01,2.04,3.47,4.17,7.15,6.51,11.23,1.2,2.08,2.39,4.16,3.57,6.25.85,1.5,1.7,3.01,2.54,4.52.59,1.03,1.17,2.07,1.75,3.1l.04.08c.42.75.84,1.5,1.25,2.25.34.59.67,1.18.99,1.78l-.44.23Z"/>
            <path class="cls-3" d="M272.46,156.62c-.54-.41-1.07-.82-1.6-1.24-.75-.58-1.48-1.17-2.22-1.77-1-.81-1.99-1.64-2.98-2.47l-.08-.06c-1.38-1.17-2.79-2.43-4.22-3.73-1.98-1.8-3.79-3.53-5.53-5.28-3.03-3.01-6.03-6.24-8.9-9.59-3.47-4.03-6.86-8.36-10.05-12.86-4.1-5.79-7.89-11.89-11.29-18.15-2.79-5.14-5.37-10.5-7.66-15.93-1.66-3.89-3.24-7.99-4.68-12.19-.99-2.87-1.88-5.69-2.65-8.38-.59-2.02-1.11-3.91-1.58-5.77-.32-1.22-.64-2.53-.98-3.99-.21-.87-.41-1.74-.6-2.62l-.18-.84c-.07-.34-.15-.69-.22-1.03l.49-.1c.07.34.14.69.22,1.03l.18.84c.19.88.39,1.74.6,2.61.34,1.46.66,2.76.98,3.98.47,1.85.99,3.73,1.58,5.75.77,2.68,1.66,5.49,2.65,8.36,1.44,4.18,3,8.27,4.66,12.15,2.29,5.42,4.86,10.77,7.64,15.89,3.38,6.24,7.17,12.33,11.25,18.09,3.19,4.49,6.56,8.8,10.03,12.82,2.87,3.34,5.85,6.56,8.88,9.57,1.74,1.75,3.54,3.47,5.51,5.26,1.42,1.29,2.83,2.54,4.2,3.71l.08.06c.98.83,1.97,1.65,2.97,2.46.74.6,1.47,1.19,2.22,1.77.53.42,1.06.83,1.6,1.24l-.3.4Z"/>
            <path class="cls-3" d="M263.21,159.89c-.43-.19-.85-.38-1.28-.58-1.12-.52-2.16-1.03-3.17-1.54-1.28-.64-2.66-1.37-4.19-2.23l-.07-.03c-1.87-1.05-3.77-2.2-5.65-3.42-2.33-1.49-4.62-3.1-7-4.91-3.5-2.67-6.89-5.59-10.06-8.67-3.69-3.6-7.13-7.47-10.23-11.51-3.75-4.85-7.12-10.08-9.99-15.56-2.48-4.68-4.62-9.61-6.35-14.66-1.4-4.02-2.58-8.23-3.5-12.52-.69-3.19-1.22-6.45-1.58-9.67-.29-2.4-.48-4.65-.58-6.88-.09-1.76-.14-3.49-.14-5.14,0-1.2.01-2.21.04-3.16,0-.42.03-.84.04-1.26v-.11s.5.02.5.02v.11c-.02.41-.04.83-.05,1.25-.03.95-.04,1.95-.04,3.15,0,1.65.05,3.37.14,5.12.11,2.22.29,4.46.58,6.84.36,3.21.89,6.45,1.58,9.63.91,4.27,2.08,8.46,3.48,12.46,1.73,5.03,3.86,9.93,6.32,14.59,2.86,5.45,6.21,10.65,9.95,15.48,3.09,4.02,6.51,7.87,10.19,11.46,3.16,3.07,6.53,5.97,10.02,8.63,2.37,1.8,4.65,3.4,6.96,4.89,1.86,1.2,3.73,2.33,5.57,3.37l.06.03c1.55.87,2.94,1.61,4.23,2.25,1,.51,2.04,1.01,3.15,1.54.42.2.84.39,1.27.58l-.2.46Z"/>
            <path class="cls-3" d="M251.89,161.78c-.91-.33-1.85-.7-2.85-1.12-1.68-.68-3.37-1.44-5.15-2.33-2.19-1.07-4.35-2.24-6.41-3.49l-.06-.03c-2.46-1.47-4.88-3.09-7.37-4.96-3.33-2.48-6.54-5.24-9.54-8.22-3.22-3.2-6.25-6.69-9-10.39-3.12-4.18-5.92-8.67-8.31-13.34-2.16-4.19-4.01-8.58-5.5-13.06-1.32-3.87-2.39-7.89-3.18-11.93-.66-3.32-1.14-6.69-1.42-10-.22-2.49-.34-5-.35-7.44-.02-1.92.03-3.91.14-5.92.04-.75.09-1.56.17-2.47l.5.04c-.08.9-.13,1.71-.17,2.45-.11,2-.16,3.99-.14,5.9.01,2.43.13,4.92.35,7.4.28,3.29.76,6.64,1.42,9.94.79,4.02,1.85,8.01,3.16,11.87,1.49,4.45,3.33,8.82,5.48,12.99,2.38,4.65,5.16,9.12,8.27,13.27,2.74,3.68,5.75,7.16,8.96,10.33,2.98,2.96,6.17,5.71,9.48,8.18,2.46,1.85,4.84,3.45,7.27,4.9l.07.04c2.07,1.25,4.23,2.43,6.43,3.5,1.78.88,3.45,1.63,5.12,2.31,1,.42,1.92.78,2.83,1.11l-.17.47Z"/>
            <path class="cls-3" d="M238.4,161.32c-1.22-.54-2.33-1.07-3.4-1.6-2.27-1.14-4.51-2.41-6.66-3.76-2.43-1.52-4.84-3.21-7.16-5.04-3.03-2.37-5.92-4.98-8.59-7.76-2.78-2.85-5.42-5.99-7.84-9.3-2.66-3.65-5.05-7.51-7.1-11.47-1.91-3.66-3.58-7.5-4.98-11.4-1.28-3.61-2.33-7.28-3.13-10.92-.7-3.16-1.22-6.42-1.57-9.69-.27-2.58-.43-5.14-.47-7.64-.02-1.13-.01-2.28.02-3.52h.5c-.03,1.25-.04,2.39-.02,3.5.04,2.49.2,5.05.47,7.6.34,3.26.86,6.5,1.56,9.64.79,3.62,1.84,7.27,3.11,10.86,1.39,3.88,3.06,7.69,4.96,11.34,2.04,3.94,4.42,7.77,7.06,11.41,2.41,3.3,5.04,6.41,7.8,9.25,2.66,2.77,5.53,5.36,8.54,7.72,2.31,1.81,4.7,3.5,7.12,5.01,2.14,1.35,4.37,2.61,6.62,3.74,1.06.54,2.17,1.06,3.38,1.59l-.2.46Z"/>
            <path class="cls-3" d="M226.78,158.51c-1.13-.66-2.31-1.39-3.72-2.3-2.41-1.57-4.75-3.27-6.95-5.05-2.84-2.25-5.57-4.72-8.13-7.34-2.64-2.69-5.11-5.55-7.33-8.48-2.4-3.14-4.62-6.49-6.58-9.96-1.81-3.19-3.42-6.5-4.77-9.84-1.28-3.14-2.37-6.37-3.24-9.6-.69-2.56-1.26-5.19-1.69-7.82l.49-.08c.43,2.61.99,5.23,1.67,7.76.87,3.21,1.95,6.42,3.22,9.54,1.35,3.32,2.94,6.61,4.75,9.78,1.95,3.45,4.15,6.78,6.54,9.9,2.21,2.92,4.66,5.76,7.29,8.44,2.54,2.6,5.26,5.06,8.09,7.3,2.19,1.77,4.52,3.46,6.91,5.02,1.4.91,2.57,1.63,3.7,2.28l-.25.43Z"/>
          </g>
          <path class="cls-6" d="M286.2,234.82c.07-.14.12-.28.12-.42,0-2.3-9.76-4.28-23.66-5.12-.5-.03-.89-.42-.94-.92-.25-2.51-1.15-4.82-2.53-6.78v-.23c0-6.2-1.27-11.82-3.34-15.92-.07-.13-.11-.28-.11-.43v-10.08c0-.26.11-.5.28-.69,1.97-2.08,3.17-4.88,3.17-7.97s-1.32-6.14-3.45-8.25v-1.03c11.45-1.19,22.59-4.93,32.7-11.11l2.14-1.3c.47-.29.62-.9.33-1.37l-3.1-5.07c-.17-.28-.18-.62-.05-.92.3-.75.46-1.56.46-2.42,0-1.36-.42-2.63-1.13-3.68,26.52-20.03,34.04-57.31,16.35-86.28-17.69-28.98-54.29-39.33-84.24-24.88-.98-1.99-2.93-3.41-5.24-3.63-.32-.03-.62-.19-.79-.47l-2.95-4.84c-.29-.47-.9-.62-1.37-.33l-2.14,1.3c-36.91,22.53-48.61,70.9-26.08,107.81,10.92,17.88,28.14,30.45,48.51,35.37,3.41.83,6.84,1.41,10.27,1.78v1.07c-2.13,2.11-3.45,5.03-3.45,8.25s1.21,5.89,3.17,7.97c.18.19.28.43.28.69v10.08c0,.15-.03.3-.1.43-2.07,4.1-3.35,9.72-3.35,15.92,0,.08.01.16.01.23-1.39,1.96-2.29,4.27-2.54,6.78-.05.5-.44.89-.94.92-13.9.84-23.65,2.82-23.65,5.12,0,.14.05.28.12.42-5.61,1.19-8.92,2.65-8.92,4.24,0,4.01,21.28,7.27,47.54,7.27s47.53-3.26,47.53-7.27c0-1.59-3.31-3.05-8.91-4.24ZM215.28,45.01c2.6-1.55,5.33-2.92,8.16-4.09.25-.1.5-.2.75-.3,3.2-1.28,6.54-2.29,9.98-3.03.67-.15,1.35-.28,2.03-.4.02-.01.04-.02.06-.01,3.12-.56,6.32-.88,9.58-.96.51,0,1.02-.02,1.53-.02.47,0,.94,0,1.41.02.47,0,.95.02,1.42.04h.02c2.98.14,5.91.48,8.77,1.02h.01c.62.11,1.22.23,1.83.37,4.38.95,8.59,2.37,12.57,4.18.92.43,1.84.87,2.74,1.34t.02.01c2.18,1.13,4.3,2.38,6.33,3.76,3.2,2.16,6.18,4.61,8.92,7.32,1.69,1.67,3.29,3.42,4.78,5.27.04.04.07.07.09.11.68.84,1.33,1.69,1.96,2.56.64.89,1.26,1.79,1.85,2.71.13.2.25.4.38.6,1.18,1.85,2.26,3.77,3.23,5.76.12.24.23.49.34.73.11.22.22.45.33.68,1.12,2.41,2.08,4.9,2.88,7.47,1.15,3.63,1.96,7.4,2.43,11.29h0c.29,2.47.44,4.97.44,7.51,0,.26,0,.52-.01.78,0,.69-.02,1.38-.06,2.06h0c-.13,3.2-.52,6.34-1.13,9.39-.11.59-.24,1.18-.37,1.77h0c-.33,1.48-.72,2.93-1.16,4.36-.73,2.4-1.6,4.73-2.59,6.99-.01.01-.02.02-.02.03-1.02,2.3-2.18,4.54-3.45,6.68h-.01c-.81,1.38-1.67,2.7-2.58,3.99-.01.01-.02.02-.02.03-1.02,1.45-2.09,2.85-3.23,4.2h-.01c-2.2,2.64-4.6,5.08-7.2,7.32-2.31,1.98-4.76,3.8-7.35,5.44-2.64,1.67-5.42,3.16-8.31,4.43-2.98,1.31-6.09,2.4-9.3,3.24-.74.2-1.48.38-2.23.54-1.61.36-3.24.65-4.89.88-.03,0-.06,0-.09.02-1.27.19-2.55.32-3.85.42-.09.01-.18.01-.27.02h-.01c-1.53.11-3.06.17-4.61.17-1.28,0-2.55-.04-3.81-.12h-.01c-1.7-.1-3.37-.27-5.03-.5h-.01c-2.25-.32-4.46-.76-6.62-1.32-.01.01-.02.01-.03,0-1.68-.42-3.33-.91-4.95-1.48-1.94-.66-3.83-1.42-5.68-2.27-3.13-1.44-6.02-3.12-8.85-5.04,0,.01-.02.01-.03,0t-.02,0s-.01.01-.02,0t-.02,0s-.01.01-.02,0c-3.03-2.04-5.86-4.34-8.48-6.87-2.44-2.35-4.69-4.9-6.72-7.62-.26-.35-.52-.7-.77-1.05-.44-.62-.87-1.25-1.3-1.88-1.26-1.91-2.42-3.89-3.47-5.94-1.55-3-2.86-6.15-3.9-9.41-.59-1.81-1.09-3.66-1.51-5.55-.36-1.58-.65-3.18-.88-4.81-.42-2.91-.63-5.88-.63-8.9,0-.29,0-.57.01-.86,0-.49,0-.97.04-1.45.13-3.84.61-7.59,1.42-11.22.46-2.11,1.03-4.18,1.7-6.21.65-1.97,1.4-3.89,2.24-5.77h0c.44-1,.9-1.97,1.39-2.93.59-1.16,1.22-2.29,1.88-3.41.61-1.04,1.25-2.05,1.91-3.05,0,0,0-.01.01-.01.35-.51.7-1.02,1.06-1.52,1.1-1.54,2.26-3.03,3.49-4.46,2.3-2.67,4.82-5.15,7.53-7.4,2.5-2.08,5.17-3.97,7.99-5.65ZM241.68,170.12c-3.64-.31-7.28-.89-10.9-1.76-18.54-4.49-34.23-15.93-44.17-32.21-19.91-32.62-10.48-75.06,20.81-96.3l.05.09c-.43.88-.68,1.85-.68,2.89,0,1.46.49,2.81,1.3,3.9-26.54,20.03-34.07,57.32-16.38,86.3,17.69,28.97,54.28,39.33,84.22,24.89,1.1,2.01,3.21,3.37,5.64,3.41l.19.32c-8.72,4.77-18.18,7.62-27.87,8.47h-12.21Z"/>
          <path class="cls-1" d="M257.21,187.08c0,.67-.07,1.3-.2,1.93,0,0,0,0,0,0-1.99,3.1-5.45,5.15-9.4,5.15s-7.42-2.05-9.4-5.15c-.12-.63-.19-1.27-.19-1.93,0-5.3,4.29-9.6,9.59-9.6s9.6,4.3,9.6,9.6Z"/>
          <path class="cls-1" d="M279.6,233.45c0,1.71-14.32,3.11-31.99,3.11s-31.98-1.4-31.98-3.11c0-1.13,6.23-2.13,15.54-2.67,4.65.59,10.32.94,16.44.94s11.8-.35,16.45-.94c9.31.54,15.54,1.54,15.54,2.67Z"/>
          <path class="cls-1" d="M256.46,217.09c0,.91-.06,1.78-.19,2.63,0,.01,0,.01,0,.01-1.89,5.37-15.95,5.31-17.82-.01-.12-.86-.18-1.72-.18-2.63,0-7.22,4.07-13.08,9.09-13.08s9.1,5.86,9.1,13.08Z"/>
          <path class="cls-1" d="M289.87,239.12c0,2.91-18.91,5.26-42.25,5.26s-42.24-2.36-42.24-5.26c0-1.1,2.74-2.13,7.41-2.98,6.76,1.19,19.83,2,34.83,2s28.07-.82,34.84-2c4.68.85,7.41,1.88,7.41,2.98Z"/>
          <g>
            <path class="cls-6" d="M225.96,44.41c-.03.67-.46,1.32-1.39,2.12-.32.29-.48.43-.8.71.14.3.22.45.36.75.3.64.4,1.22.3,1.7-.24,1.11-1.56,3.21-3.59,5.7-3.15,3.86-3.67,4.73-4.58,7.72-.49,1.65-1.05,2.7-1.78,3.24-.61.45-1.34.53-2.25.31-1.27-.3-1.72-.61-5.06-3.53-1.72-1.52-3.15-2.67-3.36-2.76-.65-.29-1.64.14-2.71,1.13-1.38,1.27-2.76,1.88-3.76,1.66-.5-.1-.89-.34-1.08-.64,1.1-1.54,2.26-3.03,3.49-4.46,2.3-2.67,4.82-5.15,7.53-7.4,2.5-2.08,5.17-3.97,7.99-5.65,2.6-1.55,5.33-2.92,8.16-4.09.22.3.63.7,1.34,1.39.83.8,1.21,1.45,1.19,2.1Z"/>
            <path class="cls-6" d="M310.11,98.95c0,.26,0,.52-.01.78,0,.69-.02,1.38-.06,2.06h0c-.13,3.2-.52,6.34-1.13,9.39-.83-.1-1.77-.48-2.92-1.13-1.27-.72-2.49-1.2-3.81-1.51-3.77-.89-5.95-1.94-8.24-4.15-1.8-1.73-2.91-3.64-4.15-7.01-1.31-3.58-2.48-5.25-4.51-6.56-.84-.55-2.01-1.42-2.55-1.89-.99-.86-3.3-3.91-3.57-4.8-.02-.06-.03-.1-.04-.12-.12.04-.42.25-.56.34-1,.67-2.16.82-3.11.42-.49-.21-.52-.23-1.37.48-.51.43-1.33,1.43-1.79,2.17-2.49,4.05-4.05,4.79-7.87,3.85-3.63-.9-6.53-2.91-9.09-6.32-2.7-3.58-3.57-6.51-3.55-12.02.01-3.65-.31-5.68-.62-6.07-.32-.4-.08-.85.17-1.2.06-.08.08-.12.14-.2-.13.02-.19.03-.33.05-1.18.18-2.37-.37-3.09-1.45-.83-1.23-.85-2.12-.05-4.28.78-2.07.65-2.49-.29-3.05-1.22-.72-1.51-1.4-1.19-2.75.07-.35.11-.52.18-.87-.22-.02-.34-.03-.56-.05-1.35-.12-2.51-.91-3.76-2.54-.77-1.02-1.12-1.59-1.04-2.1.06-.39.37-.67.85-1.01,1.03-.7,2.08-.71,4.53-.02,1.16.33,1.99.49,2.59.49.41,0,.71-.07.94-.23.34-.23.53-.69.61-1.45.08-.7.22-1.72.32-2.32.06-.35.09-.52.15-.86-.22.01-.33.01-.56.03-1.14.05-2.08-.35-2.64-1.12-.69-.94-.75-2.38-.18-3.93.17-.48.46-1.09.82-1.78.47,0,.95.02,1.42.04h.02c2.98.14,5.91.48,8.77,1.02h.01c.62.11,1.22.23,1.83.37,4.38.95,8.59,2.37,12.57,4.18.92.43,1.84.87,2.74,1.34t.02.01c2.18,1.13,4.3,2.38,6.33,3.76,3.2,2.16,6.18,4.61,8.92,7.32,1.69,1.67,3.29,3.42,4.78,5.27-.31-.11-.68-.25-1.12-.44.44.21.86.4,1.21.55.68.84,1.33,1.69,1.96,2.56.64.89,1.26,1.79,1.85,2.71.13.2.25.4.38.6,1.18,1.85,2.26,3.77,3.23,5.76.12.24.23.49.34.73.11.22.22.45.33.68,1.12,2.41,2.08,4.9,2.88,7.47,1.15,3.63,1.96,7.4,2.43,11.29h0c.29,2.47.44,4.97.44,7.51Z"/>
            <path class="cls-6" d="M261.08,160.2c-1.61.36-3.24.65-4.89.88-.03,0-.06.01-.09.02-1.27.19-2.55.32-3.85.42-2.79-3.13-6.22-8.54-9.41-15.63-1.76-3.9-2.6-5.44-4.11-7.09-1.48-1.63-2.44-2.17-5.52-3.28-3.81-1.38-5.66-2.72-7.63-5.54-1.47-2.11-1.98-3.49-2.26-6.15-.27-2.51-.32-2.72-.84-3.42-.51-.69-.7-.71-.72-.71-.01,0-.04.03-.07.1-.09.29-.57.68-.84.86t-.02.02c-1.23.81-2.29.67-4.71-.58-2.66-1.37-3.68-1.42-8.7-.55-5.26.91-6.82.46-11.19-3.06-.18-.14-.35-.27-.5-.39.02.03.05.05.07.08.67.84,1.83,2.56,1.38,3.03-.09.1-.27.27-2.48-.88-1.33-.68-2.92-1.61-4.34-2.53-1.56-1.01-2.88-1.97-4.25-3.14-.36-1.58-.65-3.18-.88-4.81-.42-2.91-.63-5.88-.63-8.9,0-.29,0-.57.01-.86,0-.49.01-.97.04-1.45.13-3.84.61-7.59,1.42-11.22.46-2.11,1.03-4.18,1.7-6.21.65-1.97,1.4-3.89,2.24-5.77h0c.44-1,.9-1.97,1.39-2.93,2.43-1.83,3.85-2.55,6.92-3.51,2.38-.73,4.89-1.11,7.41-1.14,1.77-.01,2.38.03,2.65.34.15.17.16.4.15.57-.06.88-1.03,3.17-1.78,4.24-.11.15-.32.45-.43.64,1.98-.12,4.76-.01,6.21.24,1.9.32,5.4,1.54,6.21,2.15.44.33.71.86.72,1.48.02.94-.54,1.94-1.45,2.6-1.36.98-2.98,1.03-4.43.15q-.59-.35-1.11.18c-.64.67-1.3,1.52-1.58,1.99.07-.03.15-.07.26-.11,1.88-.92,3.74-.49,4.83,1.19.53.83.59,1.12.42,1.95-.12.6-.34,1.01-.72,1.33-.41.35-1.02.6-2.09.86-1.74.42-2.38.88-2.6,1.89-.36,1.57-.56,13.78-.27,15.54.45,2.66,1.74,4.32,3.52,4.9.52.17.81.38.94.67.15.31.08.69-.17,1.21-.43.88-1.49,1.23-2.76.93-.84-.21-1.46-.57-2.86-1.68-2.63-2.1-4.42-2.77-5.97-2.28-.29.1-.56.22-.79.39-.98.7-1.27,1.94-.76,3.16.42,1.02,1.87,2.54,2.89,3,.82.37,1.5-.02,2.31-1.31.45-.7.87-1.12,1.28-1.29.71-.3,1.51-.19,1.92.25.26.28.32.65.16,1.01-.07.18-.06.38.23.78.3.41.58.56,1.95.87,1.88.44,2.24.67,3.47,2.01.95,1.03,1.95,1.37,2.85,1,.81-.32,1.17-.97,1.48-2.7.29-1.64.78-3.3,2.18-2.98.2.05.74-.06,1.19-.29.67-.35,1.28-.4,2.79-.26,2.18.2,2.4.18,5.92-.51,3.87-.76,5.11-.69,8.1.54,3.19,1.31,4.37,1.47,6.94.93,1.21-.25,2.78-.51,3.48-.59,2.64-.31,5.15.65,6.06,2.32.61,1.12.72,1.8.6,3.99-.13,2.26.01,2.76,1.44,5.22,2.16,3.69,2.1,5.59-.16,8.82-1.24,1.76-1.35,2.4-.76,4.01.99,2.72,1.1,5.42.45,7.59-.16.53-.31,1.48-.34,2.08-.09,2-.91,4.08-2.18,5.38-.59.6-.59.61-.19,1.39.25.49.82,1.87,1.26,3.06.91,2.5,1.63,3.69,2.71,4.63.42.37.8.65,1.18.86Z"/>
          </g>
        </g>
        <g>
          <path class="cls-4" d="M59.59,236.97l-1-4.56,1.95-.43,1,4.56-1.95.43ZM57.72,228.5l-3.44-15.62,1.95-.43,3.44,15.62-1.95.43ZM53.42,208.97l-3.44-15.62,1.95-.43,3.44,15.62-1.95.43ZM49.12,189.44l-3.44-15.62,1.95-.43,3.44,15.62-1.95.43ZM44.81,169.91l-3.44-15.62,1.95-.43,3.44,15.62-1.95.43Z"/>
          <path class="cls-4" d="M41.6,154.74l-10.37-11.48,1.48-1.34,10.37,11.48-1.48,1.34ZM28.55,140.29l-10.73-11.87,1.48-1.34,10.73,11.87-1.48,1.34ZM15.14,125.45l-10.73-11.87,1.48-1.34,10.73,11.87-1.48,1.34Z"/>
          <path class="cls-4" d="M5.56,113.82l-.81-1.83,14.61-6.52.81,1.83-14.61,6.52ZM23.82,105.68l-.81-1.83,14.61-6.52.81,1.83-14.61,6.52ZM42.09,97.54l-.81-1.83,4.52-2.02.81,1.83-4.52,2.02Z"/>
          <path class="cls-4" d="M43.57,150.55l-2-.13,1.04-15.97,2,.13-1.04,15.97ZM44.87,130.59l-2-.13,1.04-15.97,2,.13-1.04,15.97ZM46.17,110.64l-2-.13,1.04-15.97,2,.13-1.04,15.97Z"/>
          <path class="cls-4" d="M6.09,113.26l-1.88-.69,5.54-15.01,1.88.69-5.54,15.01ZM13.01,94.49l-1.88-.69,5.54-15.01,1.88.69-5.54,15.01ZM19.93,75.73l-1.88-.69,3.77-10.22,1.88.69-3.77,10.22Z"/>
          <path class="cls-4" d="M44.41,93.95l-9.97-12.52,1.56-1.25,9.97,12.52-1.56,1.25ZM31.95,78.31l-9.97-12.52,1.56-1.25,9.97,12.52-1.56,1.25Z"/>
          <path class="cls-4" d="M42.57,154.29l-.36-1.97,15.75-2.84.36,1.97-15.75,2.84ZM62.25,150.74l-.36-1.97,15.75-2.84.36,1.97-15.75,2.84ZM81.93,147.18l-.36-1.97,6.4-1.15.36,1.97-6.4,1.15Z"/>
          <path class="cls-4" d="M46.63,95.51l-.84-1.81,14.51-6.73.84,1.81-14.51,6.73ZM64.77,87.09l-.84-1.81,14.51-6.73.84,1.81-14.51,6.73ZM82.91,78.68l-.84-1.81,13.3-6.17.84,1.81-13.3,6.17Z"/>
          <path class="cls-4" d="M23.16,66.09l-.79-1.84,14.71-6.29.79,1.84-14.71,6.29ZM41.55,58.23l-.79-1.84,14.71-6.29.79,1.84-14.71,6.29ZM59.94,50.37l-.79-1.84,14.71-6.28.79,1.84-14.71,6.28ZM78.34,42.52l-.79-1.84,14.71-6.29.79,1.84-14.71,6.29ZM96.73,34.66l-.79-1.84,13.94-5.95.79,1.84-13.94,5.95Z"/>
          <path class="cls-4" d="M46.93,95.3l-1.44-1.38,11.07-11.55,1.44,1.38-11.07,11.55ZM60.77,80.86l-1.44-1.38,11.07-11.55,1.44,1.38-11.07,11.55ZM74.61,66.43l-1.44-1.38,11.07-11.55,1.44,1.38-11.07,11.55ZM88.45,51.99l-1.44-1.38,11.07-11.55,1.44,1.38-11.07,11.55ZM102.3,37.55l-1.44-1.38,8.7-9.07,1.44,1.38-8.7,9.07Z"/>
          <path class="cls-4" d="M92.73,123.64l-12.72-7.62,1.03-1.71,12.72,7.62-1.03,1.71ZM76.58,113.96l-13.73-8.22,1.03-1.71,13.73,8.22-1.03,1.71ZM59.42,103.68l-13.73-8.22,1.03-1.71,13.73,8.22-1.03,1.71Z"/>
          <path class="cls-4" d="M106.16,102.05l-4.27-11.38,1.87-.7,4.27,11.38-1.87.7ZM100.48,86.93l-5.62-14.98,1.87-.7,5.62,14.98-1.87.7Z"/>
          <path class="cls-4" d="M96.74,71.91l-1.9-.63,5.02-15.19,1.9.63-5.02,15.19ZM103.02,52.92l-1.9-.63,5.02-15.19,1.9.63-5.02,15.19ZM109.3,33.93l-1.9-.63,1.93-5.83,1.9.63-1.93,5.83Z"/>
          <path class="cls-4" d="M96.17,72.52l-.76-1.85,14.8-6.09.76,1.85-14.8,6.09ZM114.66,64.91l-.76-1.85,14.79-6.09.76,1.85-14.79,6.09ZM133.16,57.3l-.76-1.85,14.8-6.09.76,1.85-14.8,6.09ZM151.65,49.69l-.76-1.85,6.05-2.49.76,1.85-6.05,2.49Z"/>
          <path class="cls-4" d="M144.83,80.05l-1.86-.75,5.96-14.85,1.86.75-5.96,14.85ZM152.28,61.49l-1.86-.75,5.96-14.85,1.86.75-5.96,14.85Z"/>
          <path class="cls-4" d="M158.14,46.84l-1.65-1.13,9.06-13.19,1.65,1.13-9.06,13.19ZM169.47,30.36l-1.65-1.13,9.06-13.19,1.65,1.13-9.06,13.19ZM180.8,13.87l-1.65-1.13,5.6-8.16,1.65,1.13-5.6,8.16Z"/>
          <path class="cls-4" d="M212.46,73.79l-1.46-.7.86-1.8,1.46.7-.86,1.8ZM207.39,71.37l-14.43-6.91.86-1.8,14.43,6.91-.86,1.8ZM189.36,62.73l-14.43-6.91.86-1.8,14.43,6.91-.86,1.8ZM171.32,54.09l-14.43-6.91.86-1.8,14.43,6.91-.86,1.8Z"/>
          <path class="cls-4" d="M190.68,90.26l-1.18-1.62,6.62-4.81,1.18,1.62-6.62,4.81ZM200.54,83.1l-1.18-1.62,12.95-9.4,1.18,1.62-12.95,9.4Z"/>
          <g>
            <path class="cls-7" d="M224.04,148.98s0-.04,0-.06c0-37.56-30.45-68.01-68.01-68.01s-67.08,29.56-67.97,66.35c0,0-.02,0-.02,0l-13.68,8.02c-3.74,2.19-6,6.17-6.06,10.42,0,.03,0,.07,0,.1,0,.03,0,.07,0,.1,0,.03,0,.07,0,.1,0,.03,0,.07,0,.1,0,.03,0,.07,0,.1,0,.03,0,.07,0,.1,0,.03,0,.07,0,.1,0,.03,0,.07,0,.1,0,.03,0,.07,0,.1,0,.03,0,.07,0,.1,0,.03,0,.07,0,.1,0,.03,0,.07,0,.1,0,.03,0,.07,0,.1,0,.03,0,.07,0,.1,0,.03,0,.07,0,.1,0,.03,0,.07,0,.1,0,.03,0,.07,0,.1,0,.03,0,.07,0,.1,0,.03,0,.07,0,.1,0,.03,0,.07,0,.1,0,.03,0,.07,0,.1,0,.03,0,.07,0,.1,0,.03,0,.07,0,.1,0,.03,0,.07,0,.1,0,.03,0,.07,0,.1,0,.03,0,.07,0,.1,0,.03,0,.07,0,.1,0,.03,0,.07,0,.1,0,.03,0,.07,0,.1,0,.03,0,.07,0,.1,0,.03,0,.07,0,.1,0,.03,0,.07,0,.1,0,.03,0,.07,0,.1,0,.03,0,.07,0,.1,0,.03,0,.07,0,.1,0,.03,0,.07,0,.1,0,.03,0,.07,0,.1,0,.03,0,.07,0,.1,0,.03,0,.07,0,.1-.01.61.02,1.23.1,1.85.57,4.38,3.44,8.11,7.53,9.78l8.61,3.52-4.49,27.52s0,.1,0,.29c0,.03,0,.06,0,.1,0,.03,0,.06,0,.1,0,.03,0,.06,0,.1,0,.03,0,.06,0,.1,0,.03,0,.06,0,.1,0,.03,0,.06,0,.1,0,.03,0,.06,0,.1,0,.03,0,.06,0,.1,0,.03,0,.06,0,.1,0,.03,0,.06,0,.1,0,.03,0,.06,0,.1,0,.03,0,.06,0,.1,0,.03,0,.06,0,.1,0,.03,0,.06,0,.1,0,.03,0,.06,0,.1,0,.03,0,.06,0,.1,0,.03,0,.06,0,.1,0,.03,0,.06,0,.1,0,.03,0,.06,0,.1,0,.03,0,.06,0,.1,0,.03,0,.06,0,.1,0,.03,0,.06,0,.1,0,.03,0,.06,0,.1,0,.03,0,.06,0,.1,0,.03,0,.06,0,.1,0,.03,0,.06,0,.1,0,.03,0,.06,0,.1,0,.03,0,.06,0,.1,0,.03,0,.06,0,.1,0,.03,0,.06,0,.1,0,.03,0,.06,0,.1,0,.03,0,.06,0,.1,0,.03,0,.06,0,.1,0,.03,0,.06,0,.1,0,.03,0,.06,0,.1,0,.03,0,.06,0,.1,0,.03,0,.06,0,.1,0,.03,0,.06,0,.1,0,.03,0,.06,0,.1,0,1.05.35,6.83,7.98,14.45,7.64,7.64,18.39,5.79,18.39,5.79l9.42-.9-16.18,50.34h.03s-.03.1-.03.1h.03s-.03.1-.03.1h.03s-.03.1-.03.1h.03s-.03.1-.03.1h.03s-.03.1-.03.1h.03s-.03.1-.03.1h.03s-.03.1-.03.1h.03s-.03.1-.03.1h.03s-.03.1-.03.1h.03s-.03.1-.03.1h.03s-.03.1-.03.1h.03s-.03.1-.03.1h.03s-.03.1-.03.1h.03s-.03.1-.03.1h.03s-.03.1-.03.1h.03s-.03.1-.03.1h.03s-.03.1-.03.1h.03s-.03.1-.03.1h.03s-.03.1-.03.1h.03s-.03.1-.03.1h.03s-.03.1-.03.1h.03s-.03.1-.03.1h.03s-.03.1-.03.1h.03s-.03.1-.03.1h.03s-.03.1-.03.1h.03s-.03.1-.03.1h.03s-.03.1-.03.1h.03s-.03.1-.03.1h.03s-.03.1-.03.1h.03s-.03.1-.03.1h.03s-.03.1-.03.1h.03s-.03.1-.03.1h.03s-.03.1-.03.1h.03s-.03.1-.03.1h.03s-.03.1-.03.1h.03s-.03.1-.03.1h.03s-.03.1-.03.1h.03s-.03.1-.03.1h.03s-.03.1-.03.1h.03s-.03.1-.03.1l87.98-17.36v-46.64s0-12.51,6.49-16.85c0,0,0,0,0,0,18.06-12.23,29.93-32.91,29.93-56.36,0-.01,0-.03,0-.04,0-.02,0-.04,0-.06,0-.01,0-.03,0-.04,0-.02,0-.04,0-.06,0-.01,0-.03,0-.04,0-.02,0-.04,0-.06,0-.01,0-.03,0-.04,0-.02,0-.04,0-.06,0-.01,0-.03,0-.04,0-.02,0-.04,0-.06,0-.01,0-.03,0-.04,0-.02,0-.04,0-.06,0-.01,0-.03,0-.04,0-.02,0-.04,0-.06,0-.01,0-.03,0-.04,0-.02,0-.04,0-.06,0-.01,0-.03,0-.04,0-.02,0-.04,0-.06,0-.01,0-.03,0-.04,0-.02,0-.04,0-.06,0-.01,0-.03,0-.04,0-.02,0-.04,0-.06,0-.01,0-.03,0-.04,0-.02,0-.04,0-.06,0-.01,0-.03,0-.04,0-.02,0-.04,0-.06,0-.01,0-.03,0-.04,0-.02,0-.04,0-.06,0-.01,0-.03,0-.04,0-.02,0-.04,0-.06,0-.01,0-.03,0-.04,0-.02,0-.04,0-.06,0-.01,0-.03,0-.04,0-.02,0-.04,0-.06,0-.01,0-.03,0-.04,0-.02,0-.04,0-.06,0-.01,0-.03,0-.04,0-.02,0-.04,0-.06,0-.01,0-.03,0-.04,0-.02,0-.04,0-.06,0-.01,0-.03,0-.04,0-.02,0-.04,0-.06,0-.01,0-.03,0-.04,0-.02,0-.04,0-.06,0-.01,0-.03,0-.04,0-.02,0-.04,0-.06,0-.01,0-.03,0-.04,0-.02,0-.04,0-.06,0-.01,0-.03,0-.04,0-.02,0-.04,0-.06,0-.01,0-.03,0-.04,0-.02,0-.04,0-.06,0-.01,0-.03,0-.04,0-.02,0-.04,0-.06,0-.01,0-.03,0-.04,0-.02,0-.04,0-.06,0-.01,0-.03,0-.04,0-.02,0-.04,0-.06,0-.01,0-.03,0-.04,0-.02,0-.04,0-.06,0-.01,0-.03,0-.04,0-.02,0-.04,0-.06,0-.01,0-.03,0-.04,0-.02,0-.04,0-.06,0-.01,0-.03,0-.04,0-.02,0-.04,0-.06,0-.01,0-.03,0-.04,0-.02,0-.04,0-.06,0-.01,0-.03,0-.04,0-.02,0-.04,0-.06,0-.01,0-.03,0-.04,0-.02,0-.04,0-.06,0-.01,0-.03,0-.04,0-.02,0-.04,0-.06,0-.01,0-.03,0-.04,0-.02,0-.04,0-.06,0-.01,0-.03,0-.04,0-.02,0-.04,0-.06,0-.01,0-.03,0-.04Z"/>
            <path class="cls-7" d="M95.23,294.12l.08-.26h-.05s.03-.1.03-.1h-.02s.03-.1.03-.1h-.05s.02-.05.02-.05h-.05s.08-.25.08-.25h-.05s.03-.1.03-.1h-.02s.03-.1.03-.1h-.05s.02-.05.02-.05h-.05s.08-.25.08-.25h-.05s.03-.1.03-.1h-.02s.03-.1.03-.1h-.05s.02-.05.02-.05h-.05s.08-.25.08-.25h-.05s.03-.1.03-.1h-.02s.03-.1.03-.1h-.05s.02-.05.02-.05h-.05s.08-.25.08-.25h-.05s.03-.1.03-.1h-.02s.03-.1.03-.1h-.05s.02-.05.02-.05h-.05s.08-.25.08-.25h-.05s.03-.1.03-.1h-.02s.03-.1.03-.1h-.05s.02-.05.02-.05h-.05s.08-.25.08-.25h-.05s.03-.1.03-.1h-.02s.03-.1.03-.1h-.05s.02-.05.02-.05h-.05s.08-.25.08-.25h-.05s.03-.1.03-.1h-.02s.03-.1.03-.1h-.05s.03-.1.03-.1h-.03s1.53-4.85,1.53-4.85l14.78-46.01-4.79.46c-1.42.22-12.63,1.62-20.89-6.64-8.24-8.24-8.86-14.77-8.86-16.58v-.39l3-.08-3-.02v-.39l3-.08-3-.02v-.39l3-.08-3-.02v-.39l3-.08-3-.02v-.39l3-.08-3-.02v-.39l3-.08-3-.02v-.39l3-.08-3-.02v-.39c0-.32.01-.52.01-.52l.03-.25,4.11-25.17-6.4-2.62c-5.07-2.07-8.66-6.74-9.37-12.17-.1-.75-.14-1.53-.12-2.3v-.07s0-.06,0-.06v-.07s0-.03,0-.03v-.07s0-.43,0-.43v-.07s0-.13,0-.13v-.07s0-.13,0-.13v-.07s0-.03,0-.03v-.07s0-.43,0-.43v-.07s0-.13,0-.13v-.07s0-.13,0-.13v-.07s0-.03,0-.03v-.07s0-.43,0-.43v-.07s0-.13,0-.13v-.07s0-.13,0-.13v-.07s0-.03,0-.03v-.07s0-.43,0-.43v-.07s0-.13,0-.13c.07-5.26,2.96-10.23,7.54-12.92l12.28-7.2c.86-17.96,8.38-34.71,21.28-47.34,13.34-13.05,30.96-20.23,49.63-20.23,39.16,0,71.01,31.86,71.01,71.01v4c0,23.6-11.68,45.59-31.25,58.84-4.22,2.82-5.16,11.33-5.17,14.37v49.1l-93.54,18.46-1.85.42ZM104.1,285.93l-.09.28,80.61-15.91v-44.17c0-1.44.22-14.26,7.82-19.35,17.9-12.12,28.6-32.26,28.6-53.87v-4.04c0-35.81-29.17-64.97-65.01-64.97s-64.13,28.45-64.97,63.42l-.1,4.32-2.67-1.07-12.41,7.28c-2.78,1.63-4.53,4.65-4.58,7.87v.15s0,.07,0,.07v.13s0,.07,0,.07v.13s0,.07,0,.07v.03s0,.07,0,.07v.43s0,.07,0,.07v.13s0,.07,0,.07v.13s0,.07,0,.07v.03s0,.07,0,.07v.43s0,.07,0,.07v.13s0,.07,0,.07v.13s0,.07,0,.07v.03s0,.07,0,.07v.43s0,.07,0,.07v.13s0,.07,0,.07v.13s0,.07,0,.07v.03s0,.07,0,.07v.13c-.01.55.01,1.02.07,1.47.43,3.3,2.61,6.13,5.69,7.39l10.82,4.42-4.85,29.69v.06s0,0,0,0l-.02.1h.03s-.17,0-.17,0l-2.83.06,3,.04-3,.13h3v.66l-3,.07,3,.04-3,.06,3,.04-3,.13h3v.66l-3,.07,3,.04-3,.06,3,.04-3,.13h3v.66l-3,.07,3,.04-3,.06,3,.04-3,.13h3v.46c0,.58.19,5.45,7.1,12.37,6.47,6.47,15.67,4.97,15.76,4.95l.23-.03,13.95-1.33-16.04,49.92h.02s-.03.1-.03.1h.05s-.02.05-.02.05h.05s-.08.25-.08.25h.05s-.03.1-.03.1h.02s-.03.1-.03.1h.05s-.02.05-.02.05h.05s-.08.25-.08.25h.05s-.03.1-.03.1h.02s-.03.1-.03.1h.05s-.02.05-.02.05h.05s-.08.25-.08.25h.05s-.03.1-.03.1h.02s-.03.1-.03.1h.05s-.02.05-.02.05h.05s-.08.25-.08.25h.05s-.03.1-.03.1h.02s-.03.1-.03.1h.05s-.02.05-.02.05h.05s-.08.25-.08.25h.05s-.03.1-.03.1h.02s-.03.1-.03.1h.05s-.02.05-.02.05h.05s-.08.25-.08.25h.05s-.03.1-.03.1h.02s-.03.1-.03.1h.05s-.02.05-.02.05h.05s-.08.25-.08.25h.05s-.03.1-.03.1h.02s-.03.1-.03.1h.05s-.02.05-.02.05h.05ZM82.31,212.63l-2.26.05,2.8.04-.53-.09Z"/>
          </g>
          <path class="cls-5" d="M224.05,148.92c0-37.56-30.45-68.01-68.01-68.01s-67.08,29.56-67.97,66.35c0,0-.02,0-.02,0l-13.68,8.02c-4.25,2.49-6.6,7.28-5.96,12.17.57,4.38,3.44,8.11,7.53,9.78l9.22,3.77-5.11,31.27s-.47,6.19,7.97,14.64c7.64,7.64,18.39,5.79,18.39,5.79l10.74-1.02-17.5,54.47,87.98-17.36v-46.64s0-12.51,6.49-16.85c0,0,0,0,0,0,18.06-12.23,29.93-32.91,29.93-56.36Z"/>
          <g>
            <circle class="cls-7" cx="42.34" cy="154.07" r="3.86"/>
            <path class="cls-4" d="M42,159.21c-2.83-.19-4.98-2.65-4.8-5.48.19-2.83,2.65-4.98,5.48-4.8s4.98,2.65,4.8,5.48c-.19,2.83-2.65,4.98-5.48,4.8ZM42.52,151.5c-1.42-.09-2.65.98-2.74,2.4s.98,2.65,2.4,2.74c1.42.09,2.65-.98,2.74-2.4s-.98-2.65-2.4-2.74Z"/>
          </g>
          <g>
            <circle class="cls-7" cx="5.15" cy="112.91" r="3.86"/>
            <path class="cls-4" d="M4.81,118.05c-2.83-.19-4.98-2.65-4.8-5.48.19-2.83,2.65-4.98,5.48-4.8s4.98,2.65,4.8,5.48-2.65,4.98-5.48,4.8ZM5.32,110.34c-1.42-.09-2.65.98-2.74,2.4s.98,2.65,2.4,2.74c1.42.09,2.65-.98,2.74-2.4s-.98-2.65-2.4-2.74Z"/>
          </g>
          <g>
            <circle class="cls-7" cx="46.21" cy="94.61" r="3.86"/>
            <path class="cls-4" d="M45.86,99.75c-2.83-.19-4.98-2.65-4.8-5.48s2.65-4.98,5.48-4.8,4.98,2.65,4.8,5.48-2.65,4.98-5.48,4.8ZM46.38,92.04c-1.42-.09-2.65.98-2.74,2.4-.09,1.42.98,2.65,2.4,2.74s2.65-.98,2.74-2.4c.09-1.42-.98-2.65-2.4-2.74Z"/>
          </g>
          <g>
            <circle class="cls-7" cx="22.77" cy="65.17" r="3.86"/>
            <path class="cls-4" d="M22.42,70.31c-2.83-.19-4.98-2.65-4.8-5.48s2.65-4.98,5.48-4.8,4.98,2.65,4.8,5.48-2.65,4.98-5.48,4.8ZM22.94,62.6c-1.42-.09-2.65.98-2.74,2.4s.98,2.65,2.4,2.74,2.65-.98,2.74-2.4-.98-2.65-2.4-2.74Z"/>
          </g>
          <g>
            <circle class="cls-7" cx="110.27" cy="27.79" r="3.86"/>
            <path class="cls-4" d="M109.93,32.93c-2.83-.19-4.98-2.65-4.8-5.48s2.65-4.98,5.48-4.8,4.98,2.65,4.8,5.48-2.65,4.98-5.48,4.8ZM110.45,25.22c-1.42-.09-2.65.98-2.74,2.4-.09,1.42.98,2.65,2.4,2.74,1.42.09,2.65-.98,2.74-2.4.09-1.42-.98-2.65-2.4-2.74Z"/>
          </g>
          <g>
            <circle class="cls-7" cx="95.79" cy="71.6" r="3.86"/>
            <path class="cls-4" d="M95.45,76.74c-2.83-.19-4.98-2.65-4.8-5.48.19-2.83,2.65-4.98,5.48-4.8,2.83.19,4.98,2.65,4.8,5.48s-2.65,4.98-5.48,4.8ZM95.96,69.03c-1.42-.09-2.65.98-2.74,2.4s.98,2.65,2.4,2.74,2.65-.98,2.74-2.4-.98-2.65-2.4-2.74Z"/>
          </g>
          <g>
            <circle class="cls-7" cx="157.32" cy="46.27" r="3.86"/>
            <path class="cls-4" d="M156.98,51.41c-2.83-.19-4.98-2.65-4.8-5.48.19-2.83,2.65-4.98,5.48-4.8s4.98,2.65,4.8,5.48-2.65,4.98-5.48,4.8ZM157.49,43.7c-1.42-.09-2.65.98-2.74,2.4s.98,2.65,2.4,2.74c1.42.09,2.65-.98,2.74-2.4s-.98-2.65-2.4-2.74Z"/>
          </g>
          <g>
            <circle class="cls-7" cx="185.58" cy="5.15" r="3.86"/>
            <path class="cls-4" d="M185.24,10.29c-2.83-.19-4.98-2.65-4.8-5.48S183.09-.18,185.92.01s4.98,2.65,4.8,5.48-2.65,4.98-5.48,4.8ZM185.75,2.58c-1.42-.09-2.65.98-2.74,2.4-.09,1.42.98,2.65,2.4,2.74s2.65-.98,2.74-2.4-.98-2.65-2.4-2.74Z"/>
          </g>
          <g>
            <circle class="cls-7" cx="212.9" cy="72.89" r="3.86"/>
            <path class="cls-4" d="M212.55,78.03c-2.83-.19-4.98-2.65-4.8-5.48s2.65-4.98,5.48-4.8,4.98,2.65,4.8,5.48-2.65,4.98-5.48,4.8ZM213.07,70.32c-1.42-.09-2.65.98-2.74,2.4-.09,1.42.98,2.65,2.4,2.74s2.65-.98,2.74-2.4c.09-1.42-.98-2.65-2.4-2.74Z"/>
          </g>
          <g>
            <rect class="cls-4" x="127.56" y="93.22" width="8" height="2" transform="translate(-27.75 122.61) rotate(-45.71)"/>
            <rect class="cls-4" x="134.07" y="86.54" width="8" height="2" transform="translate(-21.01 125.25) rotate(-45.71)"/>
          </g>
          <g>
            <rect class="cls-4" x="162.06" y="92.78" width="2" height="8" transform="translate(-22.97 133.46) rotate(-41.84)"/>
            <rect class="cls-4" x="152.74" y="82.37" width="2" height="8" transform="translate(-18.41 124.57) rotate(-41.84)"/>
          </g>
          <g>
            <rect class="cls-4" x="101.69" y="111.9" width="8" height="2"/>
            <path class="cls-4" d="M121.63,113.9h-10.23v-2h9.81l2.16-2.16,1.41,1.41-2.45,2.45c-.19.19-.44.29-.71.29ZM126,109.95l-1.41-1.41,4.03-4.03c.19-.19.44-.29.71-.29h7.99v2h-7.57l-3.74,3.74Z"/>
            <rect class="cls-4" x="139.02" y="104.21" width="8" height="2"/>
          </g>
          <path class="cls-4" d="M154.34,147.03l-5.53-5.53,1.41-1.41,5.53,5.53-1.41,1.41ZM147.4,140.08l-11.31-11.31,1.41-1.41,11.31,11.31-1.41,1.41ZM134.67,127.35l-11.31-11.31,1.41-1.41,11.31,11.31-1.41,1.41Z"/>
          <rect class="cls-4" x="139.97" y="126.89" width="12.2" height="2"/>
          <g>
            <circle class="cls-7" cx="128.77" cy="97.18" r="3.86"/>
            <path class="cls-4" d="M128.43,102.32c-2.83-.19-4.98-2.65-4.8-5.48s2.65-4.98,5.48-4.8,4.98,2.65,4.8,5.48-2.65,4.98-5.48,4.8ZM128.94,94.61c-1.42-.09-2.65.98-2.74,2.4-.09,1.42.98,2.65,2.4,2.74,1.42.09,2.65-.98,2.74-2.4s-.98-2.65-2.4-2.74Z"/>
          </g>
          <g>
            <circle class="cls-7" cx="165.73" cy="99.76" r="3.86"/>
            <path class="cls-4" d="M165.39,104.9c-2.83-.19-4.98-2.65-4.8-5.48.19-2.83,2.65-4.98,5.48-4.8s4.98,2.65,4.8,5.48c-.19,2.83-2.65,4.98-5.48,4.8ZM165.9,97.19c-1.42-.09-2.65.98-2.74,2.4s.98,2.65,2.4,2.74c1.42.09,2.65-.98,2.74-2.4s-.98-2.65-2.4-2.74Z"/>
          </g>
          <g>
            <circle class="cls-7" cx="147.02" cy="105.21" r="3.86"/>
            <path class="cls-4" d="M146.68,110.35c-2.83-.19-4.98-2.65-4.8-5.48s2.65-4.98,5.48-4.8,4.98,2.65,4.8,5.48-2.65,4.98-5.48,4.8ZM147.19,102.64c-1.42-.09-2.65.98-2.74,2.4s.98,2.65,2.4,2.74c1.42.09,2.65-.98,2.74-2.4s-.98-2.65-2.4-2.74Z"/>
          </g>
          <g>
            <circle class="cls-7" cx="152.17" cy="127.89" r="3.86"/>
            <path class="cls-4" d="M151.83,133.03c-2.83-.19-4.98-2.65-4.8-5.48.19-2.83,2.65-4.98,5.48-4.8s4.98,2.65,4.8,5.48c-.19,2.83-2.65,4.98-5.48,4.8ZM152.34,125.32c-1.42-.09-2.65.98-2.74,2.4s.98,2.65,2.4,2.74c1.42.09,2.65-.98,2.74-2.4s-.98-2.65-2.4-2.74Z"/>
          </g>
          <path class="cls-4" d="M160.59,116.21l-.02-2,9.01-.07.02,2-9.01.07ZM171.6,116.12l-.02-2,12-.1,2.25-2.25,1.41,1.41-2.54,2.54c-.19.19-.44.29-.7.29l-12.41.1ZM188.66,111.78l-1.41-1.41,11.31-11.31,1.41,1.41-11.31,11.31Z"/>
          <path class="cls-4" d="M201.63,131.47v-2h16s0,2,0,2h-16ZM199.63,131.47h-5.52v-2h5.52v2Z"/>
          <path class="cls-4" d="M222.99,149.22h-16v-2h16v2ZM204.99,149.22h-16v-2h16v2ZM186.99,149.22h-1.28c-.27,0-.52-.11-.71-.29l-10.41-10.41,1.41-1.41,10.12,10.12h.86v2ZM173.18,137.11l-2.27-2.27,1.41-1.41,2.27,2.27-1.41,1.41Z"/>
          <path class="cls-4" d="M200.99,164.08h-3.09v-2h2.68l8.83-8.83,1.41,1.41-9.13,9.13c-.19.19-.44.29-.71.29ZM195.9,164.08h-16v-2h16v2ZM212.24,153.25l-1.41-1.41,4.41-4.41,1.41,1.41-4.41,4.41Z"/>
          <path class="cls-4" d="M213.22,184.59l-7.76-7.76h-2.44v-2h2.85c.27,0,.52.11.71.29l8.05,8.05-1.41,1.41ZM201.02,176.83h-16v-2h16v2ZM183.02,176.83h-16v-2h16v2Z"/>
          <rect class="cls-4" x="188.43" y="191.38" width="2" height="12.39" transform="translate(-84.22 191.8) rotate(-45)"/>
          <g>
            <circle class="cls-7" cx="194.11" cy="130.47" r="3.86"/>
            <path class="cls-4" d="M193.77,135.61c-2.83-.19-4.98-2.65-4.8-5.48s2.65-4.98,5.48-4.8c2.83.19,4.98,2.65,4.8,5.48s-2.65,4.98-5.48,4.8ZM194.29,127.9c-1.42-.09-2.65.98-2.74,2.4s.98,2.65,2.4,2.74,2.65-.98,2.74-2.4-.98-2.65-2.4-2.74Z"/>
          </g>
          <g>
            <circle class="cls-7" cx="171.62" cy="134.13" r="3.86"/>
            <path class="cls-4" d="M171.28,139.27c-2.83-.19-4.98-2.65-4.8-5.48s2.65-4.98,5.48-4.8c2.83.19,4.98,2.65,4.8,5.48s-2.65,4.98-5.48,4.8ZM171.79,131.56c-1.42-.09-2.65.98-2.74,2.4-.09,1.42.98,2.65,2.4,2.74s2.65-.98,2.74-2.4c.09-1.42-.98-2.65-2.4-2.74Z"/>
          </g>
          <g>
            <circle class="cls-7" cx="179.9" cy="163.08" r="3.86"/>
            <path class="cls-4" d="M179.56,168.22c-2.83-.19-4.98-2.65-4.8-5.48s2.65-4.98,5.48-4.8,4.98,2.65,4.8,5.48-2.65,4.98-5.48,4.8ZM180.07,160.51c-1.42-.09-2.65.98-2.74,2.4s.98,2.65,2.4,2.74c1.42.09,2.65-.98,2.74-2.4s-.98-2.65-2.4-2.74Z"/>
          </g>
          <g>
            <circle class="cls-7" cx="167.02" cy="175.83" r="3.86"/>
            <path class="cls-4" d="M166.68,180.97c-2.83-.19-4.98-2.65-4.8-5.48s2.65-4.98,5.48-4.8,4.98,2.65,4.8,5.48-2.65,4.98-5.48,4.8ZM167.2,173.26c-1.42-.09-2.65.98-2.74,2.4-.09,1.42.98,2.65,2.4,2.74,1.42.09,2.65-.98,2.74-2.4s-.98-2.65-2.4-2.74Z"/>
          </g>
          <g>
            <circle class="cls-7" cx="185.05" cy="193.19" r="3.86"/>
            <path class="cls-4" d="M184.71,198.33c-2.83-.19-4.98-2.65-4.8-5.48s2.65-4.98,5.48-4.8,4.98,2.65,4.8,5.48-2.65,4.98-5.48,4.8ZM185.22,190.62c-1.42-.09-2.65.98-2.74,2.4s.98,2.65,2.4,2.74c1.42.09,2.65-.98,2.74-2.4s-.98-2.65-2.4-2.74Z"/>
          </g>
          <g>
            <circle class="cls-7" cx="160.58" cy="115.21" r="3.86"/>
            <path class="cls-4" d="M160.23,120.35c-2.83-.19-4.98-2.65-4.8-5.48s2.65-4.98,5.48-4.8c2.83.19,4.98,2.65,4.8,5.48s-2.65,4.98-5.48,4.8ZM160.75,112.64c-1.42-.09-2.65.98-2.74,2.4s.98,2.65,2.4,2.74,2.65-.98,2.74-2.4-.98-2.65-2.4-2.74Z"/>
          </g>
          <path class="cls-3" d="M117.15,231.66l28.05-3.8h0c1.98.58,2.95,2.8,2.04,4.64l-.23.46-47.37,53.16"/>
          <path class="cls-4" d="M99.65,287.13c-.28,0-.56-.12-.75-.33-.24-.26-.31-.63-.21-.97l.58-1.81,1.9.61-.06.2,12.17-2.4.39,1.96-13.83,2.73c-.06.01-.13.02-.19.02ZM117.6,283.61l-.39-1.96,15.7-3.1.39,1.96-15.7,3.1ZM102.41,280.81l-1.9-.61,4.89-15.23,1.9.61-4.89,15.23ZM137.22,279.73l-.39-1.96,15.7-3.1.39,1.96-15.7,3.1ZM156.84,275.86l-.39-1.96,15.7-3.1.39,1.96-15.7,3.1ZM176.46,271.99l-.39-1.96,10.55-2.08v-3.6h2v4.42c0,.48-.34.89-.81.98l-11.36,2.24ZM108.53,261.77l-1.9-.61,4.9-15.23,1.9.61-4.9,15.23ZM188.63,260.34h-2v-16h2v16ZM114.65,242.73l-1.9-.61,3-9.32-3.16.3-.19-1.99,4.67-.44c.34-.04.66.11.87.37.21.26.28.61.17.93l-3.46,10.77ZM188.63,240.34h-2v-16h2v16ZM103.45,233.88c-2.76,0-6.92-.44-11.01-2.54l.91-1.78c3.74,1.92,7.56,2.32,10.1,2.32,1.69,0,2.78-.18,2.79-.18l2.16-.21.19,1.99-2.09.2h0s-1.18.2-3.05.2ZM88.92,229.05c-.56-.45-1.1-.94-1.6-1.44-5.01-5.01-6.99-9.3-7.76-12.01l1.92-.55c.71,2.48,2.54,6.43,7.25,11.15.46.46.95.9,1.45,1.3l-1.26,1.56ZM188.71,220.41l-1.99-.15c.31-4.09,1.51-11.5,6.07-15.24l1.27,1.55c-4.14,3.38-5.11,10.81-5.34,13.84ZM81.18,211.54l-1.97-.32,2.58-15.79,1.97.32-2.58,15.79ZM197.26,204.26l-1.2-1.6c4.21-3.14,8.05-6.78,11.42-10.81l1.54,1.28c-3.47,4.15-7.43,7.9-11.76,11.13ZM84.4,191.8l-1.97-.32,1.61-9.87-4.08-1.67.76-1.85,4.82,1.97c.43.18.68.63.61,1.09l-1.74,10.66ZM211.53,189.94l-1.61-1.19c3.13-4.23,5.76-8.82,7.81-13.65l1.84.78c-2.11,4.97-4.82,9.7-8.04,14.06ZM76.26,178.43l-.7-.29c-4.41-1.8-7.53-5.86-8.14-10.58-.07-.56-.11-1.14-.11-1.71,0-.26,0-.52.02-.78l2,.11c-.01.22-.02.44-.02.67,0,.48.03.97.09,1.45.52,4.01,3.17,7.45,6.91,8.98l.7.29-.76,1.85ZM221.05,172.1l-1.88-.67c1.76-4.94,2.94-10.1,3.5-15.33l1.99.21c-.57,5.39-1.79,10.7-3.6,15.79ZM70.13,161.62l-1.85-.75c1.09-2.7,3.08-4.99,5.59-6.46l6.86-4.02,1.01,1.72-6.86,4.02c-2.13,1.25-3.82,3.2-4.74,5.49ZM224.97,152.27l-2-.1c.05-1.07.08-2.17.08-3.26,0-5.28-.62-10.53-1.83-15.62l1.95-.46c1.25,5.24,1.88,10.65,1.88,16.08,0,1.12-.03,2.25-.08,3.35ZM85.18,150.08l-1.01-1.72,2.91-1.71c.13-3.9.58-7.79,1.35-11.58l1.96.4c-.79,3.86-1.23,7.83-1.33,11.81,0,.32-.17.62-.44.8-.07.05-.15.09-.23.12l-3.22,1.89ZM91.29,131.63l-1.93-.51c1.39-5.22,3.4-10.29,5.98-15.05l1.76.95c-2.51,4.62-4.46,9.54-5.81,14.61ZM220.19,129.5c-1.52-5.02-3.64-9.87-6.3-14.41l1.73-1.01c2.74,4.68,4.92,9.67,6.49,14.84l-1.91.58ZM99.07,113.62l-1.7-1.05c2.85-4.59,6.24-8.85,10.09-12.66l1.41,1.42c-3.73,3.7-7.03,7.84-9.8,12.3ZM211.8,111.74c-2.92-4.37-6.35-8.39-10.2-11.97l1.36-1.47c3.97,3.68,7.5,7.83,10.51,12.32l-1.66,1.11ZM111.75,98.63l-1.32-1.5c4.06-3.58,8.54-6.68,13.32-9.22l.94,1.77c-4.63,2.46-8.99,5.47-12.93,8.95ZM198.63,97.18c-4.06-3.35-8.51-6.21-13.22-8.51l.88-1.8c4.85,2.37,9.43,5.32,13.61,8.77l-1.27,1.54ZM128.22,87.93l-.83-1.82c4.92-2.25,10.11-3.92,15.43-4.95l.38,1.96c-5.16,1-10.2,2.62-14.98,4.8ZM181.83,87.05c-4.84-2.02-9.93-3.47-15.12-4.3l.32-1.97c5.35.86,10.59,2.35,15.58,4.43l-.77,1.85ZM147.08,82.5l-.26-1.98c5.33-.71,10.85-.8,16.19-.26l-.2,1.99c-5.19-.52-10.55-.44-15.72.25Z"/>
          <path class="cls-4" d="M157.42,169.23l-.19-1.99c.07,0,6.86-.68,10.53-3.07,2.36-1.53,7.05-5.73,7.95-10.66.46-2.52-.13-4.93-1.77-7.18-2.28-3.12-5.49-4.28-9.55-3.46-2.75.55-5.34,1.99-7.48,4.15l-5.13,5.17-1.42-1.41,5.13-5.17c2.43-2.44,5.37-4.07,8.51-4.71,4.82-.97,8.82.49,11.56,4.24,1.97,2.7,2.69,5.63,2.12,8.72-1.03,5.58-6.03,10.15-8.83,11.97-4.09,2.66-11.14,3.35-11.43,3.38Z"/>
          <path class="cls-4" d="M166.64,161.51l-1.27-1.55c1.69-1.38,6.93-6.29,3.21-11.38-.59-.8-1.27-1.42-2.03-1.83l.95-1.76c1.03.56,1.93,1.37,2.7,2.41,3.78,5.17.64,10.68-3.56,14.11Z"/>
          <path class="cls-4" d="M113.8,161.74c-10.01,0-17.85-3.71-17.85-8.44s7.84-8.44,17.85-8.44,17.85,3.71,17.85,8.44-7.84,8.44-17.85,8.44ZM113.8,146.87c-9.34,0-15.85,3.39-15.85,6.44s6.51,6.44,15.85,6.44,15.85-3.39,15.85-6.44-6.51-6.44-15.85-6.44Z"/>
          <g>
            <circle class="cls-4" cx="122.75" cy="153.3" r="6.02"/>
            <path class="cls-4" d="M122.75,160.32c-3.87,0-7.02-3.15-7.02-7.02s3.15-7.02,7.02-7.02,7.02,3.15,7.02,7.02-3.15,7.02-7.02,7.02ZM122.75,148.29c-2.77,0-5.02,2.25-5.02,5.02s2.25,5.02,5.02,5.02,5.02-2.25,5.02-5.02-2.25-5.02-5.02-5.02Z"/>
          </g>
          <path class="cls-4" d="M97.15,195.95c-1.88,0-3.78-.23-5.64-.7l.49-1.94c6.56,1.66,13.58.05,18.76-4.31l1.16-.98,1.29,1.53-1.16.98c-4.2,3.53-9.51,5.42-14.9,5.42Z"/>
          <g>
            <circle class="cls-7" cx="60.57" cy="236.75" r="3.86"/>
            <path class="cls-4" d="M60.22,241.89c-2.83-.19-4.98-2.65-4.8-5.48s2.65-4.98,5.48-4.8,4.98,2.65,4.8,5.48-2.65,4.98-5.48,4.8ZM60.74,234.18c-1.42-.09-2.65.98-2.74,2.4-.09,1.42.98,2.65,2.4,2.74s2.65-.98,2.74-2.4c.09-1.42-.98-2.65-2.4-2.74Z"/>
          </g>
        </g>
      </g>
    </g>
  </g>
</svg>