<svg width="912" height="239" viewBox="0 0 912 239" fill="none" xmlns="http://www.w3.org/2000/svg">
<path d="M911.106 39.1481C911.106 39.1481 911.106 39.1199 911.106 39.1011C911.106 37.7941 910.232 36.1768 907.768 35.5562L895.648 32.5284C895.271 32.4343 894.867 32.4343 894.5 32.5284L877.904 36.6845L845.398 28.5603C844.232 28.2688 842.897 28.2688 841.731 28.5603L827.081 32.2181C826.658 32.3215 826.122 32.3215 825.698 32.2181L809.798 28.2406C809.365 28.1278 808.905 28.156 808.51 28.2782L792.75 32.2181C792.337 32.3215 791.791 32.3215 791.368 32.2181L759.548 24.2631C758.382 23.9716 757.047 23.9716 755.881 24.2631L741.231 27.9209C740.808 28.0243 740.263 28.0243 739.849 27.9209L724.052 23.9716C723.657 23.8494 723.215 23.84 722.792 23.9434L706.891 27.9209C706.468 28.0243 705.932 28.0243 705.509 27.9209L673.689 19.9659C672.523 19.6744 671.188 19.6744 670.031 19.9659L638.221 27.9209C637.807 28.0243 637.262 28.0243 636.839 27.9209L622.189 24.2631C621.023 23.9716 619.688 23.9716 618.522 24.2631L602.715 28.2218C602.715 28.2218 602.649 28.2312 602.612 28.2406L585.545 32.5096C585.545 32.5096 585.479 32.5284 585.442 32.5284L568.845 36.6751L536.349 28.5509C535.183 28.2594 533.847 28.2594 532.681 28.5509L518.031 32.2087C517.608 32.3121 517.072 32.3121 516.649 32.2087L502.018 28.5509C500.852 28.2594 499.517 28.2594 498.351 28.5509L466.832 36.4306C464.368 37.0512 463.494 38.6686 463.494 39.9756V54.428L452.191 57.2583C451.787 57.3618 451.355 57.3524 451.025 57.3053V52.8483C451.025 51.5413 450.151 49.924 447.687 49.3034L432.088 45.4011C431.712 45.3071 431.307 45.3071 430.941 45.4011L415.341 49.3034C412.877 49.9146 412.003 51.5413 412.003 52.8483V69.0967C412.003 70.4038 412.877 72.0211 415.341 72.6417L420.184 73.8547L415.341 75.0677C412.877 75.6789 412.003 77.3056 412.003 78.6126V93.0745L381.001 100.823C378.538 101.443 377.663 103.06 377.663 104.368V129.201C377.663 130.508 378.538 132.125 381.001 132.746L394.833 136.197V142.948C394.833 144.067 395.623 145.007 396.676 145.242L430.941 153.818C431.317 153.912 431.721 153.912 432.088 153.818L448.684 149.671L480.664 157.664V197.881C480.664 199.188 481.538 200.805 484.002 201.426L497.834 204.886V210.763C497.834 212.07 498.708 213.687 501.172 214.308L515.511 217.89C516.094 218.031 516.715 218.107 517.345 218.107C517.975 218.107 518.596 218.031 519.179 217.89L533.528 214.298C535.991 213.687 536.866 212.06 536.866 210.753V204.876L550.698 201.416C553.161 200.805 554.036 199.178 554.036 197.871V183.409L567.867 179.949C570.331 179.338 571.206 177.711 571.206 176.404V161.942L585.028 158.482C587.492 157.861 588.366 156.244 588.366 154.937V149.06L602.198 145.6C604.661 144.979 605.536 143.362 605.536 142.055V128.768L618.522 132.012C619.688 132.304 621.023 132.304 622.189 132.012L636.538 128.42C639.001 127.8 639.876 126.183 639.876 124.875V111.589L669.505 118.999V134.326C669.505 135.444 670.295 136.385 671.348 136.62L684.371 139.873C686.393 140.381 688.668 140.005 690.032 138.942C690.897 138.265 691.376 137.334 691.376 136.328V131.862L722.669 124.039C723.093 123.935 723.629 123.935 724.052 124.039L738.166 127.574V133.451C738.166 134.758 739.04 136.375 741.504 136.996L755.336 140.456V147.208C755.336 148.327 756.125 149.267 757.179 149.502L773.023 153.47C774.189 153.762 775.524 153.762 776.69 153.47L787.541 150.753C790.005 150.132 790.879 148.515 790.879 147.208C790.879 147.189 790.879 147.179 790.879 147.161C790.879 147.142 790.879 147.132 790.879 147.114C790.879 147.095 790.879 147.085 790.879 147.067C790.879 147.048 790.879 147.038 790.879 147.02C790.879 147.001 790.879 146.991 790.879 146.973C790.879 146.954 790.879 146.944 790.879 146.926C790.879 146.907 790.879 146.897 790.879 146.879C790.879 146.86 790.879 146.85 790.879 146.832C790.879 146.813 790.879 146.803 790.879 146.785C790.879 146.766 790.879 146.756 790.879 146.738C790.879 146.719 790.879 146.709 790.879 146.691C790.879 146.672 790.879 146.662 790.879 146.644C790.879 146.625 790.879 146.615 790.879 146.596C790.879 146.578 790.879 146.568 790.879 146.549C790.879 146.531 790.879 146.521 790.879 146.502C790.879 146.484 790.879 146.474 790.879 146.455C790.879 146.437 790.879 146.427 790.879 146.408C790.879 146.39 790.879 146.38 790.879 146.361C790.879 146.343 790.879 146.333 790.879 146.314C790.879 146.296 790.879 146.286 790.879 146.267C790.879 146.249 790.879 146.239 790.879 146.22C790.879 146.202 790.879 146.192 790.879 146.173C790.879 146.155 790.879 146.145 790.879 146.126C790.879 146.108 790.879 146.098 790.879 146.079C790.879 146.061 790.879 146.051 790.879 146.032C790.879 146.014 790.879 146.004 790.879 145.985C790.879 145.966 790.879 145.957 790.879 145.938C790.879 145.919 790.879 145.91 790.879 145.891C790.879 145.872 790.879 145.863 790.879 145.844C790.879 145.825 790.879 145.816 790.879 145.797C790.879 145.778 790.879 145.769 790.879 145.75C790.879 145.731 790.879 145.722 790.879 145.703C790.879 145.684 790.879 145.675 790.879 145.656C790.879 145.637 790.879 145.628 790.879 145.609C790.879 145.59 790.879 145.581 790.879 145.562C790.879 145.543 790.879 145.534 790.879 145.515C790.879 145.496 790.879 145.487 790.879 145.468C790.879 145.449 790.879 145.44 790.879 145.421C790.879 145.402 790.879 145.393 790.879 145.374C790.879 145.355 790.879 145.346 790.879 145.327C790.879 145.308 790.879 145.299 790.879 145.28C790.879 145.261 790.879 145.252 790.879 145.233C790.879 145.214 790.879 145.205 790.879 145.186C790.879 145.167 790.879 145.158 790.879 145.139C790.879 145.12 790.879 145.111 790.879 145.092C790.879 145.073 790.879 145.064 790.879 145.045C790.879 145.026 790.879 145.017 790.879 144.998C790.879 144.979 790.879 144.97 790.879 144.951C790.879 144.932 790.879 144.923 790.879 144.904C790.879 144.885 790.879 144.876 790.879 144.857C790.879 144.838 790.879 144.829 790.879 144.81C790.879 144.791 790.879 144.782 790.879 144.763C790.879 144.744 790.879 144.735 790.879 144.716C790.879 144.697 790.879 144.688 790.879 144.669C790.879 144.65 790.879 144.641 790.879 144.622C790.879 144.603 790.879 144.594 790.879 144.575C790.879 144.556 790.879 144.547 790.879 144.528C790.879 144.509 790.879 144.5 790.879 144.481C790.879 144.462 790.879 144.453 790.879 144.434C790.879 144.415 790.879 144.406 790.879 144.387C790.879 144.368 790.879 144.359 790.879 144.34C790.879 144.321 790.879 144.312 790.879 144.293C790.879 144.274 790.879 144.265 790.879 144.246C790.879 144.227 790.879 144.218 790.879 144.199C790.879 144.18 790.879 144.171 790.879 144.152C790.879 144.133 790.879 144.123 790.879 144.105C790.879 144.086 790.879 144.076 790.879 144.058C790.879 144.039 790.879 144.029 790.879 144.011C790.879 143.992 790.879 143.982 790.879 143.964C790.879 143.945 790.879 143.935 790.879 143.917C790.879 143.898 790.879 143.888 790.879 143.87C790.879 143.851 790.879 143.841 790.879 143.823C790.879 143.804 790.879 143.794 790.879 143.776C790.879 143.757 790.879 143.747 790.879 143.729C790.879 143.71 790.879 143.7 790.879 143.682C790.879 143.663 790.879 143.653 790.879 143.635C790.879 143.616 790.879 143.606 790.879 143.588C790.879 143.569 790.879 143.559 790.879 143.541C790.879 143.522 790.879 143.512 790.879 143.493C790.879 143.475 790.879 143.465 790.879 143.446C790.879 143.428 790.879 143.418 790.879 143.399C790.879 143.381 790.879 143.371 790.879 143.352C790.879 143.334 790.879 143.324 790.879 143.305C790.879 143.287 790.879 143.277 790.879 143.258C790.879 143.24 790.879 143.23 790.879 143.211C790.879 143.193 790.879 143.183 790.879 143.164C790.879 143.146 790.879 143.136 790.879 143.117C790.879 143.099 790.879 143.089 790.879 143.07C790.879 143.052 790.879 143.042 790.879 143.023C790.879 143.005 790.879 142.995 790.879 142.976C790.879 142.958 790.879 142.948 790.879 142.929C790.879 142.911 790.879 142.901 790.879 142.882C790.879 142.863 790.879 142.854 790.879 142.835C790.879 142.816 790.879 142.807 790.879 142.788C790.879 142.769 790.879 142.76 790.879 142.741C790.879 142.722 790.879 142.713 790.879 142.694C790.879 142.675 790.879 142.666 790.879 142.647C790.879 142.628 790.879 142.619 790.879 142.6C790.879 142.581 790.879 142.572 790.879 142.553C790.879 142.534 790.879 142.525 790.879 142.506C790.879 142.487 790.879 142.478 790.879 142.459C790.879 142.44 790.879 142.431 790.879 142.412C790.879 142.393 790.879 142.384 790.879 142.365C790.879 142.346 790.879 142.337 790.879 142.318C790.879 142.299 790.879 142.29 790.879 142.271C790.879 142.252 790.879 142.243 790.879 142.224C790.879 142.205 790.879 142.196 790.879 142.177C790.879 142.158 790.879 142.149 790.879 142.13C790.879 142.111 790.879 142.102 790.879 142.083C790.879 142.064 790.879 142.055 790.879 142.036C790.879 142.017 790.879 142.008 790.879 141.989C790.879 141.97 790.879 141.961 790.879 141.942C790.879 141.923 790.879 141.914 790.879 141.895C790.879 141.876 790.879 141.867 790.879 141.848C790.879 141.829 790.879 141.82 790.879 141.801C790.879 141.782 790.879 141.773 790.879 141.754C790.879 141.735 790.879 141.726 790.879 141.707C790.879 141.688 790.879 141.679 790.879 141.66C790.879 141.641 790.879 141.632 790.879 141.613C790.879 141.594 790.879 141.585 790.879 141.566C790.879 141.547 790.879 141.538 790.879 141.519C790.879 141.5 790.879 141.491 790.879 141.472C790.879 141.453 790.879 141.444 790.879 141.425C790.879 141.406 790.879 141.397 790.879 141.378C790.879 141.359 790.879 141.35 790.879 141.331L792.487 140.926C793.568 140.71 794.377 139.76 794.377 138.623V123.286L808.199 119.835C810.663 119.224 811.537 117.598 811.537 116.291V94.4191L821.702 96.9579C823.724 97.4657 825.999 97.0896 827.363 96.027C828.228 95.35 828.707 94.4191 828.707 93.413V88.9559L842.539 85.4956C845.003 84.875 845.877 83.2577 845.877 81.9507V65.7023C845.877 64.3952 845.003 62.7779 842.539 62.1573L820.527 56.6565L825.67 55.3683C826.093 55.2649 826.629 55.2649 827.052 55.3683L842.821 59.3082C842.821 59.3082 842.915 59.3364 842.962 59.3458L858.355 63.1916V69.0685C858.355 70.3756 859.23 71.9929 861.693 72.6135L873.212 75.4908C875.234 75.9986 877.509 75.6224 878.873 74.5599C879.738 73.8829 880.217 72.952 880.217 71.9459V58.8945L895.516 55.0768C895.516 55.0768 895.582 55.0674 895.619 55.058L907.74 52.0303C910.203 51.4097 911.078 49.7923 911.078 48.4853C911.078 48.4665 911.078 48.4571 911.078 48.4383C911.078 48.4195 911.078 48.4101 911.078 48.3913C911.078 48.3725 911.078 48.3631 911.078 48.3443C911.078 48.3255 911.078 48.3161 911.078 48.2973C911.078 48.2784 911.078 48.269 911.078 48.2502C911.078 48.2314 911.078 48.222 911.078 48.2032C911.078 48.1844 911.078 48.175 911.078 48.1562C911.078 48.1374 911.078 48.128 911.078 48.1092C911.078 48.0904 911.078 48.081 911.078 48.0622C911.078 48.0434 911.078 48.034 911.078 48.0152C911.078 47.9964 911.078 47.987 911.078 47.9681C911.078 47.9493 911.078 47.9399 911.078 47.9211C911.078 47.9023 911.078 47.8929 911.078 47.8741C911.078 47.8553 911.078 47.8459 911.078 47.8271C911.078 47.8083 911.078 47.7989 911.078 47.7801C911.078 47.7613 911.078 47.7519 911.078 47.7331C911.078 47.7143 911.078 47.7049 911.078 47.6861C911.078 47.6672 911.078 47.6578 911.078 47.639C911.078 47.6202 911.078 47.6108 911.078 47.592C911.078 47.5732 911.078 47.5638 911.078 47.545C911.078 47.5262 911.078 47.5168 911.078 47.498C911.078 47.4792 911.078 47.4698 911.078 47.451C911.078 47.4322 911.078 47.4228 911.078 47.404C911.078 47.3852 911.078 47.3758 911.078 47.3569C911.078 47.3381 911.078 47.3287 911.078 47.3099C911.078 47.2911 911.078 47.2817 911.078 47.2629C911.078 47.2441 911.078 47.2347 911.078 47.2159C911.078 47.1971 911.078 47.1877 911.078 47.1689C911.078 47.1501 911.078 47.1407 911.078 47.1219C911.078 47.1031 911.078 47.0937 911.078 47.0749C911.078 47.0561 911.078 47.0466 911.078 47.0278C911.078 47.009 911.078 46.9996 911.078 46.9808C911.078 46.962 911.078 46.9526 911.078 46.9338C911.078 46.915 911.078 46.9056 911.078 46.8868C911.078 46.868 911.078 46.8586 911.078 46.8398C911.078 46.821 911.078 46.8116 911.078 46.7928C911.078 46.774 911.078 46.7646 911.078 46.7458C911.078 46.7269 911.078 46.7175 911.078 46.6987C911.078 46.6799 911.078 46.6705 911.078 46.6517C911.078 46.6329 911.078 46.6235 911.078 46.6047C911.078 46.5859 911.078 46.5765 911.078 46.5577C911.078 46.5389 911.078 46.5295 911.078 46.5107C911.078 46.4919 911.078 46.4825 911.078 46.4637C911.078 46.4449 911.078 46.4355 911.078 46.4166C911.078 46.3978 911.078 46.3884 911.078 46.3696C911.078 46.3508 911.078 46.3414 911.078 46.3226C911.078 46.3038 911.078 46.2944 911.078 46.2756C911.078 46.2568 911.078 46.2474 911.078 46.2286C911.078 46.2098 911.078 46.2004 911.078 46.1816C911.078 46.1628 911.078 46.1534 911.078 46.1346C911.078 46.1157 911.078 46.1063 911.078 46.0875C911.078 46.0687 911.078 46.0593 911.078 46.0405C911.078 46.0217 911.078 46.0123 911.078 45.9935C911.078 45.9747 911.078 45.9653 911.078 45.9465C911.078 45.9277 911.078 45.9183 911.078 45.8995C911.078 45.8807 911.078 45.8713 911.078 45.8525C911.078 45.8337 911.078 45.8243 911.078 45.8055C911.078 45.7866 911.078 45.7772 911.078 45.7584C911.078 45.7396 911.078 45.7302 911.078 45.7114C911.078 45.6926 911.078 45.6832 911.078 45.6644C911.078 45.6456 911.078 45.6362 911.078 45.6174C911.078 45.5986 911.078 45.5892 911.078 45.5704C911.078 45.5516 911.078 45.5422 911.078 45.5234C911.078 45.5046 911.078 45.4951 911.078 45.4763C911.078 45.4575 911.078 45.4481 911.078 45.4293C911.078 45.4105 911.078 45.4011 911.078 45.3823C911.078 45.3635 911.078 45.3541 911.078 45.3353C911.078 45.3165 911.078 45.3071 911.078 45.2883C911.078 45.2695 911.078 45.2601 911.078 45.2413C911.078 45.2225 911.078 45.2131 911.078 45.1943C911.078 45.1754 911.078 45.166 911.078 45.1472C911.078 45.1284 911.078 45.119 911.078 45.1002C911.078 45.0814 911.078 45.072 911.078 45.0532C911.078 45.0344 911.078 45.025 911.078 45.0062C911.078 44.9874 911.078 44.978 911.078 44.9592C911.078 44.9404 911.078 44.931 911.078 44.9122C911.078 44.8934 911.078 44.884 911.078 44.8651C911.078 44.8463 911.078 44.8369 911.078 44.8181C911.078 44.7993 911.078 44.7899 911.078 44.7711C911.078 44.7523 911.078 44.7429 911.078 44.7241C911.078 44.7053 911.078 44.6959 911.078 44.6771C911.078 44.6583 911.078 44.6489 911.078 44.6301C911.078 44.6113 911.078 44.6019 911.078 44.5831C911.078 44.5643 911.078 44.5548 911.078 44.536C911.078 44.5172 911.078 44.5078 911.078 44.489C911.078 44.4702 911.078 44.4608 911.078 44.442C911.078 44.4232 911.078 44.4138 911.078 44.395C911.078 44.3762 911.078 44.3668 911.078 44.348C911.078 44.3292 911.078 44.3198 911.078 44.301C911.078 44.2822 911.078 44.2728 911.078 44.254C911.078 44.2351 911.078 44.2257 911.078 44.2069C911.078 44.1881 911.078 44.1787 911.078 44.1599C911.078 44.1411 911.078 44.1317 911.078 44.1129C911.078 44.0941 911.078 44.0847 911.078 44.0659C911.078 44.0471 911.078 44.0377 911.078 44.0189C911.078 44.0001 911.078 43.9907 911.078 43.9719C911.078 43.9531 911.078 43.9437 911.078 43.9248C911.078 43.906 911.078 43.8966 911.078 43.8778C911.078 43.859 911.078 43.8496 911.078 43.8308C911.078 43.812 911.078 43.8026 911.078 43.7838C911.078 43.765 911.078 43.7556 911.078 43.7368C911.078 43.718 911.078 43.7086 911.078 43.6898C911.078 43.671 911.078 43.6616 911.078 43.6428C911.078 43.6239 911.078 43.6145 911.078 43.5957C911.078 43.5769 911.078 43.5675 911.078 43.5487C911.078 43.5299 911.078 43.5205 911.078 43.5017C911.078 43.4829 911.078 43.4735 911.078 43.4547C911.078 43.4359 911.078 43.4265 911.078 43.4077C911.078 43.3889 911.078 43.3795 911.078 43.3607C911.078 43.3419 911.078 43.3325 911.078 43.3136C911.078 43.2948 911.078 43.2854 911.078 43.2666C911.078 43.2478 911.078 43.2384 911.078 43.2196C911.078 43.2008 911.078 43.1914 911.078 43.1726C911.078 43.1538 911.078 43.1444 911.078 43.1256C911.078 43.1068 911.078 43.0974 911.078 43.0786C911.078 43.0598 911.078 43.0504 911.078 43.0316C911.078 43.0128 911.078 43.0033 911.078 42.9845C911.078 42.9657 911.078 42.9563 911.078 42.9375C911.078 42.9187 911.078 42.9093 911.078 42.8905C911.078 42.8717 911.078 42.8623 911.078 42.8435C911.078 42.8247 911.078 42.8153 911.078 42.7965C911.078 42.7777 911.078 42.7683 911.078 42.7495C911.078 42.7307 911.078 42.7213 911.078 42.7025C911.078 42.6836 911.078 42.6742 911.078 42.6554C911.078 42.6366 911.078 42.6272 911.078 42.6084C911.078 42.5896 911.078 42.5802 911.078 42.5614C911.078 42.5426 911.078 42.5332 911.078 42.5144C911.078 42.4956 911.078 42.4862 911.078 42.4674C911.078 42.4486 911.078 42.4392 911.078 42.4204C911.078 42.4016 911.078 42.3922 911.078 42.3733C911.078 42.3545 911.078 42.3451 911.078 42.3263C911.078 42.3075 911.078 42.2981 911.078 42.2793C911.078 42.2605 911.078 42.2511 911.078 42.2323C911.078 42.2135 911.078 42.2041 911.078 42.1853C911.078 42.1665 911.078 42.1571 911.078 42.1383C911.078 42.1195 911.078 42.1101 911.078 42.0913C911.078 42.0724 911.078 42.063 911.078 42.0442C911.078 42.0254 911.078 42.016 911.078 41.9972C911.078 41.9784 911.078 41.969 911.078 41.9502C911.078 41.9314 911.078 41.922 911.078 41.9032C911.078 41.8844 911.078 41.875 911.078 41.8562C911.078 41.8374 911.078 41.828 911.078 41.8092C911.078 41.7904 911.078 41.781 911.078 41.7621C911.078 41.7433 911.078 41.7339 911.078 41.7151C911.078 41.6963 911.078 41.6869 911.078 41.6681C911.078 41.6493 911.078 41.6399 911.078 41.6211C911.078 41.6023 911.078 41.5929 911.078 41.5741C911.078 41.5553 911.078 41.5459 911.078 41.5271C911.078 41.5083 911.078 41.4989 911.078 41.4801C911.078 41.4613 911.078 41.4518 911.078 41.433C911.078 41.4142 911.078 41.4048 911.078 41.386C911.078 41.3672 911.078 41.3578 911.078 41.339C911.078 41.3202 911.078 41.3108 911.078 41.292C911.078 41.2732 911.078 41.2638 911.078 41.245C911.078 41.2262 911.078 41.2168 911.078 41.198C911.078 41.1792 911.078 41.1698 911.078 41.151C911.078 41.1321 911.078 41.1227 911.078 41.1039C911.078 41.0851 911.078 41.0757 911.078 41.0569C911.078 41.0381 911.078 41.0287 911.078 41.0099C911.078 40.9911 911.078 40.9817 911.078 40.9629C911.078 40.9441 911.078 40.9347 911.078 40.9159C911.078 40.8971 911.078 40.8877 911.078 40.8689C911.078 40.8501 911.078 40.8407 911.078 40.8218C911.078 40.803 911.078 40.7936 911.078 40.7748C911.078 40.756 911.078 40.7466 911.078 40.7278C911.078 40.709 911.078 40.6996 911.078 40.6808C911.078 40.662 911.078 40.6526 911.078 40.6338C911.078 40.615 911.078 40.6056 911.078 40.5868C911.078 40.568 911.078 40.5586 911.078 40.5398C911.078 40.5209 911.078 40.5115 911.078 40.4927C911.078 40.4739 911.078 40.4645 911.078 40.4457C911.078 40.4269 911.078 40.4175 911.078 40.3987C911.078 40.3799 911.078 40.3705 911.078 40.3517C911.078 40.3329 911.078 40.3235 911.078 40.3047C911.078 40.2859 911.078 40.2765 911.078 40.2577C911.078 40.2389 911.078 40.2295 911.078 40.2106C911.078 40.1918 911.078 40.1824 911.078 40.1636C911.078 40.1448 911.078 40.1354 911.078 40.1166C911.078 40.0978 911.078 40.0884 911.078 40.0696C911.078 40.0508 911.078 40.0414 911.078 40.0226C911.078 40.0038 911.078 39.9944 911.078 39.9756C911.078 39.9568 911.078 39.9474 911.078 39.9286C911.078 39.9098 911.078 39.9004 911.078 39.8815C911.078 39.8627 911.078 39.8533 911.078 39.8345C911.078 39.8157 911.078 39.8063 911.078 39.7875C911.078 39.7687 911.078 39.7593 911.078 39.7405C911.078 39.7217 911.078 39.7123 911.078 39.6935C911.078 39.6747 911.078 39.6653 911.078 39.6465C911.078 39.6277 911.078 39.6183 911.078 39.5995C911.078 39.5806 911.078 39.5712 911.078 39.5524C911.078 39.5336 911.078 39.5242 911.078 39.5054C911.078 39.4866 911.078 39.4772 911.078 39.4584C911.078 39.4396 911.078 39.4302 911.078 39.4114C911.078 39.3926 911.078 39.3832 911.078 39.3644C911.078 39.3456 911.078 39.3362 911.078 39.3174C911.078 39.2986 911.078 39.2892 911.078 39.2703C911.078 39.2515 911.078 39.2421 911.078 39.2233C911.078 39.2045 911.078 39.1951 911.078 39.1763C911.078 39.1575 911.078 39.1481 911.078 39.1293L911.106 39.1481Z" fill="#C2CBD0"/>
<path d="M380.625 55.0768L396.225 51.1746C398.688 50.554 399.563 48.9366 399.563 47.6296V41.7527L414.852 37.9257C414.852 37.9257 414.918 37.9069 414.956 37.8975L427.067 34.8697C429.53 34.2491 430.405 32.6318 430.405 31.3248C430.405 31.306 430.405 31.2966 430.405 31.2777C430.405 31.2589 430.405 31.2495 430.405 31.2307C430.405 31.2119 430.405 31.2025 430.405 31.1837C430.405 31.1649 430.405 31.1555 430.405 31.1367C430.405 31.1179 430.405 31.1085 430.405 31.0897C430.405 31.0709 430.405 31.0615 430.405 31.0427C430.405 31.0239 430.405 31.0145 430.405 30.9957C430.405 30.9769 430.405 30.9674 430.405 30.9486C430.405 30.9298 430.405 30.9204 430.405 30.9016C430.405 30.8828 430.405 30.8734 430.405 30.8546C430.405 30.8358 430.405 30.8264 430.405 30.8076C430.405 30.7888 430.405 30.7794 430.405 30.7606C430.405 30.7418 430.405 30.7324 430.405 30.7136C430.405 30.6948 430.405 30.6854 430.405 30.6666C430.405 30.6477 430.405 30.6383 430.405 30.6195C430.405 30.6007 430.405 30.5913 430.405 30.5725C430.405 30.5537 430.405 30.5443 430.405 30.5255C430.405 30.5067 430.405 30.4973 430.405 30.4785C430.405 30.4597 430.405 30.4503 430.405 30.4315C430.405 30.4127 430.405 30.4033 430.405 30.3845C430.405 30.3657 430.405 30.3563 430.405 30.3374C430.405 30.3186 430.405 30.3092 430.405 30.2904C430.405 30.2716 430.405 30.2622 430.405 30.2434C430.405 30.2246 430.405 30.2152 430.405 30.1964C430.405 30.1776 430.405 30.1682 430.405 30.1494C430.405 30.1306 430.405 30.1212 430.405 30.1024C430.405 30.0836 430.405 30.0742 430.405 30.0554C430.405 30.0365 430.405 30.0271 430.405 30.0083C430.405 29.9895 430.405 29.9801 430.405 29.9613C430.405 29.9425 430.405 29.9331 430.405 29.9143C430.405 29.8955 430.405 29.8861 430.405 29.8673C430.405 29.8485 430.405 29.8391 430.405 29.8203C430.405 29.8015 430.405 29.7921 430.405 29.7733C430.405 29.7545 430.405 29.7451 430.405 29.7262C430.405 29.7074 430.405 29.698 430.405 29.6792C430.405 29.6604 430.405 29.651 430.405 29.6322C430.405 29.6134 430.405 29.604 430.405 29.5852C430.405 29.5664 430.405 29.557 430.405 29.5382C430.405 29.5194 430.405 29.51 430.405 29.4912C430.405 29.4724 430.405 29.463 430.405 29.4442C430.405 29.4254 430.405 29.4159 430.405 29.3971C430.405 29.3783 430.405 29.3689 430.405 29.3501C430.405 29.3313 430.405 29.3219 430.405 29.3031C430.405 29.2843 430.405 29.2749 430.405 29.2561C430.405 29.2373 430.405 29.2279 430.405 29.2091C430.405 29.1903 430.405 29.1809 430.405 29.1621C430.405 29.1433 430.405 29.1339 430.405 29.1151C430.405 29.0962 430.405 29.0868 430.405 29.068C430.405 29.0492 430.405 29.0398 430.405 29.021C430.405 29.0022 430.405 28.9928 430.405 28.974C430.405 28.9552 430.405 28.9458 430.405 28.927C430.405 28.9082 430.405 28.8988 430.405 28.88C430.405 28.8612 430.405 28.8518 430.405 28.833C430.405 28.8142 430.405 28.8048 430.405 28.7859C430.405 28.7671 430.405 28.7577 430.405 28.7389C430.405 28.7201 430.405 28.7107 430.405 28.6919C430.405 28.6731 430.405 28.6637 430.405 28.6449C430.405 28.6261 430.405 28.6167 430.405 28.5979C430.405 28.5791 430.405 28.5697 430.405 28.5509C430.405 28.5321 430.405 28.5227 430.405 28.5039C430.405 28.4851 430.405 28.4756 430.405 28.4568C430.405 28.438 430.405 28.4286 430.405 28.4098C430.405 28.391 430.405 28.3816 430.405 28.3628C430.405 28.344 430.405 28.3346 430.405 28.3158C430.405 28.297 430.405 28.2876 430.405 28.2688C430.405 28.25 430.405 28.2406 430.405 28.2218C430.405 28.203 430.405 28.1936 430.405 28.1747C430.405 28.1559 430.405 28.1465 430.405 28.1277C430.405 28.1089 430.405 28.0995 430.405 28.0807C430.405 28.0619 430.405 28.0525 430.405 28.0337C430.405 28.0149 430.405 28.0055 430.405 27.9867C430.405 27.9679 430.405 27.9585 430.405 27.9397C430.405 27.9209 430.405 27.9115 430.405 27.8927C430.405 27.8739 430.405 27.8644 430.405 27.8456C430.405 27.8268 430.405 27.8174 430.405 27.7986C430.405 27.7798 430.405 27.7704 430.405 27.7516C430.405 27.7328 430.405 27.7234 430.405 27.7046C430.405 27.6858 430.405 27.6764 430.405 27.6576C430.405 27.6388 430.405 27.6294 430.405 27.6106C430.405 27.5918 430.405 27.5824 430.405 27.5636C430.405 27.5447 430.405 27.5353 430.405 27.5165C430.405 27.4977 430.405 27.4883 430.405 27.4695C430.405 27.4507 430.405 27.4413 430.405 27.4225C430.405 27.4037 430.405 27.3943 430.405 27.3755C430.405 27.3567 430.405 27.3473 430.405 27.3285C430.405 27.3097 430.405 27.3003 430.405 27.2815C430.405 27.2627 430.405 27.2533 430.405 27.2344C430.405 27.2156 430.405 27.2062 430.405 27.1874C430.405 27.1686 430.405 27.1592 430.405 27.1404C430.405 27.1216 430.405 27.1122 430.405 27.0934C430.405 27.0746 430.405 27.0652 430.405 27.0464C430.405 27.0276 430.405 27.0182 430.405 26.9994C430.405 26.9806 430.405 26.9712 430.405 26.9524C430.405 26.9335 430.405 26.9241 430.405 26.9053C430.405 26.8865 430.405 26.8771 430.405 26.8583C430.405 26.8395 430.405 26.8301 430.405 26.8113C430.405 26.7925 430.405 26.7831 430.405 26.7643C430.405 26.7455 430.405 26.7361 430.405 26.7173C430.405 26.6985 430.405 26.6891 430.405 26.6703C430.405 26.6515 430.405 26.6421 430.405 26.6233C430.405 26.6044 430.405 26.595 430.405 26.5762C430.405 26.5574 430.405 26.548 430.405 26.5292C430.405 26.5104 430.405 26.501 430.405 26.4822C430.405 26.4634 430.405 26.454 430.405 26.4352C430.405 26.4164 430.405 26.407 430.405 26.3882C430.405 26.3694 430.405 26.36 430.405 26.3412C430.405 26.3224 430.405 26.313 430.405 26.2941C430.405 26.2753 430.405 26.2659 430.405 26.2471C430.405 26.2283 430.405 26.2189 430.405 26.2001C430.405 26.1813 430.405 26.1719 430.405 26.1531C430.405 26.1343 430.405 26.1249 430.405 26.1061C430.405 26.0873 430.405 26.0779 430.405 26.0591C430.405 26.0403 430.405 26.0309 430.405 26.0121C430.405 25.9932 430.405 25.9838 430.405 25.965C430.405 25.9462 430.405 25.9368 430.405 25.918C430.405 25.8992 430.405 25.8898 430.405 25.871C430.405 25.8522 430.405 25.8428 430.405 25.824C430.405 25.8052 430.405 25.7958 430.405 25.777C430.405 25.7582 430.405 25.7488 430.405 25.73C430.405 25.7112 430.405 25.7018 430.405 25.6829C430.405 25.6641 430.405 25.6547 430.405 25.6359C430.405 25.6171 430.405 25.6077 430.405 25.5889C430.405 25.5701 430.405 25.5607 430.405 25.5419C430.405 25.5231 430.405 25.5137 430.405 25.4949C430.405 25.4761 430.405 25.4667 430.405 25.4479C430.405 25.4291 430.405 25.4197 430.405 25.4009C430.405 25.382 430.405 25.3726 430.405 25.3538C430.405 25.335 430.405 25.3256 430.405 25.3068C430.405 25.288 430.405 25.2786 430.405 25.2598C430.405 25.241 430.405 25.2316 430.405 25.2128C430.405 25.194 430.405 25.1846 430.405 25.1658C430.405 25.147 430.405 25.1376 430.405 25.1188C430.405 25.1 430.405 25.0906 430.405 25.0717C430.405 25.0529 430.405 25.0435 430.405 25.0247C430.405 25.0059 430.405 24.9965 430.405 24.9777C430.405 24.9589 430.405 24.9495 430.405 24.9307C430.405 24.9119 430.405 24.9025 430.405 24.8837C430.405 24.8649 430.405 24.8555 430.405 24.8367C430.405 24.8179 430.405 24.8085 430.405 24.7897C430.405 24.7709 430.405 24.7615 430.405 24.7426C430.405 24.7238 430.405 24.7144 430.405 24.6956C430.405 24.6768 430.405 24.6674 430.405 24.6486C430.405 24.6298 430.405 24.6204 430.405 24.6016C430.405 24.5828 430.405 24.5734 430.405 24.5546C430.405 24.5358 430.405 24.5264 430.405 24.5076C430.405 24.4888 430.405 24.4794 430.405 24.4606C430.405 24.4417 430.405 24.4323 430.405 24.4135C430.405 24.3947 430.405 24.3853 430.405 24.3665C430.405 24.3477 430.405 24.3383 430.405 24.3195C430.405 24.3007 430.405 24.2913 430.405 24.2725C430.405 24.2537 430.405 24.2443 430.405 24.2255C430.405 24.2067 430.405 24.1973 430.405 24.1785C430.405 24.1597 430.405 24.1503 430.405 24.1314C430.405 24.1126 430.405 24.1032 430.405 24.0844C430.405 24.0656 430.405 24.0562 430.405 24.0374C430.405 24.0186 430.405 24.0092 430.405 23.9904C430.405 23.9716 430.405 23.9622 430.405 23.9434C430.405 23.9246 430.405 23.9152 430.405 23.8964C430.405 23.8776 430.405 23.8682 430.405 23.8494C430.405 23.8306 430.405 23.8211 430.405 23.8023C430.405 23.7835 430.405 23.7741 430.405 23.7553C430.405 23.7365 430.405 23.7271 430.405 23.7083C430.405 23.6895 430.405 23.6801 430.405 23.6613C430.405 23.6425 430.405 23.6331 430.405 23.6143C430.405 23.5955 430.405 23.5861 430.405 23.5673C430.405 23.5485 430.405 23.5391 430.405 23.5203C430.405 23.5014 430.405 23.492 430.405 23.4732C430.405 23.4544 430.405 23.445 430.405 23.4262C430.405 23.4074 430.405 23.398 430.405 23.3792C430.405 23.3604 430.405 23.351 430.405 23.3322C430.405 23.3134 430.405 23.304 430.405 23.2852C430.405 23.2664 430.405 23.257 430.405 23.2382C430.405 23.2194 430.405 23.2099 430.405 23.1911C430.405 23.1723 430.405 23.1629 430.405 23.1441C430.405 23.1253 430.405 23.1159 430.405 23.0971C430.405 23.0783 430.405 23.0689 430.405 23.0501C430.405 23.0313 430.405 23.0219 430.405 23.0031C430.405 22.9843 430.405 22.9749 430.405 22.9561C430.405 22.9373 430.405 22.9279 430.405 22.9091C430.405 22.8902 430.405 22.8808 430.405 22.862C430.405 22.8432 430.405 22.8338 430.405 22.815C430.405 22.7962 430.405 22.7868 430.405 22.768C430.405 22.7492 430.405 22.7398 430.405 22.721C430.405 22.7022 430.405 22.6928 430.405 22.674C430.405 22.6552 430.405 22.6458 430.405 22.627C430.405 22.6082 430.405 22.5988 430.405 22.5799C430.405 22.5611 430.405 22.5517 430.405 22.5329C430.405 22.5141 430.405 22.5047 430.405 22.4859C430.405 22.4671 430.405 22.4577 430.405 22.4389C430.405 22.4201 430.405 22.4107 430.405 22.3919C430.405 22.3731 430.405 22.3637 430.405 22.3449C430.405 22.3261 430.405 22.3167 430.405 22.2979C430.405 22.2791 430.405 22.2696 430.405 22.2508C430.405 22.232 430.405 22.2226 430.405 22.2038C430.405 22.185 430.405 22.1756 430.405 22.1568C430.405 22.138 430.405 22.1286 430.405 22.1098C430.405 22.091 430.405 22.0816 430.405 22.0628C430.405 22.044 430.405 22.0346 430.405 22.0158C430.405 21.997 430.405 21.9876 430.405 21.9688C430.405 21.9499 430.405 21.9405 430.405 21.9217C430.405 20.6147 429.53 18.9974 427.067 18.3768L415.059 15.3772C415.059 15.3772 414.984 15.3584 414.946 15.349L397.88 11.08C397.485 10.9672 397.052 10.9484 396.638 11.0518L380.738 15.0293C380.315 15.1328 379.769 15.1328 379.356 15.0293L364.706 11.3715C363.54 11.08 362.205 11.08 361.048 11.3715L346.407 15.0293C345.984 15.1328 345.439 15.1328 345.025 15.0293L330.375 11.3715C329.209 11.08 327.874 11.08 326.708 11.3715L312.058 15.0293C311.635 15.1328 311.09 15.1328 310.676 15.0293L296.026 11.3715C294.86 11.08 293.525 11.08 292.359 11.3715L276.552 15.3302C276.552 15.3302 276.487 15.3396 276.449 15.349L260.548 19.3265C260.125 19.4299 259.589 19.4299 259.166 19.3265L243.266 15.349C242.833 15.2362 242.363 15.2644 241.959 15.396L225.052 19.618C223.971 19.8343 223.162 20.784 223.162 21.9217V27.2533C222.833 27.3003 222.41 27.3097 221.996 27.2062L208.916 23.934C208.916 23.934 208.851 23.9152 208.813 23.9152L193.007 19.9565C191.841 19.665 190.505 19.665 189.339 19.9565L174.99 23.5391C172.527 24.1597 171.652 25.777 171.652 27.084V31.541C171.323 31.588 170.9 31.5975 170.486 31.494L158.667 28.5415C157.501 28.25 156.165 28.25 154.999 28.5415L140.35 32.1992C139.926 32.3027 139.381 32.3027 138.967 32.1992L123.17 28.25C122.775 28.1371 122.333 28.1183 121.92 28.2218L106.019 32.1992C105.596 32.3027 105.051 32.3027 104.637 32.1992L89.9964 28.5415C88.8304 28.25 87.4952 28.25 86.3292 28.5415L3.33807 49.3034C0.874481 49.924 0 51.5413 0 52.8483V69.0967C0 70.4037 0.874481 72.0211 3.33807 72.6417L17.6871 76.2336C18.8531 76.5251 20.1883 76.5251 21.3543 76.2336L35.7033 72.6417C38.1669 72.0211 39.0414 70.4037 39.0414 69.0967V63.2198L53.8511 59.515L70.4475 63.6618C70.4475 63.6618 70.5133 63.6806 70.5415 63.6806L85.8308 67.5076V71.6073L71.999 75.0676C69.5354 75.6788 68.6609 77.3056 68.6609 78.6126V94.861C68.6609 96.168 69.5354 97.7853 71.999 98.406L85.8308 101.857V107.734C85.8308 109.041 86.7053 110.658 89.1689 111.279L103.001 114.739V120.616C103.001 121.923 103.875 123.54 106.339 124.161L139.005 132.323C139.061 132.341 139.118 132.351 139.174 132.37L156.278 136.648C156.278 136.648 156.344 136.667 156.372 136.667L179.852 142.544L175 143.757C172.536 144.368 171.662 145.995 171.662 147.302V163.55C171.662 164.857 172.536 166.474 175 167.095L188.832 170.546V176.423C188.832 177.73 189.706 179.347 192.17 179.968L207.769 183.87C207.769 183.87 207.835 183.889 207.873 183.889L223.162 187.716V219.348C223.162 220.655 224.036 222.272 226.5 222.893L240.332 226.353V232.23C240.332 233.537 241.206 235.154 243.67 235.775L255.198 238.661C255.8 238.812 256.421 238.887 257.041 238.887C258.499 238.887 259.909 238.483 260.859 237.731C261.724 237.054 262.203 236.123 262.203 235.117V222.065L277.483 218.248C278.565 218.031 279.373 217.082 279.373 215.944V209.192L293.196 205.742C295.659 205.13 296.534 203.504 296.534 202.197V196.32L328.984 188.205C330.065 187.989 330.874 187.039 330.874 185.901V151.618C330.874 150.311 329.999 148.693 327.536 148.073L296.534 140.325V134.448C296.534 133.141 295.659 131.523 293.196 130.903L277.681 127.029C277.286 126.907 276.853 126.897 276.44 127.001L263.36 130.273C262.956 130.376 262.523 130.367 262.194 130.32V124.998C262.194 124.104 261.686 123.286 260.887 122.891C260.737 122.816 260.577 122.76 260.407 122.713L243.332 118.444C242.937 118.322 242.504 118.312 242.09 118.416L226.19 122.393C225.767 122.497 225.231 122.497 224.808 122.393L210.158 118.735C208.992 118.444 207.656 118.444 206.5 118.735L191.859 122.393C191.436 122.497 190.9 122.497 190.477 122.393L176.354 118.867V112.99C176.354 111.683 175.479 110.066 173.016 109.445L158.667 105.863C157.501 105.571 156.165 105.571 154.999 105.863L142.014 109.107V106.182L156.137 102.647C156.56 102.543 157.106 102.543 157.52 102.647L189.33 110.602C190.496 110.893 191.831 110.893 192.997 110.602L207.337 107.019C209.8 106.408 210.675 104.781 210.675 103.474V97.5973L224.507 94.1464C226.97 93.5352 227.845 91.9085 227.845 90.6014V84.7245L241.977 81.189C242.401 81.0856 242.937 81.0856 243.36 81.189L258.01 84.8468C259.176 85.1383 260.511 85.1383 261.677 84.8468L277.474 80.8975C278.555 80.6812 279.364 79.7315 279.364 78.5938V73.2717C279.693 73.2246 280.116 73.2152 280.53 73.3187L292.349 76.2712C293.515 76.5627 294.851 76.5627 296.017 76.2712L310.366 72.6793C312.829 72.0681 313.704 70.4414 313.704 69.1343V52.8859C313.704 51.5789 312.829 49.9616 310.366 49.341L296.534 45.8901V33.2148L307.846 30.3845C308.25 30.281 308.683 30.2904 309.002 30.3374V34.7945C309.002 36.1015 309.877 37.7188 312.34 38.3394L326.172 41.7997V56.2616C326.172 57.5686 327.047 59.1859 329.51 59.8065L343.859 63.3891C345.025 63.6806 346.36 63.6806 347.517 63.3891L363.418 59.4116C363.418 59.4116 363.483 59.3928 363.512 59.3834L380.493 55.1426C380.493 55.1426 380.559 55.1332 380.597 55.1238L380.625 55.0768ZM242.006 46.8115C242.429 46.7081 242.965 46.7081 243.388 46.8115L248.522 48.0998L226.218 53.6758C225.795 53.7792 225.259 53.7792 224.836 53.6758L219.692 52.3875L242.006 46.8115Z" fill="#C2CBD0"/>
<path d="M907.204 37.8411C909.282 38.3583 909.282 39.8439 907.204 40.3611L895.083 43.3889H895.074L879.465 47.2911C878.506 47.5262 877.904 48.0152 877.904 48.5511V62.5711C877.904 63.6148 875.694 64.3012 873.823 63.8311L862.304 60.9537C861.345 60.7187 860.744 60.2297 860.744 59.6937V51.9738H860.734L843.574 47.6861L827.664 43.7086C826.874 43.5111 825.934 43.5111 825.144 43.7086L809.243 47.6861H809.234V55.3965C809.234 55.9325 809.836 56.4215 810.795 56.6566L826.404 60.5588L842.013 64.4611C842.972 64.6961 843.574 65.1851 843.574 65.7211V72.5665C843.574 73.1024 842.972 73.5914 842.013 73.8265L826.413 77.7287H826.404V84.0288C826.404 85.0819 824.194 85.7589 822.323 85.2888L809.243 82.0165H809.234L792.073 86.3043L807.673 90.2066C808.632 90.4416 809.234 90.9306 809.234 91.4666V106.897C809.234 107.433 808.632 107.922 807.673 108.157L792.073 112.059L778.994 108.787C777.122 108.317 774.913 109.003 774.913 110.047V115.482C774.913 116.018 775.515 116.507 776.474 116.742L792.073 120.644V129.22L779.953 132.247C777.875 132.765 777.875 134.25 779.953 134.767L787.024 136.535C789.102 137.052 789.102 138.538 787.024 139.055L776.173 141.773C775.383 141.97 774.443 141.97 773.653 141.773L757.752 137.795H757.743V130.085C757.743 129.549 757.141 129.06 756.182 128.825L742.134 125.308C741.175 125.073 740.573 124.584 740.573 124.048V117.212C740.573 116.676 739.971 116.187 739.012 115.952L724.672 112.369C723.883 112.172 722.942 112.172 722.152 112.369L706.242 116.347L689.082 120.635V126.935C689.082 127.988 686.872 128.665 685.001 128.195L671.921 124.923H671.912V108.627C671.912 108.091 671.31 107.602 670.351 107.367L654.742 103.465L637.582 99.1676L604.502 90.9024C603.712 90.7049 602.772 90.7049 601.982 90.9024L591.121 93.6199C589.043 94.137 589.043 95.6227 591.121 96.1399L603.242 99.1676L636.021 107.367C636.98 107.602 637.582 108.091 637.582 108.627V115.472C637.582 116.008 636.98 116.497 636.021 116.732L621.672 120.324C620.882 120.522 619.942 120.522 619.152 120.324L604.502 116.667C603.712 116.469 602.772 116.469 601.982 116.667L591.131 119.375C589.053 119.892 589.053 121.378 591.131 121.895L601.69 124.537C602.649 124.772 603.251 125.261 603.251 125.797V132.642C603.251 133.178 602.649 133.667 601.69 133.902L587.642 137.419C586.683 137.654 586.081 138.143 586.081 138.679V145.525C586.081 146.061 585.479 146.549 584.52 146.785L570.482 150.301C569.522 150.536 568.921 151.025 568.921 151.561V166.982C568.921 167.518 568.319 168.007 567.36 168.242L553.312 171.759C552.353 171.994 551.751 172.483 551.751 173.019V188.449C551.751 188.985 551.149 189.474 550.19 189.709L536.142 193.226C535.183 193.461 534.581 193.95 534.581 194.486V201.322C534.581 201.858 533.979 202.347 533.02 202.582L518.671 206.174C517.881 206.372 516.941 206.372 516.151 206.174L501.811 202.592C500.852 202.356 500.25 201.867 500.25 201.332V193.621H500.241L484.641 189.719C483.682 189.484 483.08 188.995 483.08 188.459V147.283C483.08 146.747 482.479 146.258 481.52 146.023L465.911 142.121L448.75 137.823H448.741L431.58 142.121H431.571L397.25 133.536H397.24V125.825C397.24 125.289 396.638 124.8 395.679 124.565L381.631 121.058C380.672 120.823 380.07 120.334 380.07 119.798V104.368C380.07 103.832 380.672 103.343 381.631 103.107L397.24 99.2052L412.849 95.303C413.808 95.0679 414.41 94.579 414.41 94.043V78.6126C414.41 78.0766 415.012 77.5877 415.971 77.3526L431.571 73.4504L447.18 69.5481C448.139 69.313 448.741 68.8241 448.741 68.2881V62.8531C448.741 61.8 446.531 61.123 444.66 61.5931L431.58 64.8654H431.571L415.971 60.9631C415.012 60.7281 414.41 60.2391 414.41 59.7031V52.8577C414.41 52.3218 415.012 51.8328 415.971 51.5977L431.571 47.6955H431.58L447.18 51.5977C448.139 51.8328 448.741 52.3218 448.741 52.8577V58.2927C448.741 59.3458 450.95 60.0228 452.822 59.5527L464.651 56.6001C465.44 56.4027 466.381 56.4027 467.171 56.6001L481.82 60.2579C482.61 60.4554 483.551 60.4554 484.34 60.2579L500.241 56.2804H500.25V47.7049H500.241L484.34 51.6729C483.551 51.8704 482.61 51.8704 481.82 51.6729L467.471 48.081C466.512 47.8459 465.911 47.357 465.911 46.821V39.985C465.911 39.449 466.512 38.9601 467.471 38.725L498.99 30.8452C499.78 30.6478 500.721 30.6478 501.51 30.8452L516.151 34.503C516.941 34.7005 517.881 34.7005 518.671 34.503L533.321 30.8452C534.111 30.6478 535.051 30.6478 535.841 30.8452L551.751 34.8227L568.921 39.1199L586.081 34.8227H586.091L603.251 30.5255H603.261L619.161 26.5481C619.951 26.3506 620.891 26.3506 621.681 26.5481L636.331 30.2058C637.121 30.4033 638.061 30.4033 638.851 30.2058L654.751 26.2284L670.661 22.2509C671.451 22.0534 672.392 22.0534 673.181 22.2509L689.091 26.2284L705.001 30.2058C705.791 30.4033 706.731 30.4033 707.521 30.2058L723.422 26.2284H723.431L739.332 30.2058C740.122 30.4033 741.062 30.4033 741.852 30.2058L756.502 26.5481C757.292 26.3506 758.232 26.3506 759.022 26.5481L790.841 34.503C791.631 34.7005 792.572 34.7005 793.361 34.503L809.262 30.5349H809.271L825.172 34.5124C825.962 34.7099 826.902 34.7099 827.692 34.5124L842.342 30.8547C843.132 30.6572 844.072 30.6572 844.862 30.8547L860.772 34.8321L877.932 39.1293H877.942L895.102 34.8321H895.112L907.232 37.8599L907.204 37.8411Z" fill="#F4FDFF"/>
<path d="M104.101 34.4936C104.891 34.6911 105.831 34.6911 106.621 34.4936L122.522 30.5161L138.422 34.4936C139.212 34.6911 140.152 34.6911 140.942 34.4936L155.592 30.8358C156.382 30.6384 157.322 30.6384 158.112 30.8358L169.941 33.7884C171.812 34.2585 174.022 33.5721 174.022 32.5284V27.0934C174.022 26.5574 174.624 26.0685 175.583 25.8334L189.932 22.2509C190.722 22.0534 191.662 22.0534 192.452 22.2509L208.352 26.2283H208.362L221.441 29.5006C223.313 29.9707 225.522 29.2843 225.522 28.2406V21.9406H225.532L242.692 17.6528L258.593 21.6303C259.383 21.8277 260.323 21.8277 261.113 21.6303L277.013 17.6528H277.023L292.923 13.6753C293.713 13.4778 294.653 13.4778 295.443 13.6753L310.093 17.3331C310.883 17.5305 311.823 17.5305 312.613 17.3331L327.263 13.6753C328.053 13.4778 328.993 13.4778 329.783 13.6753L344.433 17.3331C345.223 17.5305 346.163 17.5305 346.953 17.3331L361.594 13.6753C362.383 13.4778 363.324 13.4778 364.114 13.6753L378.764 17.3331C379.553 17.5305 380.494 17.5305 381.284 17.3331L397.184 13.3556H397.193L414.354 17.6528H414.363L426.474 20.6805C428.553 21.1977 428.553 22.6834 426.474 23.2006L414.363 26.2283H414.354L398.754 30.1306C397.795 30.3657 397.193 30.8546 397.193 31.3906V38.236C397.193 38.772 396.592 39.2609 395.633 39.496L380.033 43.3983H380.024L362.863 47.686H362.854L346.953 51.6635C346.163 51.861 345.223 51.861 344.433 51.6635L330.084 48.081C329.125 47.8459 328.523 47.3569 328.523 46.821V31.3906C328.523 30.8546 327.921 30.3657 326.962 30.1306L312.914 26.6139C311.955 26.3788 311.353 25.8898 311.353 25.3539V19.9189C311.353 18.8658 309.144 18.1887 307.272 18.6589L294.183 21.9311L282.063 24.9589C279.985 25.4761 279.985 26.9618 282.063 27.4789L292.622 30.1212C293.582 30.3563 294.183 30.8452 294.183 31.3812V38.2266C294.183 38.7626 293.582 39.2515 292.622 39.4866L277.023 43.3889H277.013L259.853 39.1011L243.952 35.1236C243.162 34.9261 242.222 34.9261 241.432 35.1236L209.913 43.0033C208.954 43.2384 208.352 43.7274 208.352 44.2633V51.1087C208.352 51.6447 208.954 52.1337 209.913 52.3687L224.262 55.9513C225.052 56.1488 225.993 56.1488 226.782 55.9513L242.692 51.9738L259.853 47.6766L277.013 51.9738H277.023L292.923 47.9963C293.713 47.7989 294.653 47.7989 295.443 47.9963L309.792 51.5789C310.751 51.814 311.353 52.3029 311.353 52.8389V59.6843C311.353 60.2203 310.751 60.7092 309.792 60.9443L295.443 64.5363C294.653 64.7337 293.713 64.7337 292.923 64.5363L281.104 61.5837C279.232 61.1136 277.023 61.8 277.023 62.8437V69.1437H277.013L261.113 73.1212C260.323 73.3187 259.383 73.3187 258.593 73.1212L243.943 69.4634C243.153 69.266 242.213 69.266 241.423 69.4634L227.074 73.0554C226.115 73.2905 225.513 73.7794 225.513 74.3154V81.1608C225.513 81.6968 224.911 82.1857 223.952 82.4208L208.352 86.3231H208.343V94.043C208.343 94.5789 207.741 95.0679 206.782 95.303L192.443 98.8855C191.653 99.083 190.712 99.083 189.923 98.8855L158.103 90.9306C157.313 90.7331 156.373 90.7331 155.583 90.9306L141.234 94.5225C140.275 94.7576 139.673 95.2465 139.673 95.7825V112.078H139.682L155.583 108.1C156.373 107.903 157.313 107.903 158.103 108.1L172.452 111.683C173.411 111.918 174.013 112.407 174.013 112.943V119.788C174.013 120.324 174.614 120.813 175.574 121.048L189.923 124.631C190.712 124.828 191.653 124.828 192.443 124.631L207.083 120.973C207.873 120.776 208.813 120.776 209.603 120.973L224.253 124.631C225.043 124.828 225.983 124.828 226.773 124.631L242.674 120.654H242.683L259.843 124.951V131.251C259.843 132.304 262.053 132.981 263.924 132.511L277.004 129.238H277.013L292.613 133.141C293.572 133.376 294.174 133.865 294.174 134.401V141.246C294.174 141.782 294.776 142.271 295.735 142.506L311.344 146.408L326.953 150.311C327.912 150.546 328.514 151.035 328.514 151.571V176.451H328.504L311.344 180.748L295.735 184.651C294.776 184.886 294.174 185.375 294.174 185.911V192.756C294.174 193.292 293.572 193.781 292.613 194.016L278.574 197.523C277.615 197.758 277.013 198.247 277.013 198.783V206.494H277.004L261.404 210.396C260.445 210.631 259.843 211.12 259.843 211.656V225.676C259.843 226.729 257.634 227.406 255.763 226.936L244.234 224.049C243.275 223.814 242.674 223.325 242.674 222.789V215.944C242.674 215.408 242.072 214.919 241.113 214.684L227.064 211.167C226.105 210.932 225.504 210.443 225.504 209.907V177.316C225.504 176.78 224.902 176.291 223.943 176.056L208.343 172.154H208.334L192.734 168.252C191.775 168.017 191.173 167.528 191.173 166.992V160.146C191.173 159.61 190.571 159.121 189.612 158.886L175.564 155.379C174.605 155.144 174.003 154.655 174.003 154.119V147.273C174.003 146.738 174.605 146.249 175.564 146.013L191.164 142.111H191.173V133.526H191.164L156.843 124.941H156.833L139.673 120.654H139.663L122.503 116.356L106.894 112.454C105.935 112.219 105.333 111.73 105.333 111.194V104.349C105.333 103.813 104.731 103.324 103.772 103.089L89.7239 99.5719C88.7648 99.3369 88.163 98.8479 88.163 98.3119V91.4665C88.163 90.9306 87.5612 90.4416 86.6021 90.2065L72.554 86.6992C71.5949 86.4641 70.9931 85.9752 70.9931 85.4392V78.5938C70.9931 78.0578 71.5949 77.5689 72.554 77.3338L86.6021 73.817C87.5612 73.582 88.163 73.093 88.163 72.557V57.1267C88.163 56.5907 87.5612 56.1017 86.6021 55.8667L71.0025 51.9644H70.9931L53.8325 47.6766L38.2235 51.5789C37.2644 51.814 36.6626 52.3029 36.6626 52.8389V59.6843C36.6626 60.2203 36.0608 60.7092 35.1017 60.9443L20.7527 64.5363C19.9628 64.7337 19.0225 64.7337 18.2327 64.5363L3.88366 60.9443C2.92455 60.7092 2.32275 60.2203 2.32275 59.6843V52.8389C2.32275 52.3029 2.92455 51.814 3.88366 51.5789L19.4927 47.6766L53.8325 39.0917L70.9931 34.7945L86.903 30.817C87.6928 30.6195 88.6331 30.6195 89.423 30.817L104.073 34.4748L104.101 34.4936Z" fill="#F4FDFF"/>
<path d="M87.4763 81.3207L86.1787 79.9573C88.0029 78.2083 89.9211 76.5157 91.8675 74.9266L93.0523 76.3841C91.1341 77.945 89.2629 79.5999 87.4669 81.3113L87.4763 81.3207Z" fill="#DE7330"/>
<path d="M95.7418 74.2872L94.604 72.7827C98.2712 70.0088 102.211 67.47 106.292 65.2415L107.195 66.887C103.189 69.0779 99.3337 71.5697 95.7324 74.2872H95.7418ZM110.222 65.3073L109.376 63.6242C113.419 61.5931 117.735 59.7783 122.192 58.2268L122.813 60.004C118.431 61.5273 114.2 63.3044 110.222 65.3073ZM126.057 58.932L125.493 57.1361C129.743 55.8008 134.275 54.6443 138.949 53.7134L139.315 55.5564C134.699 56.4778 130.241 57.6156 126.048 58.932H126.057ZM142.691 54.9169L142.362 53.0646C146.744 52.2935 151.229 51.6917 156.1 51.2216L156.278 53.0928C151.464 53.5535 147.016 54.1553 142.691 54.9169Z" fill="#DE7330"/>
<path d="M159.701 52.7919L159.55 50.9207C161.957 50.7233 164.421 50.5634 167.082 50.4318L167.176 52.3124C164.534 52.444 162.089 52.6039 159.701 52.8013V52.7919Z" fill="#DE7330"/>
<path d="M87.5422 81.2548L86.1035 80.0418C87.7302 78.1142 89.4228 76.2054 91.1247 74.3812L92.4976 75.66C90.8144 77.4654 89.1501 79.346 87.5422 81.2548Z" fill="#DE7330"/>
<path d="M95.0268 73.0084L93.6821 71.6919C97.1612 68.1376 100.828 64.7525 104.59 61.6213L105.793 63.0694C102.079 66.1629 98.4589 69.501 95.0268 73.0084ZM108.642 60.7468L107.476 59.2705C111.35 56.2145 115.431 53.3278 119.597 50.695L120.603 52.2841C116.484 54.8793 112.46 57.7284 108.642 60.7468ZM123.734 50.3753L122.775 48.7579C126.988 46.2473 131.398 43.9248 135.902 41.8279L136.692 43.5299C132.244 45.5891 127.89 47.8929 123.734 50.3659V50.3753ZM140.03 42.0348L139.277 40.314C143.734 38.377 148.408 36.6092 153.156 35.0671L153.739 36.8537C149.047 38.3864 144.43 40.126 140.03 42.0442V42.0348ZM157.247 35.7536L156.701 33.9482C161.346 32.5565 166.179 31.3247 171.078 30.2904L171.464 32.1334C166.621 33.1489 161.835 34.3713 157.247 35.7442V35.7536ZM175.065 31.4188L174.717 29.5758C179.457 28.6731 184.393 27.9302 189.377 27.3567L189.593 29.2279C184.656 29.792 179.767 30.5349 175.075 31.4188H175.065ZM262.908 31.2683C257.972 30.5631 253.054 29.9519 248.296 29.4629L248.494 27.5917C253.28 28.0901 258.216 28.7013 263.172 29.4065L262.908 31.2683ZM244.638 29.0962C239.683 28.6355 234.746 28.2876 229.96 28.0619L230.045 26.1813C234.859 26.407 239.824 26.7549 244.808 27.225L244.629 29.0962H244.638ZM193.241 28.8423L193.063 26.9711C197.849 26.5104 202.823 26.1813 207.844 26.012L207.91 27.8926C202.926 28.0619 197.99 28.3816 193.241 28.8423ZM226.284 27.9114C221.291 27.7422 216.373 27.6952 211.577 27.7892L211.54 25.9086C216.373 25.8146 221.328 25.8522 226.349 26.0308L226.284 27.9114Z" fill="#DE7330"/>
<path d="M274.023 33.0079C271.55 32.5848 269.058 32.1804 266.613 31.8137L266.895 29.9519C269.35 30.328 271.851 30.7324 274.333 31.1555L274.013 33.0079H274.023Z" fill="#DE7330"/>
<path d="M87.1098 81.537L86.5269 79.7504C88.9152 78.9699 91.313 78.2083 93.7014 77.4561L94.2655 79.252C91.8772 80.0043 89.4982 80.7659 87.1098 81.537Z" fill="#DE7330"/>
<path d="M669.467 115.322C664.832 113.272 660.13 111.241 655.504 109.276L656.237 107.546C660.873 109.511 665.584 111.551 670.229 113.601L669.467 115.322ZM651.997 107.8C647.323 105.844 642.594 103.907 637.92 102.036L638.616 100.287C643.289 102.158 648.038 104.104 652.721 106.06L651.997 107.79V107.8ZM634.404 100.635C629.683 98.7728 624.916 96.9203 620.214 95.1526L620.882 93.3942C625.593 95.1714 630.37 97.0144 635.099 98.8856L634.404 100.635ZM616.66 93.8174C611.921 92.0496 607.106 90.31 602.358 88.6269L602.988 86.8497C607.746 88.5328 612.56 90.2818 617.318 92.0496L616.66 93.8174ZM598.775 87.3763C593.999 85.7119 589.147 84.0664 584.37 82.4961L584.953 80.7095C589.739 82.2892 594.6 83.9348 599.387 85.6085L598.766 87.3857L598.775 87.3763ZM580.769 81.3113C575.964 79.7504 571.084 78.2083 566.26 76.7415L566.805 74.9455C571.638 76.4218 576.528 77.9638 581.342 79.5247L580.759 81.3113H580.769ZM97.9044 78.1143L97.3496 76.3183C102.192 74.8138 107.11 73.3376 111.962 71.9271L112.488 73.7325C107.646 75.1429 102.738 76.6192 97.9138 78.1143H97.9044ZM562.621 75.6319C557.741 74.165 552.823 72.7358 548.018 71.3817L548.526 69.5669C553.349 70.921 558.267 72.3596 563.166 73.8265L562.621 75.6319ZM116.146 72.6699L115.629 70.8646C120.509 69.4635 125.455 68.1001 130.335 66.793L130.824 68.6078C125.963 69.9055 121.026 71.2689 116.156 72.6699H116.146ZM544.36 70.3568C539.499 69.0122 534.553 67.6957 529.663 66.4357L530.133 64.6115C535.042 65.8716 539.997 67.1974 544.868 68.542L544.37 70.3568H544.36ZM134.501 67.6299L134.021 65.8151C138.93 64.5269 143.904 63.2669 148.812 62.0727L149.254 63.8969C144.355 65.0911 139.4 66.3417 134.501 67.6299ZM525.977 65.4954C521.078 64.2636 516.113 63.0506 511.196 61.9035L511.619 60.0699C516.546 61.2171 521.53 62.43 526.438 63.6618L525.977 65.486V65.4954ZM152.969 63.0036L152.536 61.17C157.491 59.9853 162.494 58.8475 167.412 57.7661L167.816 59.5997C162.917 60.6717 157.924 61.8095 152.978 62.9942L152.969 63.0036ZM507.491 61.0572C502.554 59.9288 497.552 58.8381 492.625 57.8132L493.01 55.9702C497.947 56.9951 502.959 58.0953 507.905 59.2236L507.481 61.0572H507.491ZM171.53 58.8099L171.135 56.9669C176.1 55.9043 181.131 54.8794 186.077 53.9109L186.434 55.7539C181.488 56.713 176.476 57.7379 171.521 58.8005L171.53 58.8099ZM488.901 57.0421C483.955 56.036 478.934 55.0675 473.96 54.146L474.298 52.2936C479.272 53.2057 484.312 54.1836 489.268 55.1897L488.892 57.0327L488.901 57.0421ZM190.186 55.0393L189.838 53.1963C194.84 52.2466 199.89 51.3439 204.854 50.4976L205.174 52.35C200.228 53.1869 195.188 54.099 190.195 55.0393H190.186ZM470.227 53.4784C465.271 52.5945 460.231 51.7388 455.219 50.9395L455.511 49.0872C460.523 49.8864 465.582 50.7421 470.546 51.626L470.217 53.4784H470.227ZM208.926 51.72L208.616 49.8676C213.627 49.0401 218.696 48.2503 223.689 47.5262L223.961 49.3881C218.978 50.1121 213.919 50.9019 208.926 51.72ZM451.468 50.3566C446.493 49.5855 441.425 48.8615 436.404 48.1845L436.658 46.3227C441.688 46.9997 446.766 47.7331 451.759 48.5042L451.477 50.366L451.468 50.3566ZM227.741 48.8521L227.478 46.9903C232.49 46.2851 237.577 45.6268 242.608 45.0156L242.833 46.8868C237.812 47.4886 232.734 48.1563 227.741 48.8521ZM432.633 47.6861C427.622 47.0373 422.544 46.4355 417.523 45.8807L417.73 44.0095C422.76 44.5549 427.857 45.1661 432.878 45.8149L432.633 47.6767V47.6861ZM246.623 46.4355L246.406 44.5643C251.456 43.9813 256.562 43.4453 261.583 42.9658L261.762 44.837C256.759 45.3165 251.672 45.8525 246.623 46.4355ZM413.733 45.4764C408.693 44.9498 403.597 44.4703 398.585 44.0471L398.745 42.1759C403.775 42.5991 408.891 43.0786 413.931 43.6052L413.733 45.4764ZM265.551 44.4797L265.382 42.6085C270.431 42.1477 275.546 41.734 280.586 41.3861L280.718 43.2573C275.697 43.6146 270.591 44.0283 265.551 44.4797ZM394.786 43.7368C389.737 43.3325 384.631 42.9846 379.6 42.6837L379.713 40.8031C384.753 41.104 389.878 41.4613 394.937 41.8562L394.786 43.7274V43.7368ZM284.517 42.994L284.395 41.1134C289.453 40.7843 294.578 40.4928 299.628 40.2671L299.712 42.1477C294.672 42.3734 289.566 42.6649 284.517 42.994ZM375.801 42.4674C370.761 42.1947 365.646 41.9691 360.597 41.7904L360.663 39.9098C365.731 40.0791 370.855 40.3141 375.905 40.5868L375.801 42.4674ZM303.52 41.9879L303.445 40.1073C308.495 39.9004 313.629 39.7405 318.697 39.6371L318.734 41.5177C313.676 41.6211 308.56 41.781 303.52 41.9879ZM356.789 41.6776C351.73 41.5271 346.605 41.4331 341.565 41.3861L341.584 39.5055C346.643 39.5525 351.767 39.6559 356.845 39.797L356.789 41.6776ZM322.533 41.4425L322.505 39.5619C327.517 39.4867 332.67 39.4491 337.766 39.4773V41.3579C332.67 41.3391 327.536 41.3579 322.533 41.4425Z" fill="#DE7330"/>
<path d="M679.867 119.986C677.582 118.942 675.307 117.917 673.022 116.892L673.784 115.172C676.078 116.197 678.363 117.231 680.648 118.265L679.867 119.977V119.986Z" fill="#DE7330"/>
<path d="M86.8463 81.584L86.7993 79.7034C89.3099 79.6375 91.8487 79.5905 94.3405 79.5811V81.4617C91.8676 81.4711 89.3475 81.5181 86.8463 81.584Z" fill="#DE7330"/>
<path d="M231.869 124.236C228.108 121.133 224.159 118.162 220.144 115.407L221.206 113.855C225.268 116.648 229.255 119.647 233.064 122.788L231.869 124.236ZM217.097 113.357C213.045 110.696 208.804 108.166 204.488 105.834L205.381 104.179C209.744 106.54 214.032 109.097 218.132 111.786L217.097 113.357ZM201.234 104.114C196.937 101.904 192.452 99.8258 187.901 97.9452L188.625 96.2057C193.223 98.1145 197.755 100.211 202.099 102.44L201.244 104.114H201.234ZM184.488 96.563C180.002 94.8046 175.338 93.1779 170.618 91.7298L171.173 89.9338C175.94 91.4007 180.651 93.0368 185.183 94.814L184.497 96.563H184.488ZM167.092 90.6861C162.466 89.3509 157.67 88.1567 152.837 87.1129L153.232 85.2699C158.112 86.3231 162.945 87.5361 167.619 88.8713L167.101 90.6767L167.092 90.6861ZM149.226 86.3607C144.515 85.4298 139.626 84.6117 134.717 83.9441L134.971 82.0823C139.917 82.7499 144.844 83.568 149.593 84.5177L149.226 86.3607ZM131.069 83.4834C126.302 82.9098 121.374 82.449 116.419 82.1199L116.541 80.2393C121.525 80.5684 126.49 81.0292 131.295 81.6122L131.069 83.4834ZM112.752 81.8943C107.966 81.6404 103.02 81.4899 98.0361 81.4617V79.5811C103.057 79.6093 108.041 79.7598 112.855 80.0137L112.752 81.8943Z" fill="#DE7330"/>
<path d="M240.247 131.608C238.423 129.897 236.552 128.214 234.681 126.606L235.903 125.176C237.793 126.803 239.683 128.505 241.526 130.235L240.238 131.608H240.247Z" fill="#DE7330"/>
<path d="M173.702 55.0862C171.474 54.0989 169.151 53.1398 166.791 52.2371L167.459 50.4788C169.847 51.3909 172.198 52.3594 174.464 53.3655L173.702 55.0862Z" fill="#DE7330"/>
<path d="M235.63 120.907C233.515 116.225 231.296 111.739 229.02 107.602L230.666 106.699C232.96 110.884 235.198 115.407 237.332 120.136L235.621 120.907H235.63ZM227.215 104.368C224.666 99.9387 221.958 95.7543 219.175 91.9085L220.698 90.8083C223.519 94.7012 226.265 98.9514 228.841 103.427L227.215 104.368ZM216.956 88.9371C213.891 84.9502 210.609 81.2078 207.205 77.8039L208.531 76.4781C211.991 79.9384 215.329 83.7467 218.442 87.79L216.956 88.9371ZM204.544 75.2463C200.952 71.8988 197.087 68.7676 193.054 65.9467L194.135 64.4046C198.235 67.2726 202.174 70.4602 205.832 73.8735L204.553 75.2463H204.544ZM189.979 63.8687C185.945 61.2452 181.601 58.8192 177.068 56.6377L177.886 54.9452C182.494 57.1549 186.913 59.6279 191.013 62.289L189.988 63.8687H189.979Z" fill="#DE7330"/>
<path d="M240.022 131.27C239.091 128.919 238.122 126.587 237.154 124.349L238.884 123.606C239.862 125.863 240.83 128.214 241.771 130.583L240.022 131.279V131.27Z" fill="#DE7330"/>
<path d="M167.506 52.2277L166.753 50.507C169.189 49.4445 171.464 48.4759 173.693 47.5544L174.417 49.294C172.198 50.2155 169.941 51.1746 167.515 52.2277H167.506Z" fill="#DE7330"/>
<path d="M177.793 47.9023L177.087 46.1534C181.902 44.2069 186.396 42.5238 190.825 40.9817L191.446 42.7589C187.045 44.2822 182.579 45.9653 177.793 47.9023ZM194.897 41.5929L194.304 39.8063C199.081 38.2266 203.82 36.8256 208.399 35.6502L208.87 37.4744C204.328 38.6403 199.626 40.032 194.897 41.6023V41.5929ZM212.396 36.5905L211.963 34.7569C216.778 33.6097 221.639 32.6506 226.387 31.9078L226.679 33.7696C221.977 34.503 217.173 35.4527 212.396 36.5905ZM230.28 33.2524L230.026 31.3906C234.878 30.7418 239.806 30.2905 244.676 30.0554L244.77 31.936C239.956 32.1711 235.076 32.613 230.28 33.2524ZM262.965 32.03C259.608 31.8325 256.233 31.7385 252.913 31.7385C251.409 31.7197 249.904 31.7573 248.409 31.7949L248.362 29.9143C249.867 29.8767 251.362 29.8861 252.913 29.8579C256.261 29.8579 259.684 29.9613 263.069 30.1494L262.956 32.03H262.965Z" fill="#DE7330"/>
<path d="M274.061 33.0174C271.588 32.7259 269.077 32.472 266.614 32.2839L266.764 30.4127C269.256 30.6102 271.785 30.8547 274.287 31.1556L274.061 33.0268V33.0174Z" fill="#DE7330"/>
<path d="M241.413 131.712L240.379 130.141C242.485 128.759 244.629 127.396 246.735 126.079L247.732 127.678C245.635 128.985 243.501 130.339 241.413 131.712Z" fill="#DE7330"/>
<path d="M250.938 125.703L249.96 124.095C254.286 121.472 258.705 118.942 263.087 116.573L263.98 118.228C259.627 120.588 255.236 123.098 250.929 125.703H250.938ZM267.3 116.46L266.425 114.795C270.901 112.445 275.471 110.197 280.003 108.11L280.793 109.821C276.289 111.89 271.757 114.128 267.309 116.46H267.3ZM518.201 110.188C513.499 108.373 508.741 106.634 504.068 105.016L504.679 103.239C509.371 104.866 514.148 106.615 518.868 108.43L518.191 110.188H518.201ZM284.216 108.26L283.454 106.54C288.071 104.49 292.772 102.553 297.446 100.766L298.113 102.525C293.478 104.292 288.804 106.22 284.216 108.251V108.26ZM500.513 103.794C495.718 102.177 490.894 100.653 486.174 99.2523L486.71 97.4469C491.449 98.8479 496.301 100.39 501.115 102.007L500.513 103.794ZM301.63 101.217L300.981 99.4497C305.711 97.7196 310.535 96.1117 315.33 94.6542L315.876 96.4502C311.108 97.8982 306.313 99.4967 301.621 101.208L301.63 101.217ZM482.563 98.2085C477.721 96.8263 472.831 95.5287 468.026 94.3627L468.468 92.5385C473.301 93.7139 478.219 95.0115 483.08 96.4031L482.563 98.2085ZM319.486 95.397L318.969 93.5916C323.793 92.2 328.73 90.94 333.619 89.821L334.033 91.6546C329.172 92.7548 324.273 94.0148 319.486 95.397ZM464.359 93.4882C459.45 92.3504 454.495 91.3161 449.643 90.404L449.991 88.5516C454.871 89.4637 459.855 90.5074 464.791 91.6452L464.368 93.4788L464.359 93.4882ZM337.7 90.8554L337.315 89.0124C342.214 87.978 347.225 87.0565 352.19 86.2949L352.472 88.1567C347.536 88.9089 342.561 89.821 337.7 90.8554ZM445.938 89.7458C440.974 88.8807 435.971 88.1191 431.072 87.4985L431.307 85.6367C436.234 86.2667 441.265 87.0283 446.258 87.9028L445.938 89.7552V89.7458ZM356.186 87.6207L355.923 85.7589C360.879 85.0725 365.937 84.5177 370.959 84.104L371.109 85.9752C366.125 86.3795 361.104 86.9343 356.186 87.6207ZM427.349 87.0377C422.356 86.4642 417.325 86.0034 412.379 85.6837L412.501 83.8031C417.475 84.1322 422.544 84.5835 427.565 85.1665L427.349 87.0377ZM374.842 85.6931L374.72 83.8125C379.694 83.474 384.781 83.2671 389.821 83.2013L389.849 85.0819C384.837 85.1477 379.788 85.3546 374.842 85.6837V85.6931ZM408.627 85.4674C403.606 85.2041 398.547 85.0725 393.601 85.0725V83.1919C398.575 83.1919 403.662 83.3235 408.721 83.5962L408.618 85.4768L408.627 85.4674Z" fill="#DE7330"/>
<path d="M528.732 114.391C526.4 113.432 524.087 112.492 521.774 111.58L522.46 109.831C524.783 110.752 527.115 111.692 529.447 112.652L528.732 114.391Z" fill="#DE7330"/>
<path d="M241.413 131.711L240.388 130.132C242.504 128.759 244.667 127.414 246.82 126.154L247.77 127.781C245.635 129.032 243.501 130.348 241.413 131.711Z" fill="#DE7330"/>
<path d="M251.164 125.853L250.261 124.208C254.859 121.678 259.655 119.356 264.507 117.306L265.24 119.036C260.445 121.067 255.706 123.362 251.164 125.853ZM268.86 117.56L268.174 115.811C273.026 113.902 278.075 112.21 283.181 110.771L283.689 112.586C278.64 114.006 273.656 115.679 268.86 117.56ZM287.469 111.561L286.999 109.737C292.02 108.448 297.239 107.376 302.495 106.53L302.796 108.383C297.596 109.21 292.434 110.282 287.469 111.551V111.561ZM380.775 110.526C375.538 109.567 370.328 108.759 365.27 108.11L365.505 106.248C370.592 106.906 375.839 107.724 381.104 108.684L380.766 110.536L380.775 110.526ZM306.661 107.818L306.407 105.957C311.522 105.251 316.816 104.744 322.157 104.452L322.26 106.333C316.976 106.624 311.729 107.123 306.67 107.818H306.661ZM361.386 107.64C356.111 107.038 350.855 106.596 345.758 106.333L345.852 104.452C350.986 104.725 356.28 105.167 361.593 105.769L361.377 107.64H361.386ZM341.837 106.163C339.139 106.069 336.459 106.013 333.751 106.022C331.221 106.022 328.664 106.069 326.162 106.154L326.097 104.273C328.626 104.179 331.202 104.132 333.751 104.132H333.826C336.487 104.132 339.204 104.179 341.903 104.273L341.837 106.154V106.163Z" fill="#DE7330"/>
<path d="M392.031 112.793C389.567 112.257 387.094 111.74 384.687 111.269L385.044 109.426C387.47 109.897 389.953 110.414 392.426 110.959L392.021 112.793H392.031Z" fill="#DE7330"/>
<path d="M281.207 34.8603C278.837 34.2021 276.392 33.5721 273.957 32.9985L274.39 31.1649C276.853 31.7479 279.317 32.3779 281.705 33.0455L281.197 34.8603H281.207Z" fill="#DE7330"/>
<path d="M384.386 103.86C381.217 100.164 377.964 96.5536 374.739 93.1497L376.102 91.852C379.355 95.2841 382.628 98.9137 385.815 102.637L384.386 103.86ZM372.237 90.545C368.843 87.0565 365.354 83.6808 361.894 80.512L363.163 79.1203C366.661 82.3174 370.169 85.7213 373.582 89.2286L372.237 90.545ZM359.214 78.1048C355.585 74.889 351.861 71.786 348.147 68.8899L349.303 67.4042C353.055 70.3285 356.816 73.4503 360.465 76.6944L359.214 78.1048ZM345.288 66.6989C341.433 63.8028 337.465 61.0195 333.488 58.4525L334.512 56.8728C338.528 59.468 342.533 62.2701 346.426 65.2039L345.298 66.7083L345.288 66.6989ZM330.45 56.5249C326.369 53.986 322.166 51.5789 317.954 49.3786L318.828 47.7142C323.078 49.9333 327.319 52.3593 331.447 54.9264L330.45 56.5249ZM314.757 47.7424C310.478 45.608 306.059 43.6145 301.639 41.8185L302.345 40.079C306.811 41.8938 311.268 43.906 315.594 46.0687L314.757 47.7518V47.7424ZM298.292 40.4927C293.844 38.7908 289.265 37.2299 284.667 35.857L285.203 34.0516C289.848 35.4339 294.474 37.0136 298.96 38.7343L298.283 40.4927H298.292Z" fill="#DE7330"/>
<path d="M391.495 112.464C389.925 110.498 388.336 108.542 386.756 106.652L388.204 105.449C389.793 107.348 391.401 109.313 392.971 111.298L391.504 112.473L391.495 112.464Z" fill="#DE7330"/>
<path d="M274.399 32.9986L273.948 31.1744C276.364 30.582 278.837 29.999 281.292 29.4442L281.705 31.2778C279.27 31.8232 276.806 32.4062 274.399 32.9986Z" fill="#DE7330"/>
<path d="M520.918 105.599C517.514 101.829 514.017 98.1427 510.528 94.6354L511.863 93.3095C515.371 96.8357 518.887 100.55 522.31 104.339L520.918 105.599ZM507.848 91.9743C504.219 88.42 500.504 84.9596 496.79 81.6874L498.031 80.2769C501.764 83.568 505.507 87.0565 509.155 90.6297L507.839 91.9743H507.848ZM493.951 79.205C490.105 75.9045 486.155 72.7075 482.216 69.7079L483.353 68.2129C487.321 71.2312 491.299 74.4565 495.173 77.7757L493.951 79.205ZM479.197 67.4418C475.135 64.4422 470.96 61.5555 466.785 58.8568L467.81 57.2771C472.013 59.9946 476.226 62.9001 480.316 65.9279L479.197 67.4418ZM463.598 56.8352C459.319 54.1741 454.928 51.6353 450.537 49.2846L451.421 47.6296C455.849 49.9898 460.278 52.5568 464.594 55.2367L463.598 56.8352ZM447.208 47.545C442.742 45.2507 438.144 43.0974 433.564 41.1415L434.307 39.4114C438.933 41.386 443.56 43.5581 448.073 45.8713L447.217 47.545H447.208ZM430.076 39.6935C425.44 37.8035 420.673 36.0639 415.915 34.5124L416.498 32.7258C421.303 34.2961 426.108 36.0545 430.781 37.9539L430.076 39.6935ZM412.323 33.3746C407.537 31.9078 402.638 30.5913 397.748 29.4724L398.171 27.6388C403.098 28.7766 408.044 30.1024 412.868 31.5787L412.313 33.3746H412.323ZM285.401 30.4691L285.006 28.6261C290.018 27.5636 295.039 26.6045 299.938 25.7958L300.248 27.6482C295.377 28.4569 290.384 29.3972 285.401 30.4597V30.4691ZM394.053 28.6543C389.173 27.62 384.17 26.7361 379.187 26.0309L379.45 24.1691C384.48 24.8837 389.521 25.7676 394.438 26.8113L394.043 28.6543H394.053ZM303.972 27.0652L303.69 25.2034C308.748 24.4324 313.817 23.7836 318.772 23.2758L318.96 25.147C314.042 25.6453 309.002 26.2942 303.972 27.0558V27.0652ZM375.454 25.5325C370.526 24.9213 365.468 24.4606 360.428 24.1597L360.54 22.2791C365.618 22.58 370.714 23.0407 375.689 23.6613L375.454 25.5231V25.5325ZM322.721 24.7991L322.552 22.9279C327.649 22.4765 332.754 22.1662 337.729 22.0064L337.785 23.887C332.848 24.0468 327.771 24.3571 322.712 24.7991H322.721ZM356.657 23.9716C351.711 23.7553 346.643 23.6989 341.565 23.7836L341.527 21.9029C346.643 21.8183 351.749 21.8747 356.732 22.091L356.648 23.9716H356.657Z" fill="#DE7330"/>
<path d="M528.375 114.128C526.748 112.2 525.093 110.291 523.466 108.448L524.877 107.207C526.513 109.06 528.168 110.978 529.813 112.915L528.375 114.128Z" fill="#DE7330"/>
<path d="M274.456 32.9797L273.901 31.1837C276.308 30.4409 278.706 29.7074 281.104 28.9928L281.64 30.7982C279.251 31.5128 276.853 32.2462 274.446 32.9891L274.456 32.9797Z" fill="#DE7330"/>
<path d="M755.308 76.3841C750.869 74.0804 746.356 71.786 741.899 69.5857L742.736 67.9026C747.202 70.1123 751.725 72.4066 756.173 74.7198L755.308 76.3935V76.3841ZM738.533 67.9308C734.038 65.7399 729.468 63.5678 724.964 61.4803L725.754 59.7784C730.267 61.8658 734.847 64.0379 739.36 66.2476L738.533 67.9402V67.9308ZM721.56 59.9194C717 57.8413 712.373 55.7915 707.822 53.8356L708.565 52.1055C713.126 54.0707 717.761 56.1206 722.341 58.2081L721.56 59.9194ZM704.381 52.3594C699.783 50.4129 695.1 48.4853 690.483 46.6517L691.179 44.9028C695.815 46.7458 700.497 48.6734 705.114 50.6292L704.381 52.3594ZM686.995 45.2789C682.349 43.4641 677.62 41.6681 672.946 39.9568L673.595 38.189C678.287 39.9004 683.026 41.6963 687.69 43.5205L687.004 45.2695L686.995 45.2789ZM669.42 38.678C664.7 36.9854 659.923 35.3305 655.222 33.7696L655.814 31.983C660.525 33.5533 665.321 35.2083 670.06 36.9102L669.42 38.678ZM651.649 32.5942C646.891 31.0427 642.067 29.5288 637.309 28.0996L637.845 26.2942C642.622 27.7234 647.455 29.2467 652.222 30.7982L651.639 32.5848L651.649 32.5942ZM285.25 29.7263L284.724 27.9209C289.547 26.5105 294.428 25.1282 299.242 23.8212L299.731 25.636C294.935 26.9336 290.065 28.3064 285.25 29.7263ZM633.717 27.037C628.921 25.6266 624.06 24.2631 619.246 22.9749L619.735 21.1601C624.558 22.4483 629.439 23.8212 634.244 25.2316L633.717 27.037ZM303.37 24.6675L302.89 22.8527C307.752 21.5645 312.669 20.3139 317.512 19.1385L317.954 20.9627C313.13 22.1286 308.222 23.3792 303.37 24.6675ZM615.616 22.0158C610.764 20.7464 605.856 19.5334 601.032 18.405L601.465 16.5715C606.307 17.7092 611.225 18.9222 616.096 20.1916L615.626 22.0158H615.616ZM321.612 20.0882L321.179 18.2546C326.069 17.098 331.024 15.9885 335.895 14.9447L336.29 16.7877C331.428 17.8221 326.492 18.9316 321.612 20.0882ZM597.374 17.5588C592.513 16.4492 587.567 15.3867 582.677 14.3994L583.053 12.5564C587.952 13.5437 592.908 14.6156 597.797 15.7252L597.374 17.5588ZM339.976 16.0073L339.59 14.1643C344.527 13.1393 349.511 12.1708 354.391 11.2681L354.729 13.1205C349.858 14.0138 344.894 14.9917 339.966 16.0073H339.976ZM578.991 13.6659C574.092 12.7068 569.118 11.8041 564.2 10.9767L564.511 9.12426C569.438 9.96113 574.431 10.8638 579.349 11.8229L578.991 13.6659ZM358.443 12.4529L358.114 10.6005C363.06 9.71665 368.072 8.88918 372.999 8.12754L373.281 9.98934C368.373 10.7416 363.38 11.569 358.443 12.4529ZM560.496 10.3655C555.559 9.5662 550.566 8.81396 545.629 8.14634L545.883 6.28454C550.829 6.96156 555.851 7.7138 560.797 8.51306L560.496 10.3655ZM377.005 9.42515L376.732 7.56336C381.716 6.82992 386.746 6.1435 391.683 5.5323L391.918 7.3941C387 8.0053 381.979 8.68232 377.014 9.41575L377.005 9.42515ZM541.906 7.64798C536.969 7.00858 531.939 6.41619 526.974 5.90842L527.171 4.03722C532.155 4.55439 537.195 5.14678 542.15 5.78618L541.906 7.64798ZM395.642 6.95216L395.425 5.08096C400.428 4.48857 405.477 3.962 410.423 3.50125L410.602 5.37245C405.665 5.8332 400.635 6.35977 395.651 6.94276L395.642 6.95216ZM523.231 5.5229C518.257 5.04334 513.217 4.61081 508.252 4.26289L508.384 2.39169C513.368 2.74901 518.426 3.17214 523.41 3.6611L523.231 5.5323V5.5229ZM414.354 5.03394L414.194 3.16274C419.196 2.7302 424.255 2.35408 429.239 2.04378L429.352 3.92438C424.387 4.23468 419.347 4.61081 414.354 5.04334V5.03394ZM504.491 3.99961C499.498 3.67991 494.449 3.41662 489.475 3.21916L489.55 1.33855C494.533 1.53602 499.602 1.7993 504.613 2.119L504.491 3.99961ZM433.103 3.69871L433 1.81811C437.984 1.53602 443.052 1.31975 448.064 1.15989L448.12 3.0405C443.127 3.19095 438.068 3.41662 433.094 3.68931L433.103 3.69871ZM485.723 3.08752C480.72 2.92766 475.662 2.82423 470.687 2.78662V0.906013C475.69 0.943625 480.767 1.04706 485.779 1.20691L485.723 3.08752ZM451.881 2.94647L451.834 1.06586C456.658 0.953028 461.548 0.887207 466.362 0.887207H466.907V2.76781H466.362C461.557 2.76781 456.686 2.82423 451.881 2.94647Z" fill="#DE7330"/>
<path d="M765.247 81.6498C763.037 80.4556 760.827 79.2802 758.618 78.1142L759.492 76.4499C761.711 77.6159 763.93 78.8006 766.14 79.9948L765.247 81.6498Z" fill="#DE7330"/>
<path d="M392.586 112.746L391.862 111.006C394.166 110.047 396.545 109.125 398.923 108.289L399.554 110.056C397.203 110.884 394.861 111.786 392.586 112.746Z" fill="#DE7330"/>
<path d="M517.703 111.288C512.437 109.887 507.2 108.618 502.131 107.527L502.526 105.684C507.623 106.784 512.898 108.063 518.192 109.464L517.712 111.279L517.703 111.288ZM403.343 108.778L402.77 106.991C407.819 105.364 413.085 104.001 418.416 102.929L418.783 104.772C413.517 105.834 408.317 107.179 403.334 108.787L403.343 108.778ZM498.21 106.699C492.851 105.618 487.538 104.697 482.432 103.963L482.695 102.101C487.839 102.835 493.189 103.766 498.577 104.856L498.201 106.699H498.21ZM422.704 104.038L422.384 102.186C427.565 101.283 432.963 100.635 438.426 100.24L438.557 102.111C433.16 102.506 427.819 103.145 422.704 104.038ZM478.464 103.427C473.057 102.741 467.697 102.252 462.526 101.96L462.629 100.08C467.838 100.371 473.245 100.87 478.699 101.556L478.464 103.418V103.427ZM442.554 101.866L442.46 99.9857C447.669 99.7318 453.095 99.7036 458.605 99.9011L458.539 101.782C453.076 101.584 447.707 101.612 442.554 101.866Z" fill="#DE7330"/>
<path d="M528.817 114.419C526.419 113.705 523.993 113.009 521.604 112.341L522.112 110.526C524.51 111.194 526.945 111.89 529.362 112.614L528.826 114.419H528.817Z" fill="#DE7330"/>
<path d="M529.372 114.419L528.817 112.623C531.224 111.881 533.659 111.166 536.067 110.508L536.565 112.322C534.186 112.981 531.76 113.686 529.372 114.429V114.419Z" fill="#DE7330"/>
<path d="M669.214 116.168C664.343 114.542 659.378 113.065 654.46 111.768L654.94 109.953C659.895 111.26 664.898 112.755 669.806 114.391L669.214 116.178V116.168ZM540.279 111.326L539.809 109.502C544.811 108.213 549.908 107.085 554.957 106.135L555.305 107.988C550.293 108.928 545.235 110.047 540.279 111.326ZM650.727 110.818C645.744 109.596 640.675 108.514 635.673 107.63L636.002 105.778C641.051 106.671 646.157 107.753 651.179 108.994L650.727 110.818ZM559.095 107.311L558.784 105.458C563.881 104.593 569.052 103.897 574.168 103.39L574.356 105.261C569.288 105.769 564.153 106.455 559.104 107.311H559.095ZM631.884 106.991C626.815 106.182 621.681 105.533 616.613 105.082L616.782 103.211C621.888 103.672 627.069 104.32 632.184 105.139L631.884 106.991ZM578.183 104.913L578.032 103.042C583.176 102.619 588.394 102.374 593.538 102.308L593.566 104.189C588.47 104.255 583.298 104.499 578.192 104.922L578.183 104.913ZM612.777 104.762C607.68 104.386 602.508 104.189 597.403 104.161V102.28C602.565 102.299 607.784 102.506 612.918 102.882L612.777 104.753V104.762Z" fill="#DE7330"/>
<path d="M679.914 120.005C677.564 119.102 675.194 118.228 672.881 117.419L673.501 115.642C675.833 116.46 678.222 117.334 680.591 118.246L679.914 120.005Z" fill="#DE7330"/>
<path d="M859.785 44.6113L859.709 42.7307C862.182 42.6272 864.731 42.5708 867.26 42.552V44.4326C864.759 44.4514 862.239 44.5078 859.785 44.6113Z" fill="#DE7330"/>
<path d="M774.612 74.0239L773.418 72.5758C777.236 69.4352 781.298 66.5109 785.482 63.8687L786.488 65.4578C782.37 68.0624 778.373 70.9397 774.612 74.0333V74.0239ZM789.619 63.5395L788.66 61.9222C792.882 59.4398 797.339 57.1549 801.909 55.152L802.661 56.8728C798.157 58.8474 793.766 61.0948 789.61 63.5395H789.619ZM806.046 55.4529L805.341 53.7134C809.845 51.8892 814.584 50.2719 819.408 48.899L819.925 50.7044C815.158 52.0584 810.485 53.657 806.046 55.4529ZM823.47 49.7453L823 47.9211C827.673 46.7175 832.572 45.702 837.547 44.9027L837.847 46.7551C832.93 47.545 828.087 48.5511 823.47 49.7359V49.7453ZM841.477 46.2192L841.223 44.3574C845.991 43.6992 850.965 43.2102 855.995 42.9093L856.108 44.7899C851.125 45.0814 846.207 45.5704 841.477 46.2192Z" fill="#DE7330"/>
<path d="M766.008 81.8284L765.529 81.7438C763.056 81.3113 760.583 80.8881 758.128 80.4838L758.429 78.6314C760.742 79.0075 763.056 79.4025 765.378 79.8162C767.052 78.1707 768.801 76.5439 770.578 74.9924L771.819 76.4123C769.948 78.0484 768.114 79.7598 766.356 81.4993L766.008 81.8472V81.8284Z" fill="#DE7330"/>
<path d="M539.038 108.213L538.06 106.605C542.329 104.001 546.777 101.509 551.262 99.1958L552.127 100.87C547.679 103.164 543.269 105.637 539.038 108.213ZM555.484 99.177L554.647 97.4938C559.123 95.2841 563.768 93.1873 568.441 91.2596L569.156 92.9992C564.511 94.908 559.913 96.9955 555.474 99.1864L555.484 99.177ZM572.644 91.5887L571.958 89.8398C576.594 88.025 581.389 86.3136 586.222 84.7621L586.796 86.5487C582 88.0814 577.242 89.774 572.644 91.5793V91.5887ZM590.388 85.4392L589.843 83.6432C594.591 82.2045 599.509 80.8693 604.455 79.6939L604.887 81.5275C599.979 82.7029 595.099 84.0193 590.379 85.4486L590.388 85.4392ZM608.564 80.6624L608.15 78.8288C612.993 77.7381 617.995 76.7696 623.007 75.9327L623.317 77.7851C618.334 78.622 613.369 79.5905 608.555 80.6624H608.564ZM754.405 79.882C749.393 79.0921 744.381 78.3587 739.501 77.7193L739.746 75.8575C744.635 76.5063 749.666 77.2303 754.696 78.0296L754.405 79.882ZM735.768 77.2397C730.737 76.6097 725.697 76.0549 720.808 75.5848L720.987 73.7136C725.895 74.1837 730.954 74.7479 736.003 75.3779L735.768 77.2397ZM627.032 77.1927L626.749 75.3309C631.639 74.5787 636.679 73.9299 641.747 73.4033L641.945 75.2745C636.905 75.8011 631.893 76.4405 627.032 77.1927ZM717.056 75.2369C712.007 74.7855 706.948 74.4188 702.039 74.1461L702.143 72.2655C707.07 72.5382 712.148 72.9143 717.216 73.3657L717.047 75.2369H717.056ZM645.687 74.9078L645.518 73.0366C650.454 72.5852 655.532 72.2279 660.6 71.9928L660.694 73.8734C655.645 74.1085 650.596 74.4658 645.697 74.9172L645.687 74.9078ZM698.288 73.9487C693.219 73.7042 688.151 73.5537 683.243 73.4879L683.271 71.6073C688.208 71.6637 693.285 71.8236 698.382 72.0681L698.288 73.9487ZM664.437 73.7042L664.371 71.8236C668.931 71.6543 673.624 71.5697 678.316 71.5697H679.482V73.4503H678.316C673.652 73.4503 668.978 73.5349 664.437 73.7042Z" fill="#DE7330"/>
<path d="M529.616 114.297L528.554 112.746C530.613 111.335 532.729 109.943 534.863 108.589L535.869 110.179C533.754 111.514 531.657 112.896 529.616 114.297Z" fill="#DE7330"/>
<path d="M681.099 119.553L679.416 118.716C680.553 116.441 681.747 114.194 682.96 112.031L684.597 112.952C683.393 115.087 682.218 117.297 681.089 119.544L681.099 119.553Z" fill="#DE7330"/>
<path d="M686.562 109.596L684.954 108.627C687.709 104.076 690.718 99.6942 693.906 95.6321L695.382 96.7886C692.241 100.794 689.27 105.11 686.562 109.596ZM697.827 93.7608L696.388 92.5573C699.773 88.514 703.44 84.6681 707.286 81.1232L708.556 82.5054C704.766 85.994 701.156 89.774 697.827 93.7608ZM711.471 79.9196L710.248 78.4903C714.188 75.0958 718.429 71.9082 722.848 68.9933L723.883 70.5636C719.529 73.4315 715.354 76.5721 711.471 79.9102V79.9196ZM727.164 68.4855L726.177 66.887C730.559 64.1883 735.241 61.6871 740.084 59.4398L740.874 61.1418C736.097 63.3609 731.48 65.8339 727.155 68.4855H727.164ZM744.438 59.5432L743.695 57.8131C748.377 55.7914 753.352 53.9296 758.467 52.2935L759.041 54.0801C753.982 55.6974 749.073 57.531 744.447 59.5338L744.438 59.5432ZM762.755 52.9517L762.219 51.1463C767.09 49.7077 772.233 48.4195 777.499 47.3099L777.884 49.1529C772.666 50.2531 767.569 51.5319 762.755 52.9517ZM781.721 48.3818L781.363 46.5389C786.347 45.5891 791.575 44.7617 796.916 44.0941L797.151 45.9559C791.857 46.6235 786.657 47.4321 781.721 48.3818ZM801.034 45.4951L800.828 43.6239C805.858 43.0691 811.133 42.6272 816.502 42.3075L816.615 44.1881C811.274 44.4984 806.037 44.9403 801.034 45.4951ZM820.518 43.9812L820.424 42.1006C825.473 41.8656 830.767 41.7245 836.145 41.6869V43.5675C830.804 43.5957 825.548 43.7368 820.518 43.9718V43.9812ZM855.722 43.8778C850.382 43.6803 845.116 43.5769 840.076 43.5581V41.6775C845.153 41.6963 850.438 41.7997 855.798 41.9972L855.732 43.8778H855.722Z" fill="#DE7330"/>
<path d="M867.213 44.4231C864.693 44.2821 862.191 44.1504 859.709 44.0376L859.794 42.157C862.285 42.2698 864.796 42.3921 867.316 42.5425L867.203 44.4231H867.213Z" fill="#DE7330"/>
<path d="M86.818 84.2732C88.8226 84.2732 90.4476 82.6482 90.4476 80.6437C90.4476 78.6391 88.8226 77.0141 86.818 77.0141C84.8135 77.0141 83.1885 78.6391 83.1885 80.6437C83.1885 82.6482 84.8135 84.2732 86.818 84.2732Z" fill="#F5C246"/>
<path d="M86.4984 85.4769C83.8374 85.2982 81.8157 82.9851 81.985 80.324C82.1543 77.663 84.4768 75.6413 87.1379 75.8106C89.7989 75.9798 91.8206 78.3024 91.6513 80.9634C91.4821 83.6245 89.1595 85.6461 86.4984 85.4769ZM86.9874 78.2271C85.6522 78.1425 84.4956 79.1486 84.411 80.4839C84.3263 81.8191 85.3325 82.9757 86.6677 83.0603C88.0029 83.1449 89.1595 82.1388 89.2441 80.8036C89.3288 79.4683 88.3226 78.3118 86.9874 78.2271Z" fill="#DE7330"/>
<path d="M167.129 54.9923C169.134 54.9923 170.759 53.3673 170.759 51.3627C170.759 49.3582 169.134 47.7332 167.129 47.7332C165.125 47.7332 163.5 49.3582 163.5 51.3627C163.5 53.3673 165.125 54.9923 167.129 54.9923Z" fill="#F5C246"/>
<path d="M166.809 56.1959C164.148 56.0172 162.127 53.7041 162.296 51.043C162.475 48.3819 164.788 46.3603 167.449 46.5296C170.11 46.6988 172.132 49.0214 171.962 51.6824C171.784 54.3435 169.471 56.3651 166.809 56.1959ZM167.289 48.9461C165.954 48.8615 164.797 49.8676 164.713 51.2029C164.628 52.5381 165.634 53.6947 166.969 53.7793C168.305 53.8639 169.461 52.8578 169.546 51.5226C169.63 50.1873 168.624 49.0308 167.289 48.9461Z" fill="#DE7330"/>
<path d="M240.896 134.551C242.901 134.551 244.526 132.926 244.526 130.922C244.526 128.917 242.901 127.292 240.896 127.292C238.892 127.292 237.267 128.917 237.267 130.922C237.267 132.926 238.892 134.551 240.896 134.551Z" fill="#F5C246"/>
<path d="M240.577 135.755C237.916 135.576 235.894 133.263 236.063 130.602C236.242 127.941 238.555 125.919 241.216 126.089C243.877 126.258 245.899 128.58 245.729 131.241C245.551 133.902 243.238 135.924 240.577 135.755ZM241.056 128.505C239.721 128.42 238.564 129.427 238.48 130.762C238.395 132.097 239.401 133.254 240.736 133.338C242.072 133.423 243.228 132.417 243.313 131.082C243.397 129.746 242.391 128.59 241.056 128.505Z" fill="#DE7330"/>
<path d="M274.173 35.716C276.178 35.716 277.803 34.091 277.803 32.0865C277.803 30.0819 276.178 28.4569 274.173 28.4569C272.169 28.4569 270.544 30.0819 270.544 32.0865C270.544 34.091 272.169 35.716 274.173 35.716Z" fill="#F5C246"/>
<path d="M273.854 36.9196C271.193 36.741 269.171 34.4278 269.34 31.7668C269.51 29.1057 271.832 27.0841 274.493 27.2533C277.154 27.4226 279.176 29.7451 279.007 32.4062C278.838 35.0672 276.515 37.0889 273.854 36.9196ZM274.333 29.6699C272.998 29.5853 271.842 30.5914 271.757 31.9266C271.672 33.2618 272.679 34.4184 274.014 34.503C275.349 34.5877 276.506 33.5815 276.59 32.2463C276.675 30.9111 275.669 29.7545 274.333 29.6699Z" fill="#DE7330"/>
<path d="M392.228 115.501C394.233 115.501 395.858 113.876 395.858 111.871C395.858 109.867 394.233 108.242 392.228 108.242C390.224 108.242 388.599 109.867 388.599 111.871C388.599 113.876 390.224 115.501 392.228 115.501Z" fill="#F5C246"/>
<path d="M391.909 116.704C389.248 116.526 387.226 114.212 387.395 111.551C387.574 108.89 389.887 106.869 392.548 107.038C395.209 107.207 397.231 109.53 397.061 112.191C396.883 114.852 394.57 116.874 391.909 116.704ZM392.388 109.455C391.053 109.37 389.896 110.376 389.812 111.711C389.727 113.047 390.733 114.203 392.068 114.288C393.404 114.372 394.56 113.366 394.645 112.031C394.73 110.696 393.723 109.539 392.388 109.455Z" fill="#DE7330"/>
<path d="M529.09 117.146C531.094 117.146 532.719 115.521 532.719 113.517C532.719 111.512 531.094 109.887 529.09 109.887C527.085 109.887 525.46 111.512 525.46 113.517C525.46 115.521 527.085 117.146 529.09 117.146Z" fill="#F5C246"/>
<path d="M528.77 118.35C526.109 118.171 524.087 115.858 524.256 113.197C524.426 110.536 526.748 108.514 529.409 108.683C532.07 108.853 534.092 111.175 533.923 113.836C533.744 116.497 531.431 118.519 528.77 118.35ZM529.249 111.1C527.914 111.015 526.758 112.022 526.673 113.357C526.588 114.692 527.595 115.849 528.93 115.933C530.265 116.018 531.422 115.012 531.506 113.676C531.591 112.341 530.585 111.185 529.249 111.1Z" fill="#DE7330"/>
<path d="M680.252 122.76C682.257 122.76 683.882 121.135 683.882 119.13C683.882 117.126 682.257 115.501 680.252 115.501C678.248 115.501 676.623 117.126 676.623 119.13C676.623 121.135 678.248 122.76 680.252 122.76Z" fill="#F5C246"/>
<path d="M679.933 123.963C677.271 123.785 675.25 121.472 675.419 118.811C675.598 116.15 677.911 114.128 680.572 114.297C683.233 114.466 685.255 116.789 685.085 119.45C684.916 122.111 682.594 124.133 679.933 123.963ZM680.421 116.714C679.086 116.629 677.93 117.635 677.845 118.97C677.76 120.306 678.767 121.462 680.102 121.547C681.437 121.631 682.594 120.625 682.678 119.29C682.763 117.955 681.757 116.798 680.421 116.714Z" fill="#DE7330"/>
<path d="M765.688 84.4519C767.693 84.4519 769.318 82.8269 769.318 80.8224C769.318 78.8178 767.693 77.1928 765.688 77.1928C763.684 77.1928 762.059 78.8178 762.059 80.8224C762.059 82.8269 763.684 84.4519 765.688 84.4519Z" fill="#F5C246"/>
<path d="M765.369 85.6555C762.708 85.4769 760.686 83.1637 760.855 80.5027C761.024 77.8416 763.347 75.82 766.008 75.9892C768.669 76.1585 770.691 78.481 770.521 81.1421C770.352 83.8031 768.03 85.8248 765.369 85.6555ZM765.858 78.4058C764.522 78.3212 763.366 79.3273 763.281 80.6625C763.196 81.9977 764.203 83.1543 765.538 83.2389C766.873 83.3236 768.03 82.3174 768.114 80.9822C768.199 79.647 767.193 78.4904 765.858 78.4058Z" fill="#DE7330"/>
<path d="M867.26 47.1219C869.264 47.1219 870.889 45.4969 870.889 43.4924C870.889 41.4878 869.264 39.8628 867.26 39.8628C865.255 39.8628 863.63 41.4878 863.63 43.4924C863.63 45.4969 865.255 47.1219 867.26 47.1219Z" fill="#F5C246"/>
<path d="M866.94 48.3255C864.279 48.1468 862.258 45.8337 862.427 43.1726C862.596 40.5116 864.919 38.4899 867.58 38.6592C870.241 38.8284 872.262 41.151 872.093 43.8121C871.915 46.4731 869.601 48.4948 866.94 48.3255ZM867.429 41.0758C866.094 40.9911 864.938 41.9973 864.853 43.3325C864.768 44.6677 865.774 45.8243 867.11 45.9089C868.445 45.9936 869.601 44.9874 869.686 43.6522C869.771 42.317 868.765 41.1604 867.429 41.0758Z" fill="#DE7330"/>
</svg>
