<svg width="202" height="215" viewBox="0 0 202 215" fill="none" xmlns="http://www.w3.org/2000/svg">
<path d="M165.27 193.65C165.22 193.58 165.19 193.54 165.19 193.54C165.19 193.54 165.18 193.52 165.16 193.49V193.48C165.16 193.48 165.14 193.45 165.12 193.41C165.12 193.4 165.1 193.37 165.08 193.33C165.08 193.31 165.06 193.29 165.04 193.26C165.04 193.24 165.02 193.21 165 193.18C164.99 193.15 164.97 193.12 164.94 193.07C164.93 193.05 164.92 193.02 164.9 192.99C164.89 192.97 164.88 192.94 164.86 192.91C164.85 192.89 164.84 192.86 164.82 192.83C164.81 192.81 164.8 192.78 164.78 192.76C164.76 192.73 164.74 192.69 164.72 192.65C164.7 192.61 164.69 192.58 164.66 192.53C164.65 192.5 164.64 192.48 164.62 192.45C164.61 192.42 164.6 192.4 164.58 192.37C164.55 192.31 164.52 192.25 164.48 192.17C164.47 192.14 164.46 192.12 164.45 192.09C164.43 192.06 164.43 192.03 164.41 192C164.4 191.97 164.39 191.95 164.38 191.93C164.37 191.9 164.36 191.88 164.35 191.86C164.34 191.83 164.33 191.81 164.32 191.79C164.31 191.77 164.3 191.74 164.29 191.72C164.29 191.7 164.27 191.67 164.26 191.65C164.26 191.63 164.24 191.6 164.23 191.58C164.23 191.56 164.21 191.53 164.2 191.51C164.2 191.49 164.18 191.46 164.17 191.44C164.16 191.41 164.14 191.37 164.13 191.34C164.12 191.3 164.1 191.26 164.08 191.22C164.06 191.18 164.05 191.13 164.03 191.08C164.01 191.04 164 190.99 163.98 190.95C163.96 190.91 163.95 190.87 163.93 190.83C163.91 190.78 163.9 190.74 163.88 190.69C163.87 190.65 163.86 190.62 163.84 190.58C163.84 190.55 163.82 190.53 163.82 190.51C163.82 190.49 163.81 190.46 163.8 190.44C163.8 190.42 163.78 190.39 163.78 190.37C163.78 190.35 163.76 190.32 163.76 190.3C163.76 190.28 163.74 190.25 163.74 190.23C163.74 190.21 163.72 190.18 163.72 190.16C163.72 190.14 163.7 190.11 163.7 190.09C163.7 190.07 163.68 190.04 163.68 190.02C163.68 189.99 163.66 189.97 163.65 189.94C163.64 189.9 163.62 189.86 163.61 189.82C163.6 189.78 163.58 189.73 163.57 189.69C163.56 189.65 163.54 189.6 163.53 189.56C163.52 189.52 163.51 189.47 163.49 189.43C163.48 189.39 163.47 189.35 163.46 189.31C163.45 189.27 163.44 189.22 163.43 189.18C163.43 189.15 163.42 189.12 163.41 189.08C163.41 189.06 163.4 189.03 163.39 189.01C163.39 188.99 163.38 188.96 163.37 188.94C163.37 188.92 163.36 188.89 163.35 188.87C163.35 188.85 163.34 188.82 163.33 188.8C163.33 188.78 163.32 188.75 163.31 188.73C163.31 188.71 163.3 188.68 163.29 188.66C163.29 188.64 163.28 188.61 163.27 188.59C163.27 188.57 163.26 188.54 163.25 188.52C163.25 188.5 163.24 188.47 163.23 188.45C163.23 188.43 163.22 188.4 163.21 188.38C163.21 188.34 163.19 188.31 163.18 188.27C163.18 188.23 163.16 188.19 163.15 188.15C163.15 188.11 163.13 188.06 163.12 188.02C163.12 187.98 163.1 187.93 163.09 187.89C163.09 187.85 163.08 187.81 163.07 187.77C163.07 187.73 163.06 187.68 163.05 187.64C163.05 187.61 163.05 187.57 163.03 187.54C163.03 187.52 163.03 187.49 163.02 187.47C163.02 187.45 163.02 187.43 163.01 187.4C163.01 187.38 163.01 187.36 163 187.33C163 187.31 163 187.29 162.99 187.26C162.99 187.24 162.99 187.22 162.98 187.19C162.9 186.73 162.72 186.28 162.43 185.89L138.68 154.16C142.01 146.9 143.71 139.14 143.71 131.08C143.71 131.08 143.71 131.06 143.71 131.05C143.71 131.05 143.71 131.03 143.71 131.02C143.71 131.02 143.71 131 143.71 130.99C143.71 130.99 143.71 130.97 143.71 130.96C143.71 130.96 143.71 130.94 143.71 130.93C143.71 130.93 143.71 130.91 143.71 130.9C143.71 130.9 143.71 130.88 143.71 130.87C143.71 130.87 143.71 130.85 143.71 130.84C143.71 130.84 143.71 130.82 143.71 130.81C143.71 130.81 143.71 130.79 143.71 130.78C143.71 130.78 143.71 130.76 143.71 130.75C143.71 130.75 143.71 130.73 143.71 130.72C143.71 130.72 143.71 130.7 143.71 130.69C143.71 130.69 143.71 130.67 143.71 130.66C143.71 130.66 143.71 130.64 143.71 130.63C143.71 130.63 143.71 130.61 143.71 130.6C143.71 130.6 143.71 130.58 143.71 130.57C143.71 130.57 143.71 130.55 143.71 130.54C143.71 130.54 143.71 130.52 143.71 130.51C143.71 130.51 143.71 130.49 143.71 130.48C143.71 130.48 143.71 130.46 143.71 130.45C143.71 130.45 143.71 130.43 143.71 130.42C143.71 130.42 143.71 130.4 143.71 130.39C143.71 130.39 143.71 130.37 143.71 130.36C143.71 130.36 143.71 130.34 143.71 130.33C143.71 130.33 143.71 130.31 143.71 130.3C143.71 130.3 143.71 130.28 143.71 130.27C143.71 130.27 143.71 130.25 143.71 130.24C143.71 130.24 143.71 130.22 143.71 130.21C143.71 130.21 143.71 130.19 143.71 130.18C143.71 130.18 143.71 130.16 143.71 130.15C143.71 130.15 143.71 130.13 143.71 130.12C143.71 130.12 143.71 130.1 143.71 130.09C143.71 130.09 143.71 130.07 143.71 130.06C143.71 130.06 143.71 130.04 143.71 130.03C143.71 130.03 143.71 130.01 143.71 130C143.71 130 143.71 129.98 143.71 129.97C143.71 129.97 143.71 129.95 143.71 129.94C143.71 129.94 143.71 129.92 143.71 129.91C143.71 129.91 143.71 129.89 143.71 129.88C143.71 129.88 143.71 129.86 143.71 129.85C143.71 129.85 143.71 129.83 143.71 129.82C143.71 129.82 143.71 129.8 143.71 129.79C143.71 129.79 143.71 129.77 143.71 129.76C143.71 129.76 143.71 129.74 143.71 129.73C143.71 129.73 143.71 129.71 143.71 129.7C143.71 129.7 143.71 129.68 143.71 129.67C143.71 129.67 143.71 129.65 143.71 129.64C143.71 129.64 143.71 129.62 143.71 129.61C143.71 129.61 143.71 129.59 143.71 129.58C143.71 129.58 143.71 129.56 143.71 129.55C143.71 129.55 143.71 129.53 143.71 129.52C143.71 129.52 143.71 129.5 143.71 129.49C143.71 129.49 143.71 129.47 143.71 129.46C143.71 129.46 143.71 129.44 143.71 129.43C143.71 129.43 143.71 129.41 143.71 129.4C143.71 129.4 143.71 129.38 143.71 129.37C143.71 129.37 143.71 129.35 143.71 129.34C143.71 129.34 143.71 129.32 143.71 129.31C143.71 129.31 143.71 129.29 143.71 129.28C143.71 129.28 143.71 129.26 143.71 129.25C143.71 129.25 143.71 129.23 143.71 129.22C143.71 129.22 143.71 129.2 143.71 129.19C143.71 129.19 143.71 129.17 143.71 129.16C143.71 129.16 143.71 129.14 143.71 129.13C143.71 129.13 143.71 129.11 143.71 129.1C143.71 129.1 143.71 129.08 143.71 129.07C143.71 129.07 143.71 129.05 143.71 129.04C143.71 129.04 143.71 129.02 143.71 129.01C143.71 129.01 143.71 128.99 143.71 128.98C143.71 128.98 143.71 128.96 143.71 128.95C143.71 128.95 143.71 128.93 143.71 128.92C143.71 128.92 143.71 128.9 143.71 128.89C143.71 128.89 143.71 128.87 143.71 128.86C143.71 128.86 143.71 128.84 143.71 128.83C143.71 128.83 143.71 128.81 143.71 128.8C143.71 128.8 143.71 128.78 143.71 128.77C143.71 128.77 143.71 128.75 143.71 128.74C143.71 128.74 143.71 128.72 143.71 128.71C143.71 128.71 143.71 128.69 143.71 128.68C143.71 128.68 143.71 128.66 143.71 128.65C143.71 128.65 143.71 128.63 143.71 128.62C143.71 128.62 143.71 128.6 143.71 128.59C143.71 128.59 143.71 128.57 143.71 128.56C143.71 128.56 143.71 128.54 143.71 128.53C143.71 128.53 143.71 128.51 143.71 128.5C143.71 128.5 143.71 128.48 143.71 128.47C143.71 128.47 143.71 128.45 143.71 128.44C143.71 128.44 143.71 128.42 143.71 128.41C143.71 128.41 143.71 128.39 143.71 128.38C143.71 128.38 143.71 128.36 143.71 128.35C143.71 128.35 143.71 128.33 143.71 128.32C143.71 128.32 143.71 128.3 143.71 128.29C143.71 128.29 143.71 128.27 143.71 128.26C143.71 128.26 143.71 128.24 143.71 128.23C143.71 128.23 143.71 128.21 143.71 128.2C143.71 128.2 143.71 128.18 143.71 128.17C143.71 128.17 143.71 128.15 143.71 128.14C143.71 128.14 143.71 128.12 143.71 128.11C143.71 128.11 143.71 128.09 143.71 128.08C143.71 128.08 143.71 128.06 143.71 128.05C143.71 128.05 143.71 128.03 143.71 128.02C143.71 128.02 143.71 128 143.71 127.99C143.71 127.99 143.71 127.97 143.71 127.96C143.71 127.96 143.71 127.94 143.71 127.93C143.71 127.93 143.71 127.91 143.71 127.9C143.71 127.9 143.71 127.88 143.71 127.87C143.71 127.87 143.71 127.85 143.71 127.84C143.71 127.84 143.71 127.82 143.71 127.81C143.71 127.81 143.71 127.79 143.71 127.78C143.71 127.78 143.71 127.76 143.71 127.75C143.71 127.75 143.71 127.73 143.71 127.72C143.71 127.72 143.71 127.7 143.71 127.69C143.71 127.69 143.71 127.67 143.71 127.66C143.71 127.66 143.71 127.64 143.71 127.63C143.71 127.63 143.71 127.61 143.71 127.6C143.71 127.6 143.71 127.58 143.71 127.57C143.71 127.57 143.71 127.55 143.71 127.54C143.71 127.54 143.71 127.52 143.71 127.51C143.71 127.51 143.71 127.49 143.71 127.48C143.71 127.48 143.71 127.46 143.71 127.45C143.71 127.45 143.71 127.43 143.71 127.42C143.71 127.42 143.71 127.4 143.71 127.39C143.71 127.39 143.71 127.37 143.71 127.36C143.71 127.36 143.71 127.34 143.71 127.33C143.71 127.33 143.71 127.31 143.71 127.3C143.71 127.3 143.71 127.28 143.71 127.27C143.71 127.27 143.71 127.25 143.71 127.24C143.71 127.24 143.71 127.22 143.71 127.21C143.71 127.21 143.71 127.19 143.71 127.18C143.71 127.18 143.71 127.16 143.71 127.15C143.71 127.15 143.71 127.13 143.71 127.12C143.71 127.12 143.71 127.1 143.71 127.09C143.71 127.09 143.71 127.07 143.71 127.06C143.71 127.06 143.71 127.04 143.71 127.03C143.71 127.03 143.71 127.01 143.71 127C143.71 127 143.71 126.98 143.71 126.97C143.71 126.97 143.71 126.95 143.71 126.94C143.71 126.94 143.71 126.92 143.71 126.91C143.71 126.91 143.71 126.89 143.71 126.88C143.71 126.88 143.71 126.86 143.71 126.85C143.71 126.85 143.71 126.83 143.71 126.82C143.71 96.16 118.77 71.22 88.1098 71.22C59.5498 71.22 38.0198 93.98 31.5298 116.38C31.4998 116.48 30.9898 118.01 30.4898 119.55C30.0198 120.99 29.5498 122.43 29.4498 122.74L20.2598 150.9H20.2898V150.92H20.3198V150.94H20.3498V150.96H20.3798V150.98H20.4098V151H20.4398V151.02H20.4698V151.04H20.4998V151.06H20.5298V151.08H20.5598V151.1H20.5898V151.12H20.6198V151.14H20.6498V151.16H20.6798V151.18H20.7098V151.2H20.7398V151.22H20.7698V151.24H20.7998V151.26H20.8298V151.28H20.8598V151.3H20.8898V151.32H20.9198V151.34H20.9498V151.36H20.9798V151.38H21.0098V151.4H21.0398V151.42H21.0698V151.44H21.0998V151.46H21.1298V151.48H21.1598V151.5H21.1898V151.52H21.2198V151.54H21.2498V151.56H21.2798V151.58H21.3098V151.6H21.3398V151.62H21.3698V151.64H21.3998V151.66H21.4298V151.68H21.4598V151.7H21.4898V151.72L27.1898 153.58L35.3098 128.71C36.1598 126.84 37.9198 124.69 43.8198 124.33H70.8198C66.9298 128.13 60.8798 131.28 52.7298 133.74H43.8398C42.4498 133.74 41.2498 134.69 40.9198 136.04L24.2098 205.74C24.1598 205.96 24.1498 206.17 24.1398 206.39C24.1198 206.49 24.0998 206.59 24.0998 206.69C24.0998 206.72 24.0998 206.75 24.0998 206.77C24.0998 206.8 24.0998 206.83 24.0998 206.85C24.0998 206.88 24.0998 206.91 24.0998 206.93C24.0998 206.96 24.0998 206.99 24.0998 207.01C24.0998 207.04 24.0998 207.07 24.0998 207.09C24.0998 207.12 24.0998 207.15 24.0998 207.17C24.0998 207.2 24.0998 207.23 24.0998 207.25C24.0998 207.28 24.0998 207.31 24.0998 207.33C24.0998 207.36 24.0998 207.39 24.0998 207.42C24.0998 207.45 24.0998 207.48 24.0998 207.5C24.0998 207.53 24.0998 207.56 24.0998 207.58C24.0998 207.61 24.0998 207.65 24.0998 207.69C24.0998 207.74 24.0998 207.79 24.0898 207.83C24.0898 207.89 24.0798 207.95 24.0698 208.02C24.0698 208.07 24.0698 208.11 24.0598 208.16C24.0598 208.21 24.0498 208.25 24.0498 208.3C24.0498 208.33 24.0498 208.35 24.0498 208.38C24.0498 208.41 24.0498 208.44 24.0498 208.47C24.0498 208.5 24.0498 208.53 24.0498 208.56C24.0498 208.59 24.0498 208.62 24.0498 208.65C24.0498 208.68 24.0498 208.71 24.0498 208.74C24.0498 208.77 24.0498 208.8 24.0498 208.83C24.0498 208.86 24.0498 208.89 24.0498 208.92C24.0498 208.95 24.0498 208.98 24.0498 209.01C24.0498 209.04 24.0498 209.07 24.0498 209.1C24.0498 209.13 24.0498 209.16 24.0498 209.19C24.0498 209.22 24.0498 209.25 24.0498 209.28C24.0498 209.31 24.0498 209.34 24.0498 209.37C24.0498 209.4 24.0498 209.43 24.0498 209.46C24.0498 209.49 24.0498 209.52 24.0498 209.55C24.0498 209.6 24.0498 209.65 24.0398 209.7C24.0398 209.75 24.0298 209.81 24.0198 209.86C24.0198 209.92 24.0098 209.98 23.9998 210.04C23.9998 210.1 23.9898 210.15 23.9798 210.21C23.9798 210.26 23.9698 210.3 23.9598 210.35C23.9598 210.38 23.9598 210.41 23.9498 210.44C23.9498 210.47 23.9498 210.5 23.9398 210.54C23.9398 210.57 23.9398 210.6 23.9298 210.63C23.9298 210.66 23.9298 210.7 23.9198 210.73C23.9198 210.76 23.9198 210.8 23.9098 210.83C23.9098 210.86 23.9098 210.9 23.8998 210.93C23.8998 210.98 23.8898 211.04 23.8798 211.09C23.8798 211.15 23.8598 211.22 23.8598 211.28C23.8598 211.33 23.8498 211.38 23.8398 211.43C23.8398 211.48 23.8198 211.53 23.8198 211.59C23.8098 211.69 23.7898 211.78 23.7798 211.88C23.7798 211.92 23.7698 211.96 23.7598 212C23.7598 212.04 23.7498 212.08 23.7398 212.12C23.7398 212.17 23.7298 212.21 23.7198 212.26C23.7198 212.32 23.6998 212.37 23.6898 212.43C23.6898 212.49 23.6698 212.55 23.6598 212.6C23.6598 212.64 23.6498 212.68 23.6398 212.72C23.6398 212.76 23.6298 212.8 23.6198 212.84C23.6098 212.9 23.5998 212.95 23.5898 213C23.5798 213.06 23.5698 213.12 23.5598 213.18C23.5598 213.23 23.5398 213.28 23.5298 213.33C23.5298 213.38 23.5098 213.42 23.4998 213.46C23.4898 213.52 23.4798 213.57 23.4698 213.62C23.4598 213.68 23.4398 213.74 23.4298 213.8C23.4198 213.85 23.4098 213.9 23.3998 213.95C23.3898 214 23.3798 214.05 23.3698 214.1C23.3598 214.16 23.3398 214.22 23.3298 214.28C23.3198 214.34 23.2998 214.4 23.2898 214.45L23.1598 215L91.6298 191.81L92.3398 191.57L92.8498 191.02C94.5598 189.2 96.0498 187.01 97.4098 184.32C99.0898 181 100.5 177.02 101.68 172.25L103.81 174.83L115.73 189.89L117.25 189.83C131.52 189.31 145.82 190.8 159.74 194.25L167.91 196.28L165.71 193.34L165.27 193.65Z" fill="#F5C246"/>
<path d="M132.45 150.8L135.47 149.95C138.83 143.02 140.71 135.25 140.71 127.04C140.71 97.99 117.16 74.44 88.1097 74.44C62.3197 74.44 41.0997 94.33 34.3897 117.52C34.3897 117.55 32.3097 123.86 32.3097 123.89C33.8297 120.42 37.0097 117.99 43.5297 117.61H78.2497C75.9197 126.41 67.2597 132.79 52.9697 137.02H43.6397L26.9297 206.72L90.2497 185.27C91.7897 183.63 93.1297 181.62 94.3197 179.27C96.6797 174.62 98.3697 168.68 99.6197 161.85L105.74 169.27L116.72 183.14C131.95 182.59 146.33 184.25 160.04 187.65L132.46 150.8H132.45Z" fill="white"/>
<path d="M154.92 131.75C155.15 129.61 155.27 127.44 155.27 125.24C155.27 91.41 127.85 63.99 94.0299 63.99C78.3999 63.99 64.1299 69.85 53.3099 79.49L45.4399 71.91C57.1899 60.76 73.0799 53.91 90.5499 53.91C126.74 53.91 156.08 83.25 156.08 119.44C156.08 123.65 155.68 127.76 154.92 131.75Z" fill="#C2CBD0"/>
<path d="M27.66 59.28L0 42.32C5.16 35.89 11.01 30.04 17.44 24.87L27.66 59.28Z" fill="#C2CBD0"/>
<path d="M47.4001 41.9L19.6401 23.16C27.5001 17.15 36.1701 12.16 45.4601 8.36L47.4001 41.9Z" fill="#C2CBD0"/>
<path d="M53.8898 57.13C49.0898 59.99 44.6398 63.38 40.6398 67.24L32.0298 42.38L53.8898 57.13Z" fill="#90999E"/>
<path d="M72.1802 49.46C66.9202 50.85 61.9002 52.82 57.1902 55.29L55.7202 29.89L72.1802 49.46Z" fill="#90999E"/>
<path d="M78.4699 0.419998L70.6499 33.65L48.3999 7.21C57.8799 3.64 67.9699 1.31 78.4699 0.419998Z" fill="#C2CBD0"/>
<path d="M90.9699 47.07H90.6599C85.7799 47.07 81.0099 47.55 76.3999 48.48L81.9099 25.1L90.9699 47.07Z" fill="#90999E"/>
<path d="M111.44 50.11C107.04 48.79 102.47 47.87 97.7598 47.42L109.2 27.13L111.44 50.11Z" fill="#90999E"/>
<path d="M112.67 2.66L95.1799 33.67L81.3799 0.2C83.6399 0.07 85.9299 0 88.2299 0C96.6199 0 104.8 0.91 112.67 2.66Z" fill="#C2CBD0"/>
<path d="M135.89 34.83L130.86 59.3C126.62 56.45 122.05 54.03 117.23 52.12L135.89 34.83Z" fill="#90999E"/>
<path d="M144.25 14.82L119.3 37.93L115.93 3.42C125.97 5.94 135.48 9.81 144.25 14.82Z" fill="#C2CBD0"/>
<path d="M155.43 52.93L145.76 72.67C142.63 68.95 139.12 65.56 135.29 62.54L155.43 52.93Z" fill="#90999E"/>
<path d="M170.71 35.68L142.1 49.32L148.65 17.47C156.76 22.59 164.17 28.72 170.71 35.68Z" fill="#C2CBD0"/>
<path d="M171.86 74.39L156.23 89.14C154.19 84.69 151.71 80.48 148.83 76.57L171.86 74.39Z" fill="#90999E"/>
<path d="M175.6 152.13L155.95 149.81C157.75 146.01 159.21 142.02 160.32 137.89L175.6 152.13Z" fill="#90999E"/>
<path d="M178.53 126.94L161.86 130.69C162.43 127.09 162.74 123.41 162.77 119.66L178.53 126.94Z" fill="#90999E"/>
<path d="M182.27 99.35L162.4 111.8C161.79 105.88 160.48 100.17 158.53 94.77L182.27 99.35Z" fill="#90999E"/>
<path d="M189.9 162.88C186.75 169.33 183 175.43 178.72 181.11L157.23 159.03L189.9 162.88Z" fill="#C2CBD0"/>
<path d="M190 63.63L158.76 66.59L172.78 37.95C179.63 45.64 185.44 54.27 190 63.63Z" fill="#C2CBD0"/>
<path d="M199.69 93.55L170.62 87.94L191.93 67.81C195.49 75.93 198.12 84.56 199.69 93.55Z" fill="#C2CBD0"/>
<path d="M199.93 131.35C198.55 139.94 196.19 148.21 192.98 156.04L173 137.41L199.93 131.35Z" fill="#C2CBD0"/>
<path d="M201.39 113.16C201.39 117.91 201.1 122.59 200.53 127.19L174.2 115.03L200.46 98.58C201.07 103.35 201.39 108.22 201.39 113.16Z" fill="#C2CBD0"/>
<path d="M24.1002 152.13L22.2002 151.51L27.1802 136.3L29.0802 136.92L24.1002 152.13ZM30.3302 133.12L28.4302 132.5L33.4102 117.3L35.3102 117.92L30.3302 133.12Z" fill="#DE7330"/>
<path d="M99.3204 168.07L97.3804 167.59C97.9604 165.23 98.4904 162.62 98.9604 159.82L100.93 160.15C100.45 163 99.9104 165.66 99.3204 168.07Z" fill="#DE7330"/>
<path d="M38.3504 203.9L37.7104 202.01L51.8305 197.23L52.4705 199.12L38.3504 203.9ZM56.0104 197.92L55.3704 196.03L69.4904 191.25L70.1304 193.14L56.0104 197.92ZM73.6605 191.94L73.0204 190.05L87.1404 185.27L87.7804 187.16L73.6605 191.94ZM91.5304 185.34L90.0204 184.03C91.2604 182.59 92.3804 180.89 93.4204 178.82C94.5304 176.63 95.5405 174.05 96.4105 171.14L98.3305 171.72C97.4205 174.74 96.3704 177.43 95.2104 179.73C94.0905 181.95 92.8904 183.78 91.5304 185.35V185.34Z" fill="#DE7330"/>
<path d="M25.5303 208.25L27.8103 198.71L29.7603 199.17L28.3203 205.19L34.1803 203.21L34.8203 205.1L25.5303 208.25Z" fill="#DE7330"/>
<path d="M30.5701 195.79L28.6201 195.32L31.8701 181.78L33.8201 182.25L30.5701 195.79ZM34.6301 178.87L32.6801 178.4L35.9301 164.86L37.8801 165.33L34.6301 178.87ZM38.6801 161.95L36.7301 161.48L39.9801 147.94L41.9301 148.41L38.6801 161.95Z" fill="#DE7330"/>
<path d="M42.74 145.03L40.79 144.57L42.84 136.02H51.63V138.02H44.42L42.74 145.03Z" fill="#DE7330"/>
<path d="M56.2401 137.03L55.6001 135.13C62.0901 132.95 67.2301 130.24 70.8701 127.1L72.1801 128.61C68.3401 131.93 62.9801 134.76 56.2401 137.02V137.03Z" fill="#DE7330"/>
<path d="M75.4002 125.3L73.8402 124.05C75.1902 122.36 76.2202 120.54 76.8902 118.61H70.2402V116.61H79.5402L79.2102 117.87C78.5002 120.54 77.2202 123.04 75.4002 125.31V125.3Z" fill="#DE7330"/>
<path d="M43.3905 118.62L43.2305 116.63L43.4605 116.61H64.8505V118.61L43.3905 118.62Z" fill="#DE7330"/>
<path d="M33.2201 124.29L31.3501 123.6C31.3501 123.6 31.8801 121.99 32.4001 120.39C32.9101 118.84 33.4201 117.28 33.4401 117.21C33.5501 116.81 33.6801 116.39 33.8101 115.97L35.7201 116.57C35.5901 116.98 35.4701 117.38 35.3501 117.79C35.3501 117.8 35.1701 118.35 34.9201 119.11C35.7301 118.54 36.6601 118.07 37.6901 117.69L38.3801 119.57C35.9001 120.48 34.2101 122.02 33.2201 124.28V124.29Z" fill="#DE7330"/>
<path d="M140.46 138.62L138.51 138.19C139.31 134.55 139.72 130.8 139.72 127.04C139.72 125.34 139.64 123.62 139.47 121.94L141.46 121.74C141.63 123.49 141.72 125.27 141.72 127.03C141.72 130.93 141.3 134.83 140.47 138.61L140.46 138.62ZM138.9 117.9C137.94 112.52 136.13 107.36 133.53 102.55L135.29 101.6C137.99 106.6 139.87 111.97 140.86 117.55L138.89 117.9H138.9ZM37.0802 112.72L35.2202 111.99C37.2602 106.76 40.0202 101.8 43.4002 97.23L45.0102 98.42C41.7302 102.84 39.0602 107.65 37.0802 112.71V112.72ZM131.46 99.04C128.49 94.46 124.83 90.38 120.58 86.94L121.84 85.39C126.25 88.97 130.05 93.19 133.13 97.96L131.45 99.05L131.46 99.04ZM47.5502 95.21L46.0202 93.92C49.7302 89.54 53.9602 85.75 58.5802 82.65L59.7002 84.31C55.2302 87.31 51.1402 90.98 47.5502 95.21ZM117.31 84.49C112.8 81.39 107.86 79.04 102.62 77.51L103.18 75.59C108.62 77.18 113.76 79.62 118.44 82.85L117.31 84.5V84.49ZM63.1802 82.16L62.1902 80.42C67.2102 77.57 72.5202 75.56 78.0002 74.45L78.4002 76.41C73.1402 77.48 68.0202 79.41 63.1902 82.16H63.1802ZM98.6602 76.52C93.3702 75.42 87.8202 75.14 82.4202 75.77L82.1902 73.78C87.8002 73.12 93.5702 73.41 99.0702 74.56L98.6602 76.52Z" fill="#DE7330"/>
<path d="M136.37 150.39L134.57 149.52C135.71 147.18 136.67 144.72 137.44 142.23L139.35 142.82C138.55 145.41 137.55 147.96 136.37 150.4V150.39Z" fill="#DE7330"/>
<path d="M156.53 187.85C151.35 186.68 146.08 185.77 140.87 185.14L141.11 183.15C146.39 183.79 151.72 184.71 156.97 185.9L156.53 187.85ZM158.85 187.75L149.26 174.94L150.86 173.74L160.45 186.55L158.85 187.75ZM136.92 184.72C131.68 184.23 126.37 184 121.04 184.05L121.02 182.05C126.42 182 131.8 182.23 137.1 182.73L136.91 184.72H136.92ZM116.24 184.16L106.2 171.48L107.77 170.24L117.5 182.53L117.04 182.9L117.08 184.14L116.25 184.17L116.24 184.16ZM146.87 171.74L137.28 158.93L138.88 157.73L148.47 170.54L146.87 171.74ZM134.88 155.73L125.29 142.92L126.89 141.72L136.48 154.53L134.88 155.73Z" fill="#DE7330"/>
<path d="M23.11 155.91C25.2418 155.91 26.97 154.182 26.97 152.05C26.97 149.918 25.2418 148.19 23.11 148.19C20.9782 148.19 19.25 149.918 19.25 152.05C19.25 154.182 20.9782 155.91 23.11 155.91Z" fill="#F5C246"/>
<path d="M22.77 157.19C19.94 157 17.79 154.54 17.97 151.71C18.16 148.88 20.62 146.73 23.45 146.91C26.28 147.09 28.43 149.56 28.25 152.39C28.07 155.22 25.6 157.37 22.77 157.19ZM23.28 149.48C21.86 149.39 20.63 150.46 20.54 151.88C20.45 153.3 21.52 154.53 22.94 154.62C24.36 154.71 25.59 153.64 25.68 152.22C25.77 150.8 24.7 149.57 23.28 149.48Z" fill="#DE7330"/>
<path d="M78.2399 121.48C80.3717 121.48 82.0999 119.752 82.0999 117.62C82.0999 115.488 80.3717 113.76 78.2399 113.76C76.1081 113.76 74.3799 115.488 74.3799 117.62C74.3799 119.752 76.1081 121.48 78.2399 121.48Z" fill="#F5C246"/>
<path d="M77.8901 122.76C75.0601 122.57 72.9101 120.11 73.0901 117.28C73.2701 114.45 75.7401 112.3 78.5701 112.48C81.4001 112.66 83.5501 115.13 83.3701 117.96C83.1901 120.79 80.7201 122.94 77.8901 122.76ZM78.4101 115.05C76.9901 114.96 75.7601 116.03 75.6701 117.45C75.5801 118.87 76.6501 120.1 78.0701 120.19C79.4901 120.28 80.7201 119.21 80.8101 117.79C80.9001 116.37 79.8301 115.14 78.4101 115.05Z" fill="#DE7330"/>
<path d="M158.53 190.12C160.662 190.12 162.39 188.392 162.39 186.26C162.39 184.128 160.662 182.4 158.53 182.4C156.398 182.4 154.67 184.128 154.67 186.26C154.67 188.392 156.398 190.12 158.53 190.12Z" fill="#F5C246"/>
<path d="M158.19 191.4C155.36 191.21 153.21 188.75 153.39 185.92C153.57 183.09 156.04 180.94 158.87 181.12C161.7 181.31 163.85 183.77 163.67 186.6C163.49 189.43 161.02 191.58 158.19 191.4ZM158.7 183.69C157.28 183.6 156.05 184.67 155.96 186.09C155.87 187.51 156.94 188.74 158.36 188.83C159.78 188.92 161.01 187.85 161.1 186.43C161.19 185.01 160.12 183.78 158.7 183.69Z" fill="#DE7330"/>
<path d="M26.9699 210.58C29.1017 210.58 30.8299 208.852 30.8299 206.72C30.8299 204.588 29.1017 202.86 26.9699 202.86C24.838 202.86 23.1099 204.588 23.1099 206.72C23.1099 208.852 24.838 210.58 26.9699 210.58Z" fill="#F5C246"/>
<path d="M26.6299 211.86C23.7999 211.67 21.6499 209.21 21.8299 206.38C22.0099 203.55 24.4799 201.4 27.3099 201.58C30.1399 201.76 32.2899 204.23 32.1099 207.06C31.9299 209.89 29.4599 212.04 26.6299 211.86ZM27.1499 204.15C25.7299 204.06 24.4999 205.13 24.4099 206.55C24.3199 207.97 25.3899 209.2 26.8099 209.29C28.2299 209.38 29.4599 208.31 29.5499 206.89C29.6399 205.47 28.5699 204.24 27.1499 204.15Z" fill="#DE7330"/>
<path d="M116.73 186.98C118.862 186.98 120.59 185.252 120.59 183.12C120.59 180.988 118.862 179.26 116.73 179.26C114.598 179.26 112.87 180.988 112.87 183.12C112.87 185.252 114.598 186.98 116.73 186.98Z" fill="#F5C246"/>
<path d="M116.39 188.26C113.56 188.07 111.41 185.61 111.59 182.78C111.77 179.95 114.24 177.8 117.07 177.98C119.9 178.16 122.05 180.63 121.87 183.46C121.69 186.29 119.22 188.44 116.39 188.26ZM116.9 180.55C115.48 180.46 114.25 181.53 114.16 182.95C114.07 184.37 115.14 185.6 116.56 185.69C117.98 185.78 119.21 184.71 119.3 183.29C119.39 181.87 118.32 180.64 116.9 180.55Z" fill="#DE7330"/>
<path d="M43.63 140.9C45.7618 140.9 47.49 139.172 47.49 137.04C47.49 134.908 45.7618 133.18 43.63 133.18C41.4982 133.18 39.77 134.908 39.77 137.04C39.77 139.172 41.4982 140.9 43.63 140.9Z" fill="#F5C246"/>
<path d="M43.29 142.18C40.46 141.99 38.31 139.53 38.49 136.7C38.68 133.87 41.14 131.72 43.97 131.9C46.8 132.08 48.95 134.55 48.77 137.38C48.58 140.21 46.12 142.36 43.29 142.18ZM43.8 134.47C42.38 134.38 41.15 135.45 41.06 136.87C40.97 138.29 42.04 139.52 43.46 139.61C44.88 139.7 46.11 138.63 46.2 137.21C46.29 135.79 45.22 134.56 43.8 134.47Z" fill="#DE7330"/>
</svg>
