<svg width="346" height="436" viewBox="0 0 346 436" fill="none" xmlns="http://www.w3.org/2000/svg">
<path d="M202.08 283.302L195.71 276.942L197.13 275.532L202.08 280.482L207.03 275.532L208.44 276.942L202.08 283.302Z" fill="#DE7330"/>
<path d="M192.95 274.182L181.9 263.132L183.31 261.722L194.36 272.772L192.95 274.182ZM179.14 260.362L168.09 249.312L169.5 247.902L180.55 258.952L179.14 260.362ZM165.32 246.552L154.27 235.502L155.68 234.092L166.73 245.142L165.32 246.552ZM151.51 232.732L140.46 221.682L141.87 220.272L152.92 231.322L151.51 232.732ZM137.69 218.922L126.64 207.872L128.05 206.462L139.1 217.512L137.69 218.922ZM123.88 205.112L112.83 194.062L114.24 192.652L125.29 203.702L123.88 205.112ZM110.06 191.292L99.0097 180.242L100.42 178.832L111.47 189.882L110.06 191.292ZM96.2496 177.482L85.1996 166.432L86.6096 165.022L97.6597 176.072L96.2496 177.482ZM82.4397 163.662L71.3896 152.612L72.7997 151.202L83.8496 162.252L82.4397 163.662Z" fill="#DE7330"/>
<path d="M68.6198 149.852L62.2598 143.492L68.6198 137.122L70.0398 138.542L65.0898 143.492L70.0398 148.442L68.6198 149.852Z" fill="#DE7330"/>
<path d="M72.7997 135.772L71.3896 134.362L82.4397 123.312L83.8496 124.722L72.7997 135.772ZM86.6096 121.962L85.1996 120.552L96.2496 109.502L97.6597 110.912L86.6096 121.962ZM100.43 108.142L99.0196 106.732L110.07 95.6816L111.48 97.0916L100.43 108.142ZM114.24 94.3316L112.83 92.9216L123.88 81.8716L125.29 83.2816L114.24 94.3316ZM128.06 80.5216L126.65 79.1116L137.7 68.0616L139.11 69.4716L128.06 80.5216ZM141.87 66.7016L140.46 65.2916L151.51 54.2416L152.92 55.6516L141.87 66.7016ZM155.68 52.8916L154.27 51.4816L165.32 40.4316L166.73 41.8416L155.68 52.8916ZM169.5 39.0716L168.09 37.6616L179.14 26.6116L180.55 28.0216L169.5 39.0716ZM183.31 25.2616L181.9 23.8516L192.95 12.8016L194.36 14.2116L183.31 25.2616Z" fill="#DE7330"/>
<path d="M207.03 11.4516L202.08 6.50163L197.13 11.4516L195.71 10.0316L202.08 3.67163L208.44 10.0316L207.03 11.4516Z" fill="#DE7330"/>
<path d="M331.35 135.772L320.3 124.722L321.71 123.312L332.76 134.362L331.35 135.772ZM317.54 121.962L306.49 110.912L307.9 109.502L318.95 120.552L317.54 121.962ZM303.73 108.142L292.68 97.0916L294.09 95.6816L305.14 106.732L303.73 108.142ZM289.91 94.3316L278.86 83.2816L280.27 81.8716L291.32 92.9216L289.91 94.3316ZM276.1 80.5216L265.05 69.4716L266.46 68.0616L277.51 79.1116L276.1 80.5216ZM262.28 66.7016L251.23 55.6516L252.64 54.2416L263.69 65.2916L262.28 66.7016ZM248.47 52.8916L237.42 41.8416L238.83 40.4316L249.88 51.4816L248.47 52.8916ZM234.65 39.0716L223.6 28.0216L225.01 26.6116L236.06 37.6616L234.65 39.0716ZM220.84 25.2616L209.79 14.2116L211.2 12.8016L222.25 23.8516L220.84 25.2616Z" fill="#DE7330"/>
<path d="M335.53 149.852L334.12 148.442L339.07 143.492L334.12 138.542L335.53 137.122L341.89 143.492L335.53 149.852Z" fill="#DE7330"/>
<path d="M211.2 274.182L209.79 272.772L220.84 261.722L222.25 263.132L211.2 274.182ZM225.02 260.362L223.61 258.952L234.66 247.902L236.07 249.312L225.02 260.362ZM238.83 246.552L237.42 245.142L248.47 234.092L249.88 235.502L238.83 246.552ZM252.65 232.732L251.24 231.322L262.29 220.272L263.7 221.682L252.65 232.732ZM266.46 218.922L265.05 217.512L276.1 206.462L277.51 207.872L266.46 218.922ZM280.27 205.112L278.86 203.702L289.91 192.652L291.32 194.062L280.27 205.112ZM294.09 191.292L292.68 189.882L303.73 178.832L305.14 180.242L294.09 191.292ZM307.9 177.482L306.49 176.072L317.54 165.022L318.95 166.432L307.9 177.482ZM321.72 163.662L320.31 162.252L331.36 151.202L332.77 152.612L321.72 163.662Z" fill="#DE7330"/>
<path d="M202.08 242.372C199.85 242.372 197.58 242.292 195.36 242.152L195.49 240.152C200.74 240.502 206.1 240.432 211.31 239.942L211.5 241.932C208.39 242.222 205.22 242.372 202.08 242.372ZM191.33 241.792C185.98 241.212 180.64 240.192 175.47 238.752L176.01 236.822C181.07 238.232 186.3 239.232 191.54 239.802L191.33 241.792ZM215.51 241.462L215.24 239.482C220.46 238.772 225.66 237.632 230.69 236.072L231.28 237.982C226.15 239.562 220.85 240.732 215.51 241.462ZM171.6 237.582C166.49 235.932 161.48 233.832 156.7 231.362L157.62 229.582C162.3 232.002 167.21 234.052 172.22 235.672L171.6 237.572V237.582ZM235.11 236.722L234.44 234.842C239.4 233.082 244.25 230.902 248.86 228.352L249.83 230.102C245.12 232.702 240.17 234.932 235.11 236.722Z" fill="#DE7330"/>
<path d="M291.17 186.432L289.37 185.562C291.66 180.812 293.57 175.852 295.05 170.802L296.97 171.362C295.46 176.512 293.51 181.582 291.17 186.432ZM298.03 167.462L296.09 166.982C297.36 161.882 298.22 156.632 298.64 151.372L300.63 151.532C300.2 156.902 299.32 162.262 298.03 167.472V167.462ZM300.88 147.492L298.88 147.412C298.93 146.112 298.96 144.792 298.96 143.492C298.96 139.522 298.72 135.522 298.24 131.602L300.22 131.362C300.71 135.362 300.96 139.442 300.96 143.492C300.96 144.822 300.93 146.162 300.88 147.492ZM297.68 127.682C296.83 122.482 295.54 117.322 293.85 112.342L295.74 111.702C297.47 116.792 298.78 122.062 299.65 127.362L297.68 127.682ZM292.5 108.622C290.61 103.712 288.29 98.9216 285.61 94.3816L287.33 93.3616C290.06 98.0016 292.43 102.892 294.36 107.902L292.49 108.622H292.5Z" fill="#DE7330"/>
<path d="M251.72 60.2716C247.19 57.5616 242.42 55.2216 237.52 53.2916L238.25 51.4316C243.25 53.4016 248.12 55.7916 252.74 58.5516L251.71 60.2716H251.72ZM160.57 55.9216L159.71 54.1116C164.57 51.8016 169.65 49.8816 174.81 48.4016L175.36 50.3216C170.3 51.7716 165.32 53.6516 160.56 55.9116L160.57 55.9216ZM233.81 51.9216C228.84 50.2016 223.68 48.8716 218.49 47.9916L218.83 46.0216C224.13 46.9216 229.39 48.2716 234.47 50.0316L233.82 51.9216H233.81ZM179.19 49.3216L178.72 47.3816C183.93 46.1216 189.29 45.2816 194.67 44.8816L194.82 46.8716C189.55 47.2616 184.29 48.0916 179.19 49.3216ZM214.57 47.4016C209.36 46.7316 204.01 46.4816 198.76 46.6616L198.69 44.6616C204.04 44.4816 209.51 44.7416 214.82 45.4216L214.56 47.4016H214.57Z" fill="#DE7330"/>
<path d="M115.85 191.922C113.21 187.232 110.94 182.302 109.11 177.252L110.99 176.572C112.79 181.512 115.01 186.352 117.59 190.942L115.85 191.922ZM107.81 173.432C106.19 168.322 104.98 163.022 104.21 157.692L106.19 157.402C106.94 162.622 108.13 167.812 109.72 172.822L107.81 173.432ZM103.71 153.682C103.37 150.322 103.19 146.892 103.19 143.482C103.19 141.502 103.25 139.502 103.37 137.532L105.37 137.652C105.26 139.582 105.2 141.542 105.2 143.482C105.2 146.822 105.37 150.182 105.71 153.472L103.72 153.672L103.71 153.682ZM105.68 133.712L103.69 133.512C104.23 128.152 105.21 122.812 106.61 117.632L108.54 118.152C107.17 123.232 106.21 128.462 105.68 133.712ZM109.65 114.352L107.74 113.752C109.35 108.632 111.4 103.602 113.84 98.8016L115.62 99.7016C113.23 104.402 111.22 109.332 109.65 114.352Z" fill="#DE7330"/>
<path d="M202.08 9.01163C204.212 9.01163 205.94 7.28345 205.94 5.15163C205.94 3.01981 204.212 1.29163 202.08 1.29163C199.948 1.29163 198.22 3.01981 198.22 5.15163C198.22 7.28345 199.948 9.01163 202.08 9.01163Z" fill="#F5C246"/>
<path d="M201.73 10.2916C198.9 10.1016 196.75 7.64163 196.93 4.81163C197.11 1.98163 199.59 -0.178365 202.42 0.0116347C205.25 0.201635 207.4 2.66163 207.22 5.49163C207.04 8.32163 204.57 10.4716 201.74 10.2916H201.73ZM202.25 2.58163C200.83 2.49163 199.6 3.56163 199.51 4.98163C199.42 6.40163 200.49 7.63163 201.91 7.72163C203.33 7.81163 204.56 6.74163 204.65 5.32163C204.74 3.90163 203.67 2.67163 202.25 2.58163Z" fill="#DE7330"/>
<path d="M63.6998 147.342C65.8317 147.342 67.5598 145.613 67.5598 143.482C67.5598 141.35 65.8317 139.622 63.6998 139.622C61.568 139.622 59.8398 141.35 59.8398 143.482C59.8398 145.613 61.568 147.342 63.6998 147.342Z" fill="#F5C246"/>
<path d="M63.3598 148.622C60.5298 148.432 58.3798 145.972 58.5598 143.142C58.7498 140.312 61.2098 138.162 64.0398 138.342C66.8698 138.522 69.0198 140.992 68.8398 143.822C68.6598 146.652 66.1898 148.802 63.3598 148.622ZM63.8798 140.922C62.4598 140.832 61.2298 141.902 61.1398 143.322C61.0498 144.742 62.1198 145.972 63.5398 146.062C64.9598 146.152 66.1898 145.082 66.2798 143.662C66.3698 142.242 65.2998 141.012 63.8798 140.922Z" fill="#DE7330"/>
<path d="M202.07 285.722C204.202 285.722 205.93 283.993 205.93 281.862C205.93 279.73 204.202 278.002 202.07 278.002C199.938 278.002 198.21 279.73 198.21 281.862C198.21 283.993 199.938 285.722 202.07 285.722Z" fill="#F5C246"/>
<path d="M201.73 287.002C198.9 286.812 196.75 284.352 196.93 281.522C197.11 278.692 199.58 276.542 202.41 276.722C205.24 276.902 207.39 279.372 207.21 282.202C207.02 285.032 204.56 287.182 201.73 287.002ZM202.25 279.302C200.83 279.212 199.6 280.282 199.51 281.702C199.42 283.122 200.49 284.352 201.91 284.442C203.33 284.532 204.56 283.462 204.65 282.042C204.74 280.622 203.67 279.392 202.25 279.302Z" fill="#DE7330"/>
<path d="M340.43 147.342C342.562 147.342 344.29 145.613 344.29 143.482C344.29 141.35 342.562 139.622 340.43 139.622C338.298 139.622 336.57 141.35 336.57 143.482C336.57 145.613 338.298 147.342 340.43 147.342Z" fill="#F5C246"/>
<path d="M340.08 148.622C337.25 148.432 335.1 145.972 335.28 143.142C335.46 140.312 337.93 138.162 340.76 138.342C343.59 138.532 345.74 140.992 345.56 143.822C345.37 146.652 342.91 148.802 340.08 148.622ZM340.6 140.922C339.18 140.832 337.95 141.902 337.86 143.322C337.77 144.742 338.84 145.972 340.26 146.062C341.68 146.152 342.91 145.082 343 143.662C343.09 142.242 342.02 141.012 340.6 140.922Z" fill="#DE7330"/>
<path d="M208.62 314.592L206.69 314.072L209.21 304.672L216.09 311.552L214.68 312.972L210.25 308.542L208.62 314.592Z" fill="#DE7330"/>
<path d="M180.85 418.252L178.92 417.732L183.36 401.152L185.29 401.672L180.85 418.252ZM186.4 397.522L184.47 397.002L188.91 380.422L190.84 380.942L186.4 397.522ZM191.96 376.792L190.03 376.272L194.47 359.692L196.4 360.212L191.96 376.792ZM197.51 356.052L195.58 355.532L200.02 338.952L201.95 339.472L197.51 356.052ZM203.07 335.322L201.14 334.802L205.58 318.222L207.51 318.742L203.07 335.322Z" fill="#DE7330"/>
<path d="M175.29 431.282L177.81 421.882L179.74 422.392L178.12 428.452L184.17 426.832L184.69 428.762L175.29 431.282Z" fill="#DE7330"/>
<path d="M188.83 427.652L188.31 425.722L204.89 421.282L205.41 423.212L188.83 427.652ZM209.57 422.092L209.05 420.162L225.63 415.722L226.15 417.652L209.57 422.092ZM230.3 416.542L229.78 414.612L246.36 410.172L246.88 412.102L230.3 416.542ZM251.03 410.982L250.51 409.052L267.09 404.612L267.61 406.542L251.03 410.982ZM271.76 405.432L271.24 403.502L287.82 399.062L288.34 400.992L271.76 405.432Z" fill="#DE7330"/>
<path d="M292.49 399.872L291.97 397.942L298.03 396.322L293.6 391.892L295.01 390.472L301.89 397.352L292.49 399.872Z" fill="#DE7330"/>
<path d="M290.56 388.852L278.42 376.712L279.83 375.302L291.97 387.442L290.56 388.852ZM275.38 373.672L263.24 361.532L264.65 360.122L276.79 372.262L275.38 373.672ZM260.21 358.502L248.07 346.362L249.48 344.952L261.62 357.092L260.21 358.502ZM245.03 343.322L232.89 331.182L234.3 329.772L246.44 341.912L245.03 343.322ZM229.85 328.152L217.71 316.012L219.12 314.602L231.26 326.742L229.85 328.152Z" fill="#DE7330"/>
<path d="M88.33 415.802C83.46 415.802 78.53 415.392 73.68 414.582L72.71 414.412L73.06 412.442L74.01 412.602C78.75 413.392 83.56 413.792 88.32 413.792H89.03L89.05 415.792H88.32L88.33 415.802ZM93.16 415.672L93.05 413.672C98.38 413.382 103.71 412.582 108.89 411.302L109.37 413.242C104.06 414.552 98.61 415.372 93.16 415.672ZM68.7 413.602C63.36 412.392 58.11 410.682 53.11 408.522L53.9 406.682C58.78 408.802 63.91 410.472 69.13 411.652L68.69 413.602H68.7ZM113.32 412.162L112.75 410.242C117.86 408.722 122.86 406.712 127.61 404.262L128.53 406.042C123.67 408.542 118.55 410.602 113.32 412.162ZM49.38 406.802C44.47 404.402 39.77 401.522 35.39 398.242L36.59 396.642C40.87 399.842 45.47 402.662 50.26 405.002L49.38 406.802ZM132.13 404.082L131.13 402.352C135.76 399.692 140.17 396.582 144.23 393.122L145.53 394.642C141.38 398.192 136.87 401.362 132.13 404.092V404.082ZM32.16 395.702C27.95 392.232 24.04 388.342 20.53 384.142L22.07 382.862C25.5 386.972 29.32 390.772 33.44 394.162L32.17 395.702H32.16ZM148.59 391.902L147.22 390.442C151.12 386.782 154.7 382.752 157.85 378.442L159.46 379.622C156.24 384.032 152.58 388.162 148.59 391.892V391.902ZM17.98 380.932C14.68 376.582 11.76 371.902 9.31 367.012L11.1 366.112C13.49 370.882 16.34 375.462 19.57 379.712L17.98 380.922V380.932ZM161.81 376.252L160.14 375.152C163.09 370.702 165.63 365.942 167.7 361.022L169.54 361.792C167.43 366.832 164.82 371.692 161.81 376.252ZM7.56 363.302C5.34 358.302 3.58 353.072 2.33 347.762L4.28 347.302C5.5 352.492 7.22 357.602 9.39 362.482L7.56 363.292V363.302ZM171.05 357.972L169.17 357.282C171 352.292 172.37 347.082 173.25 341.792L173.28 341.632L175.25 341.972L175.23 342.102C174.32 347.532 172.92 352.862 171.05 357.972ZM1.49 343.762C0.5 338.472 0 333.062 0 327.682V327.432H2V327.682C2 332.942 2.49 338.232 3.45 343.392L1.48 343.762H1.49ZM175.83 337.902L173.84 337.662C174.24 334.292 174.44 330.862 174.44 327.472C174.44 325.532 174.37 323.562 174.24 321.642L176.24 321.512C176.37 323.482 176.44 325.492 176.44 327.482C176.44 330.952 176.23 334.452 175.82 337.912L175.83 337.902ZM2.11 323.432L0.11 323.332C0.28 319.902 0.65 316.442 1.22 313.042C1.55 311.052 1.96 309.052 2.42 307.102L4.37 307.562C3.92 309.472 3.52 311.432 3.2 313.372C2.64 316.702 2.28 320.082 2.11 323.432ZM173.88 317.652C173.27 312.352 172.15 307.082 170.56 301.982L172.47 301.382C174.1 306.602 175.24 312.002 175.87 317.422L173.88 317.652ZM5.38 303.682L3.46 303.132C4.97 297.872 6.98 292.732 9.43 287.862L11.22 288.762C8.82 293.522 6.86 298.542 5.38 303.682ZM169.28 298.182C167.46 293.172 165.15 288.292 162.43 283.702L164.15 282.682C166.94 287.382 169.29 292.372 171.16 297.502L169.28 298.182ZM13.11 285.212L11.37 284.232C14.05 279.482 17.2 274.952 20.73 270.762L22.26 272.052C18.81 276.142 15.74 280.572 13.12 285.212H13.11ZM160.31 280.292C157.38 275.822 154.02 271.612 150.32 267.762L151.76 266.372C155.55 270.312 158.98 274.622 161.98 279.192L160.31 280.292ZM24.92 269.042L23.45 267.682C27.16 263.682 31.27 259.992 35.66 256.742L36.85 258.352C32.56 261.542 28.54 265.132 24.92 269.052V269.042ZM147.46 264.942C143.58 261.262 139.34 257.932 134.85 255.052L135.93 253.372C140.52 256.322 144.86 259.732 148.83 263.492L147.45 264.942H147.46ZM40.13 256.032L39.01 254.372C43.55 251.322 48.39 248.682 53.4 246.522L54.19 248.362C49.29 250.472 44.56 253.052 40.12 256.032H40.13ZM131.43 252.952C126.81 250.282 121.91 248.022 116.87 246.252L117.53 244.362C122.69 246.172 127.7 248.482 132.43 251.212L131.43 252.942V252.952ZM57.91 246.862L57.2 244.992C62.32 243.062 67.64 241.612 73.02 240.672L73.36 242.642C68.11 243.562 62.91 244.982 57.9 246.862H57.91ZM113.05 245.012C109.59 243.972 106.01 243.142 102.43 242.552C100.74 242.272 99.03 242.032 97.34 241.852L97.55 239.862C99.27 240.042 101.02 240.282 102.75 240.572C106.42 241.182 110.07 242.032 113.62 243.092L113.05 245.012ZM77.33 242.042L77.08 240.062C82.48 239.372 88.03 239.192 93.47 239.522L93.35 241.522C88.04 241.202 82.61 241.372 77.34 242.042H77.33Z" fill="#DE7330"/>
<path d="M139.7 399.712L130.83 398.232L131.16 396.262L138.06 397.412L139.21 390.512L141.19 390.842L139.7 399.712Z" fill="#DE7330"/>
<path d="M126.75 397.552L110.46 394.832L110.79 392.862L127.08 395.582L126.75 397.552ZM106.39 394.152L90.1003 391.432L90.4303 389.462L106.72 392.182L106.39 394.152ZM86.0403 390.752L69.7503 388.032L70.0803 386.062L86.3703 388.782L86.0403 390.752ZM65.6803 387.342L49.3903 384.622L49.7203 382.652L66.0103 385.372L65.6803 387.342ZM45.3203 383.942L29.0303 381.222L29.3603 379.252L45.6503 381.972L45.3203 383.942Z" fill="#DE7330"/>
<path d="M24.9601 380.542L16.0801 379.062L17.5701 370.182L19.5401 370.512L18.3901 377.412L25.2901 378.572L24.9601 380.542Z" fill="#DE7330"/>
<path d="M20.22 366.442L18.25 366.112L20.97 349.822L22.94 350.152L20.22 366.442ZM23.62 346.082L21.65 345.752L24.37 329.462L26.34 329.792L23.62 346.082ZM27.03 325.722L25.06 325.392L27.78 309.102L29.75 309.432L27.03 325.722ZM30.43 305.362L28.46 305.032L31.18 288.742L33.15 289.072L30.43 305.362ZM33.83 285.002L31.86 284.672L34.58 268.382L36.55 268.712L33.83 285.002Z" fill="#DE7330"/>
<path d="M37.2303 264.652L35.2603 264.322L36.7403 255.442L45.6203 256.922L45.2903 258.902L38.3903 257.742L37.2303 264.652Z" fill="#DE7330"/>
<path d="M147.08 275.912L130.79 273.192L131.12 271.222L147.41 273.942L147.08 275.912ZM126.72 272.502L110.43 269.782L110.76 267.812L127.05 270.532L126.72 272.502ZM106.37 269.102L90.0799 266.382L90.4099 264.412L106.7 267.132L106.37 269.102ZM86.0099 265.702L69.7199 262.982L70.0499 261.012L86.3399 263.732L86.0099 265.702ZM65.6499 262.302L49.3599 259.582L49.6899 257.612L65.9799 260.332L65.6499 262.302Z" fill="#DE7330"/>
<path d="M158.88 284.972L156.9 284.642L158.06 277.742L151.15 276.592L151.48 274.612L160.36 276.102L158.88 284.972Z" fill="#DE7330"/>
<path d="M141.87 386.772L139.9 386.442L142.62 370.152L144.59 370.482L141.87 386.772ZM145.27 366.412L143.3 366.082L146.02 349.792L147.99 350.122L145.27 366.412ZM148.67 346.052L146.7 345.722L149.42 329.432L151.39 329.762L148.67 346.052ZM152.07 325.692L150.1 325.362L152.82 309.072L154.79 309.402L152.07 325.692ZM155.47 305.332L153.5 305.002L156.22 288.712L158.19 289.042L155.47 305.332Z" fill="#DE7330"/>
<path d="M37.5597 260.452C39.6915 260.452 41.4197 258.723 41.4197 256.592C41.4197 254.46 39.6915 252.732 37.5597 252.732C35.4279 252.732 33.6997 254.46 33.6997 256.592C33.6997 258.723 35.4279 260.452 37.5597 260.452Z" fill="#F5C246"/>
<path d="M36.3799 261.602C33.6199 260.952 31.8999 258.172 32.5499 255.402C33.1999 252.632 35.9799 250.922 38.7499 251.572C41.5099 252.222 43.2299 255.002 42.5799 257.772C41.9299 260.532 39.1499 262.252 36.3799 261.602ZM38.1599 254.082C36.7799 253.752 35.3899 254.612 35.0599 255.992C34.7299 257.372 35.5899 258.762 36.9699 259.092C38.3499 259.422 39.7399 258.562 40.0699 257.182C40.3999 255.802 39.5399 254.412 38.1599 254.082Z" fill="#DE7330"/>
<path d="M159.21 280.782C161.342 280.782 163.07 279.053 163.07 276.922C163.07 274.79 161.342 273.062 159.21 273.062C157.078 273.062 155.35 274.79 155.35 276.922C155.35 279.053 157.078 280.782 159.21 280.782Z" fill="#F5C246"/>
<path d="M158.02 281.932C155.26 281.282 153.54 278.502 154.19 275.732C154.84 272.972 157.62 271.252 160.39 271.902C163.15 272.552 164.87 275.332 164.22 278.102C163.57 280.862 160.79 282.582 158.02 281.932ZM159.8 274.412C158.42 274.082 157.03 274.942 156.7 276.322C156.37 277.702 157.23 279.092 158.61 279.422C159.99 279.752 161.38 278.892 161.71 277.512C162.04 276.132 161.18 274.742 159.8 274.412Z" fill="#DE7330"/>
<path d="M138.88 402.422C141.012 402.422 142.74 400.693 142.74 398.562C142.74 396.43 141.012 394.702 138.88 394.702C136.748 394.702 135.02 396.43 135.02 398.562C135.02 400.693 136.748 402.422 138.88 402.422Z" fill="#F5C246"/>
<path d="M137.69 403.582C134.93 402.932 133.21 400.152 133.86 397.382C134.51 394.622 137.29 392.902 140.06 393.552C142.82 394.202 144.54 396.982 143.89 399.752C143.24 402.512 140.46 404.232 137.69 403.582ZM139.47 396.062C138.09 395.732 136.7 396.592 136.37 397.972C136.04 399.352 136.9 400.742 138.28 401.072C139.66 401.402 141.05 400.542 141.38 399.162C141.71 397.782 140.85 396.392 139.47 396.062Z" fill="#DE7330"/>
<path d="M17.38 382.122C19.5118 382.122 21.24 380.393 21.24 378.262C21.24 376.13 19.5118 374.402 17.38 374.402C15.2482 374.402 13.52 376.13 13.52 378.262C13.52 380.393 15.2482 382.122 17.38 382.122Z" fill="#F5C246"/>
<path d="M16.19 383.272C13.43 382.622 11.71 379.842 12.36 377.072C13.01 374.312 15.79 372.592 18.56 373.242C21.32 373.892 23.04 376.672 22.39 379.442C21.74 382.202 18.96 383.922 16.19 383.272ZM17.97 375.752C16.59 375.422 15.2 376.282 14.87 377.662C14.54 379.042 15.4 380.432 16.78 380.762C18.16 381.092 19.55 380.232 19.88 378.852C20.21 377.472 19.35 376.082 17.97 375.752Z" fill="#DE7330"/>
<path d="M209.74 310.512C211.872 310.512 213.6 308.783 213.6 306.652C213.6 304.52 211.872 302.792 209.74 302.792C207.608 302.792 205.88 304.52 205.88 306.652C205.88 308.783 207.608 310.512 209.74 310.512Z" fill="#F5C246"/>
<path d="M209.4 311.792C206.57 311.602 204.42 309.142 204.6 306.312C204.78 303.482 207.25 301.332 210.08 301.512C212.91 301.692 215.06 304.162 214.88 306.992C214.7 309.822 212.23 311.972 209.4 311.792ZM209.91 304.082C208.49 303.992 207.26 305.062 207.17 306.482C207.08 307.902 208.15 309.132 209.57 309.222C210.99 309.312 212.22 308.242 212.31 306.822C212.4 305.402 211.33 304.172 209.91 304.082Z" fill="#DE7330"/>
<path d="M299.95 400.702C302.082 400.702 303.81 398.973 303.81 396.842C303.81 394.71 302.082 392.982 299.95 392.982C297.818 392.982 296.09 394.71 296.09 396.842C296.09 398.973 297.818 400.702 299.95 400.702Z" fill="#F5C246"/>
<path d="M299.61 401.982C296.78 401.792 294.63 399.332 294.81 396.502C294.99 393.672 297.46 391.522 300.29 391.702C303.12 391.882 305.27 394.352 305.09 397.182C304.91 400.012 302.44 402.162 299.61 401.982ZM300.12 394.272C298.7 394.182 297.47 395.252 297.38 396.672C297.29 398.092 298.36 399.322 299.78 399.412C301.2 399.502 302.43 398.432 302.52 397.012C302.61 395.592 301.54 394.362 300.12 394.272Z" fill="#DE7330"/>
<path d="M176.7 433.722C178.832 433.722 180.56 431.993 180.56 429.862C180.56 427.73 178.832 426.002 176.7 426.002C174.568 426.002 172.84 427.73 172.84 429.862C172.84 431.993 174.568 433.722 176.7 433.722Z" fill="#F5C246"/>
<path d="M176.36 435.002C173.53 434.812 171.38 432.352 171.56 429.522C171.74 426.692 174.21 424.542 177.04 424.722C179.87 424.902 182.02 427.372 181.84 430.202C181.66 433.032 179.19 435.182 176.36 435.002ZM176.87 427.302C175.45 427.212 174.22 428.282 174.13 429.702C174.04 431.122 175.11 432.352 176.53 432.442C177.95 432.532 179.18 431.462 179.27 430.042C179.36 428.622 178.29 427.392 176.87 427.302Z" fill="#DE7330"/>
<path d="M238.83 415.222L231.95 408.342L233.36 406.932L237.8 411.362L239.42 405.312L241.35 405.822L238.83 415.222Z" fill="#DE7330"/>
<path d="M242.48 401.622L240.55 401.102L245.06 384.282L246.99 384.802L242.48 401.622ZM248.11 380.592L246.18 380.072L250.69 363.252L252.62 363.772L248.11 380.592Z" fill="#DE7330"/>
<path d="M253.74 359.572L251.81 359.052L253.43 353.002L247.38 354.622L246.86 352.692L256.26 350.172L253.74 359.572Z" fill="#DE7330"/>
<path d="M205.33 365.882L204.81 363.952L221.63 359.442L222.15 361.372L205.33 365.882ZM226.35 360.252L225.83 358.322L242.65 353.812L243.17 355.742L226.35 360.252Z" fill="#DE7330"/>
<path d="M198.09 374.482L191.21 367.602L200.61 365.082L201.12 367.012L195.07 368.632L199.5 373.072L198.09 374.482Z" fill="#DE7330"/>
<path d="M228.87 405.262L216.56 392.952L217.97 391.542L230.28 403.852L228.87 405.262ZM213.48 389.872L201.17 377.562L202.58 376.152L214.89 388.462L213.48 389.872Z" fill="#DE7330"/>
<path d="M193.14 371.982C195.272 371.982 197 370.253 197 368.122C197 365.99 195.272 364.262 193.14 364.262C191.008 364.262 189.28 365.99 189.28 368.122C189.28 370.253 191.008 371.982 193.14 371.982Z" fill="#F5C246"/>
<path d="M192.8 373.262C189.97 373.072 187.82 370.612 188 367.782C188.19 364.952 190.65 362.802 193.48 362.982C196.31 363.162 198.46 365.632 198.28 368.462C198.09 371.292 195.63 373.442 192.8 373.262ZM193.31 365.552C191.89 365.462 190.66 366.532 190.57 367.952C190.48 369.372 191.55 370.602 192.97 370.692C194.39 370.782 195.62 369.712 195.71 368.292C195.8 366.872 194.73 365.642 193.31 365.552Z" fill="#DE7330"/>
<path d="M254.86 355.462C256.992 355.462 258.72 353.733 258.72 351.602C258.72 349.47 256.992 347.742 254.86 347.742C252.728 347.742 251 349.47 251 351.602C251 353.733 252.728 355.462 254.86 355.462Z" fill="#F5C246"/>
<path d="M254.51 356.742C251.68 356.552 249.53 354.092 249.71 351.262C249.89 348.432 252.36 346.282 255.19 346.462C258.02 346.642 260.17 349.112 259.99 351.942C259.81 354.772 257.34 356.922 254.51 356.742ZM255.03 349.032C253.61 348.942 252.38 350.012 252.29 351.432C252.2 352.852 253.27 354.082 254.69 354.172C256.11 354.262 257.34 353.192 257.43 351.772C257.52 350.352 256.45 349.122 255.03 349.032Z" fill="#DE7330"/>
<path d="M238.32 417.172C240.452 417.172 242.18 415.443 242.18 413.312C242.18 411.18 240.452 409.452 238.32 409.452C236.188 409.452 234.46 411.18 234.46 413.312C234.46 415.443 236.188 417.172 238.32 417.172Z" fill="#F5C246"/>
<path d="M237.97 418.452C235.14 418.262 232.99 415.802 233.17 412.972C233.35 410.142 235.82 407.992 238.65 408.172C241.48 408.362 243.63 410.822 243.45 413.652C243.27 416.482 240.8 418.632 237.97 418.452ZM238.49 410.742C237.07 410.652 235.84 411.722 235.75 413.142C235.66 414.562 236.73 415.792 238.15 415.882C239.57 415.972 240.8 414.902 240.89 413.482C240.98 412.062 239.91 410.832 238.49 410.742Z" fill="#DE7330"/>
<path d="M271.43 251.072L269.73 250.022L274.33 242.602L282.81 244.692L282.33 246.632L275.27 244.892L271.43 251.072Z" fill="#DE7330"/>
<path d="M250.14 285.352L248.44 284.302L256.96 270.592L258.66 271.642L250.14 285.352ZM260.78 268.212L259.08 267.162L267.6 253.452L269.3 254.502L260.78 268.212Z" fill="#DE7330"/>
<path d="M247.33 301.812L241.71 295.142L246.31 287.722L248.01 288.782L244.17 294.962L248.86 300.522L247.33 301.812Z" fill="#DE7330"/>
<path d="M273.36 332.652L262.95 320.312L264.48 319.022L274.89 331.362L273.36 332.652ZM260.34 317.232L249.93 304.892L251.46 303.602L261.87 315.942L260.34 317.232Z" fill="#DE7330"/>
<path d="M281.59 342.402L275.96 335.732L277.49 334.442L282.18 340.002L288.91 337.262L289.67 339.112L281.59 342.402Z" fill="#DE7330"/>
<path d="M293.41 337.592L292.66 335.742L307.61 329.652L308.36 331.502L293.41 337.592ZM312.09 329.982L311.34 328.132L326.29 322.042L327.04 323.892L312.09 329.982Z" fill="#DE7330"/>
<path d="M330.78 322.372L330.03 320.522L336.76 317.772L336.23 310.522L338.23 310.372L338.86 319.082L330.78 322.372Z" fill="#DE7330"/>
<path d="M335.94 306.502L334.77 290.402L336.76 290.262L337.93 306.362L335.94 306.502ZM334.48 286.372L333.31 270.272L335.3 270.132L336.47 286.232L334.48 286.372Z" fill="#DE7330"/>
<path d="M333.02 266.252L332.49 258.992L325.43 257.252L325.91 255.312L334.38 257.402L335.01 266.102L333.02 266.252Z" fill="#DE7330"/>
<path d="M321.51 256.292L305.84 252.432L306.32 250.492L321.99 254.352L321.51 256.292ZM301.92 251.462L286.25 247.602L286.73 245.662L302.4 249.522L301.92 251.462Z" fill="#DE7330"/>
<path d="M242.96 298.902C245.091 298.902 246.82 297.173 246.82 295.042C246.82 292.91 245.091 291.182 242.96 291.182C240.828 291.182 239.1 292.91 239.1 295.042C239.1 297.173 240.828 298.902 242.96 298.902Z" fill="#F5C246"/>
<path d="M242.61 300.182C239.78 299.992 237.63 297.532 237.81 294.702C237.99 291.872 240.46 289.722 243.29 289.902C246.12 290.092 248.27 292.552 248.09 295.382C247.91 298.212 245.44 300.362 242.61 300.182ZM243.13 292.472C241.71 292.382 240.48 293.452 240.39 294.872C240.3 296.292 241.37 297.522 242.79 297.612C244.21 297.702 245.44 296.632 245.53 295.212C245.62 293.792 244.55 292.562 243.13 292.472Z" fill="#DE7330"/>
<path d="M333.43 262.062C335.562 262.062 337.29 260.333 337.29 258.202C337.29 256.07 335.562 254.342 333.43 254.342C331.298 254.342 329.57 256.07 329.57 258.202C329.57 260.333 331.298 262.062 333.43 262.062Z" fill="#F5C246"/>
<path d="M333.09 263.342C330.26 263.152 328.11 260.692 328.29 257.862C328.47 255.032 330.94 252.882 333.77 253.062C336.6 253.242 338.75 255.712 338.57 258.542C338.39 261.372 335.92 263.522 333.09 263.342ZM333.61 255.632C332.19 255.542 330.96 256.612 330.87 258.032C330.78 259.452 331.85 260.682 333.27 260.772C334.69 260.862 335.92 259.792 336.01 258.372C336.1 256.952 335.03 255.722 333.61 255.632Z" fill="#DE7330"/>
<path d="M337.81 322.292C339.942 322.292 341.67 320.563 341.67 318.432C341.67 316.3 339.942 314.572 337.81 314.572C335.678 314.572 333.95 316.3 333.95 318.432C333.95 320.563 335.678 322.292 337.81 322.292Z" fill="#F5C246"/>
<path d="M337.47 323.572C334.64 323.382 332.49 320.922 332.67 318.092C332.85 315.262 335.32 313.112 338.15 313.292C340.98 313.482 343.13 315.942 342.95 318.772C342.77 321.602 340.3 323.752 337.47 323.572ZM337.98 315.862C336.56 315.772 335.33 316.842 335.24 318.262C335.15 319.682 336.22 320.912 337.64 321.002C339.06 321.092 340.29 320.022 340.38 318.602C340.47 317.182 339.4 315.952 337.98 315.862Z" fill="#DE7330"/>
<path d="M281.88 345.062C284.012 345.062 285.74 343.333 285.74 341.202C285.74 339.07 284.012 337.342 281.88 337.342C279.748 337.342 278.02 339.07 278.02 341.202C278.02 343.333 279.748 345.062 281.88 345.062Z" fill="#F5C246"/>
<path d="M281.54 346.342C278.71 346.152 276.56 343.692 276.74 340.862C276.93 338.032 279.39 335.882 282.22 336.062C285.05 336.242 287.2 338.712 287.02 341.542C286.83 344.372 284.37 346.522 281.54 346.342ZM282.05 338.632C280.63 338.542 279.4 339.612 279.31 341.032C279.22 342.452 280.29 343.682 281.71 343.772C283.13 343.862 284.36 342.792 284.45 341.372C284.54 339.952 283.47 338.722 282.05 338.632Z" fill="#DE7330"/>
<path d="M274.83 247.672C276.962 247.672 278.69 245.943 278.69 243.812C278.69 241.68 276.962 239.952 274.83 239.952C272.698 239.952 270.97 241.68 270.97 243.812C270.97 245.943 272.698 247.672 274.83 247.672Z" fill="#F5C246"/>
<path d="M274.48 248.952C271.65 248.762 269.5 246.302 269.68 243.472C269.87 240.642 272.33 238.492 275.16 238.672C277.99 238.852 280.14 241.322 279.96 244.152C279.78 246.982 277.31 249.132 274.48 248.952ZM275 241.242C273.58 241.152 272.35 242.222 272.26 243.642C272.17 245.062 273.24 246.292 274.66 246.382C276.08 246.472 277.31 245.402 277.4 243.982C277.49 242.562 276.42 241.332 275 241.242Z" fill="#DE7330"/>
</svg>
