<svg width="163" height="32" viewBox="0 0 163 32" fill="none" xmlns="http://www.w3.org/2000/svg">
<path d="M26.4818 15.6317C26.4818 14.089 25.6337 12.7291 24.3835 12.0053V7.80856C25.6337 7.08473 26.4818 5.72481 26.4818 4.18211C26.4818 1.88634 24.6028 0 22.2997 0C19.9966 0 18.103 1.87903 18.103 4.18211C18.103 4.58424 18.1542 4.97174 18.2638 5.33731L14.2426 9.51942C13.9209 9.439 13.5846 9.39513 13.2336 9.39513C12.8827 9.39513 12.5463 9.439 12.2246 9.51942L8.218 5.35193C8.32767 4.97905 8.37885 4.58424 8.37885 4.18211C8.37885 1.88634 6.49982 0 4.18211 0C1.8644 0 0 1.87903 0 4.18211C0 5.72481 0.84812 7.08473 2.09837 7.80856V12.0053C0.84812 12.7291 0 14.089 0 15.6317C0 17.1744 0.84812 18.5344 2.09837 19.2509V23.4476C0.84812 24.1714 0 25.5314 0 27.0741C0 29.3845 1.87903 31.2708 4.19673 31.2708C6.51444 31.2708 8.39347 29.3918 8.39347 27.0741C8.39347 25.5314 7.54535 24.1714 6.2951 23.4476V19.2509C7.54535 18.5417 8.39347 17.1818 8.39347 15.6317C8.39347 14.0817 7.54535 12.7291 6.2951 12.0053V9.38051L9.22697 12.4294C9.1173 12.7949 9.06612 13.1824 9.06612 13.5846C9.06612 15.8949 10.9451 17.7667 13.2482 17.7667C15.5513 17.7667 17.445 15.8949 17.445 13.5846C17.445 13.1824 17.3938 12.7949 17.2841 12.4294L20.216 9.38051V12.0126C18.9657 12.7218 18.1176 14.0817 18.1176 15.6317C18.1176 17.1818 18.9657 18.5344 20.216 19.2363V23.4549C18.9657 24.1641 18.1176 25.524 18.1176 27.0741C18.1176 29.3845 19.9966 31.2708 22.3143 31.2708C24.6321 31.2708 26.4965 29.3918 26.4965 27.0741C26.4965 25.5314 25.6483 24.1714 24.3981 23.4476V19.2509C25.6483 18.5417 26.4965 17.1818 26.4965 15.6317H26.4818ZM6.58756 25.6337C6.66798 25.7653 6.74841 25.9189 6.79959 26.0797C6.85077 26.2259 6.90926 26.3649 6.93119 26.5111C6.93119 26.5549 6.94582 26.6061 6.96044 26.6573C6.97506 26.7889 6.98968 26.9278 6.98968 27.0741C6.98968 28.6168 5.73944 29.867 4.19673 29.867C2.65403 29.867 1.40379 28.6168 1.40379 27.0741C1.40379 26.9278 1.41841 26.7889 1.43303 26.6573C1.44765 26.6061 1.46228 26.5476 1.46228 26.5111C1.49152 26.3649 1.5427 26.2259 1.59388 26.0797C1.64506 25.9189 1.72549 25.7726 1.80591 25.6337C1.88634 25.4875 1.99601 25.3486 2.09837 25.2316C2.42007 24.8587 2.83682 24.5882 3.29743 24.4273C3.39248 24.3981 3.50215 24.3762 3.58989 24.3469C3.77999 24.303 3.99202 24.2811 4.19673 24.2811C4.40145 24.2811 4.61348 24.3104 4.80358 24.3469C4.89863 24.3762 5.0083 24.3981 5.09603 24.4273C5.55665 24.5882 5.9734 24.8587 6.2951 25.2316C6.40477 25.3559 6.50713 25.4875 6.58756 25.6337ZM6.58756 14.1841C6.66798 14.3303 6.74841 14.4765 6.79959 14.6301C6.85077 14.7617 6.89463 14.9152 6.93119 15.0615V15.0761C6.94581 15.1273 6.94582 15.1857 6.96044 15.2369C6.97506 15.3612 6.98968 15.5074 6.98968 15.6391C6.98968 15.7853 6.97506 15.9242 6.96044 16.0558C6.94582 16.107 6.93119 16.1655 6.93119 16.202C6.88732 16.3483 6.85077 16.4945 6.79959 16.6334C6.74841 16.7943 6.66798 16.9259 6.58756 17.0794C6.50713 17.211 6.39746 17.3499 6.2951 17.4669C5.7833 18.0591 5.03023 18.4247 4.19673 18.4247C3.36324 18.4247 2.61016 18.0591 2.09837 17.4669C1.9887 17.3426 1.88634 17.211 1.80591 17.0794C1.72549 16.9332 1.64506 16.7943 1.59388 16.6334C1.5427 16.5018 1.48421 16.3483 1.46228 16.202C1.46228 16.1582 1.44765 16.107 1.43303 16.0558C1.41841 15.9242 1.40379 15.7853 1.40379 15.6391C1.40379 15.5074 1.41841 15.3685 1.43303 15.2369C1.44765 15.1857 1.44765 15.1273 1.46228 15.0761V15.0615C1.50615 14.9152 1.5427 14.769 1.59388 14.6301C1.64506 14.4839 1.72549 14.3376 1.80591 14.1841C1.88634 14.0525 1.99601 13.9136 2.09837 13.7966C2.42007 13.431 2.83682 13.1532 3.29743 12.9923C3.39248 12.9631 3.50215 12.9412 3.58989 12.9119C3.77999 12.868 3.99202 12.8461 4.19673 12.8461C4.40145 12.8461 4.61348 12.8753 4.80358 12.9119C4.89863 12.9412 5.0083 12.9631 5.09603 12.9923C5.55665 13.1532 5.9734 13.4383 6.2951 13.7966C6.40477 13.9209 6.50713 14.0525 6.58756 14.1841ZM6.98968 4.18211C6.98968 5.72481 5.73944 6.97506 4.19673 6.97506C3.36324 6.97506 2.61016 6.60949 2.09837 6.01727C1.65237 5.53472 1.39647 4.89132 1.39647 4.1748C1.39647 2.63941 2.64672 1.38916 4.18942 1.38916C5.73213 1.38916 6.91657 2.57361 6.98237 4.05051V4.1748L6.98968 4.18211ZM16.0339 13.7381L16.0192 13.7527V13.7966C16.0192 13.8405 16.0192 13.8916 16.0046 13.9282C16.0046 13.994 15.99 14.0744 15.9754 14.1402C15.9754 14.1841 15.9608 14.2206 15.9461 14.2645C15.9169 14.3449 15.8949 14.44 15.8657 14.5204C15.8365 14.6008 15.8145 14.6813 15.7707 14.7617C15.7268 14.8421 15.6902 14.9225 15.6464 14.9883C15.5952 15.0688 15.5513 15.1492 15.5001 15.215C15.4051 15.3393 15.31 15.4563 15.2077 15.5659C15.1273 15.6464 15.0468 15.7122 14.9664 15.778C14.8348 15.8876 14.6813 15.9827 14.535 16.0631C14.3742 16.1435 14.2133 16.2093 14.0379 16.2678C13.9282 16.3117 13.8112 16.3336 13.7015 16.3483C13.5553 16.3775 13.3945 16.3921 13.2336 16.3921C13.0728 16.3921 12.9119 16.3775 12.7657 16.3483C12.656 16.3336 12.539 16.3044 12.4294 16.2678C12.2977 16.224 12.1442 16.1728 12.0272 16.107C11.9176 16.0558 11.8152 15.9973 11.7201 15.9315C11.669 15.9023 11.6105 15.8657 11.5593 15.8072C11.4643 15.7414 11.3692 15.661 11.2742 15.5659C11.1645 15.4563 11.0694 15.3393 10.9817 15.215C10.9305 15.1492 10.872 15.0688 10.8355 14.9883C10.7916 14.9225 10.755 14.8421 10.7112 14.7617C10.6819 14.6813 10.6454 14.6008 10.6161 14.5204C10.5723 14.44 10.5503 14.3449 10.5357 14.2645C10.5211 14.2206 10.5065 14.1841 10.5065 14.1402C10.4918 14.0744 10.4772 13.994 10.4772 13.9282C10.4626 13.8843 10.4626 13.8331 10.4626 13.7966V13.7527C10.4626 13.7527 10.448 13.7381 10.448 13.7235V13.5919C10.448 12.0492 11.6982 10.7989 13.2336 10.7989C14.769 10.7989 16.0266 12.0492 16.0266 13.5919V13.7381H16.0339ZM19.5068 4.18211V4.05051L19.5214 4.03588C19.5872 2.57361 20.8082 1.40379 22.307 1.40379C23.8059 1.40379 25.0927 2.65403 25.0927 4.18942C25.0927 4.89863 24.8368 5.54934 24.3908 6.03189C23.879 6.62411 23.1405 6.98968 22.307 6.98968C20.7643 6.98968 19.5141 5.73944 19.5141 4.19673L19.5068 4.18211ZM25.0854 27.0741C25.0854 28.6168 23.8351 29.867 22.2997 29.867C20.7643 29.867 19.5068 28.6168 19.5068 27.0741C19.5068 26.3722 19.7627 25.7288 20.2087 25.2316C20.7205 24.6394 21.4735 24.2738 22.307 24.2738C23.1405 24.2738 23.879 24.6394 24.3908 25.2316C24.8368 25.7288 25.0927 26.3722 25.0927 27.0741H25.0854ZM22.2997 18.4174C21.4662 18.4174 20.7132 18.0518 20.2014 17.4596C19.7554 16.977 19.4995 16.3336 19.4995 15.6317C19.4995 14.9298 19.7554 14.2718 20.2014 13.7893C20.7132 13.1971 21.4662 12.8315 22.2997 12.8315C23.1332 12.8315 23.8717 13.1971 24.3835 13.7893C24.8295 14.2718 25.0854 14.9152 25.0854 15.6317C25.0854 16.3483 24.8295 16.977 24.3835 17.4596C23.8717 18.0518 23.1332 18.4174 22.2997 18.4174Z" fill="#DE7330"/>
<path d="M16.0337 13.5919V13.7381L16.019 13.7527V13.7966C16.019 13.8405 16.019 13.8917 16.0044 13.9282C16.0044 13.994 15.9898 14.0745 15.9752 14.1403C15.9752 14.1841 15.9605 14.2207 15.9459 14.2645C15.9167 14.345 15.8947 14.44 15.8655 14.5204C15.8362 14.6009 15.8143 14.6813 15.7704 14.7617C15.7266 14.8421 15.69 14.9226 15.6461 14.9884C15.595 15.0688 15.5511 15.1492 15.4999 15.215C15.4049 15.3393 15.3098 15.4563 15.2075 15.566C15.127 15.6464 15.0466 15.7122 14.9662 15.778C14.8346 15.8877 14.681 15.9827 14.5348 16.0631C14.374 16.1436 14.2131 16.2094 14.0376 16.2679C13.928 16.3117 13.811 16.3337 13.7013 16.3483C13.5551 16.3775 13.3942 16.3922 13.2334 16.3922C13.0725 16.3922 12.9117 16.3775 12.7655 16.3483C12.6558 16.3337 12.5388 16.3044 12.4291 16.2679C12.2975 16.224 12.144 16.1728 12.027 16.107C11.9173 16.0558 11.815 15.9973 11.7199 15.9315C11.6688 15.9023 11.6103 15.8657 11.5591 15.8072C11.464 15.7414 11.369 15.661 11.2739 15.566C11.1643 15.4563 11.0692 15.3393 10.9815 15.215C10.9303 15.1492 10.8718 15.0688 10.8353 14.9884C10.7914 14.9226 10.7548 14.8421 10.711 14.7617C10.6817 14.6813 10.6452 14.6009 10.6159 14.5204C10.572 14.44 10.5501 14.345 10.5355 14.2645C10.5209 14.2207 10.5062 14.1841 10.5062 14.1403C10.4916 14.0745 10.477 13.994 10.477 13.9282C10.4624 13.8844 10.4624 13.8332 10.4624 13.7966V13.7527C10.4624 13.7527 10.4478 13.7381 10.4478 13.7235V13.5919C10.4478 12.0492 11.698 10.799 13.2334 10.799C14.7688 10.799 16.0263 12.0492 16.0263 13.5919H16.0337Z" fill="#F5C246"/>
<path d="M6.98969 4.05794V4.18223C6.98969 5.72493 5.73945 6.97518 4.19674 6.97518C3.36325 6.97518 2.61017 6.60961 2.09838 6.01739C1.65238 5.53484 1.39648 4.89144 1.39648 4.17492C1.39648 2.63953 2.64673 1.38928 4.18943 1.38928C5.73214 1.38928 6.91658 2.57373 6.98238 4.05063L6.98969 4.05794Z" fill="#F5C246"/>
<path fill-rule="evenodd" clip-rule="evenodd" d="M25.0854 4.18215C25.0854 4.89135 24.8295 5.54207 24.3835 6.02462C23.8717 6.61684 23.1333 6.98241 22.2998 6.98241C20.7571 6.98241 19.5068 5.73216 19.5068 4.18946V4.05785L19.5215 4.04323C19.5873 2.58095 20.8083 1.41113 22.3071 1.41113C23.8059 1.41113 25.0927 2.66138 25.0927 4.19677L25.0854 4.18215Z" fill="#F5C246"/>
<path fill-rule="evenodd" clip-rule="evenodd" d="M25.0854 27.0741C25.0854 28.6168 23.8352 29.867 22.2998 29.867C20.7644 29.867 19.5068 28.6168 19.5068 27.0741C19.5068 26.3722 19.7627 25.7288 20.2087 25.2316C20.7205 24.6394 21.4736 24.2738 22.3071 24.2738C23.1406 24.2738 23.879 24.6394 24.3908 25.2316C24.8368 25.7288 25.0927 26.3722 25.0927 27.0741H25.0854Z" fill="#F5C246"/>
<path fill-rule="evenodd" clip-rule="evenodd" d="M25.0854 15.6318C25.0854 16.3337 24.8295 16.9771 24.3835 17.4596C23.8717 18.0519 23.1333 18.4174 22.2998 18.4174C21.4663 18.4174 20.7132 18.0519 20.2014 17.4596C19.7554 16.9771 19.4995 16.3337 19.4995 15.6318C19.4995 14.9299 19.7554 14.2719 20.2014 13.7893C20.7132 13.1971 21.4663 12.8315 22.2998 12.8315C23.1333 12.8315 23.8717 13.1971 24.3835 13.7893C24.8295 14.2719 25.0854 14.9153 25.0854 15.6318Z" fill="#F5C246"/>
<path fill-rule="evenodd" clip-rule="evenodd" d="M6.98971 27.0741C6.98971 28.6168 5.73946 29.867 4.19676 29.867C2.65406 29.867 1.40381 28.6168 1.40381 27.0741C1.40381 26.9278 1.41843 26.7889 1.43305 26.6573C1.44768 26.6061 1.4623 26.5477 1.4623 26.5111C1.50617 26.3649 1.54272 26.2186 1.5939 26.0797C1.64508 25.9189 1.72551 25.7727 1.80593 25.6337C1.88636 25.4875 1.99603 25.3486 2.09839 25.2316C2.42009 24.8587 2.83684 24.5882 3.29746 24.4274C3.39251 24.3981 3.50218 24.3762 3.58991 24.3469C3.78001 24.3031 3.99204 24.2811 4.19676 24.2811C4.40148 24.2811 4.61351 24.3104 4.8036 24.3469C4.89865 24.3762 5.00832 24.3981 5.09606 24.4274C5.55667 24.5882 5.97342 24.8587 6.29512 25.2316C6.4048 25.3559 6.50716 25.4875 6.58758 25.6337C6.66801 25.7653 6.74843 25.9189 6.79961 26.0797C6.85079 26.2113 6.89466 26.3649 6.93121 26.5111C6.93121 26.555 6.94584 26.6061 6.96046 26.6573C6.97508 26.7889 6.98971 26.9278 6.98971 27.0741Z" fill="#F5C246"/>
<path fill-rule="evenodd" clip-rule="evenodd" d="M6.98971 15.6318C6.98971 15.778 6.97508 15.917 6.96046 16.0486C6.94584 16.0997 6.93121 16.1582 6.93121 16.1948C6.88735 16.341 6.85079 16.4872 6.79961 16.6262C6.74843 16.787 6.66801 16.9186 6.58758 17.0722C6.50716 17.2038 6.39748 17.3427 6.29512 17.4597C5.78333 18.0519 5.03026 18.4175 4.19676 18.4175C3.36326 18.4175 2.61019 18.0519 2.09839 17.4597C1.98872 17.3354 1.88636 17.2038 1.80593 17.0722C1.72551 16.9259 1.64508 16.787 1.5939 16.6262C1.54272 16.4946 1.49886 16.341 1.4623 16.1948C1.4623 16.1509 1.44768 16.0997 1.43305 16.0486C1.41843 15.917 1.40381 15.778 1.40381 15.6318C1.40381 15.5002 1.41843 15.3613 1.43305 15.2297C1.44768 15.1785 1.44768 15.12 1.4623 15.0688V15.0542C1.50617 14.908 1.54272 14.7618 1.5939 14.6228C1.64508 14.4766 1.72551 14.3304 1.80593 14.1769C1.88636 14.0452 1.99603 13.9063 2.09839 13.7893C2.42009 13.4238 2.83684 13.1459 3.29746 12.9851C3.39251 12.9558 3.50218 12.9339 3.58991 12.9047C3.78001 12.8608 3.99204 12.8389 4.19676 12.8389C4.40148 12.8389 4.61351 12.8681 4.8036 12.9047C4.89865 12.9339 5.00832 12.9558 5.09606 12.9851C5.55667 13.1459 5.97342 13.4311 6.29512 13.7893C6.4048 13.9136 6.50716 14.0452 6.58758 14.1769C6.66801 14.3231 6.74843 14.4693 6.79961 14.6228C6.85079 14.7545 6.89466 14.908 6.93121 15.0542V15.0688C6.94584 15.12 6.94584 15.1785 6.96046 15.2297C6.97508 15.354 6.98971 15.5002 6.98971 15.6318Z" fill="#F5C246"/>
<path d="M48.7596 24.7197H47.1803C47.1803 22.5921 45.5499 21.4077 44.0364 21.203L44.2484 19.6383C46.9025 19.9966 48.7596 22.0876 48.7596 24.7197ZM40.8121 20.0478C38.9184 18.9072 37.4708 17.1817 36.5276 14.9225L37.9826 14.3156C38.8088 16.2897 40.0005 17.7227 41.6237 18.6952L40.8121 20.0478ZM35.5771 11.7567C35.2116 9.94344 35.0288 7.90356 35.0142 5.32996H36.5934C36.608 7.79389 36.7762 9.73872 37.1198 11.4423L35.5771 11.7567Z" fill="#DE7330"/>
<path d="M49.0081 30.8321H30.2544C29.7938 30.8321 29.4209 30.4593 29.4209 29.9987V1.68897C29.4209 1.22835 29.7938 0.855469 30.2544 0.855469H32.7768C33.2374 0.855469 33.6103 1.22835 33.6103 1.68897V26.6427H49.0081C49.4687 26.6427 49.8416 27.0156 49.8416 27.4762V29.9987C49.8416 30.4593 49.4687 30.8321 49.0081 30.8321Z" fill="#DE7330"/>
<path d="M39.6352 9.27807C40.2692 9.27807 40.7831 8.76415 40.7831 8.13019C40.7831 7.49623 40.2692 6.9823 39.6352 6.9823C39.0012 6.9823 38.4873 7.49623 38.4873 8.13019C38.4873 8.76415 39.0012 9.27807 39.6352 9.27807Z" fill="#F5C246"/>
<path d="M46.5517 18.6732C47.1857 18.6732 47.6996 18.1593 47.6996 17.5253C47.6996 16.8914 47.1857 16.3774 46.5517 16.3774C45.9177 16.3774 45.4038 16.8914 45.4038 17.5253C45.4038 18.1593 45.9177 18.6732 46.5517 18.6732Z" fill="#F5C246"/>
<path d="M41.8867 15.0031C42.5206 15.0031 43.0345 14.4891 43.0345 13.8552C43.0345 13.2212 42.5206 12.7073 41.8867 12.7073C41.2527 12.7073 40.7388 13.2212 40.7388 13.8552C40.7388 14.4891 41.2527 15.0031 41.8867 15.0031Z" fill="#F5C246"/>
<path fill-rule="evenodd" clip-rule="evenodd" d="M36.9445 19.1119C37.0688 19.1119 37.1785 19.1924 37.215 19.3093L37.3686 19.7627C37.4271 19.9308 37.5587 20.0697 37.7341 20.1282L38.1874 20.2818C38.341 20.3329 38.4214 20.4938 38.3702 20.6473C38.341 20.7351 38.2752 20.8009 38.1874 20.8301L37.7341 20.9837C37.566 21.0421 37.4271 21.1737 37.3686 21.3492L37.215 21.8025C37.1639 21.9561 37.003 22.0365 36.8495 21.9853C36.7617 21.9561 36.6959 21.8903 36.6667 21.8025L36.5131 21.3492C36.4546 21.1811 36.323 21.0421 36.1476 20.9837L35.6943 20.8301C35.5407 20.7789 35.4603 20.6181 35.5115 20.4645C35.5407 20.3768 35.6065 20.311 35.6943 20.2818L36.1476 20.1282C36.3157 20.0697 36.4546 19.9381 36.5131 19.7627L36.6667 19.3093C36.7032 19.1924 36.8129 19.1119 36.9372 19.1119H36.9445Z" fill="#F5C246"/>
<path fill-rule="evenodd" clip-rule="evenodd" d="M44.3288 22.6068C44.4531 22.6068 44.5628 22.6872 44.5993 22.8042L44.7529 23.2575C44.8113 23.4257 44.9429 23.5646 45.1184 23.6231L45.5717 23.7766C45.7253 23.8278 45.8057 23.9887 45.7545 24.1422C45.7253 24.2299 45.6595 24.2957 45.5717 24.325L45.1184 24.4785C44.9503 24.537 44.8113 24.6686 44.7529 24.8441L44.5993 25.2974C44.5481 25.4509 44.3873 25.5314 44.2337 25.4802C44.146 25.4509 44.0802 25.3851 44.051 25.2974L43.8974 24.8441C43.8389 24.6759 43.7073 24.537 43.5319 24.4785L43.0785 24.325C42.925 24.2738 42.8446 24.113 42.8958 23.9594C42.925 23.8717 42.9908 23.8059 43.0785 23.7766L43.5319 23.6231C43.7 23.5646 43.8389 23.433 43.8974 23.2575L44.051 22.8042C44.0875 22.6872 44.1972 22.6068 44.3215 22.6068H44.3288Z" fill="#F5C246"/>
<path fill-rule="evenodd" clip-rule="evenodd" d="M40.4538 21.415C40.5781 21.415 40.6878 21.4955 40.7243 21.6124L40.8779 22.0658C40.9363 22.2339 41.0679 22.3728 41.2434 22.4313L41.6967 22.5849C41.8503 22.636 41.9307 22.7969 41.8795 22.9504C41.8503 23.0382 41.7845 23.104 41.6967 23.1332L41.2434 23.2868C41.0753 23.3452 40.9363 23.4768 40.8779 23.6523L40.7243 24.1056C40.6731 24.2592 40.5123 24.3396 40.3587 24.2884C40.271 24.2592 40.2052 24.1934 40.176 24.1056L40.0224 23.6523C39.9639 23.4842 39.8323 23.3452 39.6569 23.2868L39.2035 23.1332C39.05 23.082 38.9696 22.9212 39.0208 22.7676C39.05 22.6799 39.1158 22.6141 39.2035 22.5849L39.6569 22.4313C39.825 22.3728 39.9639 22.2412 40.0224 22.0658L40.176 21.6124C40.2125 21.4955 40.3222 21.415 40.4465 21.415H40.4538Z" fill="#F5C246"/>
<path d="M74.7662 4.14561C76.5063 5.02298 77.837 6.26591 78.7729 7.8598C79.7014 9.45368 80.1693 11.2961 80.1693 13.3872C80.1693 15.0688 79.8769 16.6481 79.292 18.1469C78.707 19.6384 77.8662 20.8448 76.7622 21.766C75.6582 22.6873 74.3495 23.1479 72.836 23.1479C71.7685 23.1479 70.9131 22.9286 70.2551 22.4899C69.5971 22.0512 69.1803 21.4224 68.9975 20.6035C68.3907 21.4151 67.6011 22.0585 66.636 22.5191C65.6709 22.9797 64.5815 23.2064 63.5067 23.1771C62.0517 23.1333 60.9038 22.6727 60.063 21.7807C59.1857 20.8521 58.7397 19.5726 58.7397 17.9568C58.7397 16.341 59.054 14.9884 59.6901 13.6577C60.3262 12.3271 61.2036 11.2596 62.3295 10.448C63.4555 9.63646 64.7204 9.23434 66.1388 9.23434C67.9008 9.23434 69.1072 9.84849 69.7579 11.0768L69.9041 10.2214C69.9773 9.79 70.3501 9.48292 70.7888 9.48292H72.5655C73.1212 9.48292 73.5452 9.9801 73.4429 10.5285L72.1853 17.7667C72.1268 18.1542 72.0902 18.5125 72.0902 18.8415C72.0902 19.3314 72.1926 19.7042 72.3973 19.9455C72.602 20.1941 72.953 20.3111 73.4429 20.3111C74.1813 20.3111 74.7955 19.9601 75.2999 19.2656C75.8044 18.571 76.1773 17.7009 76.4332 16.6554C76.6891 15.6099 76.8134 14.5716 76.8134 13.5261C76.8134 11.0476 76.053 9.13198 74.5396 7.77206C73.0261 6.41214 70.8839 5.73218 68.1275 5.73218C65.7732 5.73218 63.6456 6.30247 61.7446 7.43574C59.8437 8.569 58.3522 10.119 57.2774 12.0712C56.2026 14.0233 55.6689 16.2021 55.6689 18.5929C55.6689 21.13 56.422 23.0821 57.9281 24.4566C59.4342 25.8239 61.5619 26.5111 64.3256 26.5111C65.9048 26.5111 67.3378 26.2845 68.6247 25.8312C69.1364 25.6484 69.6848 25.9482 69.8018 26.4746L70.0284 27.5128C70.1235 27.9442 69.8895 28.3902 69.4801 28.5364C67.7254 29.1725 65.8025 29.4869 63.7114 29.4869C61.4229 29.4869 59.4123 29.0555 57.6941 28.1854C55.976 27.3154 54.6453 26.0798 53.7021 24.4859C52.7589 22.892 52.291 21.0349 52.291 18.9292C52.291 15.9243 52.9929 13.1898 54.3967 10.7332C55.8005 8.27655 57.7453 6.34634 60.2312 4.93524C62.7171 3.52415 65.5027 2.81494 68.5954 2.81494C70.9716 2.81494 73.0261 3.25362 74.7662 4.1383V4.14561ZM67.0893 19.3387C67.7034 18.9073 68.186 18.337 68.5442 17.6205C68.9025 16.904 69.078 16.1363 69.078 15.3174C69.078 14.4547 68.844 13.7601 68.3688 13.2337C67.9008 12.6999 67.2428 12.4367 66.402 12.4367C65.6416 12.4367 64.9763 12.6634 64.406 13.124C63.8357 13.5846 63.3897 14.1841 63.068 14.9226C62.7463 15.661 62.5928 16.436 62.5928 17.2549C62.5928 18.0738 62.7975 18.7611 63.2069 19.2509C63.6164 19.7408 64.2305 19.9894 65.0494 19.9894C65.7878 19.9894 66.4605 19.7773 67.0746 19.346L67.0893 19.3387Z" fill="#DE7330"/>
<path d="M87.4077 28.4925C85.9381 27.8637 84.7756 26.9644 83.9275 25.78C83.2987 24.9172 82.8966 23.9375 82.7211 22.8408C82.6115 22.1828 83.1452 21.5978 83.8105 21.5978H87.3273C87.8464 21.5978 88.2705 21.9634 88.4021 22.4679C88.5849 23.1479 88.9139 23.7108 89.411 24.1568C90.0983 24.7856 91.0488 25.1 92.2552 25.1C93.4616 25.1 94.4486 24.8075 95.1505 24.2153C95.8524 23.6231 96.2033 22.8554 96.2033 21.8976C96.2033 21.1226 95.9621 20.4792 95.4868 19.9747C95.0116 19.4702 94.412 19.0754 93.6955 18.7903C92.979 18.5051 91.992 18.1834 90.7417 17.8325C89.0382 17.328 87.649 16.8381 86.5815 16.3483C85.5141 15.8584 84.6002 15.12 83.8325 14.1256C83.0648 13.1313 82.6846 11.8079 82.6846 10.1555C82.6846 8.59821 83.0721 7.2456 83.8544 6.0904C84.6294 4.9352 85.7261 4.05053 87.1299 3.43637C88.5337 2.82221 90.1422 2.51514 91.9481 2.51514C94.6606 2.51514 96.8614 3.17316 98.5576 4.48921C99.9248 5.55667 100.802 6.96046 101.175 8.70788C101.321 9.38053 100.78 10.002 100.093 10.002H96.4885C96.0205 10.002 95.5672 9.71685 95.4356 9.26354C95.2675 8.67863 94.9238 8.18146 94.412 7.7574C93.6955 7.16518 92.7523 6.87272 91.5679 6.87272C90.537 6.87272 89.7181 7.13593 89.104 7.66235C88.4898 8.18877 88.1827 8.95647 88.1827 9.95813C88.1827 10.66 88.4167 11.2449 88.8773 11.7055C89.3379 12.1735 89.9155 12.5464 90.6101 12.8315C91.2974 13.124 92.2698 13.453 93.5274 13.8258C95.2309 14.3303 96.6274 14.8275 97.7095 15.332C98.7916 15.8365 99.7201 16.5895 100.495 17.5912C101.27 18.5929 101.665 19.9162 101.665 21.5467C101.665 22.9505 101.299 24.2592 100.576 25.4656C99.8444 26.6719 98.7769 27.6297 97.3731 28.3463C95.9694 29.0628 94.2951 29.421 92.3648 29.421C90.5297 29.421 88.8846 29.1066 87.415 28.4779L87.4077 28.4925Z" fill="#F5C246"/>
<path d="M118.247 2.89539C118.854 2.89539 119.344 3.38525 119.344 3.99209V21.342C119.344 23.901 118.605 25.8897 117.121 27.3081C115.637 28.7265 113.656 29.4357 111.17 29.4357C108.684 29.4357 106.629 28.7046 105.087 27.2496C103.793 26.0286 103.039 24.3982 102.827 22.3583C102.762 21.7149 103.281 21.1519 103.924 21.1519H107.002C107.543 21.1519 108.033 21.5248 108.121 22.0585C108.238 22.7604 108.479 23.338 108.852 23.784C109.364 24.4128 110.117 24.7272 111.089 24.7272C112.062 24.7272 112.771 24.4274 113.275 23.8206C113.78 23.221 114.028 22.3875 114.028 21.3347V3.99209C114.028 3.38525 114.518 2.89539 115.125 2.89539H118.24H118.247Z" fill="#F5C246"/>
<path d="M125.946 28.4925C124.476 27.8637 123.314 26.9644 122.466 25.78C121.837 24.9172 121.435 23.9375 121.259 22.8408C121.15 22.1828 121.683 21.5978 122.349 21.5978H125.865C126.384 21.5978 126.809 21.9634 126.94 22.4679C127.123 23.1479 127.452 23.7108 127.949 24.1568C128.636 24.7856 129.587 25.1 130.793 25.1C132 25.1 132.987 24.8075 133.689 24.2153C134.39 23.6231 134.741 22.8554 134.741 21.8976C134.741 21.1226 134.5 20.4792 134.025 19.9747C133.55 19.4702 132.95 19.0754 132.234 18.7903C131.517 18.5051 130.53 18.1834 129.28 17.8325C127.576 17.328 126.187 16.8381 125.12 16.3483C124.052 15.8584 123.138 15.12 122.371 14.1256C121.603 13.1313 121.223 11.8079 121.223 10.1555C121.223 8.59821 121.61 7.2456 122.392 6.0904C123.167 4.9352 124.264 4.05053 125.668 3.43637C127.072 2.82221 128.68 2.51514 130.486 2.51514C133.199 2.51514 135.399 3.17316 137.096 4.48921C138.463 5.55667 139.34 6.96046 139.713 8.70788C139.859 9.38053 139.318 10.002 138.631 10.002H135.027C134.559 10.002 134.105 9.71685 133.974 9.26354C133.806 8.67863 133.462 8.18146 132.95 7.7574C132.234 7.16518 131.29 6.87272 130.106 6.87272C129.075 6.87272 128.256 7.13593 127.642 7.66235C127.028 8.18877 126.721 8.95647 126.721 9.95813C126.721 10.66 126.955 11.2449 127.415 11.7055C127.876 12.1735 128.454 12.5464 129.148 12.8315C129.835 13.124 130.808 13.453 132.065 13.8258C133.769 14.3303 135.165 14.8275 136.248 15.332C137.33 15.8365 138.258 16.5895 139.033 17.5912C139.808 18.5929 140.203 19.9162 140.203 21.5467C140.203 22.9505 139.837 24.2592 139.114 25.4656C138.382 26.6719 137.315 27.6297 135.911 28.3463C134.507 29.0628 132.833 29.421 130.903 29.421C129.068 29.421 127.423 29.1066 125.953 28.4779L125.946 28.4925Z" fill="#F5C246"/>
<path d="M145.928 2.89539C146.535 2.89539 147.025 3.38525 147.025 3.99209V19.1632C147.025 20.9472 147.486 22.3071 148.421 23.2503C149.35 24.1935 150.651 24.6614 152.34 24.6614C154.029 24.6614 155.367 24.1935 156.296 23.2503C157.224 22.3071 157.692 20.9472 157.692 19.1632V3.99209C157.692 3.38525 158.182 2.89539 158.789 2.89539H161.904C162.51 2.89539 163 3.38525 163 3.99209V19.1193C163 21.3566 162.518 23.243 161.553 24.7857C160.588 26.3284 159.293 27.4909 157.678 28.2659C156.062 29.0409 154.256 29.4357 152.275 29.4357C150.293 29.4357 148.538 29.0482 146.945 28.2659C145.351 27.4909 144.086 26.3284 143.157 24.7857C142.229 23.243 141.761 21.3566 141.761 19.1193V3.99209C141.761 3.38525 142.251 2.89539 142.857 2.89539H145.936H145.928Z" fill="#F5C246"/>
</svg>
